<svg width="36" height="25" viewBox="0 0 36 25" fill="none" xmlns="http://www.w3.org/2000/svg">
<path d="M18.3205 14.6013C18.094 14.6013 17.8706 14.5659 17.6485 14.4937L7.35191 11.0597C7.16527 11.5448 7.07184 12.1699 7.07184 13.0822C7.74379 13.4712 8.39868 14.2532 8.39868 15.6013C8.39868 16.4273 7.98557 17.0211 7.63067 17.4158C9.15816 19.1879 13.3616 20.4623 18.3218 20.4623C24.572 20.4623 29.6367 18.4398 29.6367 15.9492C29.6367 15.3989 29.6367 13.1515 29.6367 10.9451L18.9893 14.4937C18.7701 14.5659 18.5467 14.6013 18.3205 14.6013Z" fill="#737373"/>
<path d="M35.5162 5.69356L18.5438 0.0361031C18.3968 -0.0120344 18.2425 -0.0120344 18.0968 0.0361031L1.12445 5.69356C0.836059 5.78984 0.640884 6.05984 0.640884 6.36398C0.640884 6.66813 0.836059 6.93835 1.12445 7.03441L5.01548 8.33149C4.12012 9.36951 3.59958 10.8333 3.40879 13.2153C2.7935 13.5052 2.35917 14.1233 2.35917 14.8502C2.35917 15.59 2.80335 16.2192 3.43701 16.5037C2.88409 21.3196 0 22.9248 0 23.3364C0 23.5458 2.23336 24.7507 2.76374 24.7507C3.58405 24.7507 5.55287 23.3591 5.55287 20.3536C5.55287 18.5828 5.39314 17.2448 5.22488 16.2956C5.67868 15.9661 5.9942 15.4556 5.9942 14.8502C5.9942 14.1896 5.62508 13.6382 5.09753 13.3198C5.39598 9.38942 6.6108 8.73169 9.54981 7.5125C9.8441 7.39653 10.3999 7.1716 10.7211 7.03878C11.2981 6.80116 11.8199 6.58892 12.3206 6.38805C13.9373 5.74586 15.3035 5.22969 16.3459 4.84634C17.4872 4.43914 17.9992 4.29058 18.0176 4.28489C18.4548 4.13785 18.9412 4.37394 19.0913 4.81943C19.2396 5.26361 19.002 5.74454 18.5565 5.89443C18.5226 5.9058 16.537 6.47295 11.3703 8.60872C11.0379 8.74591 10.7211 8.87019 10.4198 8.98901C9.80734 9.231 9.29949 9.42465 8.87391 9.61982L18.0968 12.6934C18.1706 12.7159 18.2441 12.7286 18.3204 12.7286C18.3968 12.7286 18.4703 12.7159 18.5438 12.6919L35.5162 7.03441C35.8048 6.93835 36 6.66813 36 6.36398C36 6.05984 35.8048 5.78984 35.5162 5.69356Z" fill="#737373"/>
</svg>
