<svg width="129" height="29" viewBox="0 0 129 29" fill="none" xmlns="http://www.w3.org/2000/svg">
<path d="M18.3205 14.6013C18.094 14.6013 17.8706 14.5659 17.6485 14.4937L7.35191 11.0597C7.16527 11.5448 7.07184 12.1699 7.07184 13.0822C7.74379 13.4712 8.39868 14.2532 8.39868 15.6013C8.39868 16.4273 7.98557 17.0211 7.63067 17.4158C9.15816 19.1879 13.3616 20.4623 18.3218 20.4623C24.572 20.4623 29.6367 18.4398 29.6367 15.9492C29.6367 15.3989 29.6367 13.1515 29.6367 10.9451L18.9893 14.4937C18.7701 14.5659 18.5467 14.6013 18.3205 14.6013Z" fill="#737373"/>
<path d="M35.5162 5.69356L18.5438 0.0361031C18.3968 -0.0120344 18.2425 -0.0120344 18.0968 0.0361031L1.12445 5.69356C0.836059 5.78984 0.640884 6.05984 0.640884 6.36398C0.640884 6.66813 0.836059 6.93835 1.12445 7.03441L5.01548 8.33149C4.12012 9.36951 3.59958 10.8333 3.40879 13.2153C2.7935 13.5052 2.35917 14.1233 2.35917 14.8502C2.35917 15.59 2.80335 16.2192 3.43701 16.5037C2.88409 21.3196 0 22.9248 0 23.3364C0 23.5458 2.23336 24.7507 2.76374 24.7507C3.58405 24.7507 5.55287 23.3591 5.55287 20.3536C5.55287 18.5828 5.39314 17.2448 5.22488 16.2956C5.67868 15.9661 5.9942 15.4556 5.9942 14.8502C5.9942 14.1896 5.62508 13.6382 5.09753 13.3198C5.39598 9.38942 6.6108 8.73169 9.54981 7.5125C9.8441 7.39653 10.3999 7.1716 10.7211 7.03878C11.2981 6.80116 11.8199 6.58892 12.3206 6.38805C13.9373 5.74586 15.3035 5.22969 16.3459 4.84634C17.4872 4.43914 17.9992 4.29058 18.0176 4.28489C18.4548 4.13785 18.9412 4.37394 19.0913 4.81943C19.2396 5.26361 19.002 5.74454 18.5565 5.89443C18.5226 5.9058 16.537 6.47295 11.3703 8.60872C11.0379 8.74591 10.7211 8.87019 10.4198 8.98901C9.80734 9.231 9.29949 9.42465 8.87391 9.61982L18.0968 12.6934C18.1706 12.7159 18.2441 12.7286 18.3204 12.7286C18.3968 12.7286 18.4703 12.7159 18.5438 12.6919L35.5162 7.03441C35.8048 6.93835 36 6.66813 36 6.36398C36 6.05984 35.8048 5.78984 35.5162 5.69356Z" fill="#737373"/>
<path d="M54.8267 24H52.4972L57.7315 9.45455H60.267L65.5014 24H63.1719L59.0597 12.0966H58.946L54.8267 24ZM55.2173 18.304H62.7741V20.1506H55.2173V18.304ZM71.8509 24.2202C70.795 24.2202 69.8859 23.9811 69.1236 23.5028C68.366 23.0199 67.7836 22.3546 67.3764 21.5071C66.9692 20.6596 66.7656 19.6889 66.7656 18.5952C66.7656 17.4872 66.974 16.5095 67.3906 15.6619C67.8073 14.8097 68.3944 14.1444 69.152 13.6662C69.9096 13.188 70.8021 12.9489 71.8295 12.9489C72.6581 12.9489 73.3968 13.1027 74.0455 13.4105C74.6941 13.7135 75.2173 14.1397 75.6151 14.6889C76.0175 15.2382 76.2566 15.8797 76.3324 16.6136H74.2656C74.152 16.1023 73.8916 15.6619 73.4844 15.2926C73.0819 14.9233 72.5421 14.7386 71.8651 14.7386C71.2732 14.7386 70.7547 14.8949 70.3097 15.2074C69.8693 15.5152 69.526 15.9555 69.2798 16.5284C69.0336 17.0966 68.9105 17.7689 68.9105 18.5455C68.9105 19.3409 69.0313 20.0275 69.2727 20.6051C69.5142 21.1828 69.8551 21.6302 70.2955 21.9474C70.7405 22.2647 71.2637 22.4233 71.8651 22.4233C72.2675 22.4233 72.6321 22.3499 72.9588 22.2031C73.2902 22.0516 73.5672 21.8362 73.7898 21.5568C74.017 21.2775 74.1757 20.9413 74.2656 20.5483H76.3324C76.2566 21.2538 76.027 21.8835 75.6435 22.4375C75.2599 22.9915 74.7462 23.4271 74.1023 23.7443C73.4631 24.0616 72.7126 24.2202 71.8509 24.2202ZM80.7269 17.5227V24H78.6033V9.45455H80.6985V14.8665H80.8335C81.0891 14.2794 81.4798 13.813 82.0053 13.4673C82.5309 13.1217 83.2174 12.9489 84.065 12.9489C84.8131 12.9489 85.4665 13.1027 86.0252 13.4105C86.5887 13.7183 87.0243 14.1776 87.332 14.7884C87.6445 15.3944 87.8008 16.152 87.8008 17.0611V24H85.6772V17.3168C85.6772 16.5166 85.4712 15.8963 85.0593 15.456C84.6474 15.0109 84.0745 14.7884 83.3406 14.7884C82.8387 14.7884 82.3888 14.8949 81.9911 15.108C81.5981 15.321 81.288 15.6335 81.0607 16.0455C80.8382 16.4527 80.7269 16.9451 80.7269 17.5227ZM90.6346 24V13.0909H92.7582V24H90.6346ZM91.707 11.4077C91.3377 11.4077 91.0205 11.2846 90.7553 11.0384C90.4949 10.7874 90.3647 10.4891 90.3647 10.1435C90.3647 9.79309 90.4949 9.49479 90.7553 9.24858C91.0205 8.99763 91.3377 8.87216 91.707 8.87216C92.0763 8.87216 92.3912 8.99763 92.6516 9.24858C92.9168 9.49479 93.0494 9.79309 93.0494 10.1435C93.0494 10.4891 92.9168 10.7874 92.6516 11.0384C92.3912 11.2846 92.0763 11.4077 91.707 11.4077ZM100.317 24.2202C99.242 24.2202 98.3163 23.9905 97.5398 23.5312C96.768 23.0672 96.1714 22.4162 95.75 21.5781C95.3333 20.7353 95.125 19.7481 95.125 18.6165C95.125 17.4991 95.3333 16.5142 95.75 15.6619C96.1714 14.8097 96.7585 14.1444 97.5114 13.6662C98.2689 13.188 99.1544 12.9489 100.168 12.9489C100.783 12.9489 101.38 13.0507 101.957 13.2543C102.535 13.4579 103.054 13.7775 103.513 14.2131C103.972 14.6487 104.334 15.2145 104.599 15.9105C104.865 16.6018 104.997 17.4422 104.997 18.4318V19.1847H96.3253V17.5938H102.916C102.916 17.035 102.803 16.5402 102.575 16.1094C102.348 15.6738 102.028 15.3305 101.616 15.0795C101.209 14.8286 100.731 14.7031 100.182 14.7031C99.5852 14.7031 99.0644 14.8499 98.6193 15.1435C98.179 15.4323 97.8381 15.8111 97.5966 16.2798C97.3598 16.7438 97.2415 17.2481 97.2415 17.7926V19.0355C97.2415 19.7647 97.3693 20.3849 97.625 20.8963C97.8854 21.4077 98.2476 21.7983 98.7116 22.0682C99.1757 22.3333 99.7178 22.4659 100.338 22.4659C100.741 22.4659 101.107 22.4091 101.439 22.2955C101.77 22.1771 102.057 22.0019 102.298 21.7699C102.54 21.5379 102.724 21.2514 102.852 20.9105L104.862 21.2727C104.701 21.8646 104.412 22.383 103.996 22.8281C103.584 23.2685 103.065 23.6117 102.44 23.858C101.82 24.0994 101.112 24.2202 100.317 24.2202ZM116.373 13.0909L112.417 24H110.145L106.181 13.0909H108.461L111.224 21.4858H111.338L114.093 13.0909H116.373ZM122.7 24.2202C121.625 24.2202 120.699 23.9905 119.923 23.5312C119.151 23.0672 118.554 22.4162 118.133 21.5781C117.716 20.7353 117.508 19.7481 117.508 18.6165C117.508 17.4991 117.716 16.5142 118.133 15.6619C118.554 14.8097 119.141 14.1444 119.894 13.6662C120.652 13.188 121.537 12.9489 122.55 12.9489C123.166 12.9489 123.763 13.0507 124.34 13.2543C124.918 13.4579 125.436 13.7775 125.896 14.2131C126.355 14.6487 126.717 15.2145 126.982 15.9105C127.247 16.6018 127.38 17.4422 127.38 18.4318V19.1847H118.708V17.5938H125.299C125.299 17.035 125.185 16.5402 124.958 16.1094C124.731 15.6738 124.411 15.3305 123.999 15.0795C123.592 14.8286 123.114 14.7031 122.565 14.7031C121.968 14.7031 121.447 14.8499 121.002 15.1435C120.562 15.4323 120.221 15.8111 119.979 16.2798C119.743 16.7438 119.624 17.2481 119.624 17.7926V19.0355C119.624 19.7647 119.752 20.3849 120.008 20.8963C120.268 21.4077 120.63 21.7983 121.094 22.0682C121.558 22.3333 122.101 22.4659 122.721 22.4659C123.123 22.4659 123.49 22.4091 123.822 22.2955C124.153 22.1771 124.44 22.0019 124.681 21.7699C124.923 21.5379 125.107 21.2514 125.235 20.9105L127.245 21.2727C127.084 21.8646 126.795 22.383 126.379 22.8281C125.967 23.2685 125.448 23.6117 124.823 23.858C124.203 24.0994 123.495 24.2202 122.7 24.2202Z" fill="#737373"/>
</svg>
