<svg width="101" height="24" viewBox="0 0 101 24" fill="none" xmlns="http://www.w3.org/2000/svg">
<mask id="mask0_484_1949" style="mask-type:luminance" maskUnits="userSpaceOnUse" x="17" y="6" width="9" height="9">
<path d="M17.0171 6.80286H26V14.3005H17.0171V6.80286Z" fill="white"/>
</mask>
<g mask="url(#mask0_484_1949)">
<path d="M25.4723 7.37775C25.0688 6.88698 24.4261 6.60316 23.8785 7.0352C23.7393 7.14491 23.6004 7.25478 23.461 7.36465C22.7696 7.91011 22.0784 8.45558 21.3871 9.0012C20.5894 9.63081 19.7915 10.2603 18.9934 10.8899C18.7211 11.1049 18.4489 11.3198 18.1764 11.5348C18.0669 11.6209 17.9006 11.7107 17.8274 11.8353C17.6484 12.1415 17.5585 12.5374 17.4336 12.8674C17.3054 13.2055 17.1774 13.5441 17.0493 13.8822C16.9805 14.0636 17.1616 14.3164 17.3607 14.291C18.0569 14.2018 18.7533 14.1128 19.4496 14.0237C19.4915 14.0183 19.5287 14.0065 19.5619 13.99C19.6013 13.9782 19.6407 13.9585 19.678 13.929C20.8643 12.9931 22.0505 12.0568 23.2369 11.1208C23.9209 10.5811 24.6044 10.0418 25.2882 9.50217C25.4198 9.39861 25.551 9.29473 25.6825 9.19101C26.3172 8.6902 25.8691 7.85946 25.4723 7.37775Z" fill="#737373"/>
</g>
<mask id="mask1_484_1949" style="mask-type:luminance" maskUnits="userSpaceOnUse" x="0" y="2" width="22" height="21">
<path d="M0 2H21.4908V22.3805H0V2Z" fill="white"/>
</mask>
<g mask="url(#mask1_484_1949)">
<path d="M21.4541 14.1402C21.4541 13.6979 20.7686 13.6979 20.7686 14.1402C20.7686 14.7727 20.7686 15.4054 20.7686 16.0379C20.7686 17.2088 19.8243 18.1469 18.6596 18.1647C17.9078 18.1764 17.1546 18.1647 16.4026 18.1647C13.0519 18.1647 9.70123 18.1647 6.35061 18.1647C5.53152 18.1647 4.71243 18.1647 3.89334 18.1647C3.71422 18.1647 3.61017 18.2994 3.49609 18.4133C3.28396 18.6256 3.07166 18.8379 2.85921 19.0503C2.24594 19.6636 1.63235 20.277 1.01909 20.8903C0.907923 21.0015 0.796597 21.1126 0.685433 21.2241C0.685433 19.1338 0.685433 17.0439 0.685433 14.9539C0.685433 12.1491 0.685433 9.34409 0.685433 6.53925C0.685433 6.02712 0.685433 5.51498 0.685433 5.00301C0.685433 4.26968 0.910512 3.63279 1.48753 3.14785C2.21115 2.53944 3.33089 2.69672 4.21308 2.69672C7.50351 2.69672 10.7941 2.69672 14.0847 2.69672C15.3845 2.69672 16.6842 2.69672 17.984 2.69672C18.2078 2.69672 18.4319 2.69672 18.6559 2.69672C19.7869 2.69672 20.7161 3.60577 20.7677 4.72955C20.8178 5.82 20.7686 6.92274 20.7686 8.01448C20.7686 8.45671 21.4541 8.45671 21.4541 8.01448C21.4541 7.37112 21.4541 6.7276 21.4541 6.08407C21.4541 5.37405 21.533 4.5959 21.3076 3.91224C20.9371 2.78733 19.8364 2.01128 18.6575 2.01128C18.441 2.01128 18.2243 2.01128 18.0078 2.01128C14.9289 2.01128 11.8501 2.01128 8.77114 2.01128C7.2629 2.01128 5.75449 2.01128 4.24609 2.01128C3.29788 2.01128 2.28931 1.90174 1.4254 2.36905C0.529608 2.85351 0 3.84105 0 4.84428C0 5.23651 0 5.6289 0 6.02113C0 7.68973 0 9.35849 0 11.0269C0 13.1737 0 15.3201 0 17.4669C0 18.995 0 20.5231 0 22.0513C0 22.3503 0.373461 22.5052 0.584948 22.2938C1.73284 21.1458 2.88056 19.9982 4.02845 18.8502C6.39769 18.8502 8.7671 18.8502 11.1363 18.8502C13.642 18.8502 16.1475 18.8502 18.653 18.8502C20.0028 18.8502 21.1881 17.8536 21.4135 16.5225C21.4817 16.1183 21.4541 15.6949 21.4541 15.2866C21.4541 14.9044 21.4541 14.5222 21.4541 14.1402Z" fill="#737373"/>
</g>
<path d="M17.5751 5.93384C15.0735 5.93384 12.5718 5.93384 10.0698 5.93384C7.98717 5.93384 5.9045 5.93384 3.82182 5.93384C2.93769 5.93384 2.93769 7.30487 3.82182 7.30487C6.32343 7.30487 8.82519 7.30487 11.327 7.30487C13.4098 7.30487 15.4925 7.30487 17.5751 7.30487C18.4594 7.30487 18.4594 5.93384 17.5751 5.93384Z" fill="#737373"/>
<path d="M15.592 13.6072C12.9315 13.6072 10.271 13.6072 7.61031 13.6072C6.34738 13.6072 5.08476 13.6072 3.82182 13.6072C2.93769 13.6072 2.93769 14.9782 3.82182 14.9782C6.48233 14.9782 9.14299 14.9782 11.8035 14.9782C13.0664 14.9782 14.3294 14.9782 15.592 14.9782C16.4763 14.9782 16.4763 13.6072 15.592 13.6072Z" fill="#737373"/>
<path d="M15.592 9.87244C12.9315 9.87244 10.271 9.87244 7.61031 9.87244C6.34738 9.87244 5.08476 9.87244 3.82182 9.87244C2.93769 9.87244 2.93769 11.2433 3.82182 11.2433C6.48233 11.2433 9.14299 11.2433 11.8035 11.2433C13.0664 11.2433 14.3294 11.2433 15.592 11.2433C16.4763 11.2433 16.4763 9.87244 15.592 9.87244Z" fill="#737373"/>
<path d="M48.598 19V4.45455H53.9247C54.9569 4.45455 55.8116 4.625 56.4886 4.96591C57.1657 5.30208 57.6723 5.759 58.0085 6.33665C58.3447 6.90956 58.5128 7.55587 58.5128 8.27557C58.5128 8.88163 58.4015 9.39299 58.179 9.80966C57.9564 10.2216 57.6581 10.553 57.2841 10.804C56.9148 11.0502 56.5076 11.2301 56.0625 11.3438V11.4858C56.5455 11.5095 57.0166 11.6657 57.4759 11.9545C57.9399 12.2386 58.3234 12.6435 58.6264 13.169C58.9295 13.6946 59.081 14.3338 59.081 15.0866C59.081 15.83 58.9058 16.4976 58.5554 17.0895C58.2098 17.6766 57.6747 18.143 56.9503 18.4886C56.2259 18.8295 55.3002 19 54.1733 19H48.598ZM50.7926 17.1179H53.9602C55.0114 17.1179 55.7642 16.9143 56.2188 16.5071C56.6733 16.0999 56.9006 15.5909 56.9006 14.9801C56.9006 14.5208 56.7846 14.0994 56.5526 13.7159C56.3205 13.3324 55.9891 13.027 55.5582 12.7997C55.1321 12.5724 54.6255 12.4588 54.0384 12.4588H50.7926V17.1179ZM50.7926 10.7472H53.733C54.2254 10.7472 54.6681 10.6525 55.0611 10.4631C55.4588 10.2737 55.7737 10.0085 56.0057 9.66761C56.2424 9.32197 56.3608 8.91477 56.3608 8.44602C56.3608 7.8447 56.1501 7.34044 55.7287 6.93324C55.3073 6.52604 54.661 6.32244 53.7898 6.32244H50.7926V10.7472ZM63.6371 4.45455V19H61.5135V4.45455H63.6371ZM71.0891 19.2202C70.0664 19.2202 69.1739 18.9858 68.4116 18.517C67.6493 18.0483 67.0574 17.3925 66.636 16.5497C66.2146 15.7069 66.0039 14.7221 66.0039 13.5952C66.0039 12.4635 66.2146 11.474 66.636 10.6264C67.0574 9.77888 67.6493 9.12074 68.4116 8.65199C69.1739 8.18324 70.0664 7.94886 71.0891 7.94886C72.1119 7.94886 73.0044 8.18324 73.7667 8.65199C74.529 9.12074 75.1209 9.77888 75.5423 10.6264C75.9637 11.474 76.1744 12.4635 76.1744 13.5952C76.1744 14.7221 75.9637 15.7069 75.5423 16.5497C75.1209 17.3925 74.529 18.0483 73.7667 18.517C73.0044 18.9858 72.1119 19.2202 71.0891 19.2202ZM71.0962 17.4375C71.7591 17.4375 72.3084 17.2623 72.744 16.9119C73.1796 16.5616 73.5015 16.0952 73.7099 15.5128C73.9229 14.9304 74.0295 14.2888 74.0295 13.5881C74.0295 12.892 73.9229 12.2528 73.7099 11.6705C73.5015 11.0833 73.1796 10.6122 72.744 10.2571C72.3084 9.90199 71.7591 9.72443 71.0962 9.72443C70.4286 9.72443 69.8746 9.90199 69.4343 10.2571C68.9987 10.6122 68.6744 11.0833 68.4613 11.6705C68.253 12.2528 68.1488 12.892 68.1488 13.5881C68.1488 14.2888 68.253 14.9304 68.4613 15.5128C68.6744 16.0952 68.9987 16.5616 69.4343 16.9119C69.8746 17.2623 70.4286 17.4375 71.0962 17.4375ZM83.1186 23.3182C82.2521 23.3182 81.5064 23.2045 80.8814 22.9773C80.2611 22.75 79.7545 22.4493 79.3615 22.0753C78.9685 21.7012 78.675 21.2917 78.4808 20.8466L80.3061 20.0938C80.4339 20.3021 80.6044 20.5223 80.8175 20.7543C81.0353 20.991 81.3288 21.1922 81.6982 21.358C82.0722 21.5237 82.5528 21.6065 83.1399 21.6065C83.9448 21.6065 84.6101 21.41 85.1357 21.017C85.6612 20.6288 85.924 20.0085 85.924 19.1562V17.0114H85.7891C85.6612 17.2434 85.4766 17.5014 85.2351 17.7855C84.9983 18.0696 84.6716 18.3158 84.255 18.5241C83.8383 18.7325 83.2962 18.8366 82.6286 18.8366C81.7668 18.8366 80.9903 18.6354 80.299 18.233C79.6125 17.8258 79.0679 17.2268 78.6655 16.4361C78.2678 15.6406 78.0689 14.6629 78.0689 13.5028C78.0689 12.3428 78.2654 11.3485 78.6584 10.5199C79.0561 9.69129 79.6006 9.05682 80.2919 8.61648C80.9832 8.1714 81.7668 7.94886 82.6428 7.94886C83.3198 7.94886 83.8667 8.0625 84.2834 8.28977C84.7 8.51231 85.0244 8.77273 85.2564 9.07102C85.4931 9.36932 85.6754 9.6321 85.8033 9.85938H85.9595V8.09091H88.0405V19.2415C88.0405 20.179 87.8227 20.9484 87.3871 21.5497C86.9515 22.151 86.362 22.5961 85.6186 22.8849C84.88 23.1738 84.0466 23.3182 83.1186 23.3182ZM83.0973 17.0753C83.7081 17.0753 84.2242 16.9332 84.6456 16.6491C85.0717 16.3603 85.3937 15.9484 85.6115 15.4134C85.834 14.8736 85.9453 14.2273 85.9453 13.4744C85.9453 12.7405 85.8364 12.0942 85.6186 11.5355C85.4008 10.9768 85.0812 10.5412 84.6598 10.2287C84.2384 9.91146 83.7176 9.75284 83.0973 9.75284C82.4581 9.75284 81.9254 9.91856 81.4993 10.25C81.0732 10.5767 80.7512 11.0218 80.5334 11.5852C80.3203 12.1487 80.2138 12.7784 80.2138 13.4744C80.2138 14.1894 80.3227 14.8168 80.5405 15.3565C80.7583 15.8963 81.0803 16.3177 81.5064 16.6207C81.9373 16.9238 82.4676 17.0753 83.0973 17.0753ZM99.0632 10.7543L97.1385 11.0952C97.058 10.849 96.9302 10.6146 96.755 10.392C96.5845 10.1695 96.3525 9.98722 96.0589 9.84517C95.7654 9.70312 95.3984 9.6321 94.9581 9.6321C94.3568 9.6321 93.8549 9.76705 93.4524 10.0369C93.05 10.3021 92.8487 10.6454 92.8487 11.0668C92.8487 11.4313 92.9837 11.7249 93.2536 11.9474C93.5234 12.17 93.959 12.3523 94.5604 12.4943L96.2933 12.892C97.2971 13.1241 98.0452 13.4815 98.5376 13.9645C99.0301 14.4474 99.2763 15.0748 99.2763 15.8466C99.2763 16.5 99.0869 17.0824 98.7081 17.5938C98.334 18.1004 97.8108 18.4981 97.1385 18.7869C96.4709 19.0758 95.6967 19.2202 94.8161 19.2202C93.5945 19.2202 92.5978 18.9598 91.826 18.4389C91.0542 17.9134 90.5807 17.1676 90.4055 16.2017L92.4581 15.8892C92.5859 16.4242 92.8487 16.8291 93.2464 17.1037C93.6442 17.3736 94.1626 17.5085 94.8018 17.5085C95.4979 17.5085 96.0542 17.3641 96.4709 17.0753C96.8875 16.7817 97.0959 16.4242 97.0959 16.0028C97.0959 15.6619 96.968 15.3755 96.7124 15.1435C96.4614 14.9115 96.0755 14.7363 95.5547 14.6179L93.7081 14.2131C92.6901 13.9811 91.9373 13.6117 91.4496 13.1051C90.9666 12.5985 90.7251 11.9569 90.7251 11.1804C90.7251 10.5365 90.9051 9.97301 91.2649 9.49006C91.6248 9.0071 92.1219 8.63068 92.7564 8.3608C93.3909 8.08617 94.1177 7.94886 94.9368 7.94886C96.1158 7.94886 97.0438 8.20455 97.7209 8.71591C98.398 9.22254 98.8454 9.90199 99.0632 10.7543Z" fill="#737373"/>
</svg>
