<svg width="26" height="21" viewBox="0 0 26 21" fill="none" xmlns="http://www.w3.org/2000/svg">
<mask id="mask0_2443_1532" style="mask-type:luminance" maskUnits="userSpaceOnUse" x="17" y="4" width="9" height="9">
<path d="M17.0171 4.80286H26V12.3005H17.0171V4.80286Z" fill="white"/>
</mask>
<g mask="url(#mask0_2443_1532)">
<path d="M25.4723 5.37775C25.0688 4.88698 24.4261 4.60316 23.8785 5.0352C23.7393 5.14491 23.6004 5.25478 23.461 5.36465C22.7696 5.91011 22.0784 6.45558 21.3871 7.0012C20.5894 7.63081 19.7915 8.26026 18.9934 8.88987C18.7211 9.10491 18.4489 9.3198 18.1764 9.53485C18.0669 9.62093 17.9006 9.71074 17.8274 9.83533C17.6484 10.1415 17.5585 10.5374 17.4336 10.8674C17.3054 11.2055 17.1774 11.5441 17.0493 11.8822C16.9805 12.0636 17.1616 12.3164 17.3607 12.291C18.0569 12.2018 18.7533 12.1128 19.4496 12.0237C19.4915 12.0183 19.5287 12.0065 19.5619 11.99C19.6013 11.9782 19.6407 11.9585 19.678 11.929C20.8643 10.9931 22.0505 10.0568 23.2369 9.12077C23.9209 8.58113 24.6044 8.04181 25.2882 7.50217C25.4198 7.39861 25.551 7.29473 25.6825 7.19101C26.3172 6.6902 25.8691 5.85946 25.4723 5.37775Z" fill="#737373"/>
</g>
<mask id="mask1_2443_1532" style="mask-type:luminance" maskUnits="userSpaceOnUse" x="0" y="0" width="22" height="21">
<path d="M0 0H21.4908V20.3805H0V0Z" fill="white"/>
</mask>
<g mask="url(#mask1_2443_1532)">
<path d="M21.4541 12.1402C21.4541 11.6979 20.7686 11.6979 20.7686 12.1402C20.7686 12.7727 20.7686 13.4054 20.7686 14.0379C20.7686 15.2088 19.8243 16.1469 18.6596 16.1647C17.9078 16.1764 17.1546 16.1647 16.4026 16.1647C13.0519 16.1647 9.70123 16.1647 6.35061 16.1647C5.53152 16.1647 4.71243 16.1647 3.89334 16.1647C3.71422 16.1647 3.61017 16.2994 3.49609 16.4133C3.28396 16.6256 3.07166 16.8379 2.85921 17.0503C2.24594 17.6636 1.63235 18.277 1.01909 18.8903C0.907923 19.0015 0.796597 19.1126 0.685433 19.2241C0.685433 17.1338 0.685433 15.0439 0.685433 12.9539C0.685433 10.1491 0.685433 7.34409 0.685433 4.53925C0.685433 4.02712 0.685433 3.51498 0.685433 3.00301C0.685433 2.26968 0.910512 1.63279 1.48753 1.14785C2.21115 0.539435 3.33089 0.696716 4.21308 0.696716C7.50351 0.696716 10.7941 0.696716 14.0847 0.696716C15.3845 0.696716 16.6842 0.696716 17.984 0.696716C18.2078 0.696716 18.4319 0.696716 18.6559 0.696716C19.7869 0.696716 20.7161 1.60577 20.7677 2.72955C20.8178 3.82 20.7686 4.92274 20.7686 6.01448C20.7686 6.45671 21.4541 6.45671 21.4541 6.01448C21.4541 5.37112 21.4541 4.7276 21.4541 4.08407C21.4541 3.37405 21.533 2.5959 21.3076 1.91224C20.9371 0.78733 19.8364 0.0112828 18.6575 0.0112828C18.441 0.0112828 18.2243 0.0112828 18.0078 0.0112828C14.9289 0.0112828 11.8501 0.0112828 8.77114 0.0112828C7.2629 0.0112828 5.75449 0.0112828 4.24609 0.0112828C3.29788 0.0112828 2.28931 -0.0982634 1.4254 0.369048C0.529608 0.853511 0 1.84105 0 2.84428C0 3.23651 0 3.6289 0 4.02113C0 5.68973 0 7.35849 0 9.02692C0 11.1737 0 13.3201 0 15.4669C0 16.995 0 18.5231 0 20.0513C0 20.3503 0.373461 20.5052 0.584948 20.2938C1.73284 19.1458 2.88056 17.9982 4.02845 16.8502C6.39769 16.8502 8.7671 16.8502 11.1363 16.8502C13.642 16.8502 16.1475 16.8502 18.653 16.8502C20.0028 16.8502 21.1881 15.8536 21.4135 14.5225C21.4817 14.1183 21.4541 13.6949 21.4541 13.2866C21.4541 12.9044 21.4541 12.5222 21.4541 12.1402Z" fill="#737373"/>
</g>
<path d="M17.5751 3.93384C15.0735 3.93384 12.5718 3.93384 10.0698 3.93384C7.98717 3.93384 5.9045 3.93384 3.82182 3.93384C2.93769 3.93384 2.93769 5.30487 3.82182 5.30487C6.32343 5.30487 8.82519 5.30487 11.327 5.30487C13.4098 5.30487 15.4925 5.30487 17.5751 5.30487C18.4594 5.30487 18.4594 3.93384 17.5751 3.93384Z" fill="#737373"/>
<path d="M15.592 11.6072C12.9315 11.6072 10.271 11.6072 7.61031 11.6072C6.34738 11.6072 5.08476 11.6072 3.82182 11.6072C2.93769 11.6072 2.93769 12.9782 3.82182 12.9782C6.48233 12.9782 9.14299 12.9782 11.8035 12.9782C13.0664 12.9782 14.3294 12.9782 15.592 12.9782C16.4763 12.9782 16.4763 11.6072 15.592 11.6072Z" fill="#737373"/>
<path d="M15.592 7.87244C12.9315 7.87244 10.271 7.87244 7.61031 7.87244C6.34738 7.87244 5.08476 7.87244 3.82182 7.87244C2.93769 7.87244 2.93769 9.2433 3.82182 9.2433C6.48233 9.2433 9.14299 9.2433 11.8035 9.2433C13.0664 9.2433 14.3294 9.2433 15.592 9.2433C16.4763 9.2433 16.4763 7.87244 15.592 7.87244Z" fill="#737373"/>
</svg>
