<svg width="133" height="32" viewBox="0 0 133 32" fill="none" xmlns="http://www.w3.org/2000/svg">
<path d="M14.223 16.8804C14.2509 16.9059 14.2813 16.9274 14.3147 16.9452C14.3481 16.9629 14.3831 16.9763 14.4197 16.9854C14.4563 16.9942 14.4935 16.9988 14.5312 16.9983C14.5689 16.9981 14.6062 16.9931 14.6425 16.9836C18.2609 16.0376 18.5776 12.2384 18.6049 11.6412C22.3471 7.73882 21.9163 3.29262 21.82 2.58612C21.8184 2.57158 21.8125 2.55908 21.8028 2.54818C21.7909 2.53932 21.7778 2.53478 21.763 2.53432C21.6833 2.52978 21.557 2.52478 21.3907 2.52478C20.9893 2.53091 20.5892 2.55749 20.1908 2.60474C19.7921 2.652 19.3968 2.71947 19.0051 2.80693C18.6135 2.89462 18.2273 3.00207 17.8466 3.12928C17.4658 3.2565 17.0926 3.4028 16.7268 3.56818C16.3611 3.73356 16.0047 3.91734 15.6578 4.11907C15.3109 4.32102 14.9751 4.54024 14.6507 4.7765C14.3261 5.01276 14.0146 5.26492 13.7159 5.53321C13.4172 5.8015 13.133 6.0841 12.8633 6.38147C11.862 6.53345 8.38238 7.30833 7.73631 10.7965C7.7329 10.8149 7.73063 10.8333 7.72949 10.8522C7.72836 10.8708 7.72836 10.8895 7.72972 10.9081C7.73086 10.9269 7.73313 10.9453 7.73676 10.9637C7.74017 10.9821 7.74494 11.0003 7.75062 11.018C7.7563 11.036 7.76312 11.0532 7.77107 11.0703C7.77902 11.0873 7.78788 11.1037 7.79787 11.1196C7.80764 11.1355 7.81854 11.1507 7.83036 11.1652C7.84217 11.1796 7.85489 11.1934 7.86852 11.2064C7.88193 11.2193 7.89624 11.2314 7.91123 11.2425C7.92622 11.2536 7.9419 11.2638 7.95826 11.2732C7.97438 11.2825 7.9912 11.2906 8.00846 11.2977C8.02595 11.305 8.04344 11.3111 8.06162 11.3161C8.07956 11.3211 8.09797 11.3249 8.11637 11.3274C8.13499 11.3302 8.15362 11.3318 8.17225 11.3322C8.19111 11.3327 8.20973 11.332 8.22836 11.3299C8.24699 11.3281 8.26539 11.3249 8.28356 11.3209L10.0298 10.9185C9.89739 11.2361 9.76813 11.5612 9.64614 11.9029L9.77835 12.0237L8.58025 13.3175C8.56003 13.3393 8.54209 13.3629 8.52664 13.3883C8.51119 13.4136 8.49824 13.4401 8.48779 13.4681C8.47757 13.496 8.47007 13.5246 8.46553 13.554C8.46076 13.5835 8.45917 13.613 8.4603 13.6425C8.46144 13.6723 8.46553 13.7016 8.47234 13.7307C8.47939 13.7595 8.48893 13.7875 8.50142 13.8145C8.51392 13.8415 8.52868 13.867 8.54617 13.8911C8.56367 13.9152 8.58343 13.9374 8.60524 13.9576C8.62705 13.9779 8.65045 13.9956 8.67589 14.0112C8.70111 14.0267 8.72791 14.0396 8.75563 14.0501C8.78357 14.0603 8.81219 14.0678 8.8415 14.0726C8.8708 14.0774 8.90034 14.0792 8.93009 14.078C8.95985 14.0769 8.98916 14.0728 9.01824 14.066C9.04709 14.0592 9.07503 14.0494 9.10206 14.0371C9.1291 14.0247 9.15477 14.0099 9.17885 13.9924C9.20293 13.9749 9.22496 13.9554 9.24518 13.9336L10.4478 12.635L11.1836 13.307L9.24268 15.4029C9.22246 15.4247 9.20452 15.4483 9.18907 15.4735C9.17362 15.499 9.16067 15.5256 9.15045 15.5535C9.14 15.5815 9.1325 15.6101 9.12796 15.6394C9.12319 15.6687 9.1216 15.6982 9.12274 15.728C9.12387 15.7577 9.12796 15.787 9.13478 15.8159C9.14182 15.845 9.15136 15.8729 9.16385 15.9C9.17635 15.927 9.19134 15.9524 9.20861 15.9765C9.2261 16.0006 9.24586 16.0226 9.26767 16.0428C9.28948 16.0631 9.31288 16.081 9.33832 16.0967C9.36376 16.1121 9.39034 16.1251 9.41806 16.1355C9.446 16.1458 9.47462 16.1532 9.50393 16.158C9.53346 16.1628 9.56299 16.1644 9.59253 16.1635C9.62229 16.1623 9.65159 16.1582 9.68067 16.1514C9.70952 16.1446 9.73746 16.1348 9.7645 16.1226C9.79153 16.1101 9.8172 16.0953 9.84128 16.0778C9.86536 16.0603 9.88739 16.0408 9.90784 16.019L11.8531 13.9183L12.521 14.5283L11.4599 15.8016C11.441 15.8245 11.4244 15.8491 11.4104 15.8752C11.396 15.9013 11.3847 15.9286 11.3758 15.957C11.367 15.9854 11.3611 16.0144 11.3579 16.044C11.3549 16.0735 11.3547 16.103 11.3574 16.1326C11.3601 16.1623 11.3656 16.1914 11.3742 16.2198C11.3826 16.2482 11.3938 16.2757 11.4076 16.302C11.4215 16.3284 11.4376 16.3532 11.4562 16.3761C11.4751 16.3993 11.4958 16.4204 11.5187 16.4395C11.5414 16.4583 11.566 16.4751 11.5921 16.4892C11.6182 16.5035 11.6455 16.5149 11.6739 16.5238C11.7023 16.5326 11.7311 16.5388 11.7607 16.5419C11.7902 16.5451 11.8197 16.5453 11.8495 16.5426C11.879 16.5399 11.9081 16.5344 11.9367 16.526C11.9651 16.5176 11.9926 16.5065 12.0189 16.4929C12.0453 16.479 12.0701 16.4629 12.0932 16.4443C12.1164 16.4254 12.1375 16.4047 12.1564 16.382L13.1911 15.1403L13.2747 15.2166C13.6562 15.051 14.0192 14.879 14.3681 14.7025L14.0805 16.4724C14.0744 16.5097 14.073 16.5472 14.0764 16.5846C14.0796 16.6224 14.0876 16.6589 14.1001 16.6946C14.1126 16.73 14.1291 16.7637 14.1498 16.7952C14.1707 16.8266 14.195 16.855 14.223 16.8804ZM15.0969 15.8693L15.3756 14.1537C16.1489 13.7034 16.8784 13.1912 17.5642 12.6164C17.337 13.6441 16.73 15.1476 15.0969 15.8693ZM8.81333 10.2684C9.40874 8.6048 10.8574 7.85354 11.9294 7.5171C11.3835 8.26222 10.9078 9.0496 10.5021 9.87945L8.81333 10.2684ZM13.4456 14.1451L10.7098 11.6466C13.4901 4.54888 18.8257 3.54501 20.9756 3.44164C21.0261 5.46915 20.4493 10.8561 13.4456 14.1451Z" fill="#737373"/>
<path d="M18.3795 8.08985C18.3775 8.03193 18.3725 7.97445 18.3645 7.91698C18.3568 7.8595 18.3464 7.80271 18.3332 7.74614C18.32 7.68981 18.3041 7.63415 18.2857 7.5794C18.2671 7.52442 18.246 7.47058 18.2223 7.41765C18.1987 7.36472 18.1724 7.31315 18.1437 7.26295C18.1151 7.21252 18.0842 7.16368 18.0508 7.1162C18.0174 7.06895 17.982 7.02328 17.9443 6.97921C17.9066 6.93537 17.8668 6.89312 17.8252 6.85313C17.7834 6.81292 17.7398 6.77476 17.6944 6.73887C17.6492 6.70275 17.6022 6.66912 17.5535 6.63755C17.5049 6.60597 17.4547 6.57689 17.4034 6.55031C17.352 6.52351 17.2996 6.49943 17.2457 6.47785C17.1921 6.45604 17.1374 6.43695 17.0817 6.4206C17.0263 6.40424 16.9702 6.39038 16.9132 6.37948C16.8564 6.36835 16.7991 6.36017 16.7414 6.35449C16.6837 6.34904 16.626 6.34631 16.5681 6.34631C16.5081 6.34631 16.4484 6.34927 16.3888 6.35517C16.3293 6.36108 16.27 6.36994 16.2114 6.38153C16.1528 6.39334 16.0947 6.4081 16.0374 6.4256C15.9802 6.44309 15.924 6.46331 15.8688 6.48648C15.8136 6.50942 15.7596 6.53532 15.7069 6.56372C15.6542 6.59211 15.6031 6.62301 15.5533 6.65663C15.5038 6.69002 15.4558 6.72592 15.41 6.76408C15.3638 6.80247 15.3198 6.84268 15.2777 6.88539C15.2357 6.92787 15.1957 6.97263 15.158 7.0192C15.1205 7.06554 15.0851 7.11393 15.0524 7.1639C15.0195 7.21411 14.9892 7.26545 14.9613 7.31861C14.9336 7.37154 14.9086 7.42583 14.8861 7.48149C14.8638 7.53692 14.8443 7.59348 14.8275 7.65096C14.8107 7.70843 14.7968 7.76659 14.7857 7.82543C14.7746 7.88426 14.7666 7.94356 14.7614 8.00307C14.7562 8.06282 14.7541 8.12257 14.7548 8.18231C14.7555 8.24229 14.7593 8.30203 14.7659 8.36155C14.7727 8.42084 14.7823 8.47991 14.7948 8.53852C14.8073 8.59713 14.8227 8.65483 14.8409 8.71185C14.8591 8.76887 14.8802 8.82475 14.904 8.87973C14.9277 8.9347 14.9543 8.98832 14.9833 9.04057C15.0124 9.09304 15.044 9.1437 15.0781 9.193C15.1121 9.24207 15.1487 9.28955 15.1876 9.33498C15.2264 9.38064 15.2673 9.42426 15.3105 9.46583C15.3536 9.50718 15.3986 9.54648 15.4456 9.58351C15.4926 9.62053 15.5415 9.65529 15.5919 9.68755C15.6424 9.71981 15.6944 9.74934 15.7478 9.77637C15.8011 9.80341 15.8557 9.82794 15.9116 9.84952C15.9672 9.87133 16.024 9.89019 16.0817 9.90609C16.1394 9.92222 16.1978 9.93539 16.2566 9.94562C16.3157 9.95584 16.375 9.96311 16.4347 9.96765C16.4945 9.97197 16.5542 9.97333 16.614 9.97197C16.6739 9.97038 16.7335 9.96584 16.793 9.95857C16.8523 9.95107 16.9113 9.94062 16.9697 9.92744C17.0281 9.91404 17.0856 9.89814 17.1424 9.87906C17.1992 9.8602 17.2548 9.83839 17.3096 9.81386C17.3641 9.78932 17.4175 9.76229 17.4693 9.73253C17.5213 9.70277 17.5717 9.67051 17.6203 9.63576C17.6692 9.601 17.716 9.56397 17.7612 9.52444C17.8062 9.48514 17.8491 9.44357 17.8902 9.39995C17.9311 9.35611 17.9697 9.31067 18.0063 9.26319C18.0426 9.21572 18.0767 9.16642 18.1083 9.11553C18.1399 9.06465 18.169 9.0124 18.1953 8.95878C18.2217 8.90494 18.2453 8.84997 18.2662 8.79386C18.2873 8.73797 18.3053 8.68095 18.3207 8.62303C18.3359 8.5651 18.3484 8.50671 18.358 8.44765C18.3675 8.38836 18.3741 8.32907 18.3775 8.26932C18.3811 8.20957 18.3818 8.1496 18.3795 8.08985ZM17.233 8.77546C17.1926 8.81907 17.148 8.85837 17.0999 8.89336C17.0517 8.92834 17.0006 8.9581 16.9465 8.98309C16.8925 9.00785 16.8366 9.02716 16.7787 9.04102C16.7207 9.05488 16.6619 9.06306 16.6026 9.06533C16.5431 9.0676 16.4838 9.06397 16.4252 9.05465C16.3664 9.04534 16.3091 9.03034 16.2532 9.00967C16.1973 8.989 16.1442 8.9631 16.0933 8.93198C16.0426 8.90086 15.9954 8.86496 15.9518 8.82453C15.9081 8.78409 15.8688 8.73979 15.8339 8.69163C15.7989 8.64347 15.7689 8.59236 15.7441 8.53806C15.7191 8.484 15.6998 8.42811 15.686 8.37018C15.6721 8.31225 15.6642 8.25364 15.6619 8.19413C15.6596 8.13461 15.663 8.07554 15.6726 8.0167C15.6819 7.95787 15.6969 7.90062 15.7175 7.84474C15.7382 7.78908 15.7641 7.73569 15.7952 7.68503C15.8264 7.63415 15.8623 7.58712 15.9027 7.54328C15.9431 7.49966 15.9874 7.46036 16.0356 7.42538C16.0837 7.39039 16.1349 7.36063 16.1889 7.33564C16.243 7.31088 16.2991 7.29157 16.357 7.27772C16.4147 7.26386 16.4736 7.25568 16.5331 7.25341C16.5926 7.25114 16.6517 7.25477 16.7105 7.26409C16.7691 7.2734 16.8266 7.28839 16.8823 7.30907C16.9381 7.32974 16.9915 7.35564 17.0422 7.38676C17.0928 7.41788 17.1401 7.45377 17.1837 7.49421C17.2276 7.53465 17.2671 7.57895 17.3021 7.62711C17.3371 7.67527 17.3673 7.72638 17.392 7.78045C17.417 7.83451 17.4366 7.8904 17.4504 7.94833C17.4643 8.00625 17.4724 8.06509 17.4747 8.12461C17.477 8.18413 17.4734 8.24319 17.464 8.30203C17.4545 8.36087 17.4395 8.41834 17.4188 8.474C17.3979 8.52989 17.372 8.58327 17.3407 8.63393C17.3093 8.68459 17.2734 8.73184 17.233 8.77546Z" fill="#737373"/>
<path d="M13.7152 10.3319C13.6941 10.3108 13.6711 10.2922 13.6466 10.2756C13.6218 10.2592 13.5957 10.2454 13.5682 10.234C13.5407 10.2227 13.5124 10.214 13.4833 10.2083C13.454 10.2024 13.4247 10.1997 13.3949 10.1997C13.3651 10.1997 13.3356 10.2027 13.3065 10.2083C13.2775 10.2142 13.2491 10.2229 13.2216 10.2342C13.1941 10.2456 13.1682 10.2597 13.1434 10.276C13.1187 10.2926 13.0957 10.3115 13.0748 10.3324C13.0537 10.3535 13.0351 10.3762 13.0185 10.401C13.0019 10.4257 12.988 10.4519 12.9767 10.4794C12.9653 10.5068 12.9567 10.535 12.9508 10.5641C12.9451 10.5934 12.9422 10.6227 12.9422 10.6525C12.9419 10.6822 12.9449 10.7118 12.9506 10.7408C12.9565 10.7699 12.9649 10.7983 12.9762 10.8258C12.9876 10.8533 13.0014 10.8794 13.018 10.9042C13.0346 10.9289 13.0532 10.9519 13.0741 10.9728L13.9808 11.8794C14.0019 11.9003 14.0248 11.9192 14.0494 11.9358C14.0741 11.9521 14.1003 11.9662 14.1278 11.9776C14.1552 11.9889 14.1836 11.9975 14.2127 12.0032C14.242 12.0091 14.2716 12.0119 14.3013 12.0119C14.3308 12.0119 14.3604 12.0089 14.3897 12.0032C14.4188 11.9973 14.4472 11.9887 14.4746 11.9773C14.5021 11.966 14.5283 11.9521 14.5528 11.9355C14.5776 11.9189 14.6005 11.9001 14.6216 11.8792C14.6425 11.8581 14.6614 11.8353 14.678 11.8106C14.6943 11.7858 14.7084 11.7597 14.7198 11.7322C14.7311 11.7047 14.7398 11.6763 14.7454 11.6472C14.7513 11.6179 14.7543 11.5886 14.7543 11.5589C14.7543 11.5291 14.7513 11.4996 14.7457 11.4705C14.7398 11.4412 14.7314 11.413 14.7198 11.3855C14.7084 11.3581 14.6946 11.3319 14.678 11.3072C14.6616 11.2824 14.6428 11.2595 14.6219 11.2383L13.7152 10.3319Z" fill="#737373"/>
<mask id="mask0_484_1947" style="mask-type:luminance" maskUnits="userSpaceOnUse" x="0" y="0" width="30" height="30">
<path d="M0 0H29.0489V29.0125H0V0Z" fill="white"/>
</mask>
<g mask="url(#mask0_484_1947)">
<path d="M29.0248 0.368943C29.023 0.359402 29.0198 0.350315 29.0175 0.340774C29.0132 0.323509 29.0077 0.306471 29.0016 0.28966C28.9975 0.279438 28.9927 0.269442 28.988 0.259447C28.9809 0.244453 28.973 0.229687 28.9641 0.215603C28.9584 0.206289 28.9528 0.197429 28.9464 0.188569C28.9362 0.174939 28.9255 0.161763 28.9139 0.149269C28.9066 0.141318 28.9001 0.133594 28.8923 0.126324C28.8796 0.114511 28.8664 0.103607 28.8526 0.0933844C28.844 0.0870236 28.836 0.0799813 28.8269 0.0740748C28.8249 0.0727118 28.8233 0.0711216 28.821 0.0697586C28.8067 0.061126 28.7917 0.0536294 28.7765 0.0468143C28.7688 0.0429523 28.7615 0.0384089 28.7535 0.0350014C28.7281 0.0243244 28.7017 0.0161461 28.6747 0.0104669C28.6683 0.0091038 28.6618 0.0088767 28.6552 0.0077408C28.6336 0.00410605 28.6118 0.00183435 28.5897 0.00115283C28.5863 0.00115283 28.5834 0.000244141 28.58 0.000244141C28.5738 0.000244141 28.5679 0.00183435 28.5618 0.00206151C28.5427 0.00274304 28.5239 0.00456043 28.505 0.0077408C28.4948 0.00955817 28.4846 0.0113755 28.4746 0.0138744C28.4573 0.0179635 28.4405 0.0231885 28.4239 0.0295492C28.4141 0.0329568 28.4046 0.0361372 28.3953 0.0402263C28.378 0.0484045 28.3612 0.0574913 28.3449 0.067714C28.3378 0.0720303 28.3301 0.075665 28.3233 0.0802085C28.3015 0.0952018 28.2812 0.112012 28.2624 0.130641L28.2592 0.133367L25.5397 2.85261C25.5186 2.87373 25.5 2.89668 25.4834 2.92144C25.467 2.9462 25.453 2.97233 25.4418 2.99981C25.4305 3.0273 25.4218 3.05547 25.4159 3.08478C25.4103 3.11385 25.4073 3.14339 25.4073 3.17315C25.4075 3.20291 25.4103 3.23221 25.4162 3.26152C25.4221 3.29059 25.4305 3.31876 25.4421 3.34625C25.4534 3.37374 25.4673 3.39986 25.4839 3.42463C25.5004 3.44939 25.5191 3.4721 25.5402 3.49323C25.5611 3.51436 25.584 3.53299 25.6088 3.54957C25.6336 3.56615 25.6597 3.58001 25.6869 3.59137C25.7144 3.60273 25.7428 3.61136 25.7719 3.61727C25.8012 3.62295 25.8305 3.6259 25.8603 3.6259C25.89 3.62613 25.9196 3.62317 25.9487 3.61727C25.978 3.61159 26.0061 3.60296 26.0336 3.5916C26.0611 3.58024 26.0872 3.56638 26.112 3.55002C26.1367 3.53344 26.1597 3.51459 26.1806 3.49369L27.4162 2.25833C23.413 12.17 16.6135 18.5483 11.4592 22.2192C5.50186 26.4618 0.390051 28.1091 0.339165 28.125C0.310768 28.1338 0.283508 28.1454 0.257383 28.1597C0.231258 28.174 0.206724 28.1908 0.183779 28.2099C0.161062 28.2292 0.140162 28.2504 0.121534 28.2735C0.102906 28.2967 0.0865501 28.3217 0.0729198 28.3481C0.0590623 28.3746 0.0481581 28.4021 0.0397528 28.4307C0.0313474 28.4594 0.0258953 28.4884 0.0233964 28.5182C0.0206704 28.548 0.0211247 28.5775 0.0243051 28.6073C0.0277127 28.6368 0.0338463 28.6659 0.042706 28.6943C0.0517928 28.7227 0.0633786 28.7499 0.0776904 28.776C0.0922293 28.8022 0.108813 28.8267 0.128122 28.8494C0.147205 28.8721 0.168559 28.893 0.19173 28.9117C0.215129 28.9303 0.239891 28.9464 0.26647 28.9601C0.292822 28.9737 0.320537 28.9848 0.34916 28.993C0.377784 29.0014 0.406862 29.0066 0.436621 29.0093C0.466381 29.0118 0.495913 29.0114 0.525672 29.008C0.555205 29.0048 0.584283 28.9984 0.612679 28.9894C0.825084 28.9221 5.8876 27.294 11.9576 22.9773C17.1673 19.2721 24.0213 12.8568 28.1265 2.91031V4.31536C28.1265 4.34512 28.1295 4.37443 28.1354 4.40373C28.1411 4.43281 28.1497 4.46121 28.1611 4.4887C28.1724 4.51618 28.1865 4.54231 28.2031 4.56707C28.2195 4.59183 28.2383 4.61478 28.2594 4.63568C28.2803 4.6568 28.3033 4.67566 28.328 4.69224C28.3528 4.7086 28.3789 4.72268 28.4064 4.73404C28.4339 4.7454 28.4623 4.75403 28.4916 4.75994C28.5207 4.76562 28.5502 4.76857 28.58 4.76857C28.6097 4.76857 28.6393 4.76562 28.6683 4.75994C28.6977 4.75403 28.7258 4.7454 28.7533 4.73404C28.7808 4.72268 28.8069 4.7086 28.8317 4.69224C28.8564 4.67566 28.8794 4.6568 28.9005 4.63568C28.9214 4.61478 28.9403 4.59183 28.9569 4.56707C28.9734 4.54231 28.9873 4.51618 28.9987 4.4887C29.01 4.46121 29.0186 4.43281 29.0246 4.40373C29.0302 4.37443 29.0332 4.34512 29.0332 4.31536V0.452542C29.033 0.424373 29.0302 0.396658 29.0248 0.368943Z" fill="#737373"/>
</g>
<path d="M27.44 9.02558C27.438 9.01127 27.4359 8.99719 27.4325 8.98333C27.4289 8.96924 27.4243 8.95584 27.4196 8.94198C27.415 8.9279 27.4096 8.91404 27.4034 8.90064C27.3975 8.88746 27.3903 8.87519 27.383 8.8627C27.3755 8.85021 27.3682 8.83771 27.3598 8.8259C27.3512 8.81409 27.3414 8.80318 27.3317 8.79205C27.3219 8.78092 27.3121 8.77024 27.3014 8.76025C27.2912 8.7507 27.2803 8.74207 27.2692 8.73344C27.2562 8.72344 27.2428 8.71413 27.229 8.7055C27.224 8.70232 27.2199 8.69823 27.2147 8.6955C27.2081 8.69164 27.2008 8.68982 27.194 8.68642C27.1795 8.67915 27.1642 8.67256 27.1488 8.66688C27.1349 8.66165 27.1213 8.65756 27.1072 8.65393C27.0934 8.65029 27.0795 8.64711 27.0652 8.64484C27.0486 8.64234 27.0322 8.64075 27.0154 8.63984C27.0079 8.63962 27.0009 8.63757 26.9934 8.63757C26.9875 8.63757 26.9823 8.63916 26.9764 8.63939C26.9598 8.64007 26.943 8.64189 26.9266 8.64439C26.913 8.64643 26.8998 8.64848 26.8869 8.65166C26.8719 8.65552 26.8573 8.66006 26.843 8.66529C26.8296 8.67006 26.8164 8.6746 26.8037 8.68051C26.7901 8.68687 26.7769 8.69437 26.7637 8.70209C26.7519 8.70913 26.7401 8.71617 26.729 8.72413C26.7167 8.73321 26.7049 8.74298 26.6938 8.7532C26.6831 8.76274 26.6726 8.77206 26.6629 8.78251C26.6533 8.79296 26.6445 8.80409 26.6356 8.81545C26.6256 8.8284 26.6165 8.84157 26.6079 8.85543C26.6047 8.86043 26.6008 8.86452 26.5979 8.86974C25.3768 11.0476 23.9806 13.1069 22.4095 15.0477C21.6008 16.047 20.7457 17.0161 19.867 17.9289C18.5476 19.3028 17.1505 20.5922 15.6753 21.7972C14.8554 22.4689 13.9992 23.1241 13.1307 23.7442C11.7865 24.7068 10.3758 25.6136 8.93759 26.4394C8.93282 26.4419 8.92941 26.4455 8.92487 26.4485C8.91123 26.4571 8.89829 26.4664 8.88579 26.4764C8.87466 26.4851 8.8633 26.4937 8.85308 26.5035C8.84263 26.5132 8.83331 26.5241 8.82377 26.535C8.81378 26.5464 8.80378 26.5573 8.79515 26.5696C8.78697 26.5812 8.77993 26.5934 8.77289 26.6059C8.76539 26.6186 8.75789 26.6311 8.75199 26.6443C8.74585 26.6577 8.74131 26.6716 8.73654 26.6854C8.73177 26.6993 8.72677 26.7131 8.72336 26.7275C8.72018 26.7409 8.71837 26.7547 8.71632 26.7686C8.71382 26.7847 8.71223 26.8008 8.71155 26.8172C8.71132 26.8224 8.70996 26.8272 8.70996 26.8324V28.5573C8.70996 28.5871 8.71291 28.6164 8.71859 28.6457C8.7245 28.6748 8.73313 28.7032 8.74449 28.7307C8.75585 28.7581 8.76993 28.7843 8.78629 28.809C8.80287 28.8338 8.82173 28.8567 8.84286 28.8779C8.86376 28.8988 8.8867 28.9176 8.91146 28.9342C8.93622 28.9508 8.96235 28.9646 8.98984 28.976C9.01732 28.9874 9.04572 28.996 9.0748 29.0019C9.1041 29.0076 9.13341 29.0105 9.16317 29.0105H13.3947C13.4244 29.0105 13.454 29.0076 13.4831 29.0019C13.5124 28.996 13.5408 28.9874 13.5682 28.976C13.5957 28.9646 13.6219 28.9508 13.6466 28.9342C13.6714 28.9176 13.6941 28.8988 13.7152 28.8779C13.7364 28.8567 13.755 28.8338 13.7716 28.809C13.7882 28.7843 13.802 28.7581 13.8136 28.7307C13.825 28.7032 13.8336 28.6748 13.8393 28.6457C13.8452 28.6164 13.8481 28.5871 13.8481 28.5573V24.3437C14.4097 23.9385 14.9654 23.52 15.5094 23.0918V28.5573C15.5094 28.5871 15.5122 28.6164 15.5181 28.6457C15.524 28.6748 15.5324 28.7032 15.5437 28.7307C15.5553 28.7581 15.5692 28.7843 15.5858 28.809C15.6023 28.8338 15.621 28.8567 15.6421 28.8779C15.6632 28.8988 15.6859 28.9176 15.7107 28.9342C15.7355 28.9508 15.7616 28.9646 15.7891 28.976C15.8166 28.9874 15.845 28.996 15.8743 29.0019C15.9033 29.0076 15.9329 29.0105 15.9626 29.0105H20.1942C20.2239 29.0105 20.2532 29.0076 20.2825 29.0019C20.3116 28.996 20.34 28.9874 20.3675 28.976C20.395 28.9646 20.4211 28.9508 20.4459 28.9342C20.4706 28.9176 20.4936 28.8988 20.5147 28.8779C20.5356 28.8567 20.5545 28.8338 20.571 28.809C20.5874 28.7843 20.6015 28.7581 20.6128 28.7307C20.6242 28.7032 20.6328 28.6748 20.6387 28.6457C20.6444 28.6164 20.6474 28.5871 20.6474 28.5573V18.4225C21.2132 17.8296 21.7687 17.214 22.3087 16.5827V28.5573C22.3087 28.5871 22.3116 28.6164 22.3173 28.6457C22.3232 28.6748 22.3318 28.7032 22.3432 28.7307C22.3546 28.7581 22.3686 28.7843 22.385 28.809C22.4016 28.8338 22.4204 28.8567 22.4413 28.8779C22.4625 28.8988 22.4854 28.9176 22.5102 28.9342C22.5349 28.9508 22.5611 28.9646 22.5885 28.976C22.616 28.9874 22.6444 28.996 22.6735 29.0019C22.7028 29.0076 22.7321 29.0105 22.7619 29.0105H26.9934C27.0232 29.0105 27.0527 29.0076 27.0818 29.0019C27.1111 28.996 27.1395 28.9874 27.167 28.976C27.1944 28.9646 27.2206 28.9508 27.2453 28.9342C27.2701 28.9176 27.2928 28.8988 27.3139 28.8779C27.3351 28.8567 27.3537 28.8338 27.3703 28.809C27.3869 28.7843 27.4007 28.7581 27.4121 28.7307C27.4237 28.7032 27.4321 28.6748 27.438 28.6457C27.4439 28.6164 27.4466 28.5871 27.4466 28.5573V9.09101C27.4466 9.08487 27.4452 9.07919 27.4448 9.07306C27.4441 9.05716 27.4425 9.04126 27.44 9.02558ZM12.9415 28.1039H9.6166V27.0909C10.7497 26.4324 11.8633 25.7252 12.9415 24.9812V28.1039ZM19.7407 28.1039H16.4158V22.3585C17.5694 21.4076 18.6828 20.3973 19.7407 19.3453V28.1039ZM26.5402 28.1039H23.2153V15.4904C24.4248 13.9845 25.5331 12.4077 26.5402 10.7596V28.1039Z" fill="#737373"/>
<path d="M62.679 11.1847H60.4631C60.3778 10.7112 60.2192 10.2945 59.9872 9.93466C59.7552 9.57481 59.4711 9.26941 59.1349 9.01847C58.7988 8.76752 58.4223 8.57812 58.0057 8.45028C57.5938 8.32244 57.1558 8.25852 56.6918 8.25852C55.8537 8.25852 55.1032 8.46922 54.4403 8.89062C53.7822 9.31203 53.2614 9.92992 52.8778 10.7443C52.4991 11.5587 52.3097 12.553 52.3097 13.7273C52.3097 14.911 52.4991 15.91 52.8778 16.7244C53.2614 17.5388 53.7846 18.1544 54.4474 18.571C55.1103 18.9877 55.8561 19.196 56.6847 19.196C57.1439 19.196 57.5795 19.1345 57.9915 19.0114C58.4081 18.8835 58.7846 18.6965 59.1207 18.4503C59.4569 18.2041 59.741 17.9034 59.973 17.5483C60.2098 17.1884 60.3731 16.7765 60.4631 16.3125L62.679 16.3196C62.5606 17.0346 62.331 17.6927 61.9901 18.294C61.6539 18.8906 61.2206 19.4067 60.6903 19.8423C60.1648 20.2732 59.5634 20.607 58.8864 20.8438C58.2093 21.0805 57.4706 21.1989 56.6705 21.1989C55.411 21.1989 54.2888 20.9006 53.304 20.304C52.3191 19.7027 51.5426 18.8433 50.9744 17.7259C50.411 16.6084 50.1293 15.2756 50.1293 13.7273C50.1293 12.1742 50.4134 10.8414 50.9815 9.72869C51.5497 8.61127 52.3262 7.75426 53.3111 7.15767C54.2959 6.55634 55.4157 6.25568 56.6705 6.25568C57.4422 6.25568 58.1619 6.36695 58.8295 6.58949C59.5019 6.80729 60.1056 7.12926 60.6406 7.5554C61.1757 7.9768 61.6184 8.4929 61.9688 9.10369C62.3191 9.70975 62.5559 10.4034 62.679 11.1847ZM68.3093 21.2415C67.618 21.2415 66.993 21.1136 66.4343 20.858C65.8756 20.5975 65.4329 20.2211 65.1062 19.7287C64.7842 19.2363 64.6232 18.6326 64.6232 17.9176C64.6232 17.3021 64.7416 16.7955 64.9783 16.3977C65.2151 16 65.5347 15.6851 65.9371 15.4531C66.3396 15.2211 66.7894 15.0459 67.2866 14.9276C67.7837 14.8092 68.2904 14.7192 68.8065 14.6577C69.4599 14.5819 69.9902 14.5204 70.3974 14.473C70.8046 14.4209 71.1005 14.3381 71.2852 14.2244C71.4698 14.1108 71.5621 13.9261 71.5621 13.6705V13.6207C71.5621 13.0005 71.387 12.5199 71.0366 12.179C70.6909 11.8381 70.1748 11.6676 69.4883 11.6676C68.7733 11.6676 68.2099 11.8262 67.7979 12.1435C67.3907 12.456 67.109 12.804 66.9528 13.1875L64.957 12.733C65.1938 12.0701 65.5394 11.535 65.994 11.1278C66.4532 10.7159 66.9812 10.4176 67.5778 10.233C68.1744 10.0436 68.8017 9.94886 69.4599 9.94886C69.8955 9.94886 70.3571 10.0009 70.8448 10.1051C71.3372 10.2045 71.7965 10.3892 72.2227 10.6591C72.6535 10.929 73.0063 11.3149 73.2809 11.8168C73.5555 12.3139 73.6928 12.9602 73.6928 13.7557V21H71.619V19.5085H71.5337C71.3964 19.7831 71.1905 20.053 70.9158 20.3182C70.6412 20.5833 70.2885 20.8035 69.8576 20.9787C69.4267 21.1539 68.9106 21.2415 68.3093 21.2415ZM68.771 19.5369C69.3581 19.5369 69.86 19.4209 70.2766 19.1889C70.698 18.9569 71.0176 18.6539 71.2354 18.2798C71.458 17.901 71.5692 17.4962 71.5692 17.0653V15.6591C71.4935 15.7348 71.3467 15.8059 71.1289 15.8722C70.9158 15.9337 70.672 15.9882 70.3974 16.0355C70.1228 16.0781 69.8552 16.1184 69.5948 16.1562C69.3344 16.1894 69.1166 16.2178 68.9414 16.2415C68.5295 16.2936 68.1531 16.3812 67.8121 16.5043C67.476 16.6274 67.2061 16.8049 67.0025 17.0369C66.8036 17.2642 66.7042 17.5672 66.7042 17.946C66.7042 18.4716 66.8983 18.8693 67.2866 19.1392C67.6748 19.4044 68.1696 19.5369 68.771 19.5369ZM76.5213 21V10.0909H78.5739V11.8239H78.6875C78.8864 11.2367 79.2367 10.7751 79.7386 10.4389C80.2453 10.098 80.8182 9.92756 81.4574 9.92756C81.59 9.92756 81.7462 9.93229 81.9261 9.94176C82.1108 9.95123 82.2552 9.96307 82.3594 9.97727V12.0085C82.2741 11.9848 82.1226 11.9588 81.9048 11.9304C81.687 11.8973 81.4692 11.8807 81.2514 11.8807C80.7495 11.8807 80.3021 11.9872 79.9091 12.2003C79.5208 12.4086 79.2131 12.6998 78.9858 13.0739C78.7585 13.4432 78.6449 13.8646 78.6449 14.3381V21H76.5213ZM88.5082 21.2202C87.4334 21.2202 86.5077 20.9905 85.7312 20.5312C84.9594 20.0672 84.3628 19.4162 83.9414 18.5781C83.5247 17.7353 83.3164 16.7481 83.3164 15.6165C83.3164 14.4991 83.5247 13.5142 83.9414 12.6619C84.3628 11.8097 84.9499 11.1444 85.7028 10.6662C86.4603 10.188 87.3458 9.94886 88.359 9.94886C88.9746 9.94886 89.5711 10.0507 90.1488 10.2543C90.7264 10.4579 91.2449 10.7775 91.7042 11.2131C92.1635 11.6487 92.5257 12.2145 92.7908 12.9105C93.056 13.6018 93.1886 14.4422 93.1886 15.4318V16.1847H84.5167V14.5938H91.1076C91.1076 14.035 90.994 13.5402 90.7667 13.1094C90.5394 12.6738 90.2198 12.3305 89.8079 12.0795C89.4007 11.8286 88.9225 11.7031 88.3732 11.7031C87.7766 11.7031 87.2558 11.8499 86.8107 12.1435C86.3704 12.4323 86.0295 12.8111 85.788 13.2798C85.5513 13.7438 85.4329 14.2481 85.4329 14.7926V16.0355C85.4329 16.7647 85.5607 17.3849 85.8164 17.8963C86.0768 18.4077 86.439 18.7983 86.9031 19.0682C87.3671 19.3333 87.9092 19.4659 88.5295 19.4659C88.9319 19.4659 89.2989 19.4091 89.6303 19.2955C89.9618 19.1771 90.2482 19.0019 90.4897 18.7699C90.7312 18.5379 90.9158 18.2514 91.0437 17.9105L93.0536 18.2727C92.8926 18.8646 92.6038 19.383 92.1871 19.8281C91.7752 20.2685 91.2567 20.6117 90.6317 20.858C90.0115 21.0994 89.3036 21.2202 88.5082 21.2202ZM100.246 21.2202C99.1716 21.2202 98.246 20.9905 97.4695 20.5312C96.6977 20.0672 96.1011 19.4162 95.6797 18.5781C95.263 17.7353 95.0547 16.7481 95.0547 15.6165C95.0547 14.4991 95.263 13.5142 95.6797 12.6619C96.1011 11.8097 96.6882 11.1444 97.4411 10.6662C98.1986 10.188 99.084 9.94886 100.097 9.94886C100.713 9.94886 101.309 10.0507 101.887 10.2543C102.465 10.4579 102.983 10.7775 103.442 11.2131C103.902 11.6487 104.264 12.2145 104.529 12.9105C104.794 13.6018 104.927 14.4422 104.927 15.4318V16.1847H96.255V14.5938H102.846C102.846 14.035 102.732 13.5402 102.505 13.1094C102.278 12.6738 101.958 12.3305 101.546 12.0795C101.139 11.8286 100.661 11.7031 100.112 11.7031C99.5149 11.7031 98.9941 11.8499 98.549 12.1435C98.1087 12.4323 97.7678 12.8111 97.5263 13.2798C97.2895 13.7438 97.1712 14.2481 97.1712 14.7926V16.0355C97.1712 16.7647 97.299 17.3849 97.5547 17.8963C97.8151 18.4077 98.1773 18.7983 98.6413 19.0682C99.1054 19.3333 99.6475 19.4659 100.268 19.4659C100.67 19.4659 101.037 19.4091 101.369 19.2955C101.7 19.1771 101.987 19.0019 102.228 18.7699C102.469 18.5379 102.654 18.2514 102.782 17.9105L104.792 18.2727C104.631 18.8646 104.342 19.383 103.925 19.8281C103.513 20.2685 102.995 20.6117 102.37 20.858C101.75 21.0994 101.042 21.2202 100.246 21.2202ZM107.283 21V10.0909H109.336V11.8239H109.449C109.648 11.2367 109.998 10.7751 110.5 10.4389C111.007 10.098 111.58 9.92756 112.219 9.92756C112.352 9.92756 112.508 9.93229 112.688 9.94176C112.873 9.95123 113.017 9.96307 113.121 9.97727V12.0085C113.036 11.9848 112.884 11.9588 112.667 11.9304C112.449 11.8973 112.231 11.8807 112.013 11.8807C111.511 11.8807 111.064 11.9872 110.671 12.2003C110.283 12.4086 109.975 12.6998 109.748 13.0739C109.52 13.4432 109.407 13.8646 109.407 14.3381V21H107.283Z" fill="#737373"/>
</svg>
