<svg width="161" height="33" viewBox="0 0 161 33" fill="none" xmlns="http://www.w3.org/2000/svg">
<mask id="mask0_484_1950" style="mask-type:luminance" maskUnits="userSpaceOnUse" x="0" y="0" width="33" height="33">
<path d="M0 0H33V32.942H0V0Z" fill="white"/>
</mask>
<g mask="url(#mask0_484_1950)">
<path d="M21.9302 6.59468C22.0635 6.3331 22.3836 6.22888 22.6449 6.36209C24.8437 7.48124 26.6989 9.17976 28.0102 11.274C29.3583 13.4274 30.0709 15.9149 30.0709 18.4677C30.0709 19.5941 29.9319 20.7156 29.6577 21.8012C29.597 22.042 29.3807 22.2027 29.143 22.2027C29.0998 22.2027 29.056 22.1972 29.0125 22.1864C28.7279 22.1145 28.5554 21.8254 28.6273 21.5409C28.8799 20.5404 29.0079 19.5065 29.0079 18.4677C29.0079 13.734 26.3851 9.45826 22.1628 7.30907C21.9012 7.17616 21.797 6.85627 21.9302 6.59468ZM3.84742 22.2027C3.89062 22.2027 3.93442 22.1975 3.97791 22.1864C4.26276 22.1145 4.43494 21.8254 4.36305 21.5409C4.11052 20.5404 3.98244 19.5065 3.98244 18.4677C3.98244 13.734 6.60527 9.45856 10.8275 7.30937C11.0891 7.17616 11.1933 6.85627 11.0601 6.59468C10.9269 6.3331 10.607 6.22888 10.3454 6.36209C8.14671 7.48124 6.29143 9.17976 4.98047 11.274C3.63205 13.4274 2.91948 15.9149 2.91948 18.4677C2.91948 19.5941 3.05843 20.7159 3.3327 21.8012C3.39342 22.042 3.61 22.2027 3.84742 22.2027ZM21.276 30.0337C19.7584 30.6617 18.1499 30.9804 16.4952 30.9804C14.8405 30.9804 13.232 30.6617 11.7144 30.0337C11.4431 29.9217 11.1323 30.0503 11.0203 30.3216C10.9079 30.5928 11.0369 30.9037 11.3081 31.0157C12.955 31.6975 14.7003 32.0431 16.4952 32.0431C18.2901 32.0431 20.0351 31.6975 21.6822 31.0157C21.9535 30.9037 22.0825 30.5928 21.9701 30.3216C21.858 30.0503 21.5472 29.9217 21.276 30.0337ZM22.2951 25.3723V26.1845C22.2951 26.4781 22.0571 26.7158 21.7635 26.7158H11.2269C10.9333 26.7158 10.6952 26.4781 10.6952 26.1845V25.3723C10.6952 24.6313 11.39 24.0284 12.2433 24.0284H13.5268V23.1971H9.93343C8.98283 23.1971 8.20954 22.4238 8.20954 21.4735V13.2715C8.20954 12.3212 8.98283 11.5479 9.93343 11.5479H14.2886C14.8211 10.9236 15.6122 10.5267 16.4952 10.5267C17.3781 10.5267 18.1692 10.9236 18.7018 11.5479H23.0569C24.0075 11.5479 24.7808 12.3212 24.7808 13.2715V21.4735C24.7808 22.4238 24.0075 23.1971 23.0569 23.1971H19.4636V24.0284H20.7467C21.6004 24.0284 22.2951 24.631 22.2951 25.3723ZM19.3358 14.0249C19.2503 14.429 19.086 14.7109 18.9353 14.9685C18.719 15.338 18.4958 15.7201 18.4411 16.6214V17.4406C18.4411 17.8421 18.181 18.1834 17.8209 18.307V18.5876C17.8209 19.1464 17.3663 19.601 16.8078 19.601H16.1825C15.624 19.601 15.1694 19.1464 15.1694 18.5876V18.307C14.8094 18.1834 14.5496 17.8421 14.5496 17.4406V16.6214C14.4946 15.7201 14.2714 15.3377 14.0551 14.9685C13.9044 14.7109 13.7401 14.429 13.6546 14.0249H11.0133V19.7088H21.9774V14.0249H19.3358ZM16.2324 18.538H16.758V18.3571H16.2324V18.538ZM17.3781 17.134H15.6122V17.2941H17.3781V17.134ZM14.658 13.4268C14.658 13.8941 14.7831 14.1079 14.9725 14.4318C15.1872 14.7985 15.4461 15.241 15.5627 16.0714H17.4277C17.5443 15.241 17.8031 14.7985 18.0179 14.4318C18.2073 14.1079 18.3323 13.8941 18.3323 13.4268C18.3323 12.4137 17.5083 11.5896 16.4952 11.5896C15.4821 11.5896 14.658 12.4137 14.658 13.4268ZM9.93343 22.1341H23.0569C23.4215 22.1341 23.7179 21.8378 23.7179 21.4735V13.2715C23.7179 12.9072 23.4215 12.6109 23.0569 12.6109H19.2775C19.3113 12.7251 19.3382 12.8423 19.3576 12.9622H22.3616C22.7355 12.9622 23.04 13.2664 23.04 13.6407V20.2402C23.04 20.5338 22.8023 20.7718 22.5087 20.7718H10.4817C10.1881 20.7718 9.95034 20.5338 9.95034 20.2402V13.6407C9.95034 13.2664 10.2548 12.9622 10.6288 12.9622H13.6328C13.6521 12.8423 13.679 12.7251 13.7129 12.6109H9.93343C9.56883 12.6109 9.27251 12.9072 9.27251 13.2715V21.4735C9.27251 21.8378 9.56883 22.1341 9.93343 22.1341ZM14.5895 24.0284H18.4006V23.1971H14.5895V24.0284ZM21.2322 25.3723C21.2322 25.2602 21.0385 25.091 20.7467 25.091H12.2433C11.9518 25.091 11.7582 25.2602 11.7582 25.3723V25.6532H21.2322V25.3723ZM10.4617 32.3611C10.4777 32.5113 10.4294 32.6608 10.3285 32.7731C10.2279 32.8852 10.0842 32.9493 9.93343 32.9493H0.551891C0.401161 32.9493 0.257378 32.8852 0.15679 32.7731C0.0559005 32.6608 0.00757018 32.5113 0.0235796 32.3611C0.238348 30.3554 1.55716 28.72 3.33965 28.0301C2.71951 27.4949 2.32592 26.7038 2.32592 25.8223C2.32592 24.2138 3.63446 22.9053 5.24266 22.9053C6.85116 22.9053 8.1594 24.2138 8.1594 25.8223C8.1594 26.7038 7.76581 27.4949 7.14567 28.0301C8.92815 28.72 10.247 30.3554 10.4617 32.3611ZM5.24266 27.6761C6.26485 27.6761 7.09673 26.8445 7.09673 25.8223C7.09673 24.8001 6.26485 23.9683 5.24266 23.9683C4.22047 23.9683 3.38889 24.8001 3.38889 25.8223C3.38889 26.8445 4.22047 27.6761 5.24266 27.6761ZM9.29969 31.8863C8.83602 30.0561 7.18524 28.7391 5.24266 28.7391C3.30008 28.7391 1.64929 30.0561 1.18562 31.8863H9.29969ZM32.8336 32.7731C32.733 32.8852 32.5892 32.9493 32.4385 32.9493H23.0569C22.9062 32.9493 22.7624 32.8852 22.6618 32.7731C22.561 32.6611 22.5126 32.5113 22.5286 32.3611C22.7434 30.3554 24.0622 28.72 25.845 28.0301C25.2246 27.4949 24.831 26.7038 24.831 25.8223C24.831 24.2138 26.1395 22.9056 27.7477 22.9056C29.3562 22.9056 30.6645 24.2138 30.6645 25.8223C30.6645 26.7038 30.2709 27.4949 29.6504 28.0301C31.4332 28.7203 32.752 30.3554 32.9668 32.3614C32.9828 32.5113 32.9345 32.6608 32.8336 32.7731ZM25.8936 25.8223C25.8936 26.8445 26.7255 27.6761 27.7477 27.6761C28.7699 27.6761 29.6015 26.8445 29.6015 25.8223C29.6015 24.8001 28.7699 23.9683 27.7477 23.9683C26.7255 23.9683 25.8936 24.7998 25.8936 25.8223ZM31.8047 31.8863C31.3411 30.0561 29.6903 28.7391 27.7477 28.7391C25.8051 28.7391 24.154 30.0561 23.6907 31.8863H31.8047ZM11.4093 9.86756C11.3084 9.75549 11.2601 9.60567 11.2761 9.45584C11.4909 7.45013 12.8097 5.81475 14.5925 5.12453C13.972 4.58927 13.5784 3.79847 13.5784 2.91674C13.5784 1.30855 14.887 0 16.4952 0C18.1034 0 19.4119 1.30855 19.4119 2.91674C19.4119 3.79847 19.0183 4.58927 18.3982 5.12453C20.1807 5.81475 21.4995 7.45013 21.7143 9.45584C21.7303 9.60567 21.6819 9.75549 21.5811 9.86756C21.4805 9.97962 21.3367 10.0437 21.186 10.0437H11.8044C11.6537 10.0437 11.5099 9.97962 11.4093 9.86756ZM14.6411 2.91674C14.6411 3.93923 15.473 4.77081 16.4952 4.77081C17.5174 4.77081 18.349 3.93893 18.349 2.91674C18.349 1.89455 17.5174 1.06297 16.4952 1.06297C15.473 1.06297 14.6411 1.89455 14.6411 2.91674ZM12.4382 8.981H20.5522C20.0889 7.15048 18.4378 5.83348 16.4952 5.83348C14.5526 5.83348 12.9018 7.15078 12.4382 8.981Z" fill="#737373"/>
</g>
<path d="M64.679 18.1847H62.4631C62.3778 17.7112 62.2192 17.2945 61.9872 16.9347C61.7552 16.5748 61.4711 16.2694 61.1349 16.0185C60.7988 15.7675 60.4223 15.5781 60.0057 15.4503C59.5938 15.3224 59.1558 15.2585 58.6918 15.2585C57.8537 15.2585 57.1032 15.4692 56.4403 15.8906C55.7822 16.312 55.2614 16.9299 54.8778 17.7443C54.4991 18.5587 54.3097 19.553 54.3097 20.7273C54.3097 21.911 54.4991 22.91 54.8778 23.7244C55.2614 24.5388 55.7846 25.1544 56.4474 25.571C57.1103 25.9877 57.8561 26.196 58.6847 26.196C59.1439 26.196 59.5795 26.1345 59.9915 26.0114C60.4081 25.8835 60.7846 25.6965 61.1207 25.4503C61.4569 25.2041 61.741 24.9034 61.973 24.5483C62.2098 24.1884 62.3731 23.7765 62.4631 23.3125L64.679 23.3196C64.5606 24.0346 64.331 24.6927 63.9901 25.294C63.6539 25.8906 63.2206 26.4067 62.6903 26.8423C62.1648 27.2732 61.5634 27.607 60.8864 27.8438C60.2093 28.0805 59.4706 28.1989 58.6705 28.1989C57.411 28.1989 56.2888 27.9006 55.304 27.304C54.3191 26.7027 53.5426 25.8433 52.9744 24.7259C52.411 23.6084 52.1293 22.2756 52.1293 20.7273C52.1293 19.1742 52.4134 17.8414 52.9815 16.7287C53.5497 15.6113 54.3262 14.7543 55.3111 14.1577C56.2959 13.5563 57.4157 13.2557 58.6705 13.2557C59.4422 13.2557 60.1619 13.367 60.8295 13.5895C61.5019 13.8073 62.1056 14.1293 62.6406 14.5554C63.1757 14.9768 63.6184 15.4929 63.9688 16.1037C64.3191 16.7098 64.5559 17.4034 64.679 18.1847ZM71.7298 28.2202C70.707 28.2202 69.8145 27.9858 69.0522 27.517C68.2899 27.0483 67.698 26.3925 67.2766 25.5497C66.8552 24.7069 66.6445 23.7221 66.6445 22.5952C66.6445 21.4635 66.8552 20.474 67.2766 19.6264C67.698 18.7789 68.2899 18.1207 69.0522 17.652C69.8145 17.1832 70.707 16.9489 71.7298 16.9489C72.7525 16.9489 73.645 17.1832 74.4073 17.652C75.1696 18.1207 75.7615 18.7789 76.1829 19.6264C76.6043 20.474 76.815 21.4635 76.815 22.5952C76.815 23.7221 76.6043 24.7069 76.1829 25.5497C75.7615 26.3925 75.1696 27.0483 74.4073 27.517C73.645 27.9858 72.7525 28.2202 71.7298 28.2202ZM71.7369 26.4375C72.3997 26.4375 72.949 26.2623 73.3846 25.9119C73.8202 25.5616 74.1422 25.0952 74.3505 24.5128C74.5636 23.9304 74.6701 23.2888 74.6701 22.5881C74.6701 21.892 74.5636 21.2528 74.3505 20.6705C74.1422 20.0833 73.8202 19.6122 73.3846 19.2571C72.949 18.902 72.3997 18.7244 71.7369 18.7244C71.0692 18.7244 70.5153 18.902 70.0749 19.2571C69.6393 19.6122 69.315 20.0833 69.1019 20.6705C68.8936 21.2528 68.7894 21.892 68.7894 22.5881C68.7894 23.2888 68.8936 23.9304 69.1019 24.5128C69.315 25.0952 69.6393 25.5616 70.0749 25.9119C70.5153 26.2623 71.0692 26.4375 71.7369 26.4375ZM79.1854 28V17.0909H81.2237V18.8665H81.3587C81.5859 18.2652 81.9576 17.7964 82.4737 17.4602C82.9898 17.1193 83.6077 16.9489 84.3274 16.9489C85.0566 16.9489 85.6674 17.1193 86.1598 17.4602C86.657 17.8011 87.0239 18.2699 87.2607 18.8665H87.3743C87.6347 18.2841 88.049 17.8201 88.6172 17.4744C89.1854 17.1241 89.8625 16.9489 90.6484 16.9489C91.638 16.9489 92.4453 17.259 93.0703 17.8793C93.7 18.4995 94.0149 19.4347 94.0149 20.6847V28H91.8913V20.8835C91.8913 20.1449 91.6901 19.6098 91.2876 19.2784C90.8852 18.947 90.4046 18.7812 89.8459 18.7812C89.1546 18.7812 88.6172 18.9943 88.2337 19.4205C87.8501 19.8419 87.6584 20.384 87.6584 21.0469V28H85.5419V20.7486C85.5419 20.1567 85.3572 19.6809 84.9879 19.321C84.6186 18.9612 84.138 18.7812 83.5462 18.7812C83.1437 18.7812 82.772 18.8878 82.4311 19.1009C82.0949 19.3092 81.8227 19.6004 81.6143 19.9744C81.4107 20.3485 81.3089 20.7817 81.3089 21.2741V28H79.1854ZM96.8612 28V17.0909H98.8995V18.8665H99.0344C99.2617 18.2652 99.6334 17.7964 100.15 17.4602C100.666 17.1193 101.283 16.9489 102.003 16.9489C102.732 16.9489 103.343 17.1193 103.836 17.4602C104.333 17.8011 104.7 18.2699 104.936 18.8665H105.05C105.31 18.2841 105.725 17.8201 106.293 17.4744C106.861 17.1241 107.538 16.9489 108.324 16.9489C109.314 16.9489 110.121 17.259 110.746 17.8793C111.376 18.4995 111.691 19.4347 111.691 20.6847V28H109.567V20.8835C109.567 20.1449 109.366 19.6098 108.963 19.2784C108.561 18.947 108.08 18.7812 107.522 18.7812C106.83 18.7812 106.293 18.9943 105.909 19.4205C105.526 19.8419 105.334 20.384 105.334 21.0469V28H103.218V20.7486C103.218 20.1567 103.033 19.6809 102.664 19.321C102.294 18.9612 101.814 18.7812 101.222 18.7812C100.819 18.7812 100.448 18.8878 100.107 19.1009C99.7707 19.3092 99.4985 19.6004 99.2901 19.9744C99.0865 20.3485 98.9847 20.7817 98.9847 21.2741V28H96.8612ZM121.447 23.4759V17.0909H123.578V28H121.49V26.1108H121.376C121.125 26.6932 120.723 27.1785 120.169 27.5668C119.62 27.9503 118.936 28.142 118.116 28.142C117.416 28.142 116.795 27.9882 116.256 27.6804C115.721 27.3679 115.299 26.9062 114.991 26.2955C114.688 25.6847 114.537 24.9295 114.537 24.0298V17.0909H116.661V23.7741C116.661 24.5175 116.866 25.1094 117.278 25.5497C117.69 25.9901 118.225 26.2102 118.884 26.2102C119.281 26.2102 119.677 26.1108 120.07 25.9119C120.467 25.7131 120.796 25.4124 121.057 25.0099C121.322 24.6075 121.452 24.0961 121.447 23.4759ZM128.555 21.5227V28H126.431V17.0909H128.47V18.8665H128.605C128.856 18.2888 129.249 17.8248 129.784 17.4744C130.324 17.1241 131.003 16.9489 131.822 16.9489C132.565 16.9489 133.217 17.1051 133.775 17.4176C134.334 17.7254 134.767 18.1847 135.075 18.7955C135.383 19.4062 135.537 20.1615 135.537 21.0611V28H133.413V21.3168C133.413 20.526 133.207 19.9081 132.795 19.4631C132.383 19.0133 131.817 18.7884 131.098 18.7884C130.605 18.7884 130.167 18.8949 129.784 19.108C129.405 19.321 129.104 19.6335 128.882 20.0455C128.664 20.4527 128.555 20.9451 128.555 21.5227ZM138.385 28V17.0909H140.508V28H138.385ZM139.457 15.4077C139.088 15.4077 138.77 15.2846 138.505 15.0384C138.245 14.7874 138.115 14.4891 138.115 14.1435C138.115 13.7931 138.245 13.4948 138.505 13.2486C138.77 12.9976 139.088 12.8722 139.457 12.8722C139.826 12.8722 140.141 12.9976 140.402 13.2486C140.667 13.4948 140.799 13.7931 140.799 14.1435C140.799 14.4891 140.667 14.7874 140.402 15.0384C140.141 15.2846 139.826 15.4077 139.457 15.4077ZM148.457 17.0909V18.7955H142.499V17.0909H148.457ZM144.097 14.4773H146.22V24.7969C146.22 25.2088 146.282 25.5189 146.405 25.7273C146.528 25.9309 146.687 26.0705 146.881 26.1463C147.08 26.2173 147.295 26.2528 147.527 26.2528C147.697 26.2528 147.847 26.241 147.974 26.2173C148.102 26.1937 148.202 26.1747 148.273 26.1605L148.656 27.9148C148.533 27.9621 148.358 28.0095 148.131 28.0568C147.903 28.1089 147.619 28.1373 147.278 28.142C146.72 28.1515 146.199 28.0521 145.716 27.8438C145.233 27.6354 144.842 27.3134 144.544 26.8778C144.246 26.4422 144.097 25.8954 144.097 25.2372V14.4773ZM152.149 32.0909C151.832 32.0909 151.543 32.0649 151.282 32.0128C151.022 31.9654 150.828 31.9134 150.7 31.8565L151.211 30.1165C151.6 30.2206 151.945 30.2656 152.248 30.2514C152.551 30.2372 152.819 30.1236 153.051 29.9105C153.288 29.6974 153.496 29.3494 153.676 28.8665L153.939 28.142L149.947 17.0909H152.22L154.983 25.5568H155.096L157.859 17.0909H160.139L155.643 29.456C155.435 30.0241 155.17 30.5047 154.848 30.8977C154.526 31.2955 154.142 31.5938 153.697 31.7926C153.252 31.9915 152.736 32.0909 152.149 32.0909Z" fill="#737373"/>
</svg>
