<svg width="33" height="33" viewBox="0 0 33 33" fill="none" xmlns="http://www.w3.org/2000/svg">
<mask id="mask0_2443_1628" style="mask-type:luminance" maskUnits="userSpaceOnUse" x="0" y="0" width="33" height="33">
<path d="M0 0H33V32.942H0V0Z" fill="white"/>
</mask>
<g mask="url(#mask0_2443_1628)">
<path d="M21.9302 6.59468C22.0635 6.3331 22.3836 6.22888 22.6449 6.36209C24.8437 7.48124 26.6989 9.17976 28.0102 11.274C29.3583 13.4274 30.0709 15.9149 30.0709 18.4677C30.0709 19.5941 29.9319 20.7156 29.6577 21.8012C29.597 22.042 29.3807 22.2027 29.143 22.2027C29.0998 22.2027 29.056 22.1972 29.0125 22.1864C28.7279 22.1145 28.5554 21.8254 28.6273 21.5409C28.8799 20.5404 29.0079 19.5065 29.0079 18.4677C29.0079 13.734 26.3851 9.45826 22.1628 7.30907C21.9012 7.17616 21.797 6.85627 21.9302 6.59468ZM3.84742 22.2027C3.89062 22.2027 3.93442 22.1975 3.97791 22.1864C4.26276 22.1145 4.43494 21.8254 4.36305 21.5409C4.11052 20.5404 3.98244 19.5065 3.98244 18.4677C3.98244 13.734 6.60527 9.45856 10.8275 7.30937C11.0891 7.17616 11.1933 6.85627 11.0601 6.59468C10.9269 6.3331 10.607 6.22888 10.3454 6.36209C8.14671 7.48124 6.29143 9.17976 4.98047 11.274C3.63205 13.4274 2.91948 15.9149 2.91948 18.4677C2.91948 19.5941 3.05843 20.7159 3.3327 21.8012C3.39342 22.042 3.61 22.2027 3.84742 22.2027ZM21.276 30.0337C19.7584 30.6617 18.1499 30.9804 16.4952 30.9804C14.8405 30.9804 13.232 30.6617 11.7144 30.0337C11.4431 29.9217 11.1323 30.0503 11.0203 30.3216C10.9079 30.5928 11.0369 30.9037 11.3081 31.0157C12.955 31.6975 14.7003 32.0431 16.4952 32.0431C18.2901 32.0431 20.0351 31.6975 21.6822 31.0157C21.9535 30.9037 22.0825 30.5928 21.9701 30.3216C21.858 30.0503 21.5472 29.9217 21.276 30.0337ZM22.2951 25.3723V26.1845C22.2951 26.4781 22.0571 26.7158 21.7635 26.7158H11.2269C10.9333 26.7158 10.6952 26.4781 10.6952 26.1845V25.3723C10.6952 24.6313 11.39 24.0284 12.2433 24.0284H13.5268V23.1971H9.93343C8.98283 23.1971 8.20954 22.4238 8.20954 21.4735V13.2715C8.20954 12.3212 8.98283 11.5479 9.93343 11.5479H14.2886C14.8211 10.9236 15.6122 10.5267 16.4952 10.5267C17.3781 10.5267 18.1692 10.9236 18.7018 11.5479H23.0569C24.0075 11.5479 24.7808 12.3212 24.7808 13.2715V21.4735C24.7808 22.4238 24.0075 23.1971 23.0569 23.1971H19.4636V24.0284H20.7467C21.6004 24.0284 22.2951 24.631 22.2951 25.3723ZM19.3358 14.0249C19.2503 14.429 19.086 14.7109 18.9353 14.9685C18.719 15.338 18.4958 15.7201 18.4411 16.6214V17.4406C18.4411 17.8421 18.181 18.1834 17.8209 18.307V18.5876C17.8209 19.1464 17.3663 19.601 16.8078 19.601H16.1825C15.624 19.601 15.1694 19.1464 15.1694 18.5876V18.307C14.8094 18.1834 14.5496 17.8421 14.5496 17.4406V16.6214C14.4946 15.7201 14.2714 15.3377 14.0551 14.9685C13.9044 14.7109 13.7401 14.429 13.6546 14.0249H11.0133V19.7088H21.9774V14.0249H19.3358ZM16.2324 18.538H16.758V18.3571H16.2324V18.538ZM17.3781 17.134H15.6122V17.2941H17.3781V17.134ZM14.658 13.4268C14.658 13.8941 14.7831 14.1079 14.9725 14.4318C15.1872 14.7985 15.4461 15.241 15.5627 16.0714H17.4277C17.5443 15.241 17.8031 14.7985 18.0179 14.4318C18.2073 14.1079 18.3323 13.8941 18.3323 13.4268C18.3323 12.4137 17.5083 11.5896 16.4952 11.5896C15.4821 11.5896 14.658 12.4137 14.658 13.4268ZM9.93343 22.1341H23.0569C23.4215 22.1341 23.7179 21.8378 23.7179 21.4735V13.2715C23.7179 12.9072 23.4215 12.6109 23.0569 12.6109H19.2775C19.3113 12.7251 19.3382 12.8423 19.3576 12.9622H22.3616C22.7355 12.9622 23.04 13.2664 23.04 13.6407V20.2402C23.04 20.5338 22.8023 20.7718 22.5087 20.7718H10.4817C10.1881 20.7718 9.95034 20.5338 9.95034 20.2402V13.6407C9.95034 13.2664 10.2548 12.9622 10.6288 12.9622H13.6328C13.6521 12.8423 13.679 12.7251 13.7129 12.6109H9.93343C9.56883 12.6109 9.27251 12.9072 9.27251 13.2715V21.4735C9.27251 21.8378 9.56883 22.1341 9.93343 22.1341ZM14.5895 24.0284H18.4006V23.1971H14.5895V24.0284ZM21.2322 25.3723C21.2322 25.2602 21.0385 25.091 20.7467 25.091H12.2433C11.9518 25.091 11.7582 25.2602 11.7582 25.3723V25.6532H21.2322V25.3723ZM10.4617 32.3611C10.4777 32.5113 10.4294 32.6608 10.3285 32.7731C10.2279 32.8852 10.0842 32.9493 9.93343 32.9493H0.551891C0.401161 32.9493 0.257378 32.8852 0.15679 32.7731C0.0559005 32.6608 0.00757018 32.5113 0.0235796 32.3611C0.238348 30.3554 1.55716 28.72 3.33965 28.0301C2.71951 27.4949 2.32592 26.7038 2.32592 25.8223C2.32592 24.2138 3.63446 22.9053 5.24266 22.9053C6.85116 22.9053 8.1594 24.2138 8.1594 25.8223C8.1594 26.7038 7.76581 27.4949 7.14567 28.0301C8.92815 28.72 10.247 30.3554 10.4617 32.3611ZM5.24266 27.6761C6.26485 27.6761 7.09673 26.8445 7.09673 25.8223C7.09673 24.8001 6.26485 23.9683 5.24266 23.9683C4.22047 23.9683 3.38889 24.8001 3.38889 25.8223C3.38889 26.8445 4.22047 27.6761 5.24266 27.6761ZM9.29969 31.8863C8.83602 30.0561 7.18524 28.7391 5.24266 28.7391C3.30008 28.7391 1.64929 30.0561 1.18562 31.8863H9.29969ZM32.8336 32.7731C32.733 32.8852 32.5892 32.9493 32.4385 32.9493H23.0569C22.9062 32.9493 22.7624 32.8852 22.6618 32.7731C22.561 32.6611 22.5126 32.5113 22.5286 32.3611C22.7434 30.3554 24.0622 28.72 25.845 28.0301C25.2246 27.4949 24.831 26.7038 24.831 25.8223C24.831 24.2138 26.1395 22.9056 27.7477 22.9056C29.3562 22.9056 30.6645 24.2138 30.6645 25.8223C30.6645 26.7038 30.2709 27.4949 29.6504 28.0301C31.4332 28.7203 32.752 30.3554 32.9668 32.3614C32.9828 32.5113 32.9345 32.6608 32.8336 32.7731ZM25.8936 25.8223C25.8936 26.8445 26.7255 27.6761 27.7477 27.6761C28.7699 27.6761 29.6015 26.8445 29.6015 25.8223C29.6015 24.8001 28.7699 23.9683 27.7477 23.9683C26.7255 23.9683 25.8936 24.7998 25.8936 25.8223ZM31.8047 31.8863C31.3411 30.0561 29.6903 28.7391 27.7477 28.7391C25.8051 28.7391 24.154 30.0561 23.6907 31.8863H31.8047ZM11.4093 9.86756C11.3084 9.75549 11.2601 9.60567 11.2761 9.45584C11.4909 7.45013 12.8097 5.81475 14.5925 5.12453C13.972 4.58927 13.5784 3.79847 13.5784 2.91674C13.5784 1.30855 14.887 0 16.4952 0C18.1034 0 19.4119 1.30855 19.4119 2.91674C19.4119 3.79847 19.0183 4.58927 18.3982 5.12453C20.1807 5.81475 21.4995 7.45013 21.7143 9.45584C21.7303 9.60567 21.6819 9.75549 21.5811 9.86756C21.4805 9.97962 21.3367 10.0437 21.186 10.0437H11.8044C11.6537 10.0437 11.5099 9.97962 11.4093 9.86756ZM14.6411 2.91674C14.6411 3.93923 15.473 4.77081 16.4952 4.77081C17.5174 4.77081 18.349 3.93893 18.349 2.91674C18.349 1.89455 17.5174 1.06297 16.4952 1.06297C15.473 1.06297 14.6411 1.89455 14.6411 2.91674ZM12.4382 8.981H20.5522C20.0889 7.15048 18.4378 5.83348 16.4952 5.83348C14.5526 5.83348 12.9018 7.15078 12.4382 8.981Z" fill="#737373"/>
</g>
</svg>
