<svg className="fill-current text-green-600 hover:text-purple-700 ..." width="27" height="26" viewBox="0 0 27 26" fill="none" xmlns="http://www.w3.org/2000/svg">
<mask id="mask0_2443_1920" style="mask-type:luminance" maskUnits="userSpaceOnUse" x="0" y="0" width="27" height="26">
<path d="M0.380127 0H26.3801V26H0.380127V0Z" fill="white"/>
</mask>
<g mask="url(#mask0_2443_1920)">
<path d="M13.3982 0.0118408C6.22673 0.0118408 0.392273 5.84646 0.392273 13.0179C0.392273 20.1896 6.22673 26.0242 13.3982 26.0242C20.5697 26.0242 26.4041 20.1896 26.4041 13.0179C26.4041 5.84646 20.5697 0.0118408 13.3982 0.0118408ZM13.3982 24.8671C6.86487 24.8671 1.54948 19.5516 1.54948 13.0179C1.54948 6.48444 6.86487 1.16889 13.3982 1.16889C19.9315 1.16889 25.2469 6.48444 25.2469 13.0179C25.2469 19.5516 19.9315 24.8671 13.3982 24.8671Z" fill="#737373"/>
</g>
<path d="M13.3983 1.59485C7.09957 1.59485 1.97473 6.71921 1.97473 13.0179C1.97473 19.3166 7.09925 24.4412 13.3983 24.4412C19.6973 24.4412 24.8218 19.3166 24.8218 13.0179C24.8218 6.71921 19.697 1.59485 13.3983 1.59485ZM13.3983 23.2843C7.73739 23.2843 3.13194 18.6788 3.13194 13.0182C3.13194 7.35767 7.73739 2.7519 13.3983 2.7519C19.0592 2.7519 23.6646 7.35751 23.6646 13.0179C23.6646 18.6785 19.0592 23.2841 13.3983 23.2841V23.2843Z" fill="#737373"/>
<path d="M20.0666 6.34958C19.8827 6.16512 19.5969 6.12714 19.371 6.25615L11.4009 10.805C11.311 10.8565 11.2367 10.9312 11.1852 11.0209L6.63634 18.9908C6.50701 19.2172 6.54515 19.5023 6.72977 19.6864C6.84115 19.7981 6.98922 19.856 7.13906 19.856C7.23714 19.856 7.33618 19.8312 7.42576 19.78L15.3958 15.2312C15.4857 15.1797 15.5601 15.105 15.6115 15.0153L20.1604 7.04541C20.2897 6.81881 20.2516 6.53387 20.0669 6.34958H20.0666ZM11.8147 12.2523L14.1639 14.6017L8.69083 17.7254L11.8144 12.2523H11.8147ZM14.982 13.7836L12.6328 11.4342L18.1059 8.31048L14.9823 13.7836H14.982Z" fill="#737373"/>
<path d="M13.3983 6.67158C13.7177 6.67158 13.9768 6.41229 13.9768 6.0929V4.08039C13.9768 3.761 13.7177 3.50171 13.3983 3.50171C13.0789 3.50171 12.8198 3.761 12.8198 4.08039V6.0929C12.8198 6.41229 13.0789 6.67158 13.3983 6.67158Z" fill="#737373"/>
<path d="M13.3983 19.3644C13.0789 19.3644 12.8198 19.6237 12.8198 19.9431V21.9556C12.8198 22.275 13.0789 22.5343 13.3983 22.5343C13.7177 22.5343 13.9768 22.275 13.9768 21.9556V19.9431C13.9768 19.6237 13.7177 19.3644 13.3983 19.3644Z" fill="#737373"/>
<path d="M22.3362 12.4395H20.3232C20.0038 12.4395 19.7447 12.6987 19.7447 13.018C19.7447 13.3374 20.0038 13.5967 20.3232 13.5967H22.3362C22.6556 13.5967 22.9147 13.3374 22.9147 13.018C22.9147 12.6987 22.6556 12.4395 22.3362 12.4395Z" fill="#737373"/>
<path d="M7.05175 13.018C7.05175 12.6987 6.79261 12.4395 6.47322 12.4395H4.46024C4.14101 12.4395 3.88171 12.6987 3.88171 13.018C3.88171 13.3374 4.14101 13.5967 4.46024 13.5967H6.47322C6.79261 13.5967 7.05175 13.3374 7.05175 13.018Z" fill="#737373"/>
<path d="M18.7041 17.5058C18.4785 17.2798 18.1117 17.2798 17.886 17.5058C17.6601 17.7317 17.6601 18.0979 17.886 18.3239L19.3093 19.7473C19.4221 19.8603 19.5702 19.9167 19.7184 19.9167C19.8665 19.9167 20.0145 19.8603 20.1274 19.7473C20.3533 19.5213 20.3533 19.155 20.1274 18.9292L18.7041 17.5058Z" fill="#737373"/>
<path d="M8.09228 8.53024C8.2051 8.64338 8.35334 8.69979 8.50142 8.69979C8.64949 8.69979 8.79757 8.64338 8.91039 8.53024C9.13635 8.30428 9.13635 7.93809 8.91039 7.71213L7.48715 6.28874C7.26151 6.06293 6.89468 6.06293 6.66904 6.28874C6.44308 6.5147 6.44308 6.88104 6.66904 7.10684L8.09228 8.53024Z" fill="#737373"/>
</svg>
