<svg width="121" height="27" viewBox="0 0 121 27" fill="none" xmlns="http://www.w3.org/2000/svg">
<path d="M50.598 19V4.45455H59.7173V6.34375H52.7926V10.7756H59.2415V12.6577H52.7926V17.1108H59.8026V19H50.598ZM64.1545 8.09091L66.5621 12.3381L68.9911 8.09091H71.3136L67.9116 13.5455L71.342 19H69.0195L66.5621 14.9233L64.1119 19H61.7823L65.1772 13.5455L61.8249 8.09091H64.1545ZM73.494 23.0909V8.09091H75.5678V9.85938H75.7454C75.8685 9.6321 76.046 9.36932 76.2781 9.07102C76.5101 8.77273 76.832 8.51231 77.244 8.28977C77.6559 8.0625 78.2004 7.94886 78.8775 7.94886C79.7582 7.94886 80.5442 8.1714 81.2354 8.61648C81.9267 9.06155 82.4689 9.70312 82.8619 10.5412C83.2596 11.3793 83.4585 12.3878 83.4585 13.5668C83.4585 14.7457 83.262 15.7566 82.869 16.5994C82.476 17.4375 81.9362 18.0838 81.2496 18.5384C80.5631 18.9882 79.7795 19.2131 78.8988 19.2131C78.2359 19.2131 77.6938 19.1018 77.2724 18.8793C76.8557 18.6567 76.529 18.3963 76.2923 18.098C76.0555 17.7997 75.8732 17.5346 75.7454 17.3026H75.6175V23.0909H73.494ZM75.5749 13.5455C75.5749 14.3125 75.6862 14.9848 75.9087 15.5625C76.1313 16.1402 76.4532 16.5923 76.8746 16.919C77.296 17.241 77.8121 17.402 78.4229 17.402C79.0574 17.402 79.5877 17.2339 80.0138 16.8977C80.44 16.5568 80.762 16.0952 80.9798 15.5128C81.2023 14.9304 81.3136 14.2746 81.3136 13.5455C81.3136 12.8258 81.2047 12.1795 80.9869 11.6065C80.7738 11.0336 80.4518 10.5814 80.021 10.25C79.5948 9.91856 79.0621 9.75284 78.4229 9.75284C77.8074 9.75284 77.2866 9.91146 76.8604 10.2287C76.439 10.5459 76.1194 10.9886 75.9016 11.5568C75.6838 12.125 75.5749 12.7879 75.5749 13.5455ZM87.9613 4.45455V19H85.8377V4.45455H87.9613ZM95.4134 19.2202C94.3906 19.2202 93.4981 18.9858 92.7358 18.517C91.9735 18.0483 91.3816 17.3925 90.9602 16.5497C90.5388 15.7069 90.3281 14.7221 90.3281 13.5952C90.3281 12.4635 90.5388 11.474 90.9602 10.6264C91.3816 9.77888 91.9735 9.12074 92.7358 8.65199C93.4981 8.18324 94.3906 7.94886 95.4134 7.94886C96.4361 7.94886 97.3286 8.18324 98.0909 8.65199C98.8532 9.12074 99.4451 9.77888 99.8665 10.6264C100.288 11.474 100.499 12.4635 100.499 13.5952C100.499 14.7221 100.288 15.7069 99.8665 16.5497C99.4451 17.3925 98.8532 18.0483 98.0909 18.517C97.3286 18.9858 96.4361 19.2202 95.4134 19.2202ZM95.4205 17.4375C96.0833 17.4375 96.6326 17.2623 97.0682 16.9119C97.5038 16.5616 97.8258 16.0952 98.0341 15.5128C98.2472 14.9304 98.3537 14.2888 98.3537 13.5881C98.3537 12.892 98.2472 12.2528 98.0341 11.6705C97.8258 11.0833 97.5038 10.6122 97.0682 10.2571C96.6326 9.90199 96.0833 9.72443 95.4205 9.72443C94.7528 9.72443 94.1989 9.90199 93.7585 10.2571C93.3229 10.6122 92.9986 11.0833 92.7855 11.6705C92.5772 12.2528 92.473 12.892 92.473 13.5881C92.473 14.2888 92.5772 14.9304 92.7855 15.5128C92.9986 16.0952 93.3229 16.5616 93.7585 16.9119C94.1989 17.2623 94.7528 17.4375 95.4205 17.4375ZM102.869 19V8.09091H104.922V9.82386H105.035C105.234 9.23674 105.584 8.77509 106.086 8.43892C106.593 8.09801 107.166 7.92756 107.805 7.92756C107.938 7.92756 108.094 7.93229 108.274 7.94176C108.458 7.95123 108.603 7.96307 108.707 7.97727V10.0085C108.622 9.98485 108.47 9.95881 108.252 9.9304C108.035 9.89725 107.817 9.88068 107.599 9.88068C107.097 9.88068 106.65 9.98722 106.257 10.2003C105.868 10.4086 105.561 10.6998 105.333 11.0739C105.106 11.4432 104.993 11.8646 104.993 12.3381V19H102.869ZM114.856 19.2202C113.781 19.2202 112.855 18.9905 112.079 18.5312C111.307 18.0672 110.71 17.4162 110.289 16.5781C109.872 15.7353 109.664 14.7481 109.664 13.6165C109.664 12.4991 109.872 11.5142 110.289 10.6619C110.71 9.80966 111.298 9.14441 112.05 8.66619C112.808 8.18797 113.693 7.94886 114.707 7.94886C115.322 7.94886 115.919 8.05066 116.496 8.25426C117.074 8.45786 117.593 8.77746 118.052 9.21307C118.511 9.64867 118.873 10.2145 119.138 10.9105C119.404 11.6018 119.536 12.4422 119.536 13.4318V14.1847H110.864V12.5938H117.455C117.455 12.035 117.342 11.5402 117.114 11.1094C116.887 10.6738 116.567 10.3305 116.156 10.0795C115.748 9.8286 115.27 9.70312 114.721 9.70312C114.124 9.70312 113.603 9.84991 113.158 10.1435C112.718 10.4323 112.377 10.8111 112.136 11.2798C111.899 11.7438 111.781 12.2481 111.781 12.7926V14.0355C111.781 14.7647 111.908 15.3849 112.164 15.8963C112.424 16.4077 112.787 16.7983 113.251 17.0682C113.715 17.3333 114.257 17.4659 114.877 17.4659C115.28 17.4659 115.647 17.4091 115.978 17.2955C116.309 17.1771 116.596 17.0019 116.837 16.7699C117.079 16.5379 117.263 16.2514 117.391 15.9105L119.401 16.2727C119.24 16.8646 118.951 17.383 118.535 17.8281C118.123 18.2685 117.604 18.6117 116.979 18.858C116.359 19.0994 115.651 19.2202 114.856 19.2202Z" fill="#737373"/>
<mask id="mask0_484_1951" style="mask-type:luminance" maskUnits="userSpaceOnUse" x="0" y="1" width="27" height="26">
<path d="M0.380127 1H26.3801V27H0.380127V1Z" fill="white"/>
</mask>
<g mask="url(#mask0_484_1951)">
<path d="M13.3982 1.01184C6.22673 1.01184 0.392273 6.84646 0.392273 14.0179C0.392273 21.1896 6.22673 27.0242 13.3982 27.0242C20.5697 27.0242 26.4041 21.1896 26.4041 14.0179C26.4041 6.84646 20.5697 1.01184 13.3982 1.01184ZM13.3982 25.8671C6.86487 25.8671 1.54948 20.5516 1.54948 14.0179C1.54948 7.48444 6.86487 2.16889 13.3982 2.16889C19.9315 2.16889 25.2469 7.48444 25.2469 14.0179C25.2469 20.5516 19.9315 25.8671 13.3982 25.8671Z" fill="#737373"/>
</g>
<path d="M13.3983 2.59485C7.09957 2.59485 1.97473 7.71921 1.97473 14.0179C1.97473 20.3166 7.09925 25.4412 13.3983 25.4412C19.6973 25.4412 24.8218 20.3166 24.8218 14.0179C24.8218 7.71921 19.697 2.59485 13.3983 2.59485ZM13.3983 24.2843C7.73739 24.2843 3.13194 19.6788 3.13194 14.0182C3.13194 8.35767 7.73739 3.7519 13.3983 3.7519C19.0592 3.7519 23.6646 8.35751 23.6646 14.0179C23.6646 19.6785 19.0592 24.2841 13.3983 24.2841V24.2843Z" fill="#737373"/>
<path d="M20.0666 7.34958C19.8827 7.16512 19.5969 7.12714 19.371 7.25615L11.4009 11.805C11.311 11.8565 11.2367 11.9312 11.1852 12.0209L6.63634 19.9908C6.50701 20.2172 6.54515 20.5023 6.72977 20.6864C6.84115 20.7981 6.98922 20.856 7.13906 20.856C7.23714 20.856 7.33618 20.8312 7.42576 20.78L15.3958 16.2312C15.4857 16.1797 15.5601 16.105 15.6115 16.0153L20.1604 8.04541C20.2897 7.81881 20.2516 7.53387 20.0669 7.34958H20.0666ZM11.8147 13.2523L14.1639 15.6017L8.69083 18.7254L11.8144 13.2523H11.8147ZM14.982 14.7836L12.6328 12.4342L18.1059 9.31048L14.9823 14.7836H14.982Z" fill="#737373"/>
<path d="M13.3983 7.67158C13.7177 7.67158 13.9768 7.41229 13.9768 7.0929V5.08039C13.9768 4.761 13.7177 4.50171 13.3983 4.50171C13.0789 4.50171 12.8198 4.761 12.8198 5.08039V7.0929C12.8198 7.41229 13.0789 7.67158 13.3983 7.67158Z" fill="#737373"/>
<path d="M13.3983 20.3644C13.0789 20.3644 12.8198 20.6237 12.8198 20.9431V22.9556C12.8198 23.275 13.0789 23.5343 13.3983 23.5343C13.7177 23.5343 13.9768 23.275 13.9768 22.9556V20.9431C13.9768 20.6237 13.7177 20.3644 13.3983 20.3644Z" fill="#737373"/>
<path d="M22.3362 13.4395H20.3232C20.0038 13.4395 19.7447 13.6987 19.7447 14.018C19.7447 14.3374 20.0038 14.5967 20.3232 14.5967H22.3362C22.6556 14.5967 22.9147 14.3374 22.9147 14.018C22.9147 13.6987 22.6556 13.4395 22.3362 13.4395Z" fill="#737373"/>
<path d="M7.05175 14.018C7.05175 13.6987 6.79261 13.4395 6.47322 13.4395H4.46024C4.14101 13.4395 3.88171 13.6987 3.88171 14.018C3.88171 14.3374 4.14101 14.5967 4.46024 14.5967H6.47322C6.79261 14.5967 7.05175 14.3374 7.05175 14.018Z" fill="#737373"/>
<path d="M18.7041 18.5058C18.4785 18.2798 18.1117 18.2798 17.886 18.5058C17.6601 18.7317 17.6601 19.0979 17.886 19.3239L19.3093 20.7473C19.4221 20.8603 19.5702 20.9167 19.7184 20.9167C19.8665 20.9167 20.0145 20.8603 20.1274 20.7473C20.3533 20.5213 20.3533 20.155 20.1274 19.9292L18.7041 18.5058Z" fill="#737373"/>
<path d="M8.09228 9.53024C8.2051 9.64338 8.35334 9.69979 8.50142 9.69979C8.64949 9.69979 8.79757 9.64338 8.91039 9.53024C9.13635 9.30428 9.13635 8.93809 8.91039 8.71213L7.48715 7.28874C7.26151 7.06293 6.89468 7.06293 6.66904 7.28874C6.44308 7.5147 6.44308 7.88104 6.66904 8.10684L8.09228 9.53024Z" fill="#737373"/>
</svg>
