<svg width="113" height="30" viewBox="0 0 113 30" fill="none" xmlns="http://www.w3.org/2000/svg">
<mask id="mask0_484_1952" style="mask-type:luminance" maskUnits="userSpaceOnUse" x="3" y="0" width="23" height="12">
<path d="M3.96356 0H25.874V11.7094H3.96356V0Z" fill="white"/>
</mask>
<g mask="url(#mask0_484_1952)">
<path d="M14.5777 0.105675L3.97839 5.77801L14.9691 11.6989L25.8541 5.71583L15.3728 0.12433C15.3128 0.0891462 15.2493 0.0619807 15.1823 0.0429977C15.1154 0.0240146 15.0472 0.0137049 14.9776 0.0120684C14.9081 0.0104319 14.8395 0.0176324 14.7717 0.0333425C14.704 0.0492163 14.6392 0.0732724 14.5777 0.105675Z" fill="#737373"/>
</g>
<mask id="mask1_484_1952" style="mask-type:luminance" maskUnits="userSpaceOnUse" x="15" y="7" width="12" height="19">
<path d="M15.8195 7.01733H26.9632V25.6075H15.8195V7.01733Z" fill="white"/>
</mask>
<g mask="url(#mask1_484_1952)">
<path d="M26.494 19.8814C26.5274 19.8637 26.5593 19.8437 26.5899 19.8216C26.6205 19.7995 26.6495 19.7755 26.6768 19.7495C26.7041 19.7233 26.7297 19.6956 26.7532 19.666C26.7768 19.6365 26.7982 19.6056 26.8175 19.5732C26.8368 19.5408 26.854 19.5071 26.8688 19.4724C26.8835 19.4377 26.8959 19.402 26.9059 19.3657C26.9157 19.3292 26.9233 19.2922 26.9282 19.2549C26.9331 19.2174 26.9354 19.1798 26.9352 19.142V7.03931L15.8203 13.1528V25.5786L26.494 19.8814Z" fill="#737373"/>
</g>
<path d="M14.9758 12.6563L14.9692 12.6495V12.6563H14.9758Z" fill="#737373"/>
<mask id="mask2_484_1952" style="mask-type:luminance" maskUnits="userSpaceOnUse" x="3" y="7" width="12" height="19">
<path d="M3 7.14307H14.1437V25.6075H3V7.14307Z" fill="white"/>
</mask>
<g mask="url(#mask2_484_1952)">
<path d="M3.00916 19.1172C3.00899 19.1934 3.01881 19.2684 3.03878 19.342C3.05874 19.4157 3.0882 19.4852 3.12698 19.5508C3.16577 19.6165 3.21257 19.6757 3.26756 19.7287C3.32238 19.7817 3.38342 19.8264 3.45035 19.8628L14.1365 25.5786V13.1529L3.00916 7.15735V19.1172Z" fill="#737373"/>
</g>
<path d="M53.598 19V4.45455H55.7926V10.7756H63.044V4.45455H65.2457V19H63.044V12.6577H55.7926V19H53.598ZM72.8665 19.2202C71.8438 19.2202 70.9512 18.9858 70.1889 18.517C69.4266 18.0483 68.8348 17.3925 68.4134 16.5497C67.992 15.7069 67.7812 14.7221 67.7812 13.5952C67.7812 12.4635 67.992 11.474 68.4134 10.6264C68.8348 9.77888 69.4266 9.12074 70.1889 8.65199C70.9512 8.18324 71.8438 7.94886 72.8665 7.94886C73.8892 7.94886 74.7817 8.18324 75.544 8.65199C76.3063 9.12074 76.8982 9.77888 77.3196 10.6264C77.741 11.474 77.9517 12.4635 77.9517 13.5952C77.9517 14.7221 77.741 15.7069 77.3196 16.5497C76.8982 17.3925 76.3063 18.0483 75.544 18.517C74.7817 18.9858 73.8892 19.2202 72.8665 19.2202ZM72.8736 17.4375C73.5365 17.4375 74.0857 17.2623 74.5213 16.9119C74.9569 16.5616 75.2789 16.0952 75.4872 15.5128C75.7003 14.9304 75.8068 14.2888 75.8068 13.5881C75.8068 12.892 75.7003 12.2528 75.4872 11.6705C75.2789 11.0833 74.9569 10.6122 74.5213 10.2571C74.0857 9.90199 73.5365 9.72443 72.8736 9.72443C72.206 9.72443 71.652 9.90199 71.2116 10.2571C70.776 10.6122 70.4517 11.0833 70.2386 11.6705C70.0303 12.2528 69.9261 12.892 69.9261 13.5881C69.9261 14.2888 70.0303 14.9304 70.2386 15.5128C70.4517 16.0952 70.776 16.5616 71.2116 16.9119C71.652 17.2623 72.206 17.4375 72.8736 17.4375ZM80.3221 19V8.09091H82.3604V9.86648H82.4954C82.7227 9.26515 83.0943 8.7964 83.6104 8.46023C84.1265 8.11932 84.7444 7.94886 85.4641 7.94886C86.1933 7.94886 86.8041 8.11932 87.2965 8.46023C87.7937 8.80114 88.1606 9.26989 88.3974 9.86648H88.511C88.7714 9.28409 89.1857 8.82008 89.7539 8.47443C90.3221 8.12405 90.9992 7.94886 91.7852 7.94886C92.7747 7.94886 93.582 8.259 94.207 8.87926C94.8368 9.49953 95.1516 10.4347 95.1516 11.6847V19H93.0281V11.8835C93.0281 11.1449 92.8268 10.6098 92.4244 10.2784C92.0219 9.94697 91.5413 9.78125 90.9826 9.78125C90.2913 9.78125 89.7539 9.99432 89.3704 10.4205C88.9869 10.8419 88.7951 11.384 88.7951 12.0469V19H86.6786V11.7486C86.6786 11.1567 86.494 10.6809 86.1246 10.321C85.7553 9.96117 85.2747 9.78125 84.6829 9.78125C84.2804 9.78125 83.9087 9.88778 83.5678 10.1009C83.2317 10.3092 82.9594 10.6004 82.7511 10.9744C82.5475 11.3485 82.4457 11.7817 82.4457 12.2741V19H80.3221ZM102.7 19.2202C101.625 19.2202 100.699 18.9905 99.9226 18.5312C99.1508 18.0672 98.5542 17.4162 98.1328 16.5781C97.7161 15.7353 97.5078 14.7481 97.5078 13.6165C97.5078 12.4991 97.7161 11.5142 98.1328 10.6619C98.5542 9.80966 99.1413 9.14441 99.8942 8.66619C100.652 8.18797 101.537 7.94886 102.55 7.94886C103.166 7.94886 103.763 8.05066 104.34 8.25426C104.918 8.45786 105.436 8.77746 105.896 9.21307C106.355 9.64867 106.717 10.2145 106.982 10.9105C107.247 11.6018 107.38 12.4422 107.38 13.4318V14.1847H98.7081V12.5938H105.299C105.299 12.035 105.185 11.5402 104.958 11.1094C104.731 10.6738 104.411 10.3305 103.999 10.0795C103.592 9.8286 103.114 9.70312 102.565 9.70312C101.968 9.70312 101.447 9.84991 101.002 10.1435C100.562 10.4323 100.221 10.8111 99.9794 11.2798C99.7427 11.7438 99.6243 12.2481 99.6243 12.7926V14.0355C99.6243 14.7647 99.7521 15.3849 100.008 15.8963C100.268 16.4077 100.63 16.7983 101.094 17.0682C101.558 17.3333 102.101 17.4659 102.721 17.4659C103.123 17.4659 103.49 17.4091 103.822 17.2955C104.153 17.1771 104.44 17.0019 104.681 16.7699C104.923 16.5379 105.107 16.2514 105.235 15.9105L107.245 16.2727C107.084 16.8646 106.795 17.383 106.379 17.8281C105.967 18.2685 105.448 18.6117 104.823 18.858C104.203 19.0994 103.495 19.2202 102.7 19.2202Z" fill="#737373"/>
</svg>
