<svg width="24" height="26" viewBox="0 0 24 26" fill="none" xmlns="http://www.w3.org/2000/svg">
<mask id="mask0_2443_1934" style="mask-type:luminance" maskUnits="userSpaceOnUse" x="0" y="0" width="23" height="12">
<path d="M0.963562 0H22.874V11.7094H0.963562V0Z" fill="white"/>
</mask>
<g mask="url(#mask0_2443_1934)">
<path d="M11.5777 0.105675L0.978394 5.77801L11.9691 11.6989L22.8541 5.71583L12.3728 0.12433C12.3128 0.0891462 12.2493 0.0619807 12.1823 0.0429977C12.1154 0.0240146 12.0472 0.0137049 11.9776 0.0120684C11.9081 0.0104319 11.8395 0.0176324 11.7717 0.0333425C11.704 0.0492163 11.6392 0.0732724 11.5777 0.105675Z" fill="#737373"/>
</g>
<mask id="mask1_2443_1934" style="mask-type:luminance" maskUnits="userSpaceOnUse" x="12" y="7" width="12" height="19">
<path d="M12.8195 7.01733H23.9632V25.6075H12.8195V7.01733Z" fill="white"/>
</mask>
<g mask="url(#mask1_2443_1934)">
<path d="M23.494 19.8814C23.5274 19.8637 23.5593 19.8437 23.5899 19.8216C23.6205 19.7995 23.6495 19.7755 23.6768 19.7495C23.7041 19.7233 23.7297 19.6956 23.7532 19.666C23.7768 19.6365 23.7982 19.6056 23.8175 19.5732C23.8368 19.5408 23.854 19.5071 23.8688 19.4724C23.8835 19.4377 23.8959 19.402 23.9059 19.3657C23.9157 19.3292 23.9233 19.2922 23.9282 19.2549C23.9331 19.2174 23.9354 19.1798 23.9352 19.142V7.03931L12.8203 13.1528V25.5786L23.494 19.8814Z" fill="#737373"/>
</g>
<path d="M11.9758 12.6563L11.9692 12.6495V12.6563H11.9758Z" fill="#737373"/>
<mask id="mask2_2443_1934" style="mask-type:luminance" maskUnits="userSpaceOnUse" x="0" y="7" width="12" height="19">
<path d="M0 7.14307H11.1437V25.6075H0V7.14307Z" fill="white"/>
</mask>
<g mask="url(#mask2_2443_1934)">
<path d="M0.00915729 19.1172C0.00899365 19.1934 0.0188125 19.2684 0.0387774 19.342C0.0587424 19.4157 0.0881989 19.4852 0.126983 19.5508C0.165768 19.6165 0.212571 19.6757 0.267556 19.7287C0.322378 19.7817 0.383418 19.8264 0.45035 19.8628L11.1365 25.5786V13.1529L0.00915729 7.15735V19.1172Z" fill="#737373"/>
</g>
</svg>
