<svg width="107" height="24" viewBox="0 0 107 24" fill="none" xmlns="http://www.w3.org/2000/svg">
<path d="M22.2054 10.5948C20.5559 10.6367 19.0079 10.9825 17.8312 11.7867C16.6545 10.9825 15.1064 10.6367 13.4569 10.5948V7.93162L17.7584 8.89597C17.8061 8.90633 17.8563 8.90633 17.903 8.89597L22.2054 7.93162V10.5948ZM27.2516 7.97648C27.2516 7.84502 27.1435 7.73542 26.9987 7.70391V6.84929C27.2209 6.75972 27.2061 6.4748 26.9487 6.41773L17.903 4.38923C17.8563 4.37872 17.8061 4.37872 17.7584 4.38923L8.71368 6.41773C8.43805 6.47863 8.43805 6.80642 8.71368 6.86832L12.2096 7.65152V11.699C12.5355 11.6561 12.8726 11.6343 13.2156 11.6343C15.1485 11.6343 16.8469 12.205 17.8244 13.2654L17.8312 13.2683L17.838 13.2654C18.8154 12.205 20.5138 11.6343 22.4469 11.6343C22.7898 11.6343 23.1269 11.6561 23.4527 11.699V7.65152L26.8314 6.89415V7.70391C26.6856 7.73542 26.5785 7.84502 26.5785 7.97648C26.5785 8.07557 26.6387 8.16131 26.7311 8.21185C26.6264 8.53964 26.3382 9.5047 26.3382 10.3089C26.3382 10.3089 26.4577 10.4699 26.9134 10.4909C27.3713 10.4699 27.4919 10.3089 27.4919 10.3089C27.4919 9.5047 27.2038 8.53964 27.0956 8.21185C27.189 8.16131 27.2516 8.07557 27.2516 7.97648Z" fill="#8C52FF"/>
<mask id="mask0_484_1943" style="mask-type:luminance" maskUnits="userSpaceOnUse" x="0" y="0" width="36" height="19">
<path d="M0 0H36V18.3438H0V0Z" fill="white"/>
</mask>
<g mask="url(#mask0_484_1943)">
<path d="M30.111 15.7391H21.1016C21.0743 16.3737 20.4353 16.8892 19.6595 16.8892H16.3879C15.6089 16.8892 14.98 16.3737 14.9469 15.7391H5.88648V1.91112H30.111V15.7391ZM32.4312 15.7638C32.4484 15.6552 32.4574 15.5438 32.4574 15.4294V2.23125C32.4574 1.00015 31.3457 0.000732422 29.965 0.000732422H6.02429C4.65158 0.000732422 3.54108 1.00015 3.54108 2.23125V15.4294C3.54108 15.5438 3.54787 15.6552 3.56043 15.7638H0.0212097V16.1116C0.0212097 17.3531 1.13289 18.3421 2.50442 18.3421H33.4906C34.8622 18.3421 35.9739 17.3531 35.9739 16.1116V15.7638H32.4312Z" fill="#8C52FF"/>
</g>
<path d="M53.598 19V4.45455H55.7926V17.1108H62.3835V19H53.598ZM69.4183 19.2202C68.3435 19.2202 67.4179 18.9905 66.6413 18.5312C65.8696 18.0672 65.273 17.4162 64.8516 16.5781C64.4349 15.7353 64.2266 14.7481 64.2266 13.6165C64.2266 12.4991 64.4349 11.5142 64.8516 10.6619C65.273 9.80966 65.8601 9.14441 66.6129 8.66619C67.3705 8.18797 68.2559 7.94886 69.2692 7.94886C69.8847 7.94886 70.4813 8.05066 71.0589 8.25426C71.6366 8.45786 72.1551 8.77746 72.6143 9.21307C73.0736 9.64867 73.4358 10.2145 73.701 10.9105C73.9661 11.6018 74.0987 12.4422 74.0987 13.4318V14.1847H65.4268V12.5938H72.0178C72.0178 12.035 71.9041 11.5402 71.6768 11.1094C71.4496 10.6738 71.13 10.3305 70.718 10.0795C70.3108 9.8286 69.8326 9.70312 69.2834 9.70312C68.6868 9.70312 68.166 9.84991 67.7209 10.1435C67.2805 10.4323 66.9396 10.8111 66.6982 11.2798C66.4614 11.7438 66.343 12.2481 66.343 12.7926V14.0355C66.343 14.7647 66.4709 15.3849 66.7266 15.8963C66.987 16.4077 67.3492 16.7983 67.8132 17.0682C68.2772 17.3333 68.8194 17.4659 69.4396 17.4659C69.8421 17.4659 70.209 17.4091 70.5405 17.2955C70.8719 17.1771 71.1584 17.0019 71.3999 16.7699C71.6413 16.5379 71.826 16.2514 71.9538 15.9105L73.9638 16.2727C73.8028 16.8646 73.514 17.383 73.0973 17.8281C72.6854 18.2685 72.1669 18.6117 71.5419 18.858C70.9216 19.0994 70.2138 19.2202 69.4183 19.2202ZM79.6296 19.2415C78.9383 19.2415 78.3133 19.1136 77.7546 18.858C77.1959 18.5975 76.7532 18.2211 76.4265 17.7287C76.1045 17.2363 75.9435 16.6326 75.9435 15.9176C75.9435 15.3021 76.0619 14.7955 76.2987 14.3977C76.5354 14 76.855 13.6851 77.2575 13.4531C77.6599 13.2211 78.1097 13.0459 78.6069 12.9276C79.104 12.8092 79.6107 12.7192 80.1268 12.6577C80.7802 12.5819 81.3105 12.5204 81.7177 12.473C82.1249 12.4209 82.4208 12.3381 82.6055 12.2244C82.7901 12.1108 82.8825 11.9261 82.8825 11.6705V11.6207C82.8825 11.0005 82.7073 10.5199 82.3569 10.179C82.0112 9.83807 81.4951 9.66761 80.8086 9.66761C80.0936 9.66761 79.5302 9.82623 79.1183 10.1435C78.7111 10.456 78.4293 10.804 78.2731 11.1875L76.2773 10.733C76.5141 10.0701 76.8597 9.53504 77.3143 9.12784C77.7736 8.71591 78.3015 8.41761 78.8981 8.23295C79.4947 8.04356 80.122 7.94886 80.7802 7.94886C81.2158 7.94886 81.6774 8.00095 82.1651 8.10511C82.6576 8.20455 83.1168 8.3892 83.543 8.65909C83.9738 8.92898 84.3266 9.31487 84.6012 9.81676C84.8758 10.3139 85.0131 10.9602 85.0131 11.7557V19H82.9393V17.5085H82.854C82.7167 17.7831 82.5108 18.053 82.2362 18.3182C81.9615 18.5833 81.6088 18.8035 81.1779 18.9787C80.747 19.1539 80.2309 19.2415 79.6296 19.2415ZM80.0913 17.5369C80.6784 17.5369 81.1803 17.4209 81.5969 17.1889C82.0183 16.9569 82.338 16.6539 82.5558 16.2798C82.7783 15.901 82.8896 15.4962 82.8896 15.0653V13.6591C82.8138 13.7348 82.667 13.8059 82.4492 13.8722C82.2362 13.9337 81.9923 13.9882 81.7177 14.0355C81.4431 14.0781 81.1755 14.1184 80.9151 14.1562C80.6547 14.1894 80.4369 14.2178 80.2617 14.2415C79.8498 14.2936 79.4734 14.3812 79.1325 14.5043C78.7963 14.6274 78.5264 14.8049 78.3228 15.0369C78.1239 15.2642 78.0245 15.5672 78.0245 15.946C78.0245 16.4716 78.2186 16.8693 78.6069 17.1392C78.9951 17.4044 79.4899 17.5369 80.0913 17.5369ZM87.8416 19V8.09091H89.8942V9.82386H90.0078C90.2067 9.23674 90.5571 8.77509 91.0589 8.43892C91.5656 8.09801 92.1385 7.92756 92.7777 7.92756C92.9103 7.92756 93.0665 7.93229 93.2464 7.94176C93.4311 7.95123 93.5755 7.96307 93.6797 7.97727V10.0085C93.5945 9.98485 93.4429 9.95881 93.2251 9.9304C93.0073 9.89725 92.7895 9.88068 92.5717 9.88068C92.0698 9.88068 91.6224 9.98722 91.2294 10.2003C90.8411 10.4086 90.5334 10.6998 90.3061 11.0739C90.0788 11.4432 89.9652 11.8646 89.9652 12.3381V19H87.8416ZM97.641 12.5227V19H95.5174V8.09091H97.5558V9.86648H97.6907C97.9416 9.28883 98.3346 8.82481 98.8697 8.47443C99.4094 8.12405 100.089 7.94886 100.908 7.94886C101.651 7.94886 102.302 8.10511 102.861 8.41761C103.42 8.72538 103.853 9.18466 104.161 9.79545C104.469 10.4062 104.623 11.1615 104.623 12.0611V19H102.499V12.3168C102.499 11.526 102.293 10.9081 101.881 10.4631C101.469 10.0133 100.903 9.78835 100.184 9.78835C99.6912 9.78835 99.2532 9.89489 98.8697 10.108C98.4909 10.321 98.1902 10.6335 97.9677 11.0455C97.7499 11.4527 97.641 11.9451 97.641 12.5227Z" fill="#8C52FF"/>
</svg>
