<svg width="36" height="19" viewBox="0 0 36 19" fill="none" xmlns="http://www.w3.org/2000/svg">
<path d="M22.2054 10.5948C20.5559 10.6367 19.0079 10.9825 17.8312 11.7867C16.6545 10.9825 15.1064 10.6367 13.4569 10.5948V7.93159L17.7584 8.89594C17.8061 8.9063 17.8563 8.9063 17.903 8.89594L22.2054 7.93159V10.5948ZM27.2516 7.97645C27.2516 7.84499 27.1435 7.73539 26.9987 7.70388V6.84926C27.2209 6.75969 27.2061 6.47477 26.9487 6.4177L17.903 4.3892C17.8563 4.37869 17.8061 4.37869 17.7584 4.3892L8.71368 6.4177C8.43805 6.4786 8.43805 6.80639 8.71368 6.86829L12.2096 7.65149V11.699C12.5355 11.6561 12.8726 11.6342 13.2156 11.6342C15.1485 11.6342 16.8469 12.2049 17.8244 13.2654L17.8312 13.2682L17.838 13.2654C18.8154 12.2049 20.5138 11.6342 22.4469 11.6342C22.7898 11.6342 23.1269 11.6561 23.4527 11.699V7.65149L26.8314 6.89412V7.70388C26.6856 7.73539 26.5785 7.84499 26.5785 7.97645C26.5785 8.07553 26.6387 8.16128 26.7311 8.21182C26.6264 8.53961 26.3382 9.50467 26.3382 10.3089C26.3382 10.3089 26.4577 10.4699 26.9134 10.4909C27.3713 10.4699 27.4919 10.3089 27.4919 10.3089C27.4919 9.50467 27.2038 8.53961 27.0956 8.21182C27.189 8.16128 27.2516 8.07553 27.2516 7.97645Z" fill="#737373"/>
<mask id="mask0_456_1833" style="mask-type:luminance" maskUnits="userSpaceOnUse" x="0" y="0" width="36" height="19">
<path d="M0 0H36V18.3438H0V0Z" fill="white"/>
</mask>
<g mask="url(#mask0_456_1833)">
<path d="M30.111 15.7391H21.1016C21.0743 16.3736 20.4353 16.8891 19.6595 16.8891H16.3879C15.6089 16.8891 14.9801 16.3736 14.947 15.7391H5.88651V1.91108H30.111V15.7391ZM32.4313 15.7638C32.4484 15.6552 32.4574 15.5437 32.4574 15.4293V2.2312C32.4574 1.0001 31.3457 0.000686646 29.965 0.000686646H6.02432C4.65161 0.000686646 3.54111 1.0001 3.54111 2.2312V15.4293C3.54111 15.5437 3.5479 15.6552 3.56046 15.7638H0.0212402V16.1116C0.0212402 17.353 1.13292 18.3421 2.50445 18.3421H33.4907C34.8622 18.3421 35.9739 17.353 35.9739 16.1116V15.7638H32.4313Z" fill="#737373"/>
</g>
</svg>
