<svg width="158" height="25" viewBox="0 0 158 25" fill="none" xmlns="http://www.w3.org/2000/svg">
<path d="M6.34513 15.4556C6.43408 15.4556 6.52304 15.4513 6.61154 15.4425C6.70027 15.4337 6.78832 15.4208 6.87547 15.4034C6.96284 15.3861 7.04931 15.3644 7.13443 15.3384C7.21977 15.3127 7.30353 15.2827 7.38571 15.2486C7.4679 15.2145 7.5485 15.1765 7.62684 15.1345C7.70541 15.0926 7.78172 15.0467 7.85577 14.9973C7.92983 14.9478 8.0014 14.8948 8.07026 14.8383C8.13912 14.7819 8.20504 14.7221 8.26803 14.6591C8.3308 14.5961 8.39063 14.5302 8.44707 14.4615C8.50374 14.3927 8.55657 14.3211 8.60601 14.247C8.65568 14.173 8.70129 14.0967 8.74328 14.0181C8.78528 13.9395 8.82321 13.8592 8.8573 13.777C8.89139 13.6946 8.92142 13.6108 8.94738 13.5257C8.97312 13.4404 8.99479 13.3541 9.01218 13.2667C9.02956 13.1794 9.04266 13.0915 9.05124 13.0028C9.06004 12.9143 9.06433 12.8253 9.06433 12.7364C9.06433 12.6472 9.06004 12.5585 9.05124 12.4698C9.04266 12.381 9.02956 12.2932 9.01218 12.2058C8.99479 12.1185 8.97312 12.0322 8.94738 11.9469C8.92142 11.8618 8.89139 11.778 8.8573 11.6956C8.82321 11.6134 8.78528 11.533 8.74328 11.4545C8.70129 11.3759 8.65568 11.2996 8.60601 11.2255C8.55657 11.1515 8.50374 11.0801 8.44707 11.0113C8.39063 10.9424 8.3308 10.8765 8.26803 10.8135C8.20504 10.7505 8.13912 10.6907 8.07026 10.6342C8.0014 10.5778 7.92983 10.5247 7.85577 10.4753C7.78172 10.4258 7.70541 10.38 7.62684 10.338C7.5485 10.296 7.4679 10.2581 7.38571 10.224C7.30353 10.1899 7.21977 10.1599 7.13443 10.1341C7.04931 10.1082 6.96284 10.0865 6.87569 10.0691C6.78832 10.0517 6.70027 10.0389 6.61154 10.0301C6.52304 10.0213 6.43408 10.017 6.34513 10.017C6.25595 10.017 6.16722 10.0213 6.07849 10.0301C5.98999 10.0389 5.90194 10.0517 5.81456 10.0691C5.72719 10.0865 5.64095 10.1082 5.5556 10.1341C5.47049 10.1599 5.38673 10.1899 5.30432 10.224C5.22214 10.2581 5.14176 10.296 5.06319 10.338C4.98463 10.38 4.90831 10.4258 4.83426 10.4753C4.76021 10.5247 4.68886 10.5778 4.62 10.6342C4.55114 10.6907 4.48522 10.7505 4.42223 10.8135C4.35924 10.8765 4.29941 10.9424 4.24296 11.0113C4.18652 11.0801 4.13346 11.1515 4.08402 11.2255C4.03458 11.2996 3.98874 11.3759 3.94675 11.4545C3.90476 11.533 3.86683 11.6134 3.83274 11.6956C3.79864 11.778 3.76862 11.8618 3.74288 11.9469C3.71691 12.0322 3.69547 12.1185 3.67808 12.2058C3.6607 12.2932 3.6476 12.381 3.6388 12.4698C3.63022 12.5585 3.6257 12.6472 3.6257 12.7364C3.6257 12.8253 3.63022 12.9143 3.6388 13.0028C3.6476 13.0915 3.6607 13.1794 3.67808 13.2667C3.69547 13.3541 3.71691 13.4404 3.74288 13.5257C3.76862 13.6108 3.79864 13.6946 3.83274 13.777C3.86683 13.8592 3.90476 13.9395 3.94675 14.0181C3.98874 14.0967 4.03458 14.173 4.08402 14.247C4.13346 14.3211 4.18652 14.3927 4.24296 14.4615C4.29941 14.5302 4.35924 14.5961 4.42223 14.6591C4.48522 14.7221 4.55114 14.7819 4.62 14.8383C4.68886 14.8948 4.76021 14.9478 4.83426 14.9973C4.90831 15.0467 4.98463 15.0926 5.06319 15.1345C5.14176 15.1765 5.22214 15.2145 5.30432 15.2486C5.38673 15.2827 5.47049 15.3127 5.5556 15.3384C5.64095 15.3644 5.72719 15.3861 5.81456 15.4034C5.90194 15.4208 5.98999 15.4337 6.07849 15.4425C6.16722 15.4513 6.25595 15.4556 6.34513 15.4556ZM6.34513 10.9234C6.40451 10.9234 6.46366 10.9264 6.52281 10.9322C6.58174 10.9379 6.64044 10.9467 6.69869 10.9582C6.75694 10.9697 6.81451 10.9842 6.8714 11.0016C6.92807 11.0187 6.98407 11.0386 7.03893 11.0614C7.09379 11.0842 7.1473 11.1095 7.19968 11.1375C7.25206 11.1655 7.30286 11.196 7.3523 11.2289C7.40152 11.2619 7.44916 11.2973 7.49521 11.335C7.54105 11.3725 7.58507 11.4125 7.62706 11.4545C7.66906 11.4965 7.70879 11.5403 7.7465 11.5863C7.7842 11.6321 7.81942 11.6798 7.85239 11.729C7.88535 11.7784 7.91583 11.8292 7.94382 11.8816C7.97182 11.934 7.99733 11.9877 8.01991 12.0426C8.04271 12.0975 8.06258 12.1532 8.07996 12.2101C8.09712 12.2668 8.11157 12.3244 8.12309 12.3826C8.1346 12.4409 8.14341 12.4996 8.14928 12.5587C8.15515 12.6176 8.15786 12.677 8.15786 12.7364C8.15786 12.7958 8.15515 12.8549 8.14928 12.9141C8.14341 12.973 8.1346 13.0317 8.12309 13.09C8.11157 13.1482 8.09712 13.2058 8.07996 13.2624C8.06258 13.3193 8.04271 13.3751 8.01991 13.43C7.99733 13.4848 7.97182 13.5386 7.94382 13.5909C7.91583 13.6433 7.88535 13.6941 7.85239 13.7436C7.81942 13.7928 7.7842 13.8404 7.7465 13.8865C7.70879 13.9323 7.66906 13.9761 7.62706 14.0181C7.58507 14.0601 7.54105 14.1001 7.49521 14.1378C7.44916 14.1752 7.40152 14.2107 7.3523 14.2437C7.30286 14.2766 7.25206 14.3071 7.19968 14.3351C7.1473 14.3631 7.09379 14.3884 7.03893 14.4112C6.98407 14.434 6.92807 14.4538 6.8714 14.471C6.81451 14.4884 6.75694 14.5028 6.69869 14.5144C6.64044 14.5259 6.58174 14.5347 6.52281 14.5405C6.46366 14.5462 6.40451 14.5491 6.34513 14.5491C6.28575 14.5491 6.22637 14.5462 6.16745 14.5405C6.10829 14.5347 6.04959 14.5259 5.99134 14.5144C5.93309 14.5028 5.87552 14.4884 5.81885 14.471C5.76196 14.4538 5.70619 14.434 5.65133 14.4112C5.59647 14.3884 5.54273 14.3631 5.49058 14.3351C5.4382 14.3071 5.38718 14.2766 5.33796 14.2437C5.28851 14.2107 5.24088 14.1752 5.19505 14.1378C5.14899 14.1001 5.10519 14.0601 5.06319 14.0181C5.0212 13.9761 4.98146 13.9323 4.94376 13.8865C4.90606 13.8404 4.87061 13.7928 4.83765 13.7436C4.80468 13.6941 4.77421 13.6433 4.74621 13.5909C4.71821 13.5386 4.69293 13.4848 4.67012 13.43C4.64755 13.3751 4.62745 13.3193 4.61029 13.2624C4.59291 13.2058 4.57869 13.1482 4.56695 13.09C4.55543 13.0317 4.54663 12.973 4.54098 12.9141C4.53511 12.8549 4.53218 12.7958 4.53218 12.7364C4.53218 12.677 4.53511 12.6176 4.54098 12.5585C4.54663 12.4996 4.55543 12.4409 4.56695 12.3826C4.57869 12.3244 4.59291 12.2668 4.61029 12.2101C4.62745 12.1532 4.64755 12.0975 4.67012 12.0426C4.69293 11.9877 4.71821 11.934 4.74621 11.8816C4.77421 11.8292 4.80468 11.7784 4.83765 11.729C4.87061 11.6798 4.90606 11.6321 4.94376 11.5863C4.98146 11.5403 5.0212 11.4965 5.06319 11.4545C5.10519 11.4125 5.14899 11.3725 5.19505 11.335C5.24088 11.2973 5.28851 11.2619 5.33796 11.2289C5.38718 11.196 5.4382 11.1655 5.49058 11.1375C5.54273 11.1095 5.59647 11.0842 5.65133 11.0614C5.70619 11.0386 5.76196 11.0187 5.81885 11.0016C5.87552 10.9842 5.93309 10.9697 5.99134 10.9582C6.04959 10.9467 6.10829 10.9379 6.16745 10.9322C6.22637 10.9264 6.28575 10.9234 6.34513 10.9234Z" fill="#737373"/>
<path d="M22.661 15.4556C22.75 15.4556 22.839 15.4513 22.9275 15.4425C23.0162 15.4337 23.1042 15.4208 23.1916 15.4034C23.279 15.3861 23.3652 15.3644 23.4503 15.3384C23.5357 15.3127 23.6195 15.2827 23.7016 15.2486C23.784 15.2145 23.8644 15.1765 23.943 15.1345C24.0216 15.0926 24.0979 15.0467 24.1717 14.9973C24.2457 14.9478 24.3173 14.8948 24.3862 14.8383C24.455 14.7819 24.521 14.7221 24.584 14.6591C24.6469 14.5961 24.7065 14.5302 24.763 14.4615C24.8197 14.3927 24.8725 14.3211 24.9222 14.247C24.9716 14.173 25.0172 14.0967 25.0592 14.0181C25.1012 13.9395 25.1393 13.8592 25.1734 13.777C25.2075 13.6946 25.2373 13.6108 25.2633 13.5257C25.289 13.4404 25.3107 13.3541 25.3281 13.2667C25.3455 13.1794 25.3586 13.0915 25.3672 13.0028C25.376 12.9143 25.3802 12.8253 25.3802 12.7364C25.3802 12.6472 25.376 12.5585 25.3672 12.4698C25.3586 12.381 25.3455 12.2932 25.3281 12.2058C25.3107 12.1185 25.289 12.0322 25.2633 11.9469C25.2373 11.8618 25.2075 11.778 25.1734 11.6956C25.1393 11.6134 25.1012 11.533 25.0592 11.4545C25.0172 11.3759 24.9716 11.2996 24.9222 11.2255C24.8725 11.1515 24.8197 11.0801 24.763 11.0113C24.7065 10.9424 24.6469 10.8765 24.584 10.8135C24.521 10.7505 24.455 10.6907 24.3862 10.6342C24.3173 10.5778 24.2457 10.5247 24.1717 10.4753C24.0979 10.4258 24.0216 10.38 23.943 10.338C23.8644 10.296 23.784 10.2581 23.7016 10.224C23.6195 10.1899 23.5357 10.1599 23.4503 10.1341C23.3652 10.1082 23.279 10.0865 23.1916 10.0691C23.1042 10.0517 23.0162 10.0389 22.9275 10.0301C22.839 10.0213 22.75 10.017 22.661 10.017C22.5719 10.017 22.4831 10.0213 22.3944 10.0301C22.3059 10.0389 22.2179 10.0517 22.1305 10.0691C22.0431 10.0865 21.9569 10.1082 21.8717 10.1341C21.7864 10.1599 21.7026 10.1899 21.6205 10.224C21.5381 10.2581 21.4577 10.296 21.3791 10.338C21.3005 10.38 21.2242 10.4258 21.1502 10.4753C21.0761 10.5247 21.0048 10.5778 20.9359 10.6342C20.8671 10.6907 20.8011 10.7505 20.7381 10.8135C20.6752 10.8765 20.6156 10.9424 20.5589 11.0113C20.5024 11.0801 20.4494 11.1515 20.3999 11.2255C20.3505 11.2996 20.3049 11.3759 20.2629 11.4545C20.2209 11.533 20.1827 11.6134 20.1487 11.6956C20.1146 11.778 20.0848 11.8618 20.0588 11.9469C20.0331 12.0322 20.0114 12.1185 19.994 12.2058C19.9766 12.2932 19.9635 12.381 19.9547 12.4698C19.9461 12.5585 19.9416 12.6472 19.9416 12.7364C19.9416 12.8253 19.9461 12.9143 19.9547 13.0028C19.9635 13.0915 19.9766 13.1794 19.994 13.2667C20.0114 13.3541 20.0331 13.4404 20.0588 13.5257C20.0848 13.6108 20.1146 13.6946 20.1487 13.777C20.1827 13.8592 20.2209 13.9395 20.2629 14.0181C20.3049 14.0967 20.3505 14.173 20.3999 14.247C20.4494 14.3211 20.5024 14.3927 20.5589 14.4615C20.6156 14.5302 20.6752 14.5961 20.7381 14.6591C20.8011 14.7221 20.8671 14.7819 20.9359 14.8383C21.0048 14.8948 21.0761 14.9478 21.1502 14.9973C21.2242 15.0467 21.3005 15.0926 21.3791 15.1345C21.4577 15.1765 21.5381 15.2145 21.6205 15.2486C21.7026 15.2827 21.7864 15.3127 21.8717 15.3384C21.9569 15.3644 22.0431 15.3861 22.1305 15.4034C22.2179 15.4208 22.3059 15.4337 22.3944 15.4425C22.4831 15.4513 22.5719 15.4556 22.661 15.4556ZM22.661 10.9234C22.7204 10.9234 22.7796 10.9264 22.8387 10.9322C22.8979 10.9379 22.9566 10.9467 23.0146 10.9582C23.0729 10.9697 23.1304 10.9842 23.1873 11.0016C23.244 11.0187 23.3 11.0386 23.3548 11.0614C23.4097 11.0842 23.4632 11.1095 23.5156 11.1375C23.568 11.1655 23.6188 11.196 23.6682 11.2289C23.7177 11.2619 23.7653 11.2973 23.8111 11.335C23.857 11.3725 23.901 11.4125 23.943 11.4545C23.985 11.4965 24.0247 11.5403 24.0624 11.5863C24.1001 11.6321 24.1353 11.6798 24.1683 11.729C24.2013 11.7784 24.2317 11.8292 24.2597 11.8816C24.2877 11.934 24.3132 11.9877 24.3358 12.0426C24.3586 12.0975 24.3785 12.1532 24.3959 12.2101C24.413 12.2668 24.4275 12.3244 24.439 12.3826C24.4507 12.4409 24.4593 12.4996 24.4652 12.5587C24.4711 12.6176 24.474 12.677 24.474 12.7364C24.474 12.7958 24.4711 12.8549 24.4652 12.9141C24.4593 12.973 24.4507 13.0317 24.439 13.09C24.4275 13.1482 24.413 13.2058 24.3959 13.2624C24.3785 13.3193 24.3586 13.3751 24.3358 13.43C24.3132 13.4848 24.2877 13.5386 24.2597 13.5909C24.2317 13.6433 24.2013 13.6941 24.1683 13.7436C24.1353 13.7928 24.1001 13.8404 24.0624 13.8865C24.0247 13.9323 23.985 13.9761 23.943 14.0181C23.901 14.0601 23.857 14.1001 23.8111 14.1378C23.7653 14.1752 23.7177 14.2107 23.6682 14.2437C23.6188 14.2766 23.568 14.3071 23.5156 14.3351C23.4632 14.3631 23.4097 14.3884 23.3548 14.4112C23.3 14.434 23.244 14.4538 23.1873 14.471C23.1304 14.4884 23.0729 14.5028 23.0146 14.5144C22.9566 14.5259 22.8979 14.5347 22.8387 14.5405C22.7796 14.5462 22.7204 14.5491 22.661 14.5491C22.6017 14.5491 22.5425 14.5462 22.4834 14.5405C22.4242 14.5347 22.3655 14.5259 22.3073 14.5144C22.249 14.5028 22.1917 14.4884 22.1348 14.471C22.0779 14.4538 22.0221 14.434 21.9672 14.4112C21.9124 14.3884 21.8589 14.3631 21.8065 14.3351C21.7541 14.3071 21.7033 14.2766 21.6539 14.2437C21.6044 14.2107 21.5568 14.1752 21.511 14.1378C21.4651 14.1001 21.4211 14.0601 21.3791 14.0181C21.3371 13.9761 21.2974 13.9323 21.2597 13.8865C21.222 13.8404 21.1868 13.7928 21.1536 13.7436C21.1206 13.6941 21.0901 13.6433 21.0621 13.5909C21.0341 13.5386 21.0088 13.4848 20.986 13.43C20.9635 13.3751 20.9434 13.3193 20.9262 13.2624C20.9091 13.2058 20.8946 13.1482 20.8831 13.09C20.8714 13.0317 20.8628 12.973 20.8569 12.9141C20.851 12.8549 20.8481 12.7958 20.8481 12.7364C20.8481 12.677 20.851 12.6176 20.8569 12.5585C20.8628 12.4996 20.8714 12.4409 20.8831 12.3826C20.8946 12.3244 20.9091 12.2668 20.9262 12.2101C20.9434 12.1532 20.9635 12.0975 20.986 12.0426C21.0088 11.9877 21.0341 11.934 21.0621 11.8816C21.0901 11.8292 21.1206 11.7784 21.1536 11.729C21.1868 11.6798 21.222 11.6321 21.2597 11.5863C21.2974 11.5403 21.3371 11.4965 21.3791 11.4545C21.4211 11.4125 21.4651 11.3725 21.511 11.335C21.5568 11.2973 21.6044 11.2619 21.6539 11.2289C21.7033 11.196 21.7541 11.1655 21.8065 11.1375C21.8589 11.1095 21.9124 11.0842 21.9672 11.0614C22.0221 11.0386 22.0779 11.0187 22.1348 11.0016C22.1917 10.9842 22.249 10.9697 22.3073 10.9582C22.3655 10.9467 22.4242 10.9379 22.4834 10.9322C22.5425 10.9264 22.6017 10.9234 22.661 10.9234Z" fill="#737373"/>
<mask id="mask0_484_1948" style="mask-type:luminance" maskUnits="userSpaceOnUse" x="0" y="15" width="29" height="10">
<path d="M0 15.8776H29V24.5472H0V15.8776Z" fill="white"/>
</mask>
<g mask="url(#mask0_484_1948)">
<path d="M28.5527 23.6136H27.3291C27.43 23.4838 27.5074 23.3413 27.5618 23.1862C27.616 23.0311 27.6442 22.8715 27.6465 22.7071V18.6281C27.6465 17.1279 26.2232 15.9087 24.4739 15.9087H20.848C19.2801 15.9087 17.9746 16.8924 17.7254 18.175H15.8628C15.793 18.1745 15.7266 18.1894 15.6639 18.2197C15.6009 18.2499 15.5478 18.2924 15.5047 18.347C15.4618 18.4023 15.4331 18.4642 15.4187 18.5326C15.4044 18.601 15.4058 18.6692 15.423 18.7369L16.6421 23.6136H12.3637L13.5965 18.7369C13.6138 18.6692 13.6152 18.601 13.601 18.5326C13.5865 18.4642 13.5579 18.4023 13.515 18.347C13.4703 18.2906 13.4152 18.247 13.3497 18.2165C13.2842 18.1863 13.2154 18.1723 13.1433 18.175H11.2807C11.0312 16.8924 9.72604 15.9087 8.15783 15.9087H4.53215C2.78264 15.9087 1.3596 17.1279 1.3596 18.6281V22.7071C1.36163 22.8715 1.38985 23.0311 1.44427 23.1862C1.49845 23.3413 1.57612 23.4838 1.67681 23.6136H0.453125C0.423323 23.6136 0.393973 23.6166 0.364848 23.6222C0.335498 23.6281 0.307276 23.6367 0.279732 23.6479C0.252188 23.6595 0.226224 23.6735 0.201389 23.6899C0.176554 23.7064 0.153751 23.7252 0.132754 23.7464C0.111757 23.7674 0.0927924 23.7902 0.076311 23.815C0.0598297 23.8396 0.0458317 23.8658 0.0345432 23.8934C0.0230288 23.9209 0.0144494 23.9491 0.00857935 23.9782C0.00293505 24.0076 0 24.0369 0 24.0667C0 24.0965 0.00293505 24.1259 0.00857935 24.1552C0.0144494 24.1844 0.0230288 24.2128 0.0345432 24.2401C0.0458317 24.2677 0.0598297 24.2939 0.076311 24.3185C0.0927924 24.3433 0.111757 24.3661 0.132754 24.3873C0.153751 24.4083 0.176554 24.4271 0.201389 24.4436C0.226224 24.46 0.252188 24.474 0.279732 24.4856C0.307276 24.4968 0.335498 24.5054 0.364848 24.5113C0.393973 24.5172 0.423323 24.5201 0.453125 24.5201H28.5527C28.5825 24.5201 28.6121 24.5172 28.6412 24.5113C28.6704 24.5054 28.6988 24.4968 28.7264 24.4856C28.7537 24.474 28.7799 24.46 28.8047 24.4436C28.8293 24.4271 28.8523 24.4083 28.8733 24.3873C28.8943 24.3661 28.9131 24.3433 28.9296 24.3185C28.9463 24.2939 28.9603 24.2677 28.9716 24.2401C28.9828 24.2128 28.9916 24.1844 28.9973 24.1552C29.0032 24.1259 29.0061 24.0965 29.0061 24.0667C29.0061 24.0369 29.0032 24.0076 28.9973 23.9782C28.9916 23.9491 28.9828 23.9209 28.9716 23.8934C28.9603 23.8658 28.9463 23.8396 28.9296 23.815C28.9131 23.7902 28.8943 23.7674 28.8733 23.7464C28.8523 23.7252 28.8293 23.7064 28.8047 23.6899C28.7799 23.6735 28.7537 23.6595 28.7264 23.6479C28.6988 23.6367 28.6704 23.6281 28.6412 23.6222C28.6121 23.6166 28.5825 23.6136 28.5527 23.6136ZM7.70471 23.6136H3.62568C2.88695 23.6136 2.26608 23.1966 2.26608 22.7071V18.6281C2.26608 17.6266 3.28137 16.8152 4.53215 16.8152H8.15783C8.2723 16.8086 8.38631 16.8107 8.50033 16.8217C8.61434 16.8326 8.72678 16.8522 8.83786 16.8804C8.94871 16.9086 9.05686 16.9452 9.16229 16.9901C9.2675 17.0351 9.36887 17.0877 9.46618 17.1482C9.56326 17.2087 9.65538 17.2762 9.74207 17.3509C9.829 17.4257 9.90937 17.5065 9.98388 17.5936C10.0582 17.6808 10.1254 17.7731 10.1855 17.8704C10.2455 17.968 10.2979 18.0693 10.3424 18.175H6.79823C6.77249 18.1741 6.74698 18.1757 6.72147 18.1793C6.69618 18.1829 6.67112 18.1885 6.64674 18.1964C6.62213 18.2041 6.59842 18.2141 6.57562 18.226C6.55304 18.2378 6.53137 18.2515 6.51082 18.2671C6.49028 18.2827 6.47131 18.2998 6.4537 18.3186C6.43632 18.3373 6.42051 18.3574 6.40629 18.3791C6.39229 18.4005 6.3801 18.4231 6.36971 18.4466C6.35933 18.4701 6.3512 18.4945 6.3451 18.5193L5.53842 21.8007H4.53215V20.4411C4.53215 20.4113 4.52922 20.3817 4.52335 20.3526C4.5177 20.3234 4.50912 20.295 4.49761 20.2675C4.48632 20.2401 4.47232 20.2139 4.45584 20.1891C4.43936 20.1645 4.4204 20.1415 4.3994 20.1205C4.3784 20.0995 4.35537 20.0807 4.33076 20.0643C4.30593 20.0475 4.27997 20.0338 4.25242 20.0223C4.22488 20.011 4.19666 20.0024 4.1673 19.9965C4.13818 19.9907 4.1086 19.9877 4.07903 19.9877C4.04923 19.9877 4.01965 19.9907 3.99053 19.9965C3.9614 20.0024 3.93295 20.011 3.90541 20.0223C3.87809 20.0338 3.8519 20.0475 3.82707 20.0643C3.80246 20.0807 3.77943 20.0995 3.75843 20.1205C3.73743 20.1415 3.7187 20.1645 3.70221 20.1891C3.68551 20.2139 3.67151 20.2401 3.66022 20.2675C3.64893 20.295 3.64013 20.3234 3.63448 20.3526C3.62861 20.3817 3.62568 20.4113 3.62568 20.4411V22.2538C3.62568 22.2836 3.62861 22.3132 3.63448 22.3423C3.64013 22.3714 3.64893 22.3999 3.66022 22.4274C3.67151 22.4547 3.68551 22.4809 3.70221 22.5058C3.7187 22.5304 3.73743 22.5534 3.75843 22.5744C3.77943 22.5954 3.80246 22.6141 3.82707 22.6306C3.8519 22.6473 3.87809 22.6613 3.90541 22.6726C3.93295 22.6839 3.9614 22.6927 3.99053 22.6983C4.01965 22.7042 4.04923 22.7071 4.07903 22.7071H8.98732C8.96406 22.7731 8.93584 22.8367 8.90265 22.8984C8.86946 22.9598 8.83199 23.0185 8.78977 23.0743C8.74755 23.13 8.70126 23.1822 8.65114 23.2307C8.6008 23.2795 8.54729 23.324 8.49017 23.3641C8.43305 23.4046 8.37322 23.4402 8.31068 23.4714C8.24791 23.5025 8.18334 23.5287 8.11674 23.5497C8.05014 23.571 7.98218 23.587 7.91309 23.5976C7.84401 23.6082 7.77469 23.6136 7.70471 23.6136ZM11.4302 23.6136H9.51766C9.66576 23.4181 9.77888 23.2038 9.85632 22.9711C9.93398 22.7383 9.97214 22.4992 9.97078 22.2538C9.97078 22.2242 9.96785 22.1946 9.9622 22.1655C9.95633 22.1362 9.94775 22.1079 9.93624 22.0804C9.92495 22.0529 9.91095 22.0269 9.89447 22.0021C9.87799 21.9775 9.85903 21.9544 9.83803 21.9334C9.81703 21.9124 9.79423 21.8937 9.76939 21.877C9.74456 21.8605 9.71859 21.8465 9.69105 21.8352C9.66351 21.8237 9.63528 21.8151 9.60593 21.8095C9.57681 21.8036 9.54723 21.8007 9.51766 21.8007H6.47199L7.15179 19.0812H12.5633L11.4302 23.6136ZM17.5759 23.6136L16.4428 19.0812H21.8543L22.5341 21.8007H19.4884C19.4586 21.8007 19.4293 21.8036 19.3999 21.8095C19.3708 21.8151 19.3426 21.8237 19.315 21.8352C19.2875 21.8465 19.2613 21.8605 19.2367 21.877C19.2119 21.8937 19.1891 21.9124 19.1681 21.9334C19.1468 21.9544 19.1281 21.9775 19.1116 22.0021C19.0951 22.0269 19.0811 22.0529 19.0696 22.0804C19.0583 22.1079 19.0498 22.1362 19.0439 22.1655C19.038 22.1946 19.0353 22.2242 19.0353 22.2538C19.034 22.4992 19.0721 22.7383 19.1496 22.9711C19.2272 23.2038 19.3401 23.4181 19.4884 23.6136H17.5759ZM26.74 22.7071C26.74 23.1966 26.1191 23.6136 25.3802 23.6136H21.3014C21.2314 23.6136 21.1619 23.6082 21.0928 23.5976C21.0237 23.587 20.956 23.571 20.8894 23.5497C20.8225 23.5287 20.758 23.5025 20.6954 23.4714C20.6329 23.4402 20.573 23.4046 20.5159 23.3641C20.4588 23.324 20.4051 23.2795 20.355 23.2307C20.3046 23.1822 20.2585 23.13 20.2163 23.0743C20.1741 23.0185 20.1364 22.9598 20.1034 22.8984C20.0703 22.8367 20.042 22.7731 20.0188 22.7071H24.9271C24.9569 22.7071 24.9862 22.7042 25.0156 22.6983C25.0447 22.6927 25.0729 22.6839 25.1005 22.6726C25.128 22.6613 25.1542 22.6473 25.1788 22.6306C25.2036 22.6141 25.2264 22.5954 25.2474 22.5744C25.2687 22.5534 25.2874 22.5304 25.3039 22.5058C25.3204 22.4809 25.3344 22.4547 25.3459 22.4274C25.3572 22.3999 25.3657 22.3714 25.3716 22.3423C25.3775 22.3132 25.3802 22.2836 25.3802 22.2538V20.4411C25.3802 20.4113 25.3775 20.3817 25.3716 20.3526C25.3657 20.3234 25.3572 20.295 25.3459 20.2675C25.3344 20.2401 25.3204 20.2139 25.3039 20.1891C25.2874 20.1645 25.2687 20.1415 25.2474 20.1205C25.2264 20.0995 25.2036 20.0807 25.1788 20.0643C25.1542 20.0475 25.128 20.0338 25.1005 20.0223C25.0729 20.011 25.0447 20.0024 25.0156 19.9965C24.9862 19.9907 24.9569 19.9877 24.9271 19.9877C24.8973 19.9877 24.8679 19.9907 24.8386 19.9965C24.8094 20.0024 24.7812 20.011 24.7537 20.0223C24.7261 20.0338 24.6999 20.0475 24.6753 20.0643C24.6505 20.0807 24.6277 20.0995 24.6067 20.1205C24.5855 20.1415 24.5667 20.1645 24.5503 20.1891C24.5338 20.2139 24.5198 20.2401 24.5083 20.2675C24.497 20.295 24.4884 20.3234 24.4825 20.3526C24.4767 20.3817 24.4739 20.4113 24.4739 20.4411V21.8007H23.4677L22.661 18.5193C22.6549 18.4945 22.6465 18.4701 22.6364 18.4466C22.626 18.4231 22.6138 18.4005 22.5998 18.3791C22.5856 18.3576 22.5698 18.3373 22.5522 18.3186C22.5346 18.2998 22.5156 18.2827 22.4953 18.2671C22.4747 18.2515 22.4531 18.2378 22.4303 18.226C22.4074 18.2141 22.3837 18.2041 22.3594 18.1964C22.335 18.1885 22.3099 18.1829 22.2844 18.1793C22.2591 18.1757 22.2334 18.1741 22.2076 18.175H18.6635C18.7082 18.0693 18.7603 17.968 18.8206 17.8704C18.8807 17.7731 18.9479 17.6808 19.0222 17.5936C19.0965 17.5065 19.1771 17.4257 19.2638 17.3509C19.3507 17.2762 19.4426 17.2087 19.5399 17.1482C19.6372 17.0877 19.7384 17.0351 19.8438 16.9901C19.949 16.9452 20.0572 16.9086 20.1682 16.8804C20.2791 16.8522 20.3918 16.8326 20.5055 16.8217C20.6196 16.8107 20.7338 16.8086 20.848 16.8152H24.4739C25.7247 16.8152 26.74 17.6266 26.74 18.6281V22.7071Z" fill="#737373"/>
</g>
<path d="M20.6261 5.03143C20.6261 4.96483 20.6243 4.898 20.6211 4.8314C20.6177 4.76479 20.613 4.69819 20.6064 4.63181C20.5999 4.56521 20.5915 4.49906 20.5818 4.43291C20.5721 4.36698 20.5606 4.30128 20.5475 4.23581C20.5346 4.17034 20.52 4.10509 20.5037 4.04029C20.4875 3.97572 20.4696 3.91138 20.4504 3.84748C20.431 3.78359 20.41 3.72015 20.3874 3.65738C20.3651 3.59439 20.3409 3.5323 20.3154 3.47067C20.2899 3.40881 20.2628 3.34785 20.2344 3.28757C20.2059 3.22729 20.1759 3.16768 20.1443 3.10875C20.1129 3.04983 20.0799 2.9918 20.0456 2.93446C20.0113 2.87734 19.9756 2.82089 19.9386 2.76535C19.9016 2.70982 19.863 2.65518 19.8232 2.60167C19.7835 2.54816 19.7424 2.49533 19.7002 2.44386C19.6577 2.39215 19.6142 2.34181 19.5692 2.29214C19.5245 2.24269 19.4785 2.19438 19.4313 2.14719C19.3841 2.1 19.3358 2.05395 19.2864 2.00924C19.2369 1.96431 19.1863 1.92074 19.1346 1.87852C19.0832 1.83608 19.0306 1.79499 18.9768 1.75525C18.9233 1.71551 18.8687 1.67713 18.8131 1.63988C18.7576 1.60285 18.7014 1.56718 18.644 1.53286C18.5867 1.49855 18.5287 1.46558 18.4697 1.4342C18.411 1.40259 18.3514 1.37279 18.2909 1.34412C18.2306 1.31567 18.1697 1.28858 18.108 1.26307C18.0462 1.23755 17.9841 1.2134 17.9211 1.19104C17.8583 1.16847 17.7949 1.14747 17.731 1.12828C17.6671 1.10886 17.6028 1.09103 17.5382 1.07477C17.4734 1.05852 17.4082 1.04384 17.3427 1.03097C17.2772 1.01788 17.2115 1.00659 17.1456 0.996655C17.0794 0.986947 17.0133 0.978819 16.9469 0.972271C16.8803 0.965724 16.8139 0.960757 16.7471 0.95737C16.6805 0.95421 16.6137 0.952629 16.5471 0.952629C16.1077 0.952403 15.6801 1.02352 15.2644 1.16553C15.2127 1.11496 15.1597 1.06552 15.1053 1.01765C15.0509 0.969788 14.9953 0.923504 14.9384 0.878576C14.8818 0.833647 14.8237 0.790299 14.7646 0.748531C14.7054 0.706763 14.6451 0.66635 14.584 0.627743C14.5226 0.589136 14.4605 0.552335 14.397 0.516889C14.3338 0.481668 14.2697 0.448028 14.2047 0.416194C14.1396 0.38436 14.0737 0.354333 14.0071 0.325885C13.9405 0.297438 13.8732 0.271023 13.8051 0.246188C13.7371 0.221353 13.6685 0.198324 13.5991 0.177327C13.5298 0.156105 13.4601 0.136914 13.3896 0.119529C13.3194 0.102145 13.2487 0.0865666 13.1776 0.0730203C13.1065 0.0592481 13.0349 0.047508 12.9631 0.0377998C12.8916 0.0278659 12.8196 0.0199638 12.7473 0.0140937C12.6751 0.00799792 12.6028 0.003934 12.5306 0.00167625C12.4581 -0.000355684 12.3856 -0.000581471 12.3134 0.00122471C12.2409 0.00280513 12.1687 0.00641748 12.0964 0.0120618C12.0242 0.0177061 11.9521 0.0251565 11.8803 0.0344132C11.8085 0.0438956 11.737 0.0551843 11.6656 0.0682791C11.5945 0.0815997 11.5236 0.0967264 11.4534 0.113659C11.383 0.130592 11.313 0.149557 11.2437 0.170102C11.1741 0.190873 11.1053 0.213451 11.0371 0.237834C10.9689 0.262217 10.9014 0.288407 10.8346 0.316403C10.7677 0.344173 10.7018 0.373975 10.6366 0.405357C10.5713 0.436965 10.507 0.470154 10.4435 0.505148C10.3801 0.539917 10.3175 0.576492 10.2561 0.614874C10.1945 0.653029 10.1342 0.692765 10.0748 0.734307C10.0152 0.775849 9.95721 0.818746 9.90009 0.863449C9.84297 0.907926 9.78698 0.953984 9.73234 1.0014C9.67771 1.04903 9.62443 1.09803 9.57227 1.14837C9.52034 1.19872 9.46977 1.25042 9.42033 1.30348C9.37111 1.35654 9.32324 1.41095 9.27696 1.46671C9.23045 1.52225 9.18552 1.57915 9.14218 1.63717C9.09883 1.69519 9.05706 1.75412 9.01687 1.8144C8.97668 1.87468 8.93808 1.93587 8.90128 1.99818C8.86425 2.06049 8.82903 2.12371 8.79539 2.18806C8.76175 2.25217 8.72992 2.3172 8.69989 2.38312C8.66963 2.44882 8.64141 2.51565 8.61477 2.58293C8.58836 2.65021 8.56352 2.71839 8.54049 2.78703C8.51769 2.85566 8.49647 2.92498 8.47728 2.99474C8.45809 3.06473 8.4407 3.13494 8.42512 3.20561C8.40954 3.2765 8.396 3.34762 8.38426 3.41897C8.37252 3.49054 8.36281 3.56233 8.35491 3.63413C8.34701 3.70615 8.34114 3.77839 8.33707 3.85064C8.33301 3.92312 8.33075 3.99536 8.33052 4.06784C8.3303 4.14031 8.3321 4.21255 8.33572 4.28503C8.33956 4.35728 8.34497 4.42952 8.35242 4.50154C8.3601 4.57357 8.36936 4.64536 8.38087 4.71693C8.39216 4.7885 8.40525 4.85962 8.42038 4.93051C8.43551 5.00118 8.45244 5.07162 8.47141 5.14161C8.49037 5.2116 8.51092 5.28091 8.53349 5.34977C8.55607 5.41863 8.58045 5.48659 8.60664 5.55432C8.63283 5.62183 8.66083 5.68843 8.69063 5.75458C8.72043 5.82051 8.75182 5.88575 8.785 5.9501C8.81842 6.01444 8.85319 6.07789 8.88976 6.14042C8.92634 6.20296 8.96472 6.26437 9.00445 6.32488C9.04442 6.38539 9.08596 6.44477 9.12886 6.50302C9.17198 6.56126 9.21645 6.61816 9.26274 6.67415C9.3088 6.72992 9.35621 6.78455 9.4052 6.83806C9.45419 6.89134 9.50454 6.94327 9.55647 6.99407C9.60817 7.04464 9.66123 7.09386 9.71564 7.14173C9.77005 7.18959 9.82559 7.23587 9.88248 7.2808C9.93938 7.32573 9.9974 7.36908 10.0566 7.41085C10.1157 7.45261 10.1758 7.4928 10.2372 7.53141C10.2984 7.56979 10.3607 7.60682 10.4241 7.64204L10.2245 9.04702C10.2173 9.09014 10.2162 9.13349 10.2214 9.17706C10.2263 9.22041 10.2376 9.26218 10.255 9.30259C10.2722 9.34278 10.295 9.37958 10.323 9.41322C10.351 9.44686 10.383 9.47599 10.4194 9.50037C10.4961 9.55184 10.5808 9.57758 10.6734 9.57736C10.754 9.57781 10.8296 9.55817 10.8998 9.51843L13.3201 8.13151C13.4738 8.09855 13.6249 8.0561 13.7732 8.00463C14.0439 8.26268 14.3442 8.47943 14.6745 8.65508C15.0046 8.8305 15.3523 8.95806 15.7176 9.03799L18.1288 10.4111C18.199 10.4511 18.2747 10.4707 18.3553 10.4701C18.4478 10.4703 18.5325 10.4448 18.6093 10.3931C18.6456 10.3687 18.6777 10.3398 18.7057 10.3061C18.7337 10.2725 18.7565 10.2355 18.7736 10.1953C18.791 10.1551 18.8023 10.1133 18.8073 10.0698C18.8125 10.0264 18.8113 9.98307 18.8041 9.93995L18.6045 8.53497C18.7571 8.44579 18.9032 8.34735 19.0427 8.2392C19.1825 8.13129 19.3146 8.01456 19.4392 7.88948C19.5636 7.76418 19.6796 7.63143 19.7869 7.49122C19.8941 7.35102 19.9919 7.20426 20.0802 7.05142C20.1684 6.89834 20.2463 6.74053 20.3141 6.57729C20.3818 6.41429 20.4387 6.24744 20.4847 6.07698C20.5308 5.90652 20.5658 5.73381 20.5893 5.55884C20.613 5.38386 20.6252 5.20799 20.6261 5.03143ZM13.0573 7.24332C13.0083 7.25371 12.9613 7.27042 12.9166 7.29299L11.2353 8.2584L11.3304 7.45623C11.3351 7.40994 11.3326 7.36411 11.3231 7.31873C11.3137 7.27312 11.2976 7.23023 11.2748 7.18959C11.2522 7.14918 11.224 7.11305 11.1902 7.08099C11.1563 7.04916 11.1184 7.02319 11.0766 7.0031C11.0206 6.97601 10.9653 6.94756 10.9109 6.91731C10.8565 6.88705 10.803 6.85522 10.7504 6.82181C10.698 6.78839 10.6463 6.75362 10.5959 6.71727C10.5454 6.6807 10.4961 6.64299 10.4478 6.60371C10.3995 6.56442 10.3525 6.52356 10.3065 6.48157C10.2607 6.43957 10.2162 6.396 10.1728 6.3513C10.1295 6.30659 10.0875 6.26076 10.0468 6.21357C10.0064 6.16639 9.96715 6.11807 9.92944 6.06863C9.89151 6.01919 9.85539 5.96861 9.82062 5.91691C9.78585 5.86543 9.75244 5.81283 9.72083 5.75932C9.68922 5.70559 9.65897 5.65118 9.63052 5.59586C9.60207 5.54055 9.57521 5.48433 9.55015 5.42744C9.52486 5.37054 9.50138 5.31297 9.47948 5.25472C9.45781 5.19625 9.43771 5.13732 9.41942 5.07794C9.40114 5.01856 9.38443 4.95851 9.36975 4.898C9.35485 4.83749 9.34198 4.77676 9.3307 4.71558C9.31941 4.65439 9.31015 4.59276 9.30247 4.53112C9.2948 4.46926 9.28915 4.4074 9.28509 4.34508C9.28125 4.283 9.27899 4.22091 9.27877 4.1586C9.27854 4.09628 9.2799 4.03419 9.28328 3.97211C9.28667 3.90979 9.29186 3.84793 9.29886 3.78607C9.30586 3.72421 9.31489 3.66257 9.3255 3.60139C9.33611 3.53998 9.34853 3.47902 9.36276 3.41851C9.37698 3.35778 9.39301 3.29773 9.41084 3.23812C9.42845 3.17829 9.4481 3.11937 9.46932 3.06089C9.49054 3.00219 9.51357 2.94439 9.53818 2.88727C9.56279 2.83015 9.58898 2.77371 9.61697 2.71817C9.64497 2.66263 9.67455 2.60777 9.7057 2.55403C9.73709 2.50007 9.76982 2.44724 9.80391 2.39531C9.83823 2.34339 9.87413 2.29236 9.91138 2.24269C9.94863 2.1928 9.98747 2.14403 10.0277 2.09662C10.0678 2.04898 10.1094 2.0027 10.1523 1.95754C10.1952 1.91239 10.2392 1.86859 10.2848 1.82614C10.3302 1.7837 10.3769 1.74261 10.4248 1.70287C10.4727 1.66291 10.5216 1.62475 10.5718 1.58773C10.6219 1.55093 10.6731 1.51548 10.7253 1.48161C10.7777 1.44797 10.8307 1.41546 10.8849 1.38476C10.9391 1.35405 10.994 1.32493 11.05 1.29761C11.1057 1.27006 11.1624 1.2441 11.2197 1.21994C11.2771 1.19579 11.3351 1.17343 11.3938 1.15266C11.4525 1.13189 11.5117 1.11293 11.5715 1.09554C11.6313 1.07838 11.6916 1.06281 11.7523 1.04926C11.8131 1.03549 11.874 1.02352 11.9354 1.01336C11.9968 1.0032 12.0585 0.995074 12.1203 0.988527C12.1824 0.98198 12.2443 0.977464 12.3066 0.974529C12.3687 0.971594 12.431 0.970691 12.4931 0.971594C12.5554 0.972271 12.6175 0.974981 12.6796 0.979496C12.7417 0.984011 12.8035 0.990333 12.8654 0.998235C12.927 1.00636 12.9884 1.0163 13.0496 1.02804C13.1108 1.03978 13.1715 1.05332 13.2318 1.06868C13.2921 1.08403 13.3519 1.10119 13.4113 1.11993C13.4705 1.13867 13.5294 1.15944 13.5874 1.18156C13.6454 1.20391 13.703 1.22785 13.7597 1.25358C13.8163 1.27932 13.8723 1.30664 13.9274 1.33554C13.9825 1.36444 14.0367 1.39492 14.09 1.4272C14.1433 1.45926 14.1954 1.4929 14.2469 1.52812C14.2981 1.56357 14.3485 1.60014 14.3975 1.6383C14.4467 1.67646 14.4948 1.71619 14.5415 1.75706C14.5883 1.79815 14.6339 1.84059 14.6783 1.88417C14.7226 1.92797 14.7655 1.97289 14.8073 2.01895C14.849 2.06524 14.8892 2.11265 14.928 2.16119C14.9671 2.20996 15.0044 2.25962 15.0405 2.31042C15.0764 2.36122 15.1109 2.41292 15.1437 2.46576C15.1766 2.51859 15.208 2.57232 15.2378 2.62696C15.2676 2.68182 15.2956 2.73713 15.3222 2.79358C15.3487 2.84979 15.3735 2.90691 15.3965 2.96471C15.4198 3.02251 15.4412 3.08098 15.4609 3.13991C15.4805 3.19906 15.4983 3.25844 15.5146 3.31872C15.5309 3.37878 15.5453 3.43929 15.5579 3.50024C15.5704 3.5612 15.5812 3.62239 15.5902 3.68402C15.5993 3.74566 15.6065 3.80752 15.6119 3.86938C15.6173 3.93147 15.6209 3.99356 15.6225 4.05587C15.6243 4.11796 15.6241 4.18027 15.6223 4.24236C15.6203 4.30467 15.6166 4.36676 15.611 4.42862C15.6054 4.49071 15.5979 4.55257 15.5887 4.61398C15.5796 4.67561 15.5686 4.7368 15.5557 4.79776C15.5428 4.85872 15.5281 4.919 15.5119 4.97905C15.4954 5.03911 15.4773 5.09871 15.4575 5.15764C15.4376 5.21656 15.4159 5.27504 15.3927 5.33261C15.3692 5.39041 15.3441 5.4473 15.3175 5.50352C15.2909 5.55996 15.2626 5.61528 15.2326 5.66992C15.2028 5.72433 15.1712 5.77806 15.138 5.83067C15.105 5.8835 15.0703 5.9352 15.0342 5.98577C14.998 6.03657 14.9606 6.08601 14.9215 6.13455C14.8824 6.1831 14.842 6.23028 14.8 6.27634C14.7583 6.3224 14.7151 6.36733 14.6707 6.4109C14.6262 6.45425 14.5804 6.49647 14.5334 6.53733C14.4864 6.5782 14.4383 6.61771 14.3891 6.65564C14.3399 6.69379 14.2896 6.73014 14.2381 6.76536C14.1866 6.80036 14.1342 6.83377 14.0807 6.86583C14.0274 6.89789 13.973 6.92814 13.9179 6.95704C13.8626 6.98572 13.8066 7.01281 13.75 7.03832C13.6931 7.06383 13.6357 7.08754 13.5775 7.10967C13.5192 7.13179 13.4605 7.15211 13.4011 7.17085C13.3418 7.18936 13.2817 7.2063 13.2214 7.22142C13.1609 7.23655 13.1002 7.24987 13.039 7.26138L13.0573 7.24332ZM17.9202 7.89129C17.8784 7.91161 17.8405 7.93757 17.8069 7.96941C17.773 8.00124 17.7448 8.03736 17.722 8.078C17.6994 8.11842 17.6831 8.16154 17.6737 8.20692C17.6642 8.25253 17.6619 8.29836 17.6664 8.34464L17.7798 9.14681L16.0982 8.20398C16.0537 8.18141 16.0068 8.1647 15.9578 8.15431C15.7214 8.10803 15.4934 8.03556 15.2737 7.9369C15.054 7.83801 14.8486 7.71564 14.6571 7.56956C14.7136 7.53367 14.7691 7.49641 14.8235 7.45758C14.8781 7.41897 14.9317 7.37901 14.9843 7.3377C15.0371 7.29638 15.0886 7.25371 15.1391 7.20991C15.1895 7.16611 15.2389 7.12095 15.2872 7.0749C15.3356 7.02861 15.3827 6.9812 15.4288 6.93243C15.4746 6.88389 15.5193 6.83422 15.5629 6.78342C15.6065 6.73263 15.6487 6.6807 15.6898 6.62787C15.7307 6.57504 15.7704 6.5213 15.8086 6.46644C15.8469 6.41158 15.884 6.35581 15.9194 6.29914C15.9551 6.24247 15.9892 6.18513 16.0219 6.12665C16.0546 6.0684 16.086 6.00925 16.1158 5.94942C16.1459 5.88959 16.1741 5.82908 16.2009 5.7679C16.2278 5.70649 16.2531 5.64463 16.277 5.58209C16.301 5.51978 16.3231 5.45656 16.3439 5.39312C16.3646 5.32945 16.3838 5.26533 16.4012 5.20076C16.4188 5.13619 16.4348 5.07139 16.4493 5.00592C16.4635 4.94067 16.4764 4.87497 16.4875 4.80905C16.4987 4.74312 16.5082 4.67697 16.5161 4.61059C16.524 4.54421 16.5301 4.47761 16.5349 4.41078C16.5394 4.34418 16.5423 4.27735 16.5437 4.2103C16.545 4.14347 16.5448 4.07664 16.5428 4.00981C16.5407 3.94298 16.5373 3.87615 16.5319 3.80955C16.5267 3.74272 16.52 3.67635 16.5114 3.60997C16.5028 3.54359 16.4926 3.47744 16.4809 3.41174C16.4692 3.34582 16.4558 3.28034 16.4407 3.21509C16.4258 3.14985 16.4091 3.08505 16.391 3.0207C16.3728 2.95636 16.3531 2.89246 16.3317 2.82902C16.3104 2.76558 16.2876 2.70282 16.2633 2.6405C16.2389 2.57842 16.2129 2.51678 16.1854 2.4556C16.158 2.39464 16.1289 2.33436 16.0987 2.27475C16.0682 2.21515 16.0364 2.15645 16.0029 2.09842C15.9698 2.0404 15.935 1.98328 15.8989 1.92706C16.1124 1.88146 16.3285 1.85865 16.5471 1.85888C16.636 1.85933 16.7247 1.86339 16.8132 1.8713C16.902 1.8792 16.99 1.89071 17.0776 1.90607C17.1652 1.92119 17.2519 1.94016 17.3382 1.96273C17.4242 1.98531 17.5091 2.0115 17.5928 2.04108C17.6766 2.07088 17.759 2.10407 17.8401 2.14064C17.9211 2.17722 18.0006 2.21718 18.0782 2.26053C18.1559 2.30388 18.2315 2.35039 18.3054 2.40006C18.3792 2.44973 18.4508 2.50233 18.5201 2.5581C18.5894 2.61386 18.6562 2.67234 18.7206 2.73352C18.7851 2.79493 18.8468 2.85882 18.9059 2.92543C18.9649 2.9918 19.0211 3.06067 19.0744 3.13201C19.1274 3.20313 19.1778 3.2765 19.2247 3.35191C19.2719 3.42732 19.3157 3.50476 19.3563 3.58378C19.3968 3.66303 19.434 3.74363 19.4679 3.82603C19.5015 3.90821 19.532 3.99175 19.5586 4.07664C19.5855 4.1613 19.6085 4.2471 19.6282 4.33402C19.6478 4.42072 19.6636 4.50809 19.6758 4.59614C19.688 4.68419 19.6966 4.7727 19.7013 4.86165C19.7061 4.95038 19.707 5.03911 19.7043 5.12806C19.7015 5.21702 19.6952 5.30552 19.6851 5.39402C19.6749 5.4823 19.6609 5.57012 19.6435 5.65727C19.6259 5.74442 19.6047 5.83067 19.5799 5.91623C19.5552 6.00157 19.5268 6.08579 19.495 6.16887C19.4631 6.25173 19.4277 6.33346 19.3891 6.41338C19.3502 6.49353 19.3083 6.57165 19.2629 6.64819C19.2175 6.72472 19.1692 6.79923 19.1175 6.8717C19.066 6.94417 19.0114 7.01439 18.954 7.08212C18.8964 7.15008 18.8362 7.21533 18.7732 7.27809C18.7102 7.34086 18.6447 7.40091 18.5767 7.45826C18.5088 7.5156 18.4383 7.56979 18.3659 7.62127C18.2932 7.67252 18.2184 7.72083 18.1419 7.76599C18.0651 7.81114 17.9868 7.85291 17.9067 7.89129H17.9202Z" fill="#737373"/>
<path d="M11.7883 4.12522C11.7883 4.16969 11.784 4.21395 11.7752 4.25774C11.7664 4.30154 11.7535 4.34399 11.7365 4.38531C11.7194 4.42662 11.6984 4.46568 11.6736 4.50271C11.6489 4.53996 11.6207 4.57428 11.5891 4.60589C11.5575 4.63749 11.5232 4.66549 11.4862 4.69032C11.4489 4.71516 11.4099 4.73616 11.3685 4.75309C11.3272 4.77025 11.2848 4.78312 11.241 4.79192C11.1972 4.8005 11.1529 4.80502 11.1085 4.80502C11.0637 4.80502 11.0195 4.8005 10.9757 4.79192C10.9319 4.78312 10.8895 4.77025 10.8481 4.75309C10.807 4.73616 10.7678 4.71516 10.7307 4.69032C10.6935 4.66549 10.6592 4.63749 10.6278 4.60589C10.5962 4.57428 10.568 4.53996 10.5431 4.50271C10.5183 4.46568 10.4973 4.42662 10.4804 4.38531C10.4632 4.34399 10.4503 4.30154 10.4415 4.25774C10.4329 4.21395 10.4286 4.16969 10.4286 4.12522C10.4286 4.08051 10.4329 4.03626 10.4415 3.99246C10.4503 3.94866 10.4632 3.90622 10.4804 3.8649C10.4973 3.82381 10.5183 3.78453 10.5431 3.7475C10.568 3.71025 10.5962 3.67593 10.6278 3.64432C10.6592 3.61294 10.6935 3.58472 10.7307 3.55988C10.7678 3.53505 10.807 3.51405 10.8481 3.49712C10.8895 3.47996 10.9319 3.46709 10.9757 3.45829C11.0195 3.44971 11.0637 3.44519 11.1085 3.44519C11.1529 3.44519 11.1972 3.44971 11.241 3.45829C11.2848 3.46709 11.3272 3.47996 11.3685 3.49712C11.4099 3.51405 11.4489 3.53505 11.4862 3.55988C11.5232 3.58472 11.5575 3.61294 11.5891 3.64432C11.6207 3.67593 11.6489 3.71025 11.6736 3.7475C11.6984 3.78453 11.7194 3.82381 11.7365 3.8649C11.7535 3.90622 11.7664 3.94866 11.7752 3.99246C11.784 4.03626 11.7883 4.08051 11.7883 4.12522Z" fill="#737373"/>
<path d="M13.1478 4.12522C13.1478 4.16969 13.1435 4.21395 13.1347 4.25774C13.1262 4.30154 13.1133 4.34399 13.0961 4.38531C13.079 4.42662 13.0582 4.46568 13.0334 4.50271C13.0085 4.53996 12.9803 4.57428 12.9487 4.60589C12.9171 4.63749 12.8828 4.66549 12.8458 4.69032C12.8085 4.71516 12.7694 4.73616 12.7281 4.75309C12.687 4.77025 12.6444 4.78312 12.6006 4.79192C12.557 4.8005 12.5127 4.80502 12.468 4.80502C12.4233 4.80502 12.3791 4.8005 12.3355 4.79192C12.2917 4.78312 12.249 4.77025 12.2079 4.75309C12.1666 4.73616 12.1273 4.71516 12.0903 4.69032C12.0533 4.66549 12.019 4.63749 11.9874 4.60589C11.9558 4.57428 11.9275 4.53996 11.9027 4.50271C11.8779 4.46568 11.8571 4.42662 11.8399 4.38531C11.8228 4.34399 11.8099 4.30154 11.8013 4.25774C11.7925 4.21395 11.7882 4.16969 11.7882 4.12522C11.7882 4.08051 11.7925 4.03626 11.8013 3.99246C11.8099 3.94866 11.8228 3.90622 11.8399 3.8649C11.8571 3.82381 11.8779 3.78453 11.9027 3.7475C11.9275 3.71025 11.9558 3.67593 11.9874 3.64432C12.019 3.61294 12.0533 3.58472 12.0903 3.55988C12.1273 3.53505 12.1666 3.51405 12.2079 3.49712C12.249 3.47996 12.2917 3.46709 12.3355 3.45829C12.3791 3.44971 12.4233 3.44519 12.468 3.44519C12.5127 3.44519 12.557 3.44971 12.6006 3.45829C12.6444 3.46709 12.687 3.47996 12.7281 3.49712C12.7694 3.51405 12.8085 3.53505 12.8458 3.55988C12.8828 3.58472 12.9171 3.61294 12.9487 3.64432C12.9803 3.67593 13.0085 3.71025 13.0334 3.7475C13.0582 3.78453 13.079 3.82381 13.0961 3.8649C13.1133 3.90622 13.1262 3.94866 13.1347 3.99246C13.1435 4.03626 13.1478 4.08051 13.1478 4.12522Z" fill="#737373"/>
<path d="M14.5074 4.12522C14.5074 4.16969 14.5031 4.21395 14.4946 4.25774C14.4858 4.30154 14.4729 4.34399 14.4557 4.38531C14.4388 4.42662 14.4178 4.46568 14.393 4.50271C14.3681 4.53996 14.3399 4.57428 14.3083 4.60589C14.2769 4.63749 14.2426 4.66549 14.2053 4.69032C14.1683 4.71516 14.129 4.73616 14.0879 4.75309C14.0466 4.77025 14.0042 4.78312 13.9604 4.79192C13.9166 4.8005 13.8723 4.80502 13.8276 4.80502C13.7832 4.80502 13.7389 4.8005 13.6951 4.79192C13.6513 4.78312 13.6089 4.77025 13.5675 4.75309C13.5262 4.73616 13.4872 4.71516 13.4499 4.69032C13.4129 4.66549 13.3786 4.63749 13.347 4.60589C13.3154 4.57428 13.2871 4.53996 13.2625 4.50271C13.2377 4.46568 13.2167 4.42662 13.1995 4.38531C13.1826 4.34399 13.1697 4.30154 13.1609 4.25774C13.1521 4.21395 13.1478 4.16969 13.1478 4.12522C13.1478 4.08051 13.1521 4.03626 13.1609 3.99246C13.1697 3.94866 13.1826 3.90622 13.1995 3.8649C13.2167 3.82381 13.2377 3.78453 13.2625 3.7475C13.2871 3.71025 13.3154 3.67593 13.347 3.64432C13.3786 3.61294 13.4129 3.58472 13.4499 3.55988C13.4872 3.53505 13.5262 3.51405 13.5675 3.49712C13.6089 3.47996 13.6513 3.46709 13.6951 3.45829C13.7389 3.44971 13.7832 3.44519 13.8276 3.44519C13.8723 3.44519 13.9166 3.44971 13.9604 3.45829C14.0042 3.46709 14.0466 3.47996 14.0879 3.49712C14.129 3.51405 14.1683 3.53505 14.2053 3.55988C14.2426 3.58472 14.2769 3.61294 14.3083 3.64432C14.3399 3.67593 14.3681 3.71025 14.393 3.7475C14.4178 3.78453 14.4388 3.82381 14.4557 3.8649C14.4729 3.90622 14.4858 3.94866 14.4946 3.99246C14.5031 4.03626 14.5074 4.08051 14.5074 4.12522Z" fill="#737373"/>
<path d="M50.598 4.45455H53.2614L57.892 15.7614H58.0625L62.6932 4.45455H65.3565V19H63.2685V8.47443H63.1335L58.8438 18.9787H57.1108L52.821 8.46733H52.6861V19H50.598V4.45455ZM73.0785 19.2202C72.0037 19.2202 71.078 18.9905 70.3015 18.5312C69.5297 18.0672 68.9331 17.4162 68.5117 16.5781C68.0951 15.7353 67.8867 14.7481 67.8867 13.6165C67.8867 12.4991 68.0951 11.5142 68.5117 10.6619C68.9331 9.80966 69.5202 9.14441 70.2731 8.66619C71.0307 8.18797 71.9161 7.94886 72.9293 7.94886C73.5449 7.94886 74.1415 8.05066 74.7191 8.25426C75.2968 8.45786 75.8152 8.77746 76.2745 9.21307C76.7338 9.64867 77.096 10.2145 77.3612 10.9105C77.6263 11.6018 77.7589 12.4422 77.7589 13.4318V14.1847H69.087V12.5938H75.6779C75.6779 12.035 75.5643 11.5402 75.337 11.1094C75.1097 10.6738 74.7901 10.3305 74.3782 10.0795C73.971 9.8286 73.4928 9.70312 72.9435 9.70312C72.3469 9.70312 71.8261 9.84991 71.381 10.1435C70.9407 10.4323 70.5998 10.8111 70.3583 11.2798C70.1216 11.7438 70.0032 12.2481 70.0032 12.7926V14.0355C70.0032 14.7647 70.131 15.3849 70.3867 15.8963C70.6471 16.4077 71.0094 16.7983 71.4734 17.0682C71.9374 17.3333 72.4795 17.4659 73.0998 17.4659C73.5022 17.4659 73.8692 17.4091 74.2006 17.2955C74.5321 17.1771 74.8185 17.0019 75.06 16.7699C75.3015 16.5379 75.4862 16.2514 75.614 15.9105L77.6239 16.2727C77.4629 16.8646 77.1741 17.383 76.7575 17.8281C76.3455 18.2685 75.8271 18.6117 75.2021 18.858C74.5818 19.0994 73.8739 19.2202 73.0785 19.2202ZM82.2386 12.5227V19H80.1151V8.09091H82.1534V9.86648H82.2884C82.5393 9.28883 82.9323 8.82481 83.4673 8.47443C84.0071 8.12405 84.6866 7.94886 85.5057 7.94886C86.2491 7.94886 86.9001 8.10511 87.4588 8.41761C88.0175 8.72538 88.4508 9.18466 88.7585 9.79545C89.0663 10.4062 89.2202 11.1615 89.2202 12.0611V19H87.0966V12.3168C87.0966 11.526 86.8906 10.9081 86.4787 10.4631C86.0668 10.0133 85.5009 9.78835 84.7812 9.78835C84.2888 9.78835 83.8509 9.89489 83.4673 10.108C83.0885 10.321 82.7879 10.6335 82.5653 11.0455C82.3475 11.4527 82.2386 11.9451 82.2386 12.5227ZM97.1605 8.09091V9.79545H91.2017V8.09091H97.1605ZM92.7997 5.47727H94.9233V15.7969C94.9233 16.2088 94.9848 16.5189 95.108 16.7273C95.2311 16.9309 95.3897 17.0705 95.5838 17.1463C95.7827 17.2173 95.9981 17.2528 96.2301 17.2528C96.4006 17.2528 96.5497 17.241 96.6776 17.2173C96.8054 17.1937 96.9048 17.1747 96.9759 17.1605L97.3594 18.9148C97.2363 18.9621 97.0611 19.0095 96.8338 19.0568C96.6065 19.1089 96.3224 19.1373 95.9815 19.142C95.4228 19.1515 94.902 19.0521 94.419 18.8438C93.9361 18.6354 93.5455 18.3134 93.2472 17.8778C92.9489 17.4422 92.7997 16.8954 92.7997 16.2372V5.47727ZM103.988 19.2202C102.965 19.2202 102.072 18.9858 101.31 18.517C100.548 18.0483 99.9558 17.3925 99.5344 16.5497C99.113 15.7069 98.9023 14.7221 98.9023 13.5952C98.9023 12.4635 99.113 11.474 99.5344 10.6264C99.9558 9.77888 100.548 9.12074 101.31 8.65199C102.072 8.18324 102.965 7.94886 103.988 7.94886C105.01 7.94886 105.903 8.18324 106.665 8.65199C107.427 9.12074 108.019 9.77888 108.441 10.6264C108.862 11.474 109.073 12.4635 109.073 13.5952C109.073 14.7221 108.862 15.7069 108.441 16.5497C108.019 17.3925 107.427 18.0483 106.665 18.517C105.903 18.9858 105.01 19.2202 103.988 19.2202ZM103.995 17.4375C104.658 17.4375 105.207 17.2623 105.642 16.9119C106.078 16.5616 106.4 16.0952 106.608 15.5128C106.821 14.9304 106.928 14.2888 106.928 13.5881C106.928 12.892 106.821 12.2528 106.608 11.6705C106.4 11.0833 106.078 10.6122 105.642 10.2571C105.207 9.90199 104.658 9.72443 103.995 9.72443C103.327 9.72443 102.773 9.90199 102.333 10.2571C101.897 10.6122 101.573 11.0833 101.36 11.6705C101.151 12.2528 101.047 12.892 101.047 13.5881C101.047 14.2888 101.151 14.9304 101.36 15.5128C101.573 16.0952 101.897 16.5616 102.333 16.9119C102.773 17.2623 103.327 17.4375 103.995 17.4375ZM111.443 19V8.09091H113.496V9.82386H113.609C113.808 9.23674 114.159 8.77509 114.661 8.43892C115.167 8.09801 115.74 7.92756 116.379 7.92756C116.512 7.92756 116.668 7.93229 116.848 7.94176C117.033 7.95123 117.177 7.96307 117.281 7.97727V10.0085C117.196 9.98485 117.045 9.95881 116.827 9.9304C116.609 9.89725 116.391 9.88068 116.173 9.88068C115.671 9.88068 115.224 9.98722 114.831 10.2003C114.443 10.4086 114.135 10.6998 113.908 11.0739C113.68 11.4432 113.567 11.8646 113.567 12.3381V19H111.443ZM127.294 10.7543L125.369 11.0952C125.288 10.849 125.161 10.6146 124.985 10.392C124.815 10.1695 124.583 9.98722 124.289 9.84517C123.996 9.70312 123.629 9.6321 123.189 9.6321C122.587 9.6321 122.085 9.76705 121.683 10.0369C121.28 10.3021 121.079 10.6454 121.079 11.0668C121.079 11.4313 121.214 11.7249 121.484 11.9474C121.754 12.17 122.19 12.3523 122.791 12.4943L124.524 12.892C125.528 13.1241 126.276 13.4815 126.768 13.9645C127.261 14.4474 127.507 15.0748 127.507 15.8466C127.507 16.5 127.317 17.0824 126.939 17.5938C126.565 18.1004 126.041 18.4981 125.369 18.7869C124.701 19.0758 123.927 19.2202 123.047 19.2202C121.825 19.2202 120.828 18.9598 120.056 18.4389C119.285 17.9134 118.811 17.1676 118.636 16.2017L120.689 15.8892C120.816 16.4242 121.079 16.8291 121.477 17.1037C121.875 17.3736 122.393 17.5085 123.032 17.5085C123.728 17.5085 124.285 17.3641 124.701 17.0753C125.118 16.7817 125.326 16.4242 125.326 16.0028C125.326 15.6619 125.199 15.3755 124.943 15.1435C124.692 14.9115 124.306 14.7363 123.785 14.6179L121.939 14.2131C120.921 13.9811 120.168 13.6117 119.68 13.1051C119.197 12.5985 118.956 11.9569 118.956 11.1804C118.956 10.5365 119.136 9.97301 119.495 9.49006C119.855 9.0071 120.352 8.63068 120.987 8.3608C121.621 8.08617 122.348 7.94886 123.167 7.94886C124.346 7.94886 125.274 8.20455 125.951 8.71591C126.628 9.22254 127.076 9.90199 127.294 10.7543ZM131.965 12.5227V19H129.842V4.45455H131.937V9.86648H132.072C132.327 9.27936 132.718 8.81297 133.244 8.46733C133.769 8.12169 134.456 7.94886 135.303 7.94886C136.051 7.94886 136.705 8.10275 137.263 8.41051C137.827 8.71828 138.263 9.17756 138.57 9.78835C138.883 10.3944 139.039 11.152 139.039 12.0611V19H136.915V12.3168C136.915 11.5166 136.71 10.8963 136.298 10.456C135.886 10.0109 135.313 9.78835 134.579 9.78835C134.077 9.78835 133.627 9.89489 133.229 10.108C132.836 10.321 132.526 10.6335 132.299 11.0455C132.076 11.4527 131.965 11.9451 131.965 12.5227ZM141.873 19V8.09091H143.996V19H141.873ZM142.945 6.40767C142.576 6.40767 142.259 6.28456 141.994 6.03835C141.733 5.7874 141.603 5.48911 141.603 5.14347C141.603 4.79309 141.733 4.49479 141.994 4.24858C142.259 3.99763 142.576 3.87216 142.945 3.87216C143.315 3.87216 143.629 3.99763 143.89 4.24858C144.155 4.49479 144.288 4.79309 144.288 5.14347C144.288 5.48911 144.155 5.7874 143.89 6.03835C143.629 6.28456 143.315 6.40767 142.945 6.40767ZM146.853 23.0909V8.09091H148.927V9.85938H149.105C149.228 9.6321 149.405 9.36932 149.637 9.07102C149.869 8.77273 150.191 8.51231 150.603 8.28977C151.015 8.0625 151.56 7.94886 152.237 7.94886C153.118 7.94886 153.904 8.1714 154.595 8.61648C155.286 9.06155 155.828 9.70312 156.221 10.5412C156.619 11.3793 156.818 12.3878 156.818 13.5668C156.818 14.7457 156.621 15.7566 156.228 16.5994C155.835 17.4375 155.296 18.0838 154.609 18.5384C153.922 18.9882 153.139 19.2131 152.258 19.2131C151.595 19.2131 151.053 19.1018 150.632 18.8793C150.215 18.6567 149.888 18.3963 149.652 18.098C149.415 17.7997 149.233 17.5346 149.105 17.3026H148.977V23.0909H146.853ZM148.934 13.5455C148.934 14.3125 149.046 14.9848 149.268 15.5625C149.491 16.1402 149.813 16.5923 150.234 16.919C150.655 17.241 151.172 17.402 151.782 17.402C152.417 17.402 152.947 17.2339 153.373 16.8977C153.799 16.5568 154.121 16.0952 154.339 15.5128C154.562 14.9304 154.673 14.2746 154.673 13.5455C154.673 12.8258 154.564 12.1795 154.346 11.6065C154.133 11.0336 153.811 10.5814 153.38 10.25C152.954 9.91856 152.422 9.75284 151.782 9.75284C151.167 9.75284 150.646 9.91146 150.22 10.2287C149.798 10.5459 149.479 10.9886 149.261 11.5568C149.043 12.125 148.934 12.7879 148.934 13.5455Z" fill="#737373"/>
</svg>
