<svg width="127" height="38" viewBox="0 0 127 38" fill="none" xmlns="http://www.w3.org/2000/svg">
<path d="M32.1333 26.3011H27.1962V26.8563C27.1962 27.0607 27.167 27.2654 27.1377 27.4698H32.1333C32.3671 27.4698 32.5715 27.6159 32.6591 27.8203L36.2233 35.3576C36.3111 35.5623 36.3111 35.7958 36.1941 35.9711C36.1356 36.0587 35.9897 36.2342 35.6975 36.2342H1.80879C1.51676 36.2342 1.37062 36.0296 1.31211 35.9711C1.19535 35.7958 1.19535 35.5623 1.28298 35.3576L5.43143 27.8494C5.43143 27.8494 5.43143 27.8203 5.46056 27.8203C5.5482 27.6159 5.75284 27.4698 5.98637 27.4698H11.5663L10.8068 26.7978C10.6315 26.6517 10.4856 26.4764 10.3686 26.3011H5.95724C5.28529 26.3011 4.67185 26.6811 4.37957 27.2945L0.260496 34.8027C0.260496 34.8027 0.260496 34.8318 0.231123 34.8318C-0.0317814 35.3868 -0.00240785 36.0587 0.348131 36.5848C0.669539 37.1106 1.22448 37.4026 1.80879 37.4026H35.6975C36.3109 37.4026 36.8661 37.1106 37.1875 36.5848C37.5089 36.0587 37.5672 35.4161 37.3043 34.8318L33.7401 27.2945C33.4187 26.7102 32.8053 26.3011 32.1333 26.3011Z" fill="#737373"/>
<path d="M13.6113 19.2313C13.2608 19.9615 11.362 24.3728 11.2743 24.5484C11.2743 24.5484 11.2743 24.5775 11.2452 24.6066C11.1867 24.8113 11.1573 24.9865 11.1867 25.1909C11.2158 25.4538 11.3328 25.7167 11.5664 25.9214L16.5914 30.4495C16.8834 30.7418 17.1463 30.8877 17.3801 30.9462L16.7082 34.9779C16.679 35.1531 16.7373 35.3284 16.8249 35.4452C16.9419 35.5622 17.0881 35.6498 17.2634 35.6498H23.6903C23.8658 35.6498 24.0117 35.5622 24.1287 35.4452C24.2455 35.3284 24.2746 35.1531 24.2455 34.9779L23.3691 29.7193C23.3106 29.427 23.0769 29.2226 22.7848 29.2226H19.6589C19.6589 29.1932 19.6589 29.1932 19.688 29.1641C19.7465 28.9888 19.7174 28.7844 19.6589 28.6383H24.2455C25.2388 28.6383 26.0276 27.8493 26.0276 26.8562V19.8156C26.0276 18.8222 25.2971 17.8874 24.304 17.4492C24.1287 17.7998 23.8949 18.1503 23.632 18.4423C24.3623 18.647 24.8883 19.2895 24.8883 19.8447V26.8854C24.8883 27.2068 24.6252 27.4988 24.2746 27.4988H19.016V26.3011H22.5511C23.1939 26.3011 23.6903 25.7752 23.6903 25.1033V22.182C23.6903 21.8606 23.4274 21.5977 23.1062 21.5977C22.7848 21.5977 22.5219 21.8606 22.5219 22.182V25.1033V25.1324H18.9869C18.3441 25.1324 17.8474 25.6585 17.8474 26.2719V26.8562L16.7373 25.8338V20.984V20.9549C16.7373 20.9257 16.7373 20.9257 16.7373 20.8963C16.7373 20.8672 16.7373 20.8672 16.7373 20.8381C16.7373 20.8087 16.7373 20.8087 16.7082 20.7796C16.7082 20.7505 16.679 20.7505 16.679 20.7211C16.679 20.6919 16.6497 20.6919 16.6497 20.6628C16.6497 20.6334 16.6205 20.6334 16.6205 20.6043C16.6205 20.5752 16.5914 20.5752 16.5914 20.5458L16.562 20.5167L16.5329 20.4875C16.5038 20.4875 16.5038 20.4582 16.4744 20.4582C16.4744 20.4582 16.4453 20.4582 16.4453 20.429C16.4161 20.429 16.4161 20.3999 16.3868 20.3999C16.3576 20.3999 16.3576 20.3999 16.3285 20.3705C16.2991 20.3705 16.2991 20.3705 16.27 20.3705C16.2409 20.3705 16.2115 20.3705 16.2115 20.3705H16.1824C16.153 20.3705 16.1239 20.3705 16.0947 20.3705C16.0654 20.3705 16.0654 20.3705 16.0362 20.3705C16.0071 20.3705 16.0071 20.3705 15.9777 20.3999C15.9486 20.3999 15.9486 20.3999 15.9195 20.429C15.8901 20.429 15.8901 20.4582 15.861 20.4582L15.8318 20.4875C15.8025 20.4875 15.8025 20.5167 15.7733 20.5167L15.7442 20.5458C15.7442 20.5752 15.7148 20.5752 15.7148 20.6043C15.7148 20.6334 15.6857 20.6334 15.6857 20.6628C15.6857 20.6628 15.6857 20.6919 15.6566 20.6919L14.0789 23.964C13.9327 24.3437 13.9621 24.7528 14.1957 25.1033C14.225 25.1324 14.2542 25.1618 14.2833 25.1909L18.4317 28.9597C18.4026 28.9888 18.3735 28.9888 18.3441 29.018L17.5845 29.7484C17.5554 29.7193 17.4969 29.6899 17.4386 29.6023L17.4093 29.5732L12.3553 25.0742C12.3553 25.0448 12.3553 25.0157 12.3553 25.0157C12.5306 24.636 14.3418 20.429 14.6632 19.7571C15.0137 19.0266 15.6272 18.6176 16.1824 18.4423C15.9195 18.1503 15.6857 17.7998 15.4813 17.4492C14.6923 17.7704 14.0204 18.4132 13.6113 19.2313ZM15.5689 23.5841V24.7528L15.189 24.4022L15.5689 23.5841ZM23.0186 34.4812H17.9936L18.6655 30.3912H22.3467L23.0186 34.4812Z" fill="#737373"/>
<path d="M19.8926 18.9391C21.9958 18.9391 23.6903 17.2446 23.6903 15.1412C23.6903 13.0379 21.9958 11.3435 19.8926 11.3435C17.7891 11.3435 16.0947 13.0379 16.0947 15.1412C16.0947 17.2446 17.7891 18.9391 19.8926 18.9391Z" fill="#737373"/>
<path d="M19.805 33.6922C19.8926 33.926 20.1262 34.0721 20.3599 34.0721C20.4184 34.0721 20.5061 34.0721 20.5646 34.043C20.8566 33.926 21.0027 33.5755 20.8857 33.2834L20.0385 31.0923C19.9218 30.8 19.5712 30.6541 19.2789 30.7709C18.9869 30.8877 18.8408 31.2385 18.9578 31.5305L19.805 33.6922Z" fill="#737373"/>
<mask id="mask0_484_1945" style="mask-type:luminance" maskUnits="userSpaceOnUse" x="0" y="0" width="13" height="13">
<path d="M0 0H12.9262V12.8639H0V0Z" fill="white"/>
</mask>
<g mask="url(#mask0_484_1945)">
<path d="M6.48301 0.00830078C2.94825 0.00830078 0.0558167 2.90049 0.0558167 6.4355C0.0558167 9.97026 2.94825 12.8627 6.48301 12.8627C10.018 12.8627 12.9102 9.97026 12.9102 6.4355C12.9102 2.90049 10.018 0.00830078 6.48301 0.00830078ZM11.7416 6.4355C11.7416 6.61077 11.7416 6.78604 11.7125 6.9613H11.1573C10.8361 6.9613 10.5732 6.6984 10.5732 6.37699C10.5732 6.05558 10.8361 5.79268 11.1573 5.79268H11.7125C11.7125 5.99708 11.7416 6.23085 11.7416 6.4355ZM4.99322 4.88696C5.22675 4.65343 5.57753 4.65343 5.81106 4.88696L5.8987 4.97459V3.51393C5.8987 3.19253 6.1616 2.92962 6.48301 2.92962C6.80442 2.92962 7.06732 3.19253 7.06732 3.51393V6.4355C7.06732 6.75666 6.80442 7.01981 6.48301 7.01981C6.24948 7.01981 6.04484 6.87367 5.9572 6.6984L4.99322 5.73418C4.75945 5.50064 4.75945 5.12073 4.99322 4.88696ZM5.8987 11.6356V11.0512C5.8987 10.7298 6.1616 10.4669 6.48301 10.4669C6.80442 10.4669 7.06732 10.7298 7.06732 11.0512V11.6356C7.06732 11.6356 7.06732 11.6356 7.06732 11.6647C6.86292 11.6941 6.68765 11.6941 6.48301 11.6941C6.27861 11.6941 6.10334 11.6941 5.8987 11.6356ZM6.48301 2.28705C6.1616 2.28705 5.8987 2.02414 5.8987 1.70273V1.20606C6.10334 1.17693 6.27861 1.17693 6.48301 1.17693C6.68765 1.17693 6.86292 1.17693 7.06732 1.20606V1.70273C7.06732 2.02414 6.80442 2.28705 6.48301 2.28705ZM1.80875 5.79268C2.13016 5.79268 2.39307 6.05558 2.39307 6.37699C2.39307 6.6984 2.13016 6.9613 1.80875 6.9613H1.25382C1.22444 6.78604 1.22444 6.61077 1.22444 6.4355C1.22444 6.23085 1.25382 5.99708 1.25382 5.79268H1.80875Z" fill="#737373"/>
</g>
<path d="M49.598 32V17.4545H54.7827C55.9143 17.4545 56.8518 17.6605 57.5952 18.0724C58.3385 18.4844 58.8949 19.0478 59.2642 19.7628C59.6335 20.473 59.8182 21.2732 59.8182 22.1634C59.8182 23.0582 59.6312 23.8632 59.2571 24.5781C58.8878 25.2884 58.3291 25.8518 57.581 26.2685C56.8376 26.6804 55.9025 26.8864 54.7756 26.8864H51.2102V25.0256H54.5767C55.2917 25.0256 55.8717 24.9025 56.3168 24.6562C56.7618 24.4053 57.0885 24.0644 57.2969 23.6335C57.5052 23.2027 57.6094 22.7126 57.6094 22.1634C57.6094 21.6141 57.5052 21.1264 57.2969 20.7003C57.0885 20.2741 56.7595 19.9403 56.3097 19.6989C55.8646 19.4574 55.2775 19.3366 54.5483 19.3366H51.7926V32H49.598ZM62.2205 32V21.0909H64.2731V22.8239H64.3867C64.5856 22.2367 64.936 21.7751 65.4379 21.4389C65.9445 21.098 66.5174 20.9276 67.1566 20.9276C67.2892 20.9276 67.4454 20.9323 67.6254 20.9418C67.81 20.9512 67.9544 20.9631 68.0586 20.9773V23.0085C67.9734 22.9848 67.8219 22.9588 67.604 22.9304C67.3862 22.8973 67.1684 22.8807 66.9506 22.8807C66.4487 22.8807 66.0013 22.9872 65.6083 23.2003C65.2201 23.4086 64.9123 23.6998 64.685 24.0739C64.4577 24.4432 64.3441 24.8646 64.3441 25.3381V32H62.2205ZM72.9734 32.2415C72.2821 32.2415 71.6571 32.1136 71.0984 31.858C70.5397 31.5975 70.0969 31.2211 69.7702 30.7287C69.4483 30.2363 69.2873 29.6326 69.2873 28.9176C69.2873 28.3021 69.4057 27.7955 69.6424 27.3977C69.8791 27 70.1987 26.6851 70.6012 26.4531C71.0037 26.2211 71.4535 26.0459 71.9506 25.9276C72.4478 25.8092 72.9544 25.7192 73.4705 25.6577C74.1239 25.5819 74.6542 25.5204 75.0614 25.473C75.4686 25.4209 75.7646 25.3381 75.9492 25.2244C76.1339 25.1108 76.2262 24.9261 76.2262 24.6705V24.6207C76.2262 24.0005 76.051 23.5199 75.7006 23.179C75.355 22.8381 74.8389 22.6676 74.1523 22.6676C73.4374 22.6676 72.8739 22.8262 72.462 23.1435C72.0548 23.456 71.7731 23.804 71.6168 24.1875L69.6211 23.733C69.8578 23.0701 70.2035 22.535 70.658 22.1278C71.1173 21.7159 71.6452 21.4176 72.2418 21.233C72.8384 21.0436 73.4658 20.9489 74.1239 20.9489C74.5595 20.9489 75.0212 21.0009 75.5089 21.1051C76.0013 21.2045 76.4606 21.3892 76.8867 21.6591C77.3176 21.929 77.6703 22.3149 77.945 22.8168C78.2196 23.3139 78.3569 23.9602 78.3569 24.7557V32H76.283V30.5085H76.1978C76.0605 30.7831 75.8545 31.053 75.5799 31.3182C75.3053 31.5833 74.9525 31.8035 74.5217 31.9787C74.0908 32.1539 73.5747 32.2415 72.9734 32.2415ZM73.435 30.5369C74.0221 30.5369 74.524 30.4209 74.9407 30.1889C75.3621 29.9569 75.6817 29.6539 75.8995 29.2798C76.122 28.901 76.2333 28.4962 76.2333 28.0653V26.6591C76.1576 26.7348 76.0108 26.8059 75.793 26.8722C75.5799 26.9337 75.3361 26.9882 75.0614 27.0355C74.7868 27.0781 74.5193 27.1184 74.2589 27.1562C73.9985 27.1894 73.7807 27.2178 73.6055 27.2415C73.1935 27.2936 72.8171 27.3812 72.4762 27.5043C72.14 27.6274 71.8701 27.8049 71.6665 28.0369C71.4677 28.2642 71.3683 28.5672 71.3683 28.946C71.3683 29.4716 71.5624 29.8693 71.9506 30.1392C72.3389 30.4044 72.8337 30.5369 73.435 30.5369ZM85.7805 32.2202C84.7247 32.2202 83.8156 31.9811 83.0533 31.5028C82.2957 31.0199 81.7133 30.3546 81.3061 29.5071C80.8989 28.6596 80.6953 27.6889 80.6953 26.5952C80.6953 25.4872 80.9036 24.5095 81.3203 23.6619C81.737 22.8097 82.3241 22.1444 83.0817 21.6662C83.8393 21.188 84.7318 20.9489 85.7592 20.9489C86.5878 20.9489 87.3265 21.1027 87.9751 21.4105C88.6238 21.7135 89.147 22.1397 89.5447 22.6889C89.9472 23.2382 90.1863 23.8797 90.2621 24.6136H88.1953C88.0817 24.1023 87.8213 23.6619 87.4141 23.2926C87.0116 22.9233 86.4718 22.7386 85.7947 22.7386C85.2029 22.7386 84.6844 22.8949 84.2393 23.2074C83.799 23.5152 83.4557 23.9555 83.2095 24.5284C82.9633 25.0966 82.8402 25.7689 82.8402 26.5455C82.8402 27.3409 82.9609 28.0275 83.2024 28.6051C83.4439 29.1828 83.7848 29.6302 84.2251 29.9474C84.6702 30.2647 85.1934 30.4233 85.7947 30.4233C86.1972 30.4233 86.5618 30.3499 86.8885 30.2031C87.2199 30.0516 87.4969 29.8362 87.7195 29.5568C87.9467 29.2775 88.1054 28.9413 88.1953 28.5483H90.2621C90.1863 29.2538 89.9567 29.8835 89.5732 30.4375C89.1896 30.9915 88.6759 31.4271 88.032 31.7443C87.3928 32.0616 86.6423 32.2202 85.7805 32.2202ZM97.6254 21.0909V22.7955H91.6665V21.0909H97.6254ZM93.2646 18.4773H95.3881V28.7969C95.3881 29.2088 95.4497 29.5189 95.5728 29.7273C95.6959 29.9309 95.8545 30.0705 96.0487 30.1463C96.2475 30.2173 96.4629 30.2528 96.695 30.2528C96.8654 30.2528 97.0146 30.241 97.1424 30.2173C97.2702 30.1937 97.3697 30.1747 97.4407 30.1605L97.8242 31.9148C97.7011 31.9621 97.5259 32.0095 97.2987 32.0568C97.0714 32.1089 96.7873 32.1373 96.4464 32.142C95.8877 32.1515 95.3668 32.0521 94.8839 31.8438C94.4009 31.6354 94.0103 31.3134 93.712 30.8778C93.4137 30.4422 93.2646 29.8954 93.2646 29.2372V18.4773ZM99.9744 32V21.0909H102.098V32H99.9744ZM101.047 19.4077C100.678 19.4077 100.36 19.2846 100.095 19.0384C99.8348 18.7874 99.7045 18.4891 99.7045 18.1435C99.7045 17.7931 99.8348 17.4948 100.095 17.2486C100.36 16.9976 100.678 16.8722 101.047 16.8722C101.416 16.8722 101.731 16.9976 101.991 17.2486C102.257 17.4948 102.389 17.7931 102.389 18.1435C102.389 18.4891 102.257 18.7874 101.991 19.0384C101.731 19.2846 101.416 19.4077 101.047 19.4077ZM109.55 32.2202C108.494 32.2202 107.585 31.9811 106.823 31.5028C106.065 31.0199 105.483 30.3546 105.076 29.5071C104.668 28.6596 104.465 27.6889 104.465 26.5952C104.465 25.4872 104.673 24.5095 105.09 23.6619C105.507 22.8097 106.094 22.1444 106.851 21.6662C107.609 21.188 108.501 20.9489 109.529 20.9489C110.357 20.9489 111.096 21.1027 111.745 21.4105C112.393 21.7135 112.917 22.1397 113.314 22.6889C113.717 23.2382 113.956 23.8797 114.032 24.6136H111.965C111.851 24.1023 111.591 23.6619 111.184 23.2926C110.781 22.9233 110.241 22.7386 109.564 22.7386C108.972 22.7386 108.454 22.8949 108.009 23.2074C107.569 23.5152 107.225 23.9555 106.979 24.5284C106.733 25.0966 106.61 25.7689 106.61 26.5455C106.61 27.3409 106.73 28.0275 106.972 28.6051C107.213 29.1828 107.554 29.6302 107.995 29.9474C108.44 30.2647 108.963 30.4233 109.564 30.4233C109.967 30.4233 110.331 30.3499 110.658 30.2031C110.989 30.0516 111.266 29.8362 111.489 29.5568C111.716 29.2775 111.875 28.9413 111.965 28.5483H114.032C113.956 29.2538 113.726 29.8835 113.343 30.4375C112.959 30.9915 112.445 31.4271 111.801 31.7443C111.162 32.0616 110.412 32.2202 109.55 32.2202ZM121.004 32.2202C119.929 32.2202 119.004 31.9905 118.227 31.5312C117.455 31.0672 116.859 30.4162 116.438 29.5781C116.021 28.7353 115.812 27.7481 115.812 26.6165C115.812 25.4991 116.021 24.5142 116.438 23.6619C116.859 22.8097 117.446 22.1444 118.199 21.6662C118.956 21.188 119.842 20.9489 120.855 20.9489C121.471 20.9489 122.067 21.0507 122.645 21.2543C123.223 21.4579 123.741 21.7775 124.2 22.2131C124.66 22.6487 125.022 23.2145 125.287 23.9105C125.552 24.6018 125.685 25.4422 125.685 26.4318V27.1847H117.013V25.5938H123.604C123.604 25.035 123.49 24.5402 123.263 24.1094C123.036 23.6738 122.716 23.3305 122.304 23.0795C121.897 22.8286 121.419 22.7031 120.869 22.7031C120.273 22.7031 119.752 22.8499 119.307 23.1435C118.866 23.4323 118.526 23.8111 118.284 24.2798C118.047 24.7438 117.929 25.2481 117.929 25.7926V27.0355C117.929 27.7647 118.057 28.3849 118.312 28.8963C118.573 29.4077 118.935 29.7983 119.399 30.0682C119.863 30.3333 120.405 30.4659 121.026 30.4659C121.428 30.4659 121.795 30.4091 122.126 30.2955C122.458 30.1771 122.744 30.0019 122.986 29.7699C123.227 29.5379 123.412 29.2514 123.54 28.9105L125.55 29.2727C125.389 29.8646 125.1 30.383 124.683 30.8281C124.271 31.2685 123.753 31.6117 123.128 31.858C122.508 32.0994 121.8 32.2202 121.004 32.2202Z" fill="#737373"/>
</svg>
