<svg width="38" height="38" viewBox="0 0 38 38" fill="none" xmlns="http://www.w3.org/2000/svg">
<path d="M32.1333 26.3011H27.1962V26.8563C27.1962 27.0607 27.167 27.2654 27.1377 27.4698H32.1333C32.3671 27.4698 32.5715 27.6159 32.6591 27.8203L36.2233 35.3576C36.3111 35.5623 36.3111 35.7958 36.1941 35.9711C36.1356 36.0587 35.9897 36.2342 35.6975 36.2342H1.80879C1.51676 36.2342 1.37062 36.0296 1.31211 35.9711C1.19535 35.7958 1.19535 35.5623 1.28298 35.3576L5.43143 27.8494C5.43143 27.8494 5.43143 27.8203 5.46056 27.8203C5.5482 27.6159 5.75284 27.4698 5.98637 27.4698H11.5663L10.8068 26.7978C10.6315 26.6517 10.4856 26.4764 10.3686 26.3011H5.95724C5.28529 26.3011 4.67185 26.6811 4.37957 27.2945L0.260496 34.8027C0.260496 34.8027 0.260496 34.8318 0.231123 34.8318C-0.0317814 35.3868 -0.00240785 36.0587 0.348131 36.5848C0.669539 37.1106 1.22448 37.4026 1.80879 37.4026H35.6975C36.3109 37.4026 36.8661 37.1106 37.1875 36.5848C37.5089 36.0587 37.5672 35.4161 37.3043 34.8318L33.7401 27.2945C33.4187 26.7102 32.8053 26.3011 32.1333 26.3011Z" fill="#737373"/>
<path d="M13.6113 19.2313C13.2608 19.9615 11.362 24.3728 11.2743 24.5484C11.2743 24.5484 11.2743 24.5775 11.2452 24.6066C11.1867 24.8113 11.1573 24.9865 11.1867 25.1909C11.2158 25.4538 11.3328 25.7167 11.5664 25.9214L16.5914 30.4495C16.8834 30.7418 17.1463 30.8877 17.3801 30.9462L16.7082 34.9779C16.679 35.1531 16.7373 35.3284 16.8249 35.4452C16.9419 35.5622 17.0881 35.6498 17.2634 35.6498H23.6903C23.8658 35.6498 24.0117 35.5622 24.1287 35.4452C24.2455 35.3284 24.2746 35.1531 24.2455 34.9779L23.3691 29.7193C23.3106 29.427 23.0769 29.2226 22.7848 29.2226H19.6589C19.6589 29.1932 19.6589 29.1932 19.688 29.1641C19.7465 28.9888 19.7174 28.7844 19.6589 28.6383H24.2455C25.2388 28.6383 26.0276 27.8493 26.0276 26.8562V19.8156C26.0276 18.8222 25.2971 17.8874 24.304 17.4492C24.1287 17.7998 23.8949 18.1503 23.632 18.4423C24.3623 18.647 24.8883 19.2895 24.8883 19.8447V26.8854C24.8883 27.2068 24.6252 27.4988 24.2746 27.4988H19.016V26.3011H22.5511C23.1939 26.3011 23.6903 25.7752 23.6903 25.1033V22.182C23.6903 21.8606 23.4274 21.5977 23.1062 21.5977C22.7848 21.5977 22.5219 21.8606 22.5219 22.182V25.1033V25.1324H18.9869C18.3441 25.1324 17.8474 25.6585 17.8474 26.2719V26.8562L16.7373 25.8338V20.984V20.9549C16.7373 20.9257 16.7373 20.9257 16.7373 20.8963C16.7373 20.8672 16.7373 20.8672 16.7373 20.8381C16.7373 20.8087 16.7373 20.8087 16.7082 20.7796C16.7082 20.7505 16.679 20.7505 16.679 20.7211C16.679 20.6919 16.6497 20.6919 16.6497 20.6628C16.6497 20.6334 16.6205 20.6334 16.6205 20.6043C16.6205 20.5752 16.5914 20.5752 16.5914 20.5458L16.562 20.5167L16.5329 20.4875C16.5038 20.4875 16.5038 20.4582 16.4744 20.4582C16.4744 20.4582 16.4453 20.4582 16.4453 20.429C16.4161 20.429 16.4161 20.3999 16.3868 20.3999C16.3576 20.3999 16.3576 20.3999 16.3285 20.3705C16.2991 20.3705 16.2991 20.3705 16.27 20.3705C16.2409 20.3705 16.2115 20.3705 16.2115 20.3705H16.1824C16.153 20.3705 16.1239 20.3705 16.0947 20.3705C16.0654 20.3705 16.0654 20.3705 16.0362 20.3705C16.0071 20.3705 16.0071 20.3705 15.9777 20.3999C15.9486 20.3999 15.9486 20.3999 15.9195 20.429C15.8901 20.429 15.8901 20.4582 15.861 20.4582L15.8318 20.4875C15.8025 20.4875 15.8025 20.5167 15.7733 20.5167L15.7442 20.5458C15.7442 20.5752 15.7148 20.5752 15.7148 20.6043C15.7148 20.6334 15.6857 20.6334 15.6857 20.6628C15.6857 20.6628 15.6857 20.6919 15.6566 20.6919L14.0789 23.964C13.9327 24.3437 13.9621 24.7528 14.1957 25.1033C14.225 25.1324 14.2542 25.1618 14.2833 25.1909L18.4317 28.9597C18.4026 28.9888 18.3735 28.9888 18.3441 29.018L17.5845 29.7484C17.5554 29.7193 17.4969 29.6899 17.4386 29.6023L17.4093 29.5732L12.3553 25.0742C12.3553 25.0448 12.3553 25.0157 12.3553 25.0157C12.5306 24.636 14.3418 20.429 14.6632 19.7571C15.0137 19.0266 15.6272 18.6176 16.1824 18.4423C15.9195 18.1503 15.6857 17.7998 15.4813 17.4492C14.6923 17.7704 14.0204 18.4132 13.6113 19.2313ZM15.5689 23.5841V24.7528L15.189 24.4022L15.5689 23.5841ZM23.0186 34.4812H17.9936L18.6655 30.3912H22.3467L23.0186 34.4812Z" fill="#737373"/>
<path d="M19.8926 18.9391C21.9958 18.9391 23.6903 17.2446 23.6903 15.1412C23.6903 13.0379 21.9958 11.3435 19.8926 11.3435C17.7891 11.3435 16.0947 13.0379 16.0947 15.1412C16.0947 17.2446 17.7891 18.9391 19.8926 18.9391Z" fill="#737373"/>
<path d="M19.805 33.6922C19.8926 33.926 20.1262 34.0721 20.3599 34.0721C20.4184 34.0721 20.5061 34.0721 20.5646 34.043C20.8566 33.926 21.0027 33.5755 20.8857 33.2834L20.0385 31.0923C19.9218 30.8 19.5712 30.6541 19.2789 30.7709C18.9869 30.8877 18.8408 31.2385 18.9578 31.5305L19.805 33.6922Z" fill="#737373"/>
<mask id="mask0_2443_1698" style="mask-type:luminance" maskUnits="userSpaceOnUse" x="0" y="0" width="13" height="13">
<path d="M0 0H12.9262V12.8639H0V0Z" fill="white"/>
</mask>
<g mask="url(#mask0_2443_1698)">
<path d="M6.48301 0.00830078C2.94825 0.00830078 0.0558167 2.90049 0.0558167 6.4355C0.0558167 9.97026 2.94825 12.8627 6.48301 12.8627C10.018 12.8627 12.9102 9.97026 12.9102 6.4355C12.9102 2.90049 10.018 0.00830078 6.48301 0.00830078ZM11.7416 6.4355C11.7416 6.61077 11.7416 6.78604 11.7125 6.9613H11.1573C10.8361 6.9613 10.5732 6.6984 10.5732 6.37699C10.5732 6.05558 10.8361 5.79268 11.1573 5.79268H11.7125C11.7125 5.99708 11.7416 6.23085 11.7416 6.4355ZM4.99322 4.88696C5.22675 4.65343 5.57753 4.65343 5.81106 4.88696L5.8987 4.97459V3.51393C5.8987 3.19253 6.1616 2.92962 6.48301 2.92962C6.80442 2.92962 7.06732 3.19253 7.06732 3.51393V6.4355C7.06732 6.75666 6.80442 7.01981 6.48301 7.01981C6.24948 7.01981 6.04484 6.87367 5.9572 6.6984L4.99322 5.73418C4.75945 5.50064 4.75945 5.12073 4.99322 4.88696ZM5.8987 11.6356V11.0512C5.8987 10.7298 6.1616 10.4669 6.48301 10.4669C6.80442 10.4669 7.06732 10.7298 7.06732 11.0512V11.6356C7.06732 11.6356 7.06732 11.6356 7.06732 11.6647C6.86292 11.6941 6.68765 11.6941 6.48301 11.6941C6.27861 11.6941 6.10334 11.6941 5.8987 11.6356ZM6.48301 2.28705C6.1616 2.28705 5.8987 2.02414 5.8987 1.70273V1.20606C6.10334 1.17693 6.27861 1.17693 6.48301 1.17693C6.68765 1.17693 6.86292 1.17693 7.06732 1.20606V1.70273C7.06732 2.02414 6.80442 2.28705 6.48301 2.28705ZM1.80875 5.79268C2.13016 5.79268 2.39307 6.05558 2.39307 6.37699C2.39307 6.6984 2.13016 6.9613 1.80875 6.9613H1.25382C1.22444 6.78604 1.22444 6.61077 1.22444 6.4355C1.22444 6.23085 1.25382 5.99708 1.25382 5.79268H1.80875Z" fill="#737373"/>
</g>
</svg>
