<svg width="42" height="33" viewBox="0 0 42 33" fill="none" xmlns="http://www.w3.org/2000/svg">
<path d="M5.92442 17.8757C7.99711 17.677 9.60903 17.0618 10.5985 16.5794C11.2122 16.28 11.6639 15.9962 11.9348 15.8107C12.064 15.7221 12.2127 15.6787 12.3605 15.6787C12.5542 15.6787 12.7464 15.7531 12.892 15.8978C13.0811 16.0855 13.2683 16.2604 13.4489 16.4179C14.2521 17.1184 14.5998 17.1941 14.7121 17.1941C14.7137 17.1941 14.7155 17.1941 14.7173 17.1941C14.7868 17.1737 14.8583 17.1636 14.9296 17.1636C14.9459 17.1636 14.9621 17.1641 14.9781 17.1651C15.2635 16.169 14.5497 12.8395 12.9184 12.6375C12.9184 12.6375 11.0792 10.7825 8.69989 11.9585C5.78908 13.3968 5.43291 16.8072 5.70333 17.8328C5.77797 17.8361 5.85262 17.8498 5.92442 17.8757Z" fill="#737373"/>
<mask id="mask0_2443_239" style="mask-type:luminance" maskUnits="userSpaceOnUse" x="3" y="24" width="15" height="9">
<path d="M3.4209 24.4014H17.2399V33H3.4209V24.4014Z" fill="white"/>
</mask>
<g mask="url(#mask0_2443_239)">
<path d="M11.4345 27.6094C11.4345 27.946 11.1615 28.219 10.8247 28.219H9.83217C9.49537 28.219 9.22237 27.946 9.22237 27.6094V26.7509C9.22237 26.5055 9.42098 26.3069 9.66609 26.3069H10.9905C11.2357 26.3069 11.4345 26.5055 11.4345 26.7509V27.6094ZM11.3552 30.974L10.5993 31.9885C10.4593 32.1766 10.1976 32.1766 10.0576 31.9885L9.30166 30.974C9.24071 30.8924 9.21307 30.7868 9.22521 30.6824L9.39361 29.22C9.40988 29.0806 9.52791 28.9757 9.66816 28.9757H10.9885C11.129 28.9757 11.247 29.0806 11.263 29.22L11.4317 30.6824C11.4438 30.7868 11.4162 30.8924 11.3552 30.974ZM17.1934 32.2954C17.1634 31.4389 17.049 30.5874 16.8514 29.7534C16.6727 28.9979 16.518 28.283 15.8563 27.8186L12.5826 25.7464C12.2672 25.5254 12.0795 25.164 12.0795 24.7787V24.5279C11.582 24.8391 11.011 25.0067 10.4257 25.0067C9.76605 25.0067 9.12422 24.7939 8.58545 24.4021V24.7787C8.58545 25.164 8.39742 25.5254 8.08206 25.7464L4.80837 27.8186C4.14666 28.283 3.99195 28.9982 3.81322 29.7539C3.61589 30.5874 3.50122 31.4389 3.47126 32.2951V32.2954C3.45757 32.6859 3.7706 33.01 4.16164 33.01H16.5033C16.894 33.01 17.2071 32.6859 17.1934 32.2954Z" fill="#737373"/>
</g>
<path d="M14.9296 17.9177C14.8707 17.9355 14.8193 17.943 14.7821 17.9456C14.7591 17.9474 14.7356 17.9482 14.7119 17.9482C14.4303 17.9482 13.9417 17.8485 12.9532 16.9861C12.7254 16.7875 12.5188 16.5899 12.3607 16.4329C12.0575 16.6405 11.5756 16.9417 10.9291 17.257C9.87765 17.77 8.16189 18.4245 5.95929 18.6298C5.94095 18.6316 5.92235 18.6321 5.90401 18.6321C5.83867 18.6321 5.75602 18.6218 5.66975 18.5854C5.63334 18.839 5.64651 19.1345 5.71883 19.4379C5.90195 20.205 6.3919 20.7314 6.81367 20.6136C6.81729 20.6126 6.82091 20.6113 6.82452 20.61C7.21969 21.717 7.89742 22.7863 8.81896 23.6218C9.74696 24.4633 11.1063 24.4628 12.0335 23.62C12.9543 22.7829 13.6281 21.7116 14.0194 20.6028C14.0303 20.6067 14.0414 20.6105 14.0527 20.6136C14.4742 20.7314 14.9645 20.205 15.1476 19.4379C15.293 18.8284 15.2003 18.2509 14.9446 17.9802C14.9402 17.9593 14.935 17.9384 14.9296 17.9177Z" fill="#737373"/>
<path d="M1.5378 26.4901V10.5927C1.5378 10.2203 1.78316 9.90543 2.12099 9.80031C2.19873 9.77629 2.28164 9.76312 2.36765 9.76312H25.0376C24.848 9.23933 24.7703 8.78424 24.7659 8.39294H1.81519C0.812547 8.39294 0 9.20549 0 10.2084V26.8744C0 27.8773 0.812547 28.6896 1.81519 28.6896H2.81266C2.95472 28.2255 3.1616 27.7458 3.52991 27.3194H2.36765C1.9092 27.3194 1.5378 26.948 1.5378 26.4901ZM31.9029 16.1726V26.4901C31.9029 26.8052 31.7268 27.0792 31.4685 27.2195C31.351 27.2833 31.2164 27.3194 31.0731 27.3194H17.135C17.5031 27.7458 17.71 28.2255 17.8525 28.6896H31.6253C32.6282 28.6896 33.4407 27.8773 33.4407 26.8744V16.4531C32.9658 16.4464 32.4471 16.35 31.9029 16.1726Z" fill="#737373"/>
<path d="M21.4974 14.2172C21.4974 15.3316 20.5939 16.2351 19.4795 16.2351C18.365 16.2351 17.4615 15.3316 17.4615 14.2172C17.4615 13.1027 18.365 12.1992 19.4795 12.1992C20.5939 12.1992 21.4974 13.1027 21.4974 14.2172Z" fill="#737373"/>
<path d="M29.8483 15.1862C29.8013 15.1989 29.752 15.2056 29.7008 15.2056H23.3841C23.0698 15.2056 22.8154 14.9509 22.8154 14.6368V13.7564C22.8154 13.442 23.0698 13.1874 23.3841 13.1874H27.3632C27.5842 13.4116 27.8172 13.6314 28.0592 13.845C28.6445 14.3613 29.2478 14.812 29.8483 15.1862Z" fill="#737373"/>
<path d="M28.2516 18.4512V24.7679C28.2516 25.082 27.997 25.3367 27.6829 25.3367H26.8022C26.4881 25.3367 26.2337 25.082 26.2337 24.7679V18.4512C26.2337 18.1371 26.4881 17.8824 26.8022 17.8824H27.6829C27.997 17.8824 28.2516 18.1371 28.2516 18.4512Z" fill="#737373"/>
<path d="M24.9774 20.9221V24.7679C24.9774 25.082 24.7228 25.3366 24.409 25.3366H23.5282C23.2142 25.3366 22.9595 25.082 22.9595 24.7679V20.9221C22.9595 20.6081 23.2142 20.3534 23.5282 20.3534H24.409C24.7228 20.3534 24.9774 20.6081 24.9774 20.9221Z" fill="#737373"/>
<path d="M21.7035 22.8832V24.7423C21.7035 25.0706 21.4374 25.3366 21.1092 25.3366H20.2796C19.9515 25.3366 19.6855 25.0706 19.6855 24.7423V22.8832C19.6855 22.5552 19.9515 22.2892 20.2796 22.2892H21.1092C21.4374 22.2892 21.7035 22.5552 21.7035 22.8832Z" fill="#737373"/>
<path d="M30.8352 2.09976C30.8001 2.04526 30.4718 1.56615 29.7455 1.51088C28.801 1.43959 27.6715 2.12791 26.3874 3.55697L26.3866 3.55645L24.3348 4.83545C24.0556 5.00927 24.0231 5.40315 24.2697 5.62062L25.2388 6.47579C25.4868 6.69455 25.8757 6.61061 26.0116 6.3092L27.0057 4.10555C28.428 2.52385 29.2762 2.31516 29.6587 2.33402C29.994 2.35003 30.1394 2.5471 30.1456 2.55536C30.1417 2.5502 30.1402 2.5471 30.1402 2.5471L30.8352 2.09976Z" fill="#737373"/>
<path d="M37.0523 12.0024L32.6615 10.4254C32.2808 10.2887 31.9345 10.0837 31.6312 9.81635C31.3283 9.54903 31.0816 9.23083 30.8985 8.87028L28.7726 4.68408L26.3192 7.46524C26.3143 7.47066 26.3099 7.47686 26.3055 7.48228C26.2978 7.49055 26.29 7.4983 26.2828 7.50656C25.4268 8.47692 26.5881 10.8996 28.8764 12.9183C31.165 14.937 33.7137 15.787 34.5694 14.8169C34.5772 14.8084 34.5839 14.7996 34.5911 14.7908C34.5963 14.7857 34.6014 14.7807 34.6061 14.7756L37.0523 12.0024Z" fill="#737373"/>
<path d="M36.6406 3.07754L28.3854 0.0200275C28.124 -0.0770856 27.8797 0.197466 28.0058 0.445672L32.0003 8.3108C32.225 8.75401 32.6111 9.09442 33.0791 9.26256L41.381 12.2444C41.6434 12.3384 41.8849 12.0618 41.7563 11.8146L37.6923 4.00554C37.4691 3.57628 37.0941 3.24568 36.6406 3.07754Z" fill="#737373"/>
</svg>
