<svg width="129" height="33" viewBox="0 0 129 33" fill="none" xmlns="http://www.w3.org/2000/svg">
<path d="M5.92442 17.8757C7.99711 17.677 9.60903 17.0618 10.5985 16.5794C11.2122 16.28 11.6639 15.9962 11.9348 15.8107C12.064 15.7221 12.2127 15.6787 12.3605 15.6787C12.5542 15.6787 12.7464 15.7531 12.892 15.8978C13.0811 16.0855 13.2683 16.2604 13.4489 16.4179C14.2521 17.1184 14.5998 17.1941 14.7121 17.1941C14.7137 17.1941 14.7155 17.1941 14.7173 17.1941C14.7868 17.1737 14.8583 17.1636 14.9296 17.1636C14.9459 17.1636 14.9621 17.1641 14.9781 17.1651C15.2635 16.169 14.5497 12.8395 12.9184 12.6375C12.9184 12.6375 11.0792 10.7825 8.69989 11.9585C5.78908 13.3968 5.43291 16.8072 5.70333 17.8328C5.77797 17.8361 5.85262 17.8498 5.92442 17.8757Z" fill="#737373"/>
<mask id="mask0_484_1946" style="mask-type:luminance" maskUnits="userSpaceOnUse" x="3" y="24" width="15" height="9">
<path d="M3.4209 24.4014H17.2399V33H3.4209V24.4014Z" fill="white"/>
</mask>
<g mask="url(#mask0_484_1946)">
<path d="M11.4345 27.6094C11.4345 27.946 11.1615 28.219 10.8247 28.219H9.83217C9.49537 28.219 9.22237 27.946 9.22237 27.6094V26.7509C9.22237 26.5055 9.42098 26.3069 9.66609 26.3069H10.9905C11.2357 26.3069 11.4345 26.5055 11.4345 26.7509V27.6094ZM11.3552 30.974L10.5993 31.9885C10.4593 32.1766 10.1976 32.1766 10.0576 31.9885L9.30166 30.974C9.24071 30.8924 9.21307 30.7868 9.22521 30.6824L9.39361 29.22C9.40988 29.0806 9.52791 28.9757 9.66816 28.9757H10.9885C11.129 28.9757 11.247 29.0806 11.263 29.22L11.4317 30.6824C11.4438 30.7868 11.4162 30.8924 11.3552 30.974ZM17.1934 32.2954C17.1634 31.4389 17.049 30.5874 16.8514 29.7534C16.6727 28.9979 16.518 28.283 15.8563 27.8186L12.5826 25.7464C12.2672 25.5254 12.0795 25.164 12.0795 24.7787V24.5279C11.582 24.8391 11.011 25.0067 10.4257 25.0067C9.76605 25.0067 9.12422 24.7939 8.58545 24.4021V24.7787C8.58545 25.164 8.39742 25.5254 8.08206 25.7464L4.80837 27.8186C4.14666 28.283 3.99195 28.9982 3.81322 29.7539C3.61589 30.5874 3.50122 31.4389 3.47126 32.2951V32.2954C3.45757 32.6859 3.7706 33.01 4.16164 33.01H16.5033C16.894 33.01 17.2071 32.6859 17.1934 32.2954Z" fill="#737373"/>
</g>
<path d="M14.9296 17.9177C14.8707 17.9355 14.8193 17.943 14.7821 17.9456C14.7591 17.9474 14.7356 17.9482 14.7119 17.9482C14.4303 17.9482 13.9417 17.8485 12.9532 16.9861C12.7254 16.7875 12.5188 16.5899 12.3607 16.4329C12.0575 16.6405 11.5756 16.9417 10.9291 17.257C9.87765 17.77 8.16189 18.4245 5.95929 18.6298C5.94095 18.6316 5.92235 18.6321 5.90401 18.6321C5.83867 18.6321 5.75602 18.6218 5.66975 18.5854C5.63334 18.839 5.64651 19.1345 5.71883 19.4379C5.90195 20.205 6.3919 20.7314 6.81367 20.6136C6.81729 20.6126 6.82091 20.6113 6.82452 20.61C7.21969 21.717 7.89742 22.7863 8.81896 23.6218C9.74696 24.4633 11.1063 24.4628 12.0335 23.62C12.9543 22.7829 13.6281 21.7116 14.0194 20.6028C14.0303 20.6067 14.0414 20.6105 14.0527 20.6136C14.4742 20.7314 14.9645 20.205 15.1476 19.4379C15.293 18.8284 15.2003 18.2509 14.9446 17.9802C14.9402 17.9593 14.935 17.9384 14.9296 17.9177Z" fill="#737373"/>
<path d="M1.5378 26.4901V10.5927C1.5378 10.2203 1.78316 9.90543 2.12099 9.80031C2.19873 9.77629 2.28164 9.76312 2.36765 9.76312H25.0376C24.848 9.23933 24.7703 8.78424 24.7659 8.39294H1.81519C0.812547 8.39294 0 9.20549 0 10.2084V26.8744C0 27.8773 0.812547 28.6896 1.81519 28.6896H2.81266C2.95472 28.2255 3.1616 27.7458 3.52991 27.3194H2.36765C1.9092 27.3194 1.5378 26.948 1.5378 26.4901ZM31.9029 16.1726V26.4901C31.9029 26.8052 31.7268 27.0792 31.4685 27.2195C31.351 27.2833 31.2164 27.3194 31.0731 27.3194H17.135C17.5031 27.7458 17.71 28.2255 17.8525 28.6896H31.6253C32.6282 28.6896 33.4407 27.8773 33.4407 26.8744V16.4531C32.9658 16.4464 32.4471 16.35 31.9029 16.1726Z" fill="#737373"/>
<path d="M21.4974 14.2172C21.4974 15.3316 20.5939 16.2351 19.4795 16.2351C18.365 16.2351 17.4615 15.3316 17.4615 14.2172C17.4615 13.1027 18.365 12.1992 19.4795 12.1992C20.5939 12.1992 21.4974 13.1027 21.4974 14.2172Z" fill="#737373"/>
<path d="M29.8483 15.1862C29.8013 15.1989 29.752 15.2056 29.7008 15.2056H23.3841C23.0698 15.2056 22.8154 14.9509 22.8154 14.6368V13.7564C22.8154 13.442 23.0698 13.1874 23.3841 13.1874H27.3632C27.5842 13.4116 27.8172 13.6314 28.0592 13.845C28.6445 14.3613 29.2478 14.812 29.8483 15.1862Z" fill="#737373"/>
<path d="M28.2516 18.4512V24.7679C28.2516 25.082 27.997 25.3367 27.6829 25.3367H26.8022C26.4881 25.3367 26.2337 25.082 26.2337 24.7679V18.4512C26.2337 18.1371 26.4881 17.8824 26.8022 17.8824H27.6829C27.997 17.8824 28.2516 18.1371 28.2516 18.4512Z" fill="#737373"/>
<path d="M24.9774 20.9221V24.7679C24.9774 25.082 24.7228 25.3366 24.409 25.3366H23.5282C23.2142 25.3366 22.9595 25.082 22.9595 24.7679V20.9221C22.9595 20.6081 23.2142 20.3534 23.5282 20.3534H24.409C24.7228 20.3534 24.9774 20.6081 24.9774 20.9221Z" fill="#737373"/>
<path d="M21.7035 22.8832V24.7423C21.7035 25.0706 21.4374 25.3366 21.1092 25.3366H20.2796C19.9515 25.3366 19.6855 25.0706 19.6855 24.7423V22.8832C19.6855 22.5552 19.9515 22.2892 20.2796 22.2892H21.1092C21.4374 22.2892 21.7035 22.5552 21.7035 22.8832Z" fill="#737373"/>
<path d="M30.8352 2.09976C30.8001 2.04526 30.4718 1.56615 29.7455 1.51088C28.801 1.43959 27.6715 2.12791 26.3874 3.55697L26.3866 3.55645L24.3348 4.83545C24.0556 5.00927 24.0231 5.40315 24.2697 5.62062L25.2388 6.47579C25.4868 6.69455 25.8757 6.61061 26.0116 6.3092L27.0057 4.10555C28.428 2.52385 29.2762 2.31516 29.6587 2.33402C29.994 2.35003 30.1394 2.5471 30.1456 2.55536C30.1417 2.5502 30.1402 2.5471 30.1402 2.5471L30.8352 2.09976Z" fill="#737373"/>
<path d="M37.0523 12.0024L32.6615 10.4254C32.2808 10.2887 31.9345 10.0837 31.6312 9.81635C31.3283 9.54903 31.0816 9.23083 30.8985 8.87028L28.7726 4.68408L26.3192 7.46524C26.3143 7.47066 26.3099 7.47686 26.3055 7.48228C26.2978 7.49055 26.29 7.4983 26.2828 7.50656C25.4268 8.47692 26.5881 10.8996 28.8764 12.9183C31.165 14.937 33.7137 15.787 34.5694 14.8169C34.5772 14.8084 34.5839 14.7996 34.5911 14.7908C34.5963 14.7857 34.6014 14.7807 34.6061 14.7756L37.0523 12.0024Z" fill="#737373"/>
<path d="M36.6406 3.07754L28.3854 0.0200275C28.124 -0.0770856 27.8797 0.197466 28.0058 0.445672L32.0003 8.3108C32.225 8.75401 32.6111 9.09442 33.0791 9.26256L41.381 12.2444C41.6434 12.3384 41.8849 12.0618 41.7563 11.8146L37.6923 4.00554C37.4691 3.57628 37.0941 3.24568 36.6406 3.07754Z" fill="#737373"/>
<path d="M51.598 24V9.45455H56.7827C57.9143 9.45455 58.8518 9.66051 59.5952 10.0724C60.3385 10.4844 60.8949 11.0478 61.2642 11.7628C61.6335 12.473 61.8182 13.2732 61.8182 14.1634C61.8182 15.0582 61.6312 15.8632 61.2571 16.5781C60.8878 17.2884 60.3291 17.8518 59.581 18.2685C58.8376 18.6804 57.9025 18.8864 56.7756 18.8864H53.2102V17.0256H56.5767C57.2917 17.0256 57.8717 16.9025 58.3168 16.6562C58.7618 16.4053 59.0885 16.0644 59.2969 15.6335C59.5052 15.2027 59.6094 14.7126 59.6094 14.1634C59.6094 13.6141 59.5052 13.1264 59.2969 12.7003C59.0885 12.2741 58.7595 11.9403 58.3097 11.6989C57.8646 11.4574 57.2775 11.3366 56.5483 11.3366H53.7926V24H51.598ZM64.2205 24V13.0909H66.2731V14.8239H66.3867C66.5856 14.2367 66.936 13.7751 67.4379 13.4389C67.9445 13.098 68.5174 12.9276 69.1566 12.9276C69.2892 12.9276 69.4454 12.9323 69.6254 12.9418C69.81 12.9512 69.9544 12.9631 70.0586 12.9773V15.0085C69.9734 14.9848 69.8219 14.9588 69.604 14.9304C69.3862 14.8973 69.1684 14.8807 68.9506 14.8807C68.4487 14.8807 68.0013 14.9872 67.6083 15.2003C67.2201 15.4086 66.9123 15.6998 66.685 16.0739C66.4577 16.4432 66.3441 16.8646 66.3441 17.3381V24H64.2205ZM76.1009 24.2202C75.0781 24.2202 74.1856 23.9858 73.4233 23.517C72.661 23.0483 72.0691 22.3925 71.6477 21.5497C71.2263 20.7069 71.0156 19.7221 71.0156 18.5952C71.0156 17.4635 71.2263 16.474 71.6477 15.6264C72.0691 14.7789 72.661 14.1207 73.4233 13.652C74.1856 13.1832 75.0781 12.9489 76.1009 12.9489C77.1236 12.9489 78.0161 13.1832 78.7784 13.652C79.5407 14.1207 80.1326 14.7789 80.554 15.6264C80.9754 16.474 81.1861 17.4635 81.1861 18.5952C81.1861 19.7221 80.9754 20.7069 80.554 21.5497C80.1326 22.3925 79.5407 23.0483 78.7784 23.517C78.0161 23.9858 77.1236 24.2202 76.1009 24.2202ZM76.108 22.4375C76.7708 22.4375 77.3201 22.2623 77.7557 21.9119C78.1913 21.5616 78.5133 21.0952 78.7216 20.5128C78.9347 19.9304 79.0412 19.2888 79.0412 18.5881C79.0412 17.892 78.9347 17.2528 78.7216 16.6705C78.5133 16.0833 78.1913 15.6122 77.7557 15.2571C77.3201 14.902 76.7708 14.7244 76.108 14.7244C75.4403 14.7244 74.8864 14.902 74.446 15.2571C74.0104 15.6122 73.6861 16.0833 73.473 16.6705C73.2647 17.2528 73.1605 17.892 73.1605 18.5881C73.1605 19.2888 73.2647 19.9304 73.473 20.5128C73.6861 21.0952 74.0104 21.5616 74.446 21.9119C74.8864 22.2623 75.4403 22.4375 76.108 22.4375ZM83.5565 13.0909H85.68V24.7102C85.68 25.4394 85.5475 26.0549 85.2823 26.5568C85.0219 27.0587 84.6336 27.4399 84.1175 27.7003C83.6062 27.9607 82.9741 28.0909 82.2212 28.0909C82.1455 28.0909 82.0745 28.0909 82.0082 28.0909C81.9371 28.0909 81.8638 28.0885 81.788 28.0838V26.2585C81.8543 26.2585 81.9135 26.2585 81.9656 26.2585C82.0129 26.2585 82.0674 26.2585 82.1289 26.2585C82.6308 26.2585 82.993 26.1236 83.2156 25.8537C83.4428 25.5885 83.5565 25.2027 83.5565 24.696V13.0909ZM84.6076 11.4077C84.2383 11.4077 83.921 11.2846 83.6559 11.0384C83.3955 10.7874 83.2653 10.4891 83.2653 10.1435C83.2653 9.79309 83.3955 9.49479 83.6559 9.24858C83.921 8.99763 84.2383 8.87216 84.6076 8.87216C84.9769 8.87216 85.2918 8.99763 85.5522 9.24858C85.8174 9.49479 85.9499 9.79309 85.9499 10.1435C85.9499 10.4891 85.8174 10.7874 85.5522 11.0384C85.2918 11.2846 84.9769 11.4077 84.6076 11.4077ZM93.2386 24.2202C92.1638 24.2202 91.2382 23.9905 90.4616 23.5312C89.6899 23.0672 89.0933 22.4162 88.6719 21.5781C88.2552 20.7353 88.0469 19.7481 88.0469 18.6165C88.0469 17.4991 88.2552 16.5142 88.6719 15.6619C89.0933 14.8097 89.6804 14.1444 90.4332 13.6662C91.1908 13.188 92.0762 12.9489 93.0895 12.9489C93.705 12.9489 94.3016 13.0507 94.8793 13.2543C95.4569 13.4579 95.9754 13.7775 96.4347 14.2131C96.8939 14.6487 97.2562 15.2145 97.5213 15.9105C97.7865 16.6018 97.919 17.4422 97.919 18.4318V19.1847H89.2472V17.5938H95.8381C95.8381 17.035 95.7244 16.5402 95.4972 16.1094C95.2699 15.6738 94.9503 15.3305 94.5384 15.0795C94.1312 14.8286 93.6529 14.7031 93.1037 14.7031C92.5071 14.7031 91.9863 14.8499 91.5412 15.1435C91.1009 15.4323 90.7599 15.8111 90.5185 16.2798C90.2817 16.7438 90.1634 17.2481 90.1634 17.7926V19.0355C90.1634 19.7647 90.2912 20.3849 90.5469 20.8963C90.8073 21.4077 91.1695 21.7983 91.6335 22.0682C92.0975 22.3333 92.6397 22.4659 93.2599 22.4659C93.6624 22.4659 94.0294 22.4091 94.3608 22.2955C94.6922 22.1771 94.9787 22.0019 95.2202 21.7699C95.4616 21.5379 95.6463 21.2514 95.7741 20.9105L97.7841 21.2727C97.6231 21.8646 97.3343 22.383 96.9176 22.8281C96.5057 23.2685 95.9872 23.6117 95.3622 23.858C94.742 24.0994 94.0341 24.2202 93.2386 24.2202ZM104.87 24.2202C103.815 24.2202 102.905 23.9811 102.143 23.5028C101.386 23.0199 100.803 22.3546 100.396 21.5071C99.9888 20.6596 99.7852 19.6889 99.7852 18.5952C99.7852 17.4872 99.9935 16.5095 100.41 15.6619C100.827 14.8097 101.414 14.1444 102.172 13.6662C102.929 13.188 103.822 12.9489 104.849 12.9489C105.678 12.9489 106.416 13.1027 107.065 13.4105C107.714 13.7135 108.237 14.1397 108.635 14.6889C109.037 15.2382 109.276 15.8797 109.352 16.6136H107.285C107.172 16.1023 106.911 15.6619 106.504 15.2926C106.101 14.9233 105.562 14.7386 104.885 14.7386C104.293 14.7386 103.774 14.8949 103.329 15.2074C102.889 15.5152 102.546 15.9555 102.299 16.5284C102.053 17.0966 101.93 17.7689 101.93 18.5455C101.93 19.3409 102.051 20.0275 102.292 20.6051C102.534 21.1828 102.875 21.6302 103.315 21.9474C103.76 22.2647 104.283 22.4233 104.885 22.4233C105.287 22.4233 105.652 22.3499 105.978 22.2031C106.31 22.0516 106.587 21.8362 106.809 21.5568C107.037 21.2775 107.195 20.9413 107.285 20.5483H109.352C109.276 21.2538 109.047 21.8835 108.663 22.4375C108.279 22.9915 107.766 23.4271 107.122 23.7443C106.483 24.0616 105.732 24.2202 104.87 24.2202ZM116.715 13.0909V14.7955H110.756V13.0909H116.715ZM112.354 10.4773H114.478V20.7969C114.478 21.2088 114.54 21.5189 114.663 21.7273C114.786 21.9309 114.944 22.0705 115.138 22.1463C115.337 22.2173 115.553 22.2528 115.785 22.2528C115.955 22.2528 116.104 22.241 116.232 22.2173C116.36 22.1937 116.46 22.1747 116.531 22.1605L116.914 23.9148C116.791 23.9621 116.616 24.0095 116.388 24.0568C116.161 24.1089 115.877 24.1373 115.536 24.142C114.978 24.1515 114.457 24.0521 113.974 23.8438C113.491 23.6354 113.1 23.3134 112.802 22.8778C112.504 22.4422 112.354 21.8954 112.354 21.2372V10.4773ZM127.063 15.7543L125.138 16.0952C125.058 15.849 124.93 15.6146 124.755 15.392C124.585 15.1695 124.353 14.9872 124.059 14.8452C123.765 14.7031 123.398 14.6321 122.958 14.6321C122.357 14.6321 121.855 14.767 121.452 15.0369C121.05 15.3021 120.849 15.6454 120.849 16.0668C120.849 16.4313 120.984 16.7249 121.254 16.9474C121.523 17.17 121.959 17.3523 122.56 17.4943L124.293 17.892C125.297 18.1241 126.045 18.4815 126.538 18.9645C127.03 19.4474 127.276 20.0748 127.276 20.8466C127.276 21.5 127.087 22.0824 126.708 22.5938C126.334 23.1004 125.811 23.4981 125.138 23.7869C124.471 24.0758 123.697 24.2202 122.816 24.2202C121.594 24.2202 120.598 23.9598 119.826 23.4389C119.054 22.9134 118.581 22.1676 118.406 21.2017L120.458 20.8892C120.586 21.4242 120.849 21.8291 121.246 22.1037C121.644 22.3736 122.163 22.5085 122.802 22.5085C123.498 22.5085 124.054 22.3641 124.471 22.0753C124.888 21.7817 125.096 21.4242 125.096 21.0028C125.096 20.6619 124.968 20.3755 124.712 20.1435C124.461 19.9115 124.076 19.7363 123.555 19.6179L121.708 19.2131C120.69 18.9811 119.937 18.6117 119.45 18.1051C118.967 17.5985 118.725 16.9569 118.725 16.1804C118.725 15.5365 118.905 14.973 119.265 14.4901C119.625 14.0071 120.122 13.6307 120.756 13.3608C121.391 13.0862 122.118 12.9489 122.937 12.9489C124.116 12.9489 125.044 13.2045 125.721 13.7159C126.398 14.2225 126.845 14.902 127.063 15.7543Z" fill="#737373"/>
</svg>
