<?xml version="1.0" standalone="no"?>
<!DOCTYPE svg PUBLIC "-//W3C//DTD SVG 20010904//EN"
 "http://www.w3.org/TR/2001/REC-SVG-20010904/DTD/svg10.dtd">
<svg version="1.0" xmlns="http://www.w3.org/2000/svg"
 width="1920.000000pt" height="1080.000000pt" viewBox="0 0 1920.000000 1080.000000"
 preserveAspectRatio="xMidYMid meet">

<g transform="translate(0.000000,1080.000000) scale(0.100000,-0.100000)"
fill="#000000" stroke="none">
<path d="M0 5400 l0 -5400 3090 0 3090 0 0 33 c0 46 31 77 78 77 20 0 42 -4
49 -8 17 -11 34 -62 28 -83 -6 -18 4 -19 234 -19 l240 0 4 42 4 43 1 -42 2
-43 194 0 194 0 7 40 c9 51 61 100 108 100 54 -1 97 -49 97 -109 l0 -31 229 0
229 0 7 128 c3 70 10 190 16 267 5 77 9 178 9 224 0 46 3 81 7 78 6 -7 -14
-635 -23 -674 l-4 -23 349 0 349 0 7 247 c4 137 11 318 15 403 7 131 8 117 4
-90 -2 -135 -7 -316 -10 -403 l-6 -157 225 0 226 0 4 83 3 82 2 -82 2 -83 250
0 251 0 -3 87 -3 87 -30 8 c-53 13 -88 60 -93 123 -5 65 9 106 50 140 85 72
213 15 225 -99 8 -68 -23 -126 -83 -157 l-49 -25 -3 -82 -3 -82 251 0 250 0 0
80 c0 47 4 80 10 80 6 0 10 -33 10 -80 l0 -80 245 0 244 0 25 25 c34 34 84 34
124 0 l30 -25 265 0 266 0 25 25 c34 34 84 34 124 0 l30 -25 266 0 c252 0 267
1 286 20 38 38 105 38 138 0 15 -19 30 -20 225 -20 l210 0 -7 31 c-3 17 -6 51
-6 74 0 42 -2 45 -213 254 -243 241 -249 246 -276 231 -34 -18 -69 -11 -105
21 -43 37 -55 83 -32 127 32 62 105 72 155 21 35 -34 42 -66 27 -123 -5 -21
22 -52 224 -254 l230 -230 0 -45 c0 -24 3 -59 6 -76 l6 -31 3299 0 3299 0 0
5400 0 5400 -2529 0 c-2014 0 -2530 -3 -2534 -12 -4 -10 -7 -10 -18 0 -19 17
-10659 18 -10641 0 15 -15 15 -61 0 -76 -36 -36 -116 14 -103 65 l5 23 -1690
0 -1690 0 0 -5400z m3964 5345 c-16 -13 -17 -16 -4 -25 12 -8 12 -10 1 -10
-15 0 -40 28 -41 47 0 14 41 22 54 11 6 -5 2 -14 -10 -23z m2495 32 c-2 -1
-13 -9 -24 -17 -19 -14 -19 -14 -6 3 7 9 18 17 24 17 6 0 8 -1 6 -3z m-329
-38 c0 -5 -7 -9 -15 -9 -15 0 -20 12 -9 23 8 8 24 -1 24 -14z m-90 -59 c0 -5
-7 -10 -15 -10 -8 0 -15 5 -15 10 0 6 7 10 15 10 8 0 15 -4 15 -10z m787 -32
c-3 -7 -5 -2 -5 12 0 14 2 19 5 13 2 -7 2 -19 0 -25z m-882 -28 c3 -5 -1 -10
-10 -10 -9 0 -13 5 -10 10 3 6 8 10 10 10 2 0 7 -4 10 -10z m-45 -30 c0 -5 -4
-10 -10 -10 -5 0 -10 5 -10 10 0 6 5 10 10 10 6 0 10 -4 10 -10z m917 -22 c-3
-8 -6 -5 -6 6 -1 11 2 17 5 13 3 -3 4 -12 1 -19z m2268 -10 l200 -2 -200 -6
c-227 -6 -581 0 -520 9 22 3 103 5 180 4 77 -1 230 -4 340 -5z m305 2 c0 -5
-12 -10 -27 -9 l-28 1 25 8 c14 4 26 8 28 9 1 1 2 -3 2 -9z m-2323 -62 c-2
-13 -4 -3 -4 22 0 25 2 35 4 23 2 -13 2 -33 0 -45z m4396 55 c-13 -2 -35 -2
-50 0 -16 2 -5 4 22 4 28 0 40 -2 28 -4z m-4896 -65 c-3 -8 -6 -5 -6 6 -1 11
2 17 5 13 3 -3 4 -12 1 -19z m240 -20 c-3 -8 -6 -5 -6 6 -1 11 2 17 5 13 3 -3
4 -12 1 -19z m-1166 -37 c22 -18 22 -19 6 -45 -31 -47 -98 -12 -75 40 13 29
38 31 69 5z m1156 -58 c-3 -10 -5 -4 -5 12 0 17 2 24 5 18 2 -7 2 -21 0 -30z
m5203 -63 c29 -25 39 -39 29 -40 -9 0 -19 -7 -23 -15 -3 -8 -2 -14 2 -14 19 3
22 -2 8 -17 -20 -19 -65 -15 -80 8 -8 13 -5 24 13 48 22 30 22 32 5 51 -30 34
-1 20 46 -21z m-490 -36 c6 -14 9 -42 9 -62 -1 -20 -3 -29 -6 -19 -5 19 -18
22 -28 7 -11 -17 -54 -11 -67 10 -18 28 -31 25 -26 -5 3 -13 1 -22 -3 -19 -22
13 -7 60 36 116 19 24 22 25 48 11 15 -7 32 -25 37 -39z m-543 31 c12 -8 24
-29 28 -45 5 -24 2 -34 -17 -50 -30 -25 -56 -25 -83 0 -28 26 -22 63 13 90 30
24 32 24 59 5z m-3482 -35 c16 -18 17 -23 5 -46 -19 -34 -61 -30 -74 8 -18 50
33 78 69 38z m767 -3 c20 -32 0 -67 -39 -67 -29 0 -45 35 -30 68 9 19 16 22
36 17 14 -4 29 -12 33 -18z m614 -285 l-7 -309 48 -39 c26 -21 73 -60 103 -85
81 -69 214 -181 241 -203 13 -10 56 -46 94 -79 39 -33 74 -64 79 -69 6 -5 6
-8 -1 -8 -6 0 -37 24 -70 53 -87 76 -114 99 -155 129 -20 15 -42 33 -50 40 -7
7 -53 47 -103 88 -49 41 -95 79 -101 85 -6 5 -30 25 -53 44 l-41 35 0 86 c0
153 13 540 18 540 3 0 2 -139 -2 -308z m-1822 203 c-4 -8 -8 -15 -10 -15 -2 0
-4 7 -4 15 0 8 4 15 10 15 5 0 7 -7 4 -15z m-24 -19 c0 -2 -7 -7 -16 -10 -8
-3 -12 -2 -9 4 6 10 25 14 25 6z m4477 -2 c-3 -3 -12 -4 -19 -1 -8 3 -5 6 6 6
11 1 17 -2 13 -5z m-2910 -66 c-2 -13 -4 -3 -4 22 0 25 2 35 4 23 2 -13 2 -33
0 -45z m-47 -41 c0 -2 -10 -12 -22 -23 l-23 -19 19 23 c18 21 26 27 26 19z
m-1780 -78 c-7 -11 -14 -19 -16 -16 -7 7 7 37 17 37 6 0 5 -9 -1 -21z m1669
-12 c-2 -1 -13 -9 -24 -17 -19 -14 -19 -14 -6 3 7 9 18 17 24 17 6 0 8 -1 6
-3z m-50 -40 c-2 -1 -13 -9 -24 -17 -19 -14 -19 -14 -6 3 7 9 18 17 24 17 6 0
8 -1 6 -3z m2626 -42 c34 -33 32 -66 -4 -88 -38 -22 -56 -21 -80 4 -11 12 -25
18 -31 14 -6 -4 -2 11 9 33 33 66 67 77 106 37z m-2675 7 c0 -4 -13 -16 -29
-25 -26 -15 -30 -23 -28 -57 2 -48 -21 -69 -73 -69 -66 0 -85 35 -54 98 21 42
40 49 77 27 29 -16 31 -16 66 8 42 29 41 28 41 18z m3186 -16 c8 -8 14 -19 14
-25 0 -6 5 -11 10 -11 6 0 9 -15 9 -32 l-1 -33 -8 30 c-4 17 -8 24 -9 17 -2
-21 -49 -34 -71 -19 -11 6 -20 17 -20 24 0 7 -4 13 -10 13 -5 0 -10 -5 -10
-12 0 -6 -3 -8 -7 -4 -8 8 57 65 75 66 7 0 20 -6 28 -14z m-4050 -19 c20 -22
20 -22 -3 -45 -50 -49 -118 -2 -74 52 19 23 54 20 77 -7z m1917 -84 c-6 -117
-11 -127 -12 -26 -1 69 -3 81 -16 77 -9 -4 -15 0 -15 9 0 13 11 20 41 26 4 0
5 -38 2 -86z m734 41 c-3 -3 -12 -4 -19 -1 -8 3 -5 6 6 6 11 1 17 -2 13 -5z
m1820 -16 c-3 -8 -6 -5 -6 6 -1 11 2 17 5 13 3 -3 4 -12 1 -19z m-517 -3 c0
-8 -2 -15 -4 -15 -2 0 -6 7 -10 15 -3 8 -1 15 4 15 6 0 10 -7 10 -15z m-415
-35 c-3 -5 -14 -10 -23 -9 -14 0 -13 2 3 9 27 11 27 11 20 0z m475 -4 c8 0 26
3 40 7 16 4 14 2 -7 -8 -29 -13 -37 -13 -65 0 -22 10 -24 12 -8 8 14 -4 32 -7
40 -7z m-523 -2 c-3 -3 -12 -4 -19 -1 -8 3 -5 6 6 6 11 1 17 -2 13 -5z m-7199
-20 c30 -21 31 -79 1 -94 -27 -15 -77 -3 -89 20 -14 25 -13 63 2 78 17 17 59
15 86 -4z m7108 -39 c14 -13 12 -15 -14 -15 -36 0 -62 9 -62 21 0 15 60 10 76
-6z m-1466 -70 l25 -30 -27 24 c-16 14 -28 29 -28 34 0 6 1 8 3 6 1 -2 13 -17
27 -34z m3568 -20 c7 -5 18 -15 25 -20 13 -11 357 -265 407 -300 15 -11 76
-55 135 -99 58 -43 118 -84 133 -92 15 -7 50 -34 77 -60 64 -59 44 -48 -91 51
-224 164 -281 206 -364 267 -47 35 -89 66 -95 70 -5 4 -32 25 -60 46 -27 20
-77 55 -110 77 -33 22 -65 45 -71 50 -6 6 -21 17 -33 25 -31 22 -26 33 7 13
15 -10 33 -22 40 -28z m772 -10 c12 -23 12 -28 -7 -47 -15 -15 -28 -19 -46
-14 -32 8 -41 33 -22 62 21 32 58 31 75 -1z m-13322 -81 c26 -30 28 -47 6 -68
-43 -44 -137 8 -119 65 14 44 74 45 113 3z m525 8 c12 -10 17 -27 15 -46 -6
-64 -100 -57 -123 8 -8 24 -6 31 15 48 26 21 62 18 93 -10z m8582 -2 c3 -6 -1
-7 -9 -4 -18 7 -21 14 -7 14 6 0 13 -4 16 -10z m-3063 -34 c20 -45 -8 -74 -57
-62 -19 5 -25 13 -25 34 0 34 16 52 47 52 15 0 27 -9 35 -24z m860 -21 c16
-14 26 -25 23 -25 -4 0 -20 11 -37 25 -16 14 -26 25 -23 25 4 0 20 -11 37 -25z
m4968 21 c0 -2 -8 -10 -17 -17 -16 -13 -17 -12 -4 4 13 16 21 21 21 13z
m-4589 -20 c-13 -7 -19 -16 -14 -19 6 -4 201 -5 434 -4 269 1 430 -2 440 -8 9
-5 38 -29 65 -52 27 -23 123 -103 214 -178 l165 -137 0 -44 c0 -49 13 -64 56
-64 44 0 63 22 56 65 -6 35 -5 37 10 23 16 -16 13 -47 -6 -77 -5 -7 -28 -15
-52 -18 -35 -4 -48 -1 -66 17 -24 21 -31 64 -13 75 6 3 -5 18 -22 33 -18 15
-44 37 -58 48 -14 12 -97 81 -185 154 -88 73 -161 137 -163 142 -6 14 -946 10
-978 -4 -22 -10 -28 -10 -32 0 -2 8 -34 12 -100 14 l-97 1 125 8 c69 4 143 14
165 22 22 9 49 16 60 16 18 0 18 -1 -4 -13z m1903 -12 c3 -8 2 -12 -4 -9 -6 3
-10 10 -10 16 0 14 7 11 14 -7z m2588 -59 c-28 -24 -31 -24 -246 -26 -119 0
-220 2 -223 5 -4 3 93 6 214 6 205 0 222 1 244 20 13 10 28 19 32 20 5 0 -5
-11 -21 -25z m-4936 -135 c30 -7 200 -10 465 -9 l418 1 92 -79 c125 -106 231
-193 236 -193 2 0 11 7 19 15 44 43 124 -14 124 -89 0 -37 -46 -69 -89 -62
-52 8 -74 34 -68 78 5 34 1 39 -46 80 -28 23 -69 59 -91 79 -23 19 -74 63
-115 97 l-75 62 -463 0 c-285 0 -463 4 -463 9 0 6 -15 24 -32 42 l-33 32 36
-26 c21 -15 58 -31 85 -37z m4690 15 c17 -13 16 -14 -13 -4 -34 11 -42 19 -20
19 7 0 22 -7 33 -15z m134 -75 c0 -5 -2 -10 -4 -10 -3 0 -8 5 -11 10 -3 6 -1
10 4 10 6 0 11 -4 11 -10z m965 -77 c5 -27 2 -37 -20 -59 -35 -35 -86 -29
-123 16 l-25 30 -481 2 c-265 1 -421 4 -348 5 83 2 131 7 127 13 -3 6 1 10 9
10 9 0 16 -4 16 -10 0 -6 122 -10 345 -10 327 0 345 1 354 19 6 10 30 28 53
40 l43 21 21 -23 c12 -12 25 -36 29 -54z m-3518 -5 c19 -9 27 -8 43 7 17 15
24 16 43 6 40 -21 85 -101 56 -101 -5 0 -8 4 -4 9 7 13 -16 26 -24 14 -12 -19
-57 -23 -79 -7 -12 8 -23 13 -23 10 -1 -3 -2 -10 -3 -15 0 -5 -5 -13 -10 -18
-5 -5 -6 10 -2 34 6 41 5 43 -39 75 -24 18 -44 37 -45 42 0 5 15 -3 33 -18 17
-15 42 -32 54 -38z m-2448 48 c-2 -2 -15 -9 -29 -15 -24 -11 -24 -11 -6 3 16
13 49 24 35 12z m6758 -62 c-3 -3 -12 -4 -19 -1 -8 3 -5 6 6 6 11 1 17 -2 13
-5z m-3658 -36 l20 -31 -24 -19 c-29 -23 -50 -23 -73 0 -10 10 -24 16 -30 14
-21 -7 -13 8 20 39 42 37 64 37 87 -3z m-3756 -9 c43 -58 -21 -119 -86 -81
-25 15 -28 21 -23 50 3 19 10 40 17 48 19 23 69 13 92 -17z m5867 21 c0 -5 -4
-10 -10 -10 -5 0 -10 5 -10 10 0 6 5 10 10 10 6 0 10 -4 10 -10z m-3256 -44
c-3 -15 -8 -25 -11 -23 -2 3 -1 17 3 31 3 15 8 25 11 23 2 -3 1 -17 -3 -31z
m31 14 c3 -5 1 -10 -4 -10 -6 0 -11 5 -11 10 0 6 2 10 4 10 3 0 8 -4 11 -10z
m-2231 -45 c4 -13 62 -14 443 -9 283 4 447 2 463 -4 31 -13 231 -188 223 -196
-5 -5 -33 19 -118 99 -12 11 -40 35 -62 53 l-41 32 -553 2 c-305 1 -522 3
-484 5 86 4 118 11 110 23 -3 6 -2 10 3 10 6 0 12 -7 16 -15z m-369 -4 c3 -5
1 -12 -5 -16 -5 -3 -10 1 -10 9 0 18 6 21 15 7z m3110 -1 c13 -6 15 -9 5 -9
-8 0 -22 4 -30 9 -18 12 -2 12 25 0z m1129 -15 c40 -26 15 -85 -35 -85 -38 0
-68 42 -48 66 11 13 39 29 57 33 1 1 13 -6 26 -14z m5486 6 c21 -14 18 -80 -5
-97 -23 -17 -77 -18 -93 -2 -21 21 -15 74 11 91 25 18 65 21 87 8z m-2345 -31
c3 -6 -1 -7 -9 -4 -18 7 -21 14 -7 14 6 0 13 -4 16 -10z m-13132 -111 l21 -12
-23 -9 c-26 -9 -41 -3 -41 18 0 17 14 18 43 3z m7302 -79 c10 -11 13 -20 7
-20 -6 0 -16 9 -22 20 -6 11 -9 20 -7 20 2 0 12 -9 22 -20z m73 8 c17 -17 15
-63 -5 -79 -15 -13 -15 -12 -4 9 14 27 6 62 -15 62 -8 0 -12 5 -9 10 8 13 18
13 33 -2z m-123 -48 c0 -22 -1 -40 -2 -40 -10 0 -23 45 -18 60 10 33 21 22 20
-20z m5938 15 c20 -14 37 -31 37 -38 -2 -54 -119 -92 -168 -54 -19 15 -27 0
-11 -20 9 -11 10 -14 1 -9 -15 9 -54 87 -47 95 3 3 22 15 43 27 51 30 99 30
145 -1z m-817 -30 c29 -71 6 -115 -61 -115 -30 0 -75 30 -75 50 0 6 -151 10
-397 11 -219 1 -384 5 -368 9 17 4 195 8 397 9 340 1 367 2 372 19 7 20 62 50
94 51 17 1 27 -8 38 -34z m-5776 8 c14 -9 52 -41 85 -70 59 -53 60 -54 110
-48 54 7 125 -17 158 -52 15 -17 13 -22 -35 -71 -43 -45 -55 -52 -89 -52 -32
0 -46 7 -89 49 -55 54 -59 65 -30 83 11 7 20 16 20 19 0 3 -36 39 -81 78 l-81
72 -347 -3 -346 -3 -82 -65 c-81 -63 -82 -65 -77 -101 5 -31 2 -39 -21 -57
-36 -29 -95 -29 -120 -2 -17 19 -18 26 -6 68 20 77 40 88 91 50 l29 -21 38 29
c21 16 45 34 53 41 8 7 32 26 54 43 l39 30 351 0 c314 0 354 -2 376 -17z m729
-49 c10 -9 -35 -3 -49 6 -11 8 -7 9 15 4 17 -4 32 -8 34 -10z m4907 -111 c-8
-9 -87 68 -80 78 2 4 23 -10 45 -32 23 -22 38 -43 35 -46z m-7136 49 c21 -17
22 -21 9 -48 -17 -35 -53 -43 -80 -18 -54 49 14 112 71 66z m5893 -36 c26 -20
22 -61 -8 -80 -31 -21 -58 -14 -80 20 -16 24 -15 26 10 50 29 27 51 30 78 10z
m-5471 -47 c-19 -17 -36 -28 -39 -26 -8 9 40 57 56 57 11 0 5 -11 -17 -31z
m3296 -78 l72 -34 73 34 72 34 298 3 c388 4 378 7 573 -150 76 -61 182 -147
234 -190 52 -43 100 -82 105 -86 6 -4 48 -39 95 -77 272 -221 292 -243 309
-332 6 -27 15 -140 21 -253 17 -337 10 -306 92 -365 88 -63 141 -115 163 -161
9 -20 22 -78 29 -130 6 -51 14 -95 16 -97 3 -2 39 -28 80 -58 86 -61 87 -62
123 -110 42 -55 55 -107 67 -261 5 -79 15 -206 21 -283 6 -77 12 -150 15 -162
3 -14 40 -50 99 -94 100 -75 144 -129 169 -208 8 -25 24 -174 36 -336 l23
-290 -23 -58 c-17 -46 -43 -80 -118 -159 l-97 -100 0 -117 c0 -110 -1 -118
-29 -166 -17 -27 -116 -137 -220 -244 -105 -107 -200 -204 -211 -215 -18 -19
-20 -35 -20 -136 0 -107 -2 -119 -28 -168 -27 -51 -172 -209 -504 -548 -139
-142 -188 -175 -295 -194 -37 -7 -222 -10 -510 -8 -435 3 -455 4 -505 24 -28
12 -72 36 -98 53 -25 17 -50 31 -56 31 -5 0 -28 -13 -50 -30 -23 -16 -67 -40
-98 -52 -55 -23 -64 -23 -500 -26 -285 -2 -470 1 -515 8 -120 19 -161 48 -378
273 -342 355 -405 424 -427 472 -26 55 -37 153 -23 211 6 27 6 48 -1 60 -5 11
-90 100 -188 199 -219 222 -244 250 -269 301 -29 58 -42 141 -30 184 19 67 14
77 -83 179 -101 105 -135 161 -143 237 -3 27 6 173 19 324 31 360 38 376 214
509 49 36 85 71 88 84 4 21 8 77 36 445 5 78 17 161 25 184 28 79 81 136 207
218 41 28 43 31 56 141 14 125 42 165 184 269 l76 55 5 60 c3 33 12 164 20
291 19 314 4 289 301 529 50 40 100 81 112 91 12 11 37 30 55 44 18 14 73 59
123 100 271 227 317 259 400 279 22 5 175 9 340 8 l300 -2 73 -34z m3537 9 c3
-5 1 -10 -4 -10 -6 0 -11 5 -11 10 0 6 2 10 4 10 3 0 8 -4 11 -10z m-6950 -40
c-16 -16 -31 -28 -33 -25 -5 5 48 55 57 55 3 0 -8 -13 -24 -30z m-4542 -1 c29
-16 37 -28 37 -61 0 -45 -63 -64 -108 -32 -30 20 -30 68 0 88 27 19 42 20 71
5z m11382 -109 c35 -27 68 -50 74 -50 15 0 14 -9 -5 -27 -11 -11 -14 -26 -10
-47 4 -23 3 -27 -4 -16 -6 8 -9 31 -8 50 3 31 -3 39 -56 82 l-60 48 -310 3
-311 2 314 3 313 2 63 -50z m1002 -40 c17 -37 5 -80 -26 -91 -40 -16 -80 1
-96 38 -12 29 -12 34 11 58 33 35 93 33 111 -5z m-6837 -20 c0 -5 -5 -10 -11
-10 -5 0 -7 5 -4 10 3 6 8 10 11 10 2 0 4 -4 4 -10z m60 -48 c0 -39 -37 -72
-80 -72 -39 0 -80 23 -80 46 0 12 -85 14 -602 15 -332 1 -576 5 -543 9 33 4
304 8 602 9 423 1 542 4 546 14 4 9 8 9 15 -1 5 -8 12 -13 16 -13 19 3 26 0
26 -10 0 -6 -8 -8 -19 -4 -40 12 -34 -23 7 -44 32 -17 80 3 88 35 8 30 -5 53
-17 31 -8 -14 -12 -14 -39 0 -17 8 -30 16 -30 19 0 10 30 2 44 -12 15 -14 16
-14 16 4 0 10 3 22 7 25 12 12 43 -25 43 -51z m5945 38 c3 -5 -3 -10 -14 -10
-13 0 -21 -7 -21 -16 0 -20 -24 -13 -28 9 -2 10 5 17 20 20 13 2 26 5 30 6 4
0 10 -3 13 -9z m-1025 -4 c0 -3 -4 -8 -10 -11 -5 -3 -10 -1 -10 4 0 6 5 11 10
11 6 0 10 -2 10 -4z m36 -12 c-3 -9 -6 -18 -6 -20 0 -2 -4 -4 -9 -4 -5 0 -7 9
-4 20 3 11 10 20 15 20 6 0 7 -7 4 -16z m1016 -46 c-10 -22 -11 -21 -11 12 -1
26 2 31 11 22 8 -8 8 -17 0 -34z m247 -93 c29 -34 63 -86 59 -90 -2 -2 -27 26
-55 63 -28 37 -61 77 -72 89 -12 12 -21 26 -21 30 0 7 25 -19 89 -92z m-7519
75 c0 -5 -4 -10 -10 -10 -5 0 -10 5 -10 10 0 6 5 10 10 10 6 0 10 -4 10 -10z
m7175 -18 c-3 -3 -11 0 -18 7 -9 10 -8 11 6 5 10 -3 15 -9 12 -12z m70 8 c-3
-5 -12 -10 -18 -10 -7 0 -6 4 3 10 19 12 23 12 15 0z m-7281 -34 c-3 -9 -10
-16 -15 -16 -5 0 -4 9 3 20 14 22 21 20 12 -4z m744 -159 c43 -40 49 -43 71
-31 29 15 64 4 104 -34 33 -32 34 -62 3 -99 -19 -22 -33 -28 -64 -28 -58 0
-82 25 -82 86 0 44 -4 52 -41 86 -22 21 -48 41 -57 45 -10 4 -187 7 -394 7
l-376 1 -35 -40 c-41 -48 -54 -52 -27 -7 24 39 25 44 3 50 -10 3 177 5 415 6
l433 1 47 -43z m6007 -28 c51 -26 76 -53 68 -75 -4 -12 100 -14 678 -14 375 0
680 -2 677 -5 -2 -3 -322 -6 -709 -8 l-704 -2 -41 -28 c-35 -23 -48 -27 -78
-21 -21 3 -48 19 -64 35 -15 16 -35 29 -44 29 -25 0 -34 45 -14 66 28 27 108
54 148 50 20 -2 58 -14 83 -27z m930 -17 c-3 -3 -11 0 -18 7 -9 10 -8 11 6 5
10 -3 15 -9 12 -12z m95 -116 c0 -3 -4 -8 -10 -11 -5 -3 -10 -1 -10 4 0 6 5
11 10 11 6 0 10 -2 10 -4z m-8030 -21 c0 -8 -4 -15 -10 -15 -5 0 -10 7 -10 15
0 8 5 15 10 15 6 0 10 -7 10 -15z m456 -43 c225 -213 247 -231 265 -221 32 17
65 9 102 -22 45 -38 49 -78 12 -114 -18 -18 -35 -25 -65 -25 -56 0 -80 26 -80
89 0 47 -1 50 -82 127 -45 44 -91 88 -104 99 -12 11 -42 40 -68 65 l-47 45
-152 6 -152 5 155 2 155 2 61 -58z m12723 6 c6 -17 10 -32 9 -32 -2 -1 -17 -6
-33 -12 -31 -11 -31 -11 -30 26 0 28 4 36 14 32 9 -3 12 -1 7 6 -4 7 -1 12 7
12 8 0 20 -14 26 -32z m-17424 -204 c29 -19 34 -64 9 -88 -23 -24 -79 -20
-104 6 -57 61 23 129 95 82z m569 0 c44 -43 21 -104 -38 -104 -65 0 -101 63
-60 104 20 21 78 21 98 0z m10966 -70 c0 -2 -8 -13 -17 -24 -16 -18 -18 -18
-35 -3 -23 21 -7 42 27 35 14 -2 25 -6 25 -8z m-7470 2 c0 -2 -7 -9 -15 -16
-13 -11 -14 -10 -9 4 5 14 24 23 24 12z m8418 -18 c23 -23 28 -23 380 -28
l357 -5 -351 -3 -352 -2 -5 -22 -6 -23 -21 23 c-21 22 -24 22 -302 22 -155 0
-279 2 -277 5 3 2 123 5 269 5 145 1 269 4 276 7 10 4 11 10 3 24 -13 26 -1
24 29 -3z m-9047 -75 c22 -13 29 -25 29 -49 0 -57 -45 -79 -105 -52 -34 15
-36 79 -3 102 29 20 43 20 79 -1z m558 -45 c-54 -117 -85 -177 -93 -177 -19
-2 20 95 76 187 28 46 40 40 17 -10z m8591 -110 c0 -10 5 -18 10 -18 6 0 10
-4 10 -10 0 -5 -4 -10 -9 -10 -9 0 -31 53 -31 74 0 18 20 -18 20 -36z m1283
-168 l5 -55 -13 50 c-7 28 -13 61 -13 75 -1 43 14 -7 21 -70z m1104 68 c-3 -8
-6 -5 -6 6 -1 11 2 17 5 13 3 -3 4 -12 1 -19z m-1677 -28 c0 -7 -215 -10 -627
-9 -346 1 -614 5 -598 9 47 12 1225 12 1225 0z m806 -17 c-10 -10 -19 5 -10
18 6 11 8 11 12 0 2 -7 1 -15 -2 -18z m-2278 -33 c22 -21 29 -64 13 -88 -4 -8
-26 -16 -49 -19 -33 -4 -44 -1 -59 16 -33 38 -32 64 1 89 37 27 66 28 94 2z
m842 10 c0 -5 -4 -10 -10 -10 -5 0 -10 5 -10 10 0 6 5 10 10 10 6 0 10 -4 10
-10z m-7844 -53 c3 -10 3 -21 0 -24 -3 -4 -6 1 -6 10 0 27 -17 19 -29 -13 -5
-16 -16 -30 -23 -31 -7 0 -21 -2 -30 -4 -10 -2 -20 1 -24 6 -3 5 -14 9 -25 9
-16 0 -19 5 -15 20 3 11 9 29 12 41 3 11 15 24 27 28 29 11 105 -18 113 -42z
m-976 3 c0 -5 -2 -10 -4 -10 -3 0 -8 5 -11 10 -3 6 -1 10 4 10 6 0 11 -4 11
-10z m8840 0 c0 -5 -5 -10 -11 -10 -5 0 -7 5 -4 10 3 6 8 10 11 10 2 0 4 -4 4
-10z m1197 -32 c-3 -8 -6 -5 -6 6 -1 11 2 17 5 13 3 -3 4 -12 1 -19z m253 3
c0 -14 -18 -23 -30 -16 -6 4 -8 11 -5 16 8 12 35 12 35 0z m-232 -116 c0 -16
-2 -15 -8 5 -4 14 -8 36 -8 50 0 22 1 22 8 -5 4 -16 8 -39 8 -50z m-11033 -4
c16 -9 31 -24 33 -32 2 -14 -68 -69 -88 -69 -19 0 -59 -23 -54 -31 3 -5 -2 -9
-10 -9 -9 0 -16 5 -16 10 0 6 -6 10 -12 10 -24 0 -126 55 -138 73 -14 22 -2
40 44 65 65 35 107 40 161 20 28 -11 63 -27 80 -37z m9871 4 l16 -35 297 -1
c163 -1 339 -5 391 -9 54 -4 -169 -7 -520 -8 l-614 -2 -35 -32 c-30 -28 -33
-29 -20 -8 32 53 67 60 275 60 l191 0 -2 24 c-2 14 -6 30 -10 35 -3 6 -2 11 4
11 6 0 18 -16 27 -35z m-9402 -20 c10 -7 15 -18 11 -24 -3 -6 -1 -11 6 -11 6
0 1 -9 -12 -19 -27 -22 -65 -11 -55 15 3 9 1 12 -4 9 -11 -7 -13 6 -4 29 8 20
33 20 58 1z m10826 -8 c0 -8 -3 -17 -7 -20 -9 -9 -34 13 -27 24 8 14 34 11 34
-4z m-253 -34 c-3 -10 -5 -4 -5 12 0 17 2 24 5 18 2 -7 2 -21 0 -30z m-10141
0 c-10 -10 -19 5 -10 18 6 11 8 11 12 0 2 -7 1 -15 -2 -18z m10404 -28 c0 -8
-6 -15 -14 -15 -17 0 -28 14 -19 24 12 12 33 6 33 -9z m-242 -75 c0 -22 -1
-22 -8 5 -4 17 -8 41 -8 55 0 22 1 22 8 -5 4 -16 8 -41 8 -55z m-1149 19 c13
-39 14 -57 2 -43 -13 15 -31 74 -21 74 4 0 13 -14 19 -31z m1401 -5 c0 -17
-26 -19 -36 -3 -7 12 15 31 28 23 4 -3 8 -12 8 -20z m-12434 -50 c20 -29 10
-62 -21 -70 -37 -9 -58 -1 -75 29 -14 27 -14 29 12 52 32 27 62 24 84 -11z
m12444 2 c0 -21 -21 -31 -30 -15 -5 7 -6 17 -4 21 9 14 34 9 34 -6z m-10460 1
c0 -9 -38 -108 -43 -114 -12 -11 -8 65 5 92 6 14 17 25 25 25 7 0 13 -1 13 -3z
m10207 -34 c-3 -10 -5 -4 -5 12 0 17 2 24 5 18 2 -7 2 -21 0 -30z m263 -27 c0
-8 -7 -16 -15 -20 -10 -4 -15 1 -15 14 0 11 7 20 15 20 8 0 15 -6 15 -14z
m-192 -68 l47 -1 -42 -4 c-52 -5 -51 -2 -22 -159 l22 -114 521 -2 c491 -3 499
-3 132 -5 l-388 -3 4 -41 c3 -35 1 -39 -17 -37 -15 2 -21 12 -23 41 l-3 37
-110 0 c-127 0 -119 14 -87 -143 l21 -109 136 -102 c75 -57 142 -101 148 -99
7 3 17 -7 22 -21 6 -13 18 -29 28 -35 10 -5 64 -45 119 -88 56 -43 116 -89
134 -103 107 -81 141 -110 133 -110 -5 0 -18 7 -28 15 -11 8 -42 31 -70 52
-27 20 -105 79 -172 130 -66 51 -126 93 -131 93 -6 0 -12 -5 -14 -12 -7 -21
-36 0 -43 31 -3 17 -24 45 -48 66 -63 55 -198 157 -202 153 -5 -4 12 -108 49
-313 45 -240 35 -220 138 -300 49 -38 105 -84 124 -102 23 -21 43 -31 62 -30
23 2 28 -2 30 -25 3 -23 0 -27 -15 -21 -10 3 -31 19 -48 35 -16 16 -55 48 -85
71 -30 23 -77 59 -104 81 l-49 40 6 -44 c8 -63 22 -147 47 -279 11 -63 19
-118 18 -123 -2 -6 -21 82 -41 194 -53 283 -48 269 -110 317 -47 36 -59 41
-104 40 -47 -1 -101 16 -89 28 3 3 12 0 20 -6 18 -15 88 -10 94 7 2 7 -5 12
-17 12 -50 0 -95 48 -76 80 10 16 -11 11 -25 -5 -7 -8 -10 -28 -8 -45 5 -36
-7 -40 -16 -6 -10 42 9 74 51 85 89 25 126 0 122 -80 -3 -45 0 -52 34 -84 20
-19 37 -32 37 -27 0 4 5 0 10 -8 8 -12 10 -9 10 14 0 44 -84 498 -97 519 -2 4
-185 7 -406 7 l-403 0 -146 -153 c-80 -85 -143 -158 -140 -164 10 -16 2 -123
-9 -123 -8 0 -14 54 -10 88 1 6 -2 12 -7 12 -4 0 -72 -65 -151 -145 l-142
-145 -82 2 -82 2 82 5 81 6 94 99 c173 185 243 259 288 306 25 26 83 87 130
136 l85 89 408 -3 407 -3 0 30 c0 16 -7 60 -15 98 -9 37 -18 78 -20 91 l-5 22
-539 0 -538 0 -13 -25 c-7 -14 -17 -25 -20 -25 -7 0 -241 -229 -268 -263 -11
-13 -11 -21 2 -46 17 -31 21 -88 8 -107 -14 -20 -56 -44 -77 -43 -14 0 -8 5
17 15 98 41 62 167 -54 184 l-53 8 43 1 c24 0 53 -4 64 -10 19 -10 36 4 175
147 100 103 148 160 138 162 -8 2 -15 8 -15 13 0 10 13 12 22 4 5 -6 1099 -7
1104 -2 3 4 -15 118 -32 195 l-16 72 -644 -2 -644 -3 -90 -90 c-49 -49 -90
-86 -90 -81 0 5 39 48 87 97 l87 89 73 0 c71 0 73 1 73 25 0 14 4 25 9 25 12
0 23 -29 15 -41 -3 -6 218 -8 558 -7 l563 3 -2 35 -2 35 11 -37 c10 -37 12
-38 56 -40z m1079 40 c-3 -8 -6 -5 -6 6 -1 11 2 17 5 13 3 -3 4 -12 1 -19z
m-10498 -42 c25 -26 22 -55 -7 -89 -21 -24 -99 -21 -113 4 -40 76 61 147 120
85z m7406 -18 c20 -24 21 -48 2 -60 -21 -14 -37 -9 -30 9 5 13 2 15 -12 9 -11
-4 -22 -2 -27 6 -12 19 -10 28 6 28 8 0 16 7 20 15 8 21 18 19 41 -7z m2125
-8 c19 -20 62 -39 75 -34 9 4 26 2 38 -5 15 -7 127 -12 342 -14 l320 -2 -327
-3 -327 -2 -3 -22 c-4 -30 -26 -34 -38 -6 -6 13 -33 39 -60 58 -27 19 -51 41
-55 49 -5 12 -3 12 12 0 10 -8 20 -16 23 -19z m1005 -78 c2 -26 2 -38 -1 -27
-3 11 -8 27 -11 35 -4 8 -8 29 -9 45 -3 25 -2 27 7 12 5 -9 12 -39 14 -65z
m-107 21 c-10 -2 -26 -2 -35 0 -10 3 -2 5 17 5 19 0 27 -2 18 -5z m119 -95
c-3 -8 -6 -5 -6 6 -1 11 2 17 5 13 3 -3 4 -12 1 -19z m-12449 -4 c15 -11 22
-25 22 -50 0 -28 -6 -38 -31 -53 -26 -16 -37 -17 -63 -8 -17 5 -34 15 -38 21
-13 19 -8 74 8 90 20 20 73 20 102 0z m11567 -34 c0 -51 -29 -48 -33 3 -3 33
-1 38 15 35 13 -2 18 -12 18 -38z m-1790 10 c-3 -5 -12 -10 -18 -10 -7 0 -6 4
3 10 19 12 23 12 15 0z m-9235 -16 c0 -11 6 -14 21 -9 29 10 21 -15 -9 -26
-19 -7 -22 -5 -23 19 l-1 27 -8 -25 c-7 -22 -8 -22 -9 -4 -1 11 2 24 6 27 11
12 23 8 23 -9z m11950 -122 c11 -52 20 -100 19 -106 -1 -15 -58 215 -58 234 0
29 19 -33 39 -128z m-2769 85 c-10 -9 -11 -8 -5 6 3 10 9 15 12 12 3 -3 0 -11
-7 -18z m489 -117 c0 -5 -2 -10 -4 -10 -3 0 -8 5 -11 10 -3 6 -1 10 4 10 6 0
11 -4 11 -10z m1398 -43 c2 -12 -3 -17 -17 -17 -12 0 -21 6 -21 13 0 31 32 34
38 4z m-13324 -50 c26 -19 24 -76 -4 -99 -56 -45 -144 4 -120 67 6 16 17 33
23 37 19 12 82 9 101 -5z m13334 -10 c2 -12 -3 -17 -17 -17 -12 0 -21 6 -21
13 0 31 32 34 38 4z m899 -19 c-3 -7 -5 -2 -5 12 0 14 2 19 5 13 2 -7 2 -19 0
-25z m-3091 -8 c6 0 25 -13 42 -28 31 -28 42 -52 22 -52 -5 0 -21 -17 -34 -39
-14 -21 -35 -41 -48 -44 -22 -6 -22 -5 -4 8 19 14 18 15 -11 15 -17 0 -42 9
-57 21 -14 11 -30 17 -36 14 -11 -7 -31 35 -23 48 13 22 100 67 118 63 11 -3
25 -6 31 -6z m-7649 -20 c29 -17 32 -23 26 -52 -11 -63 -53 -83 -117 -58 -22
8 -26 16 -26 47 0 43 6 55 35 71 29 16 46 15 82 -8z m10750 -22 c-3 -7 -5 -2
-5 12 0 14 2 19 5 13 2 -7 2 -19 0 -25z m-897 7 c0 -8 -9 -15 -20 -15 -11 0
-20 7 -20 15 0 8 9 15 20 15 11 0 20 -7 20 -15z m-10730 -15 c0 -5 -4 -10 -10
-10 -5 0 -10 5 -10 10 0 6 5 10 10 10 6 0 10 -4 10 -10z m11327 -20 c48 -29
66 -62 61 -116 -3 -46 -3 -46 59 -96 35 -27 63 -52 63 -55 0 -6 -63 40 -94 69
-26 24 -59 34 -64 19 -2 -6 -16 -10 -30 -10 -21 1 -23 2 -7 6 38 9 65 44 65
82 -1 62 -56 111 -126 111 -117 0 -116 -143 1 -185 30 -11 34 -14 16 -15 -30
0 -84 33 -105 65 -25 38 -21 92 10 120 34 32 104 34 151 5z m350 -185 c-4 -10
-48 173 -46 190 1 6 12 -33 25 -85 13 -52 22 -99 21 -105z m-918 88 c1 -12 -3
-24 -8 -27 -13 -9 -38 3 -38 17 0 7 -3 31 -7 54 -6 35 -5 42 11 45 13 3 21 -5
30 -32 6 -19 12 -45 12 -57z m-1942 -15 c-3 -7 -5 -2 -5 12 0 14 2 19 5 13 2
-7 2 -19 0 -25z m2870 -120 c-3 -7 -5 -2 -5 12 0 14 2 19 5 13 2 -7 2 -19 0
-25z m10 -50 c-3 -7 -5 -2 -5 12 0 14 2 19 5 13 2 -7 2 -19 0 -25z m-11713
-20 c-9 -31 -12 -34 -25 -21 -15 15 -4 43 16 43 12 0 15 -6 9 -22z m9860 -7
c13 -11 16 -27 14 -64 -2 -40 -8 -54 -29 -69 -22 -16 -32 -18 -62 -10 -42 12
-28 23 -187 -149 -63 -68 -151 -162 -195 -208 -159 -169 -213 -227 -265 -283
l-53 -58 -284 0 c-230 0 -283 -2 -283 -13 0 -18 -28 -43 -58 -52 -22 -6 -88
12 -78 22 2 3 13 0 24 -6 22 -12 74 -1 80 17 2 8 -9 12 -34 12 -44 0 -63 21
-64 69 0 29 -2 32 -15 21 -8 -7 -15 -8 -15 -3 0 15 47 33 85 33 24 0 39 -7 54
-26 12 -15 21 -32 21 -39 0 -22 38 -25 303 -25 l258 0 57 61 c31 34 68 74 82
89 14 15 47 50 73 78 28 30 47 59 45 69 -2 11 3 18 14 18 18 0 31 13 183 179
55 61 121 133 147 160 31 33 46 56 41 66 -3 8 -8 31 -11 51 -3 29 1 40 21 55
29 23 106 26 131 5z m956 -7 c15 -38 12 -54 -9 -54 -21 0 -31 19 -31 56 0 32
28 31 40 -2z m907 -16 c-3 -7 -5 -2 -5 12 0 14 2 19 5 13 2 -7 2 -19 0 -25z
m37 -116 c3 -6 2 -13 -3 -16 -5 -4 -14 17 -20 44 -15 68 -12 86 4 29 7 -26 15
-51 19 -57z m-11764 -12 c0 -27 -4 -50 -10 -50 -5 0 -10 23 -10 50 0 28 5 50
10 50 6 0 10 -22 10 -50z m884 -12 c62 -22 136 -65 136 -78 0 -8 -30 -35 -45
-41 -5 -2 -36 -22 -68 -43 -56 -38 -58 -39 -98 -26 -23 8 -43 20 -46 27 -3 8
-22 22 -42 33 -21 10 -44 26 -52 36 -12 15 -11 19 9 33 22 15 132 78 141 80 2
1 31 -9 65 -21z m9974 -25 c5 -17 -26 -29 -40 -15 -6 6 -7 15 -3 22 9 14 37 9
43 -7z m-2307 -13 c10 -6 19 -19 19 -30 0 -11 9 -24 21 -30 29 -16 17 -23 -40
-24 -43 -1 -51 2 -60 22 -13 27 -15 65 -3 58 4 -2 14 -1 22 5 19 11 18 11 41
-1z m2734 -61 c16 -19 13 -18 -17 5 -21 16 -38 30 -38 33 0 8 36 -16 55 -38z
m-1913 -1 c-9 -9 -12 -7 -12 12 0 19 3 21 12 12 9 -9 9 -15 0 -24z m1498 6 c0
-8 -9 -14 -20 -14 -22 0 -28 26 -7 33 16 6 27 -1 27 -19z m-12343 -10 c-9 -9
-28 6 -21 18 4 6 10 6 17 -1 6 -6 8 -13 4 -17z m1480 -39 c10 -44 4 -63 -17
-50 -10 6 -10 95 0 95 4 0 11 -20 17 -45z m11324 8 c13 -16 12 -17 -3 -4 -17
13 -22 21 -14 21 2 0 10 -8 17 -17z m-12577 -47 c-3 -21 -9 -35 -11 -32 -3 3
-2 21 1 42 4 20 10 34 12 31 3 -3 2 -21 -2 -41z m12124 27 c-2 -10 -10 -18
-18 -18 -8 0 -16 8 -18 18 -2 12 3 17 18 17 15 0 20 -5 18 -17z m-12368 -3 c0
-5 -4 -10 -10 -10 -5 0 -10 5 -10 10 0 6 5 10 10 10 6 0 10 -4 10 -10z m12861
-7 c13 -16 12 -17 -3 -4 -17 13 -22 21 -14 21 2 0 10 -8 17 -17z m195 -31 c18
-12 23 -40 13 -72 -11 -31 -29 -36 -76 -24 -24 7 -48 55 -39 79 7 20 -13 19
-36 -2 -16 -14 -18 -14 -18 0 0 8 8 18 18 20 29 8 126 7 138 -1z m-676 -22 c0
-13 -7 -20 -20 -20 -19 0 -27 20 -13 33 13 14 33 6 33 -13z m-12390 0 c0 -5
-4 -10 -10 -10 -5 0 -10 5 -10 10 0 6 5 10 10 10 6 0 10 -4 10 -10z m191 -300
c-26 -146 -44 -267 -39 -269 5 -2 17 4 26 13 17 16 63 54 168 138 33 26 66 54
74 61 8 8 37 31 63 51 l49 36 426 -2 427 -3 -430 -5 c-236 -3 -431 -7 -432 -8
-5 -6 -285 -233 -330 -267 -58 -45 -54 -34 -98 -275 -14 -80 -41 -226 -60
-325 -43 -229 -49 -275 -36 -255 6 8 11 12 11 9 0 -4 17 9 38 28 20 19 57 51
82 71 25 21 85 71 135 113 49 41 127 105 173 142 l83 67 552 -2 552 -3 -551
-5 -551 -5 -49 -40 c-27 -21 -51 -42 -54 -45 -3 -4 -77 -65 -165 -136 -284
-230 -274 -220 -281 -274 -6 -42 -3 -49 31 -90 20 -25 44 -54 53 -65 183 -223
212 -254 229 -248 9 4 11 0 7 -11 -4 -10 2 -26 12 -39 17 -20 17 -20 -8 2 -15
12 -31 20 -37 17 -6 -4 -9 -1 -5 7 4 13 -12 37 -66 99 -8 9 -21 23 -27 32 -15
17 -179 213 -200 237 -14 17 -11 48 17 184 14 66 60 318 60 329 0 7 -81 -53
-100 -74 -4 -5 -116 -92 -157 -123 -7 -5 -13 -7 -13 -4 0 3 37 35 83 70 46 36
103 83 128 106 24 22 47 41 51 41 11 0 25 62 58 238 26 146 29 181 12 156 -12
-17 -248 -204 -258 -204 -3 0 20 21 53 47 32 26 63 52 69 58 6 5 43 35 82 65
83 64 71 30 138 395 27 143 50 253 51 245 2 -8 -19 -134 -46 -280z m10679 266
c0 -3 -4 -8 -10 -11 -5 -3 -10 -1 -10 4 0 6 5 11 10 11 6 0 10 -2 10 -4z
m-9350 -56 c0 -5 -4 -10 -10 -10 -5 0 -10 5 -10 10 0 6 5 10 10 10 6 0 10 -4
10 -10z m9344 -11 c-3 -5 -10 -7 -15 -3 -5 3 -7 10 -3 15 3 5 10 7 15 3 5 -3
7 -10 3 -15z m1612 -47 c-6 -6 -56 29 -56 39 0 5 13 0 30 -12 16 -13 28 -24
26 -27z m-12502 -7 c3 -9 -1 -18 -10 -22 -19 -7 -28 2 -21 22 8 19 23 19 31 0z
m11474 -25 c27 -26 30 -88 5 -117 -23 -26 -54 -35 -73 -23 -12 8 -11 10 7 10
28 0 53 10 53 21 0 5 -13 9 -30 9 -41 0 -73 34 -68 70 6 38 -19 28 -38 -14
-13 -31 -19 -19 -8 20 12 45 113 60 152 24z m546 1 c15 -16 15 -19 1 -24 -9
-4 -15 -1 -15 8 0 24 -38 17 -55 -9 -10 -15 -14 -35 -10 -52 4 -24 4 -25 -4
-9 -16 33 -12 57 11 82 26 28 49 29 72 4z m434 -13 c-7 -19 -38 -22 -38 -4 0
10 9 16 21 16 12 0 19 -5 17 -12z m113 -5 c13 -16 12 -17 -3 -4 -10 7 -18 15
-18 17 0 8 8 3 21 -13z m-13867 -9 c25 -25 20 -79 -9 -98 -31 -21 -83 -21
-107 1 -26 23 -24 78 4 97 29 21 92 20 112 0z m13367 -14 c12 0 12 -37 -1 -45
-5 -3 -10 3 -10 13 0 15 -5 19 -20 15 -16 -4 -19 -2 -14 11 4 10 13 15 21 12
8 -3 19 -6 24 -6z m35 -54 c-5 -20 1 -30 31 -55 21 -17 33 -31 27 -31 -6 0
-24 11 -40 25 -17 15 -35 22 -44 19 -34 -14 -49 -15 -67 -5 -16 10 -16 11 7
10 44 -2 49 0 65 31 19 36 29 39 21 6z m-1261 -130 c-9 -55 -21 -105 -26 -111
-7 -7 -8 0 -5 20 3 17 14 77 23 135 10 58 20 94 21 81 2 -13 -4 -69 -13 -125z
m-10867 111 c2 -10 -3 -17 -12 -17 -18 0 -29 16 -21 31 9 14 29 6 33 -14z
m1601 -45 c-1 -50 -2 -53 -10 -27 -13 43 -18 83 -12 89 14 14 23 -10 22 -62z
m9801 32 c0 -2 -7 -4 -15 -4 -8 0 -15 4 -15 10 0 5 7 7 15 4 8 -4 15 -8 15
-10z m605 -2 c-3 -3 -11 0 -18 7 -9 10 -8 11 6 5 10 -3 15 -9 12 -12z m495
-12 c0 -11 -6 -20 -13 -20 -19 0 -27 10 -20 26 8 21 33 17 33 -6z m-1140 -4
c0 -3 -16 -21 -35 -42 -19 -20 -35 -33 -35 -28 0 4 14 23 32 41 31 32 38 37
38 29z m936 -321 c20 -110 40 -222 45 -250 5 -27 18 -97 28 -155 25 -128 26
-176 2 -64 -10 44 -21 89 -25 100 -4 10 -9 40 -11 66 -2 26 -11 82 -19 125 -9
43 -25 132 -37 198 -30 171 -48 231 -73 244 -20 11 -20 11 2 5 19 -5 23 -2 22
13 -1 10 -1 23 0 28 3 17 28 -100 66 -310z m-9802 275 c22 -8 26 -16 26 -50 0
-31 -5 -43 -25 -56 -23 -15 -31 -15 -65 -4 -43 14 -50 33 -28 73 23 44 48 54
92 37z m-2519 -50 c0 -8 -8 -16 -17 -18 -13 -2 -18 3 -18 18 0 15 5 20 18 18
9 -2 17 -10 17 -18z m9932 -22 c-3 -7 -5 -2 -5 12 0 14 2 19 5 13 2 -7 2 -19
0 -25z m1366 17 c-3 -9 -8 -14 -10 -11 -3 3 -2 9 2 15 9 16 15 13 8 -4z m1042
-43 c-6 -6 -34 11 -39 24 -4 11 0 10 18 -3 13 -10 23 -19 21 -21z m40 -32 c10
-11 16 -20 13 -20 -3 0 -13 9 -23 20 -10 11 -16 20 -13 20 3 0 13 -9 23 -20z
m189 -27 c9 -60 7 -83 -8 -83 -20 0 -23 6 -31 68 -6 47 -5 52 13 52 15 0 21
-9 26 -37z m-10895 -35 c17 -44 19 -78 5 -78 -7 0 -16 9 -19 20 -3 11 -11 20
-17 20 -7 0 -7 5 -1 13 5 6 8 22 7 35 -2 32 10 27 25 -10z m10756 14 c-3 -3
-11 0 -18 7 -9 10 -8 11 6 5 10 -3 15 -9 12 -12z m-12466 -69 c-2 -60 -13 -88
-34 -88 -17 0 -19 6 -16 40 4 54 18 85 36 85 11 0 15 -10 14 -37z m1166 17
c-274 -3 -497 -9 -505 -14 -13 -8 -103 -82 -136 -111 -6 -5 -53 -44 -104 -85
-51 -41 -122 -99 -157 -129 -35 -29 -66 -51 -69 -49 -4 5 76 76 223 195 48 40
124 101 168 137 l80 66 495 -3 495 -2 -490 -5z m9707 -32 c-8 -8 -9 -4 -5 13
4 13 8 18 11 10 2 -7 -1 -18 -6 -23z m188 -92 c0 -2 -8 -10 -17 -17 -16 -13
-17 -12 -4 4 13 16 21 21 21 13z m1236 -30 c28 -13 55 -29 58 -35 9 -14 -2
-51 -15 -51 -11 0 -49 -32 -49 -42 0 -4 21 -29 48 -54 l47 -46 -48 36 c-43 32
-53 35 -91 30 -66 -9 -119 25 -140 92 -8 28 22 62 71 80 52 18 60 17 119 -10z
m-1287 -24 c-8 -10 -41 -49 -74 -85 -58 -64 -62 -67 -107 -67 -38 0 -46 -3
-42 -15 4 -10 0 -15 -11 -15 -11 0 -15 5 -11 15 4 11 -2 15 -22 15 -23 0 -31
-8 -47 -42 -36 -78 -132 -89 -202 -24 -30 27 -36 41 -40 83 -5 45 -2 54 24 83
57 64 163 46 210 -36 28 -49 65 -61 93 -31 11 11 21 18 21 14 1 -4 2 -13 3
-19 0 -7 13 -14 27 -16 22 -3 40 11 100 73 41 42 76 80 78 86 1 6 5 8 8 5 3
-2 -1 -13 -8 -24z m1639 11 c2 -8 -5 -13 -17 -13 -12 0 -21 6 -21 16 0 18 31
15 38 -3z m-1003 -34 c5 -14 1 -25 -12 -34 -22 -18 -24 -18 -46 0 -28 21 -14
55 23 55 20 0 31 -6 35 -21z m-9875 -9 c0 -5 -4 -10 -10 -10 -5 0 -10 5 -10
10 0 6 5 10 10 10 6 0 10 -4 10 -10z m-1816 -46 c12 -31 -13 -44 -44 -24 -13
9 -12 12 4 25 25 19 32 19 40 -1z m11716 -34 c0 -4 -6 -10 -14 -13 -10 -4 -12
0 -9 14 5 18 23 18 23 -1z m-1800 -30 c0 -5 7 -10 15 -10 8 0 15 -7 15 -16 0
-14 3 -14 15 -4 13 10 15 9 15 -9 0 -13 6 -21 16 -21 14 0 15 -7 10 -39 -5
-36 -3 -40 41 -77 55 -45 256 -216 263 -224 3 -3 34 -30 70 -60 l64 -55 80 -4
c65 -3 81 0 88 13 11 20 38 21 38 1 0 -13 48 -15 368 -17 285 -1 336 -3 227
-9 -77 -3 -245 -7 -374 -8 l-233 -1 -20 -25 c-22 -29 -44 -24 -28 6 10 18 7
19 -64 19 -72 0 -76 1 -129 43 -30 23 -101 82 -158 132 -57 49 -117 101 -133
115 -17 14 -49 42 -71 62 -39 35 -44 37 -92 32 -46 -6 -53 -4 -83 24 -40 35
-46 87 -15 122 18 20 75 28 75 10z m-7122 -42 c4 -20 -35 -62 -44 -47 -4 7
-11 6 -20 -2 -11 -9 -16 -6 -24 16 -9 23 -7 31 7 45 22 20 76 12 81 -12z
m12801 -14 c27 -34 27 -58 -1 -84 -47 -44 -138 -16 -138 42 0 46 25 68 76 68
34 0 47 -5 63 -26z m-13721 -2 c2 -7 -6 -12 -17 -12 -21 0 -27 11 -14 24 9 9
26 2 31 -12z m8942 -22 c0 -5 -4 -10 -10 -10 -5 0 -10 5 -10 10 0 6 5 10 10
10 6 0 10 -4 10 -10z m-8930 -20 c0 -5 -4 -10 -9 -10 -6 0 -13 5 -16 10 -3 6
1 10 9 10 9 0 16 -4 16 -10z m13040 -10 c0 -11 -2 -20 -4 -20 -2 0 -6 9 -9 20
-3 11 -1 20 4 20 5 0 9 -9 9 -20z m-2180 -5 c0 -8 -9 -15 -20 -15 -11 0 -20 7
-20 15 0 8 9 15 20 15 11 0 20 -7 20 -15z m-845 -25 c10 -11 16 -20 13 -20 -3
0 -13 9 -23 20 -10 11 -16 20 -13 20 3 0 13 -9 23 -20z m646 -17 c10 -12 5
-11 -18 6 -18 12 -33 24 -33 27 0 9 37 -15 51 -33z m-13571 -3 c0 -5 -5 -10
-11 -10 -5 0 -7 5 -4 10 3 6 8 10 11 10 2 0 4 -4 4 -10z m-13 -42 c-3 -8 -6
-5 -6 6 -1 11 2 17 5 13 3 -3 4 -12 1 -19z m981 -15 c-2 -10 -10 -18 -18 -18
-8 0 -16 8 -18 18 -2 12 3 17 18 17 15 0 20 -5 18 -17z m12067 -21 c-3 -3 -11
0 -18 7 -9 10 -8 11 6 5 10 -3 15 -9 12 -12z m-10068 -34 c2 -18 0 -20 -7 -8
-12 18 -13 30 -2 30 4 0 9 -10 9 -22z m8779 -40 c-14 -29 -25 -48 -25 -42 -1
17 40 107 46 101 2 -3 -7 -29 -21 -59z m1829 -226 c15 -71 14 -75 -5 -102 -26
-36 -25 -42 8 -71 65 -56 52 -54 286 -59 l221 -6 -217 -2 -216 -2 -61 46 c-34
26 -63 45 -64 43 -9 -14 -97 -107 -97 -101 1 4 21 32 45 62 l45 55 -57 53
c-32 30 -49 49 -38 44 11 -6 31 -22 45 -37 40 -42 59 -49 81 -29 25 22 24 53
-6 203 -14 68 -25 134 -24 145 0 12 9 -22 20 -74 10 -52 26 -128 34 -168z
m-432 207 l22 -21 -22 11 c-12 6 -25 16 -28 21 -11 17 5 11 28 -11z m-12208
-7 c-53 -42 -60 -46 -33 -19 16 15 31 27 35 27 4 0 3 -3 -2 -8z m12260 -42
c10 -11 16 -20 13 -20 -3 0 -13 9 -23 20 -10 11 -16 20 -13 20 3 0 13 -9 23
-20z m634 6 c10 -12 8 -17 -9 -26 -26 -14 -46 0 -37 24 8 20 31 21 46 2z
m-10800 -28 c40 -94 65 -141 88 -164 20 -20 23 -28 12 -40 -10 -13 -14 -13
-29 1 -15 14 -85 15 -579 15 -309 -1 -573 -5 -585 -10 -13 -4 -59 -38 -102
-75 -185 -155 -285 -237 -289 -234 -3 4 173 155 322 277 l64 52 579 0 c547 0
579 1 573 18 -6 18 -45 107 -69 156 -16 34 -17 36 -6 36 4 0 13 -15 21 -32z
m10236 -34 c38 -35 27 -39 -13 -3 -18 16 -28 29 -24 29 5 0 21 -11 37 -26z
m-13325 -11 c0 -5 -5 -15 -10 -23 -8 -12 -10 -11 -10 8 0 12 5 22 10 22 6 0
10 -3 10 -7z m976 -34 c9 -15 -11 -33 -30 -26 -9 4 -13 13 -10 22 7 17 30 20
40 4z m12454 -51 c0 -11 -68 43 -69 55 -1 4 15 -4 34 -19 19 -14 35 -31 35
-36z m-2620 18 c49 -25 66 -39 68 -57 2 -18 -4 -27 -27 -37 -58 -26 -51 -49
43 -129 l61 -53 302 0 c219 0 302 3 300 11 -1 6 4 14 11 16 6 3 12 -2 12 -11
0 -14 45 -16 433 -17 237 0 455 -4 482 -9 28 -4 -310 -8 -750 -8 l-800 -2 -36
33 c-109 97 -121 106 -145 95 -40 -19 -86 -1 -137 52 -29 30 -47 56 -43 65 6
17 80 65 100 65 8 0 18 5 21 10 11 17 37 11 105 -24z m-6662 -45 c2 -32 -2
-41 -22 -55 -29 -19 -40 -21 -30 -5 6 11 -12 29 -29 29 -4 0 -11 -10 -16 -22
l-8 -22 -5 22 c-4 15 -2 22 8 22 7 0 18 9 24 20 6 11 19 20 29 20 10 0 24 7
31 15 7 8 13 15 14 15 0 0 2 -17 4 -39z m-2967 6 c-10 -9 -11 -8 -5 6 3 10 9
15 12 12 3 -3 0 -11 -7 -18z m12274 3 c3 -5 1 -10 -4 -10 -6 0 -11 5 -11 10 0
6 2 10 4 10 3 0 8 -4 11 -10z m-12305 -30 c-8 -5 -19 -10 -25 -10 -5 0 -3 5 5
10 8 5 20 10 25 10 6 0 3 -5 -5 -10z m-46 -34 c-3 -8 -13 -17 -22 -21 -13 -5
-13 -2 3 15 21 24 26 25 19 6z m13825 -164 c1 -7 -3 -10 -9 -7 -5 3 -10 18 -9
33 0 24 1 25 9 7 5 -11 9 -26 9 -33z m-11654 8 c3 -5 1 -10 -4 -10 -6 0 -11 5
-11 10 0 6 2 10 4 10 3 0 8 -4 11 -10z m9716 -17 c13 -16 12 -17 -3 -4 -10 7
-18 15 -18 17 0 8 8 3 21 -13z m473 -45 c-10 -12 -27 -31 -37 -43 -10 -11 -35
-41 -55 -67 -20 -27 -40 -48 -44 -48 -5 0 26 41 68 90 41 50 78 90 81 90 3 0
-2 -10 -13 -22z m-404 -13 c13 -14 21 -25 18 -25 -2 0 -15 11 -28 25 -13 14
-21 25 -18 25 2 0 15 -11 28 -25z m-1578 -90 c-31 -52 -51 -61 -26 -12 20 40
34 57 45 57 5 0 -4 -20 -19 -45z m-9892 11 c0 -2 -8 -10 -17 -17 -16 -13 -17
-12 -4 4 13 16 21 21 21 13z m1834 -80 c30 -51 32 -70 11 -110 -18 -34 -13
-45 61 -125 l47 -51 361 0 361 0 30 26 c17 14 39 34 50 43 11 9 33 31 49 49
25 27 28 35 19 55 -24 53 45 136 104 125 28 -5 41 -82 19 -107 -23 -25 -61
-34 -86 -21 -16 9 -18 8 -14 -5 8 -19 44 -29 84 -23 22 3 27 1 20 -6 -6 -6
-35 -11 -65 -11 -44 -1 -59 -6 -77 -26 -13 -13 -45 -43 -71 -66 l-47 -43 -374
0 -374 0 -46 51 c-25 28 -52 60 -60 71 -12 16 -21 19 -45 15 -17 -4 -31 -3
-31 2 0 5 14 11 30 15 23 4 35 15 46 41 13 31 13 39 -1 65 -21 40 -32 38 -27
-5 6 -49 -19 -75 -71 -75 -34 0 -38 -2 -27 -15 7 -8 19 -15 26 -15 8 0 14 -4
14 -10 0 -14 -8 -13 -41 7 -28 17 -31 23 -33 68 -2 39 28 78 69 90 22 6 41 16
41 23 1 7 2 15 3 18 2 12 20 -8 45 -50z m9801 24 c3 -5 2 -10 -4 -10 -5 0 -13
5 -16 10 -3 6 -2 10 4 10 5 0 13 -4 16 -10z m-10750 -16 c17 -8 41 -27 55 -42
l26 -26 -41 -42 c-50 -51 -74 -64 -120 -64 -25 0 -43 8 -61 26 -54 53 -106 64
-322 66 l-197 1 191 7 c177 6 196 8 240 31 27 13 51 27 54 30 23 28 131 36
175 13z m7923 0 c12 -8 29 -28 37 -45 l16 -29 454 0 c443 0 456 1 472 20 10
11 23 20 31 20 9 0 11 -7 7 -20 -6 -20 -2 -20 561 -20 312 0 565 -2 563 -4 -2
-2 -262 -6 -578 -9 -516 -4 -575 -6 -583 -21 -11 -20 -38 -21 -38 -1 0 12 -59
15 -422 17 -233 2 -434 1 -448 0 -15 -2 -30 -13 -35 -25 -18 -37 -59 -60 -98
-53 -80 15 -115 103 -62 160 28 31 87 36 123 10z m2895 -19 c22 21 29 19 15
-6 -11 -18 -10 -23 15 -43 15 -12 27 -26 27 -31 0 -5 -14 4 -31 21 l-31 29
-46 -50 c-48 -53 -48 -45 1 17 30 38 30 38 11 60 l-19 23 21 -18 c20 -16 23
-16 37 -2z m-8706 -67 c-3 -7 -5 -2 -5 12 0 14 2 19 5 13 2 -7 2 -19 0 -25z
m8354 15 c13 -17 13 -17 -6 -3 -11 8 -22 16 -24 17 -2 2 0 3 6 3 6 0 17 -8 24
-17z m-355 -35 l19 -23 -25 20 c-14 11 -27 21 -29 22 -2 2 0 3 6 3 5 0 18 -10
29 -22z m425 -25 c18 -20 19 -23 4 -13 -32 24 -47 40 -37 40 4 0 19 -12 33
-27z m375 6 c19 -22 19 -22 -3 -8 -13 8 -23 17 -23 21 0 12 6 9 26 -13z
m-9847 -44 c42 -51 49 -65 31 -65 -15 0 -91 101 -84 112 3 5 7 8 9 6 2 -2 21
-25 44 -53z m11453 23 c-8 -8 -9 -4 -5 13 4 13 8 18 11 10 2 -7 -1 -18 -6 -23z
m-13314 -33 c30 -47 21 -44 -18 5 -17 22 -26 38 -18 35 7 -3 23 -21 36 -40z
m11750 10 c-3 -3 -9 2 -12 12 -6 14 -5 15 5 6 7 -7 10 -15 7 -18z m46 -34 c-2
-3 -12 3 -22 13 -16 17 -16 18 5 5 12 -7 20 -15 17 -18z m-2184 -11 c-6 -11
-15 -20 -20 -20 -6 0 -5 9 2 20 7 11 16 20 21 20 4 0 3 -9 -3 -20z m1844 3
c19 25 26 21 13 -8 -7 -14 -16 -25 -21 -25 -5 0 -15 -8 -23 -17 -13 -16 -13
-16 -3 6 9 17 9 26 1 34 -6 6 -11 15 -11 21 0 5 7 1 15 -10 14 -18 16 -18 29
-1z m1741 -82 c-40 -56 -79 -93 -54 -53 14 23 81 102 86 102 2 0 -13 -22 -32
-49z m359 -22 c-3 -5 -10 -7 -15 -3 -5 3 -7 10 -3 15 3 5 10 7 15 3 5 -3 7
-10 3 -15z m-1046 4 c-109 -2 -287 -2 -395 0 -109 1 -20 2 197 2 217 0 306 -1
198 -2z m-15281 -55 c43 -41 21 -99 -47 -119 -33 -10 -43 -9 -64 5 -34 22 -43
59 -22 92 31 46 95 57 133 22z m6123 -74 c36 -35 33 -84 -9 -125 -31 -29 -37
-31 -82 -26 -44 6 -50 4 -77 -26 -15 -18 -54 -56 -85 -84 l-56 -53 -675 0
-675 0 -17 -29 c-33 -56 -107 -68 -151 -25 -21 21 -24 32 -20 62 7 46 67 102
107 102 36 0 80 -36 80 -65 0 -22 4 -24 73 -27 39 -2 343 -1 675 1 l603 3 78
77 79 76 -5 51 c-6 58 10 86 62 110 36 16 62 10 95 -22z m4875 26 c4 -6 1 -17
-5 -25 -10 -12 -9 -15 3 -15 20 0 37 -30 37 -62 -1 -22 -1 -22 -15 -4 -15 19
-15 19 -15 -5 0 -24 0 -24 -20 6 -11 17 -20 24 -20 18 0 -7 -4 -13 -10 -13 -5
0 -10 15 -10 34 0 28 5 36 28 45 25 10 23 11 -13 5 -21 -3 -45 -13 -52 -22
-17 -23 -16 -63 3 -90 17 -25 10 -30 -12 -8 -24 24 -18 93 11 121 25 26 78 34
90 15z m3065 -10 c-6 -11 -16 -20 -22 -20 -6 0 -3 9 7 20 10 11 20 20 22 20 2
0 -1 -9 -7 -20z m-2997 -61 c3 -11 1 -34 -3 -50 -11 -38 0 -57 75 -123 30 -27
55 -53 55 -58 0 -9 -83 65 -124 110 -17 19 -28 22 -58 18 -21 -3 -48 -2 -60 3
-18 7 -15 8 18 7 59 -1 76 17 72 75 -2 32 1 45 9 42 6 -2 13 -13 16 -24z
m1375 15 c17 -3 40 -15 51 -25 11 -11 25 -19 30 -19 16 0 33 -38 21 -45 -6 -4
-22 -24 -36 -46 -32 -52 -63 -66 -111 -51 -33 10 -37 9 -57 -16 -87 -111 -150
-172 -182 -178 -20 -4 -216 -3 -438 1 l-402 7 -57 55 c-32 31 -57 57 -55 58 2
2 29 -21 62 -51 l58 -54 412 0 c226 0 420 3 431 6 11 3 43 33 70 66 28 33 63
75 78 94 l29 34 -21 34 c-25 40 -26 64 -3 92 32 40 62 50 120 38z m656 -16
c-3 -5 -16 -7 -29 -4 -29 7 -62 -28 -68 -74 l-4 -35 -1 40 c-2 47 4 59 41 78
30 15 71 12 61 -5z m-944 -8 c0 -5 -4 -10 -10 -10 -5 0 -10 5 -10 10 0 6 5 10
10 10 6 0 10 -4 10 -10z m3643 -15 c-3 -9 -8 -14 -10 -11 -3 3 -2 9 2 15 9 16
15 13 8 -4z m-2683 -5 c0 -5 -10 -10 -22 -10 -19 0 -20 2 -8 10 19 13 30 13
30 0z m-3 -36 c-3 -3 -12 -4 -19 -1 -8 3 -5 6 6 6 11 1 17 -2 13 -5z m50 0
c-3 -3 -12 -4 -19 -1 -8 3 -5 6 6 6 11 1 17 -2 13 -5z m33 -14 c0 -5 -5 -10
-11 -10 -5 0 -7 5 -4 10 3 6 8 10 11 10 2 0 4 -4 4 -10z m-80 -10 c0 -5 -7
-10 -15 -10 -8 0 -15 5 -15 10 0 6 7 10 15 10 8 0 15 -4 15 -10z m-1040 -4 c0
-3 -4 -8 -10 -11 -5 -3 -10 -1 -10 4 0 6 5 11 10 11 6 0 10 -2 10 -4z m3649
-27 c-30 -43 -68 -83 -74 -78 -4 5 84 109 92 109 2 0 -6 -14 -18 -31z m-2549
3 c0 -22 -43 -52 -73 -51 l-32 1 31 7 c41 10 54 19 54 37 0 8 5 14 10 14 6 0
10 -4 10 -8z m717 -27 c0 -8 -4 -15 -9 -15 -10 0 -11 14 -1 23 9 10 10 9 10
-8z m1406 -12 c-101 -2 -265 -2 -365 0 -101 1 -19 2 182 2 201 0 283 -1 183
-2z m-11866 -35 c30 -28 29 -58 -2 -92 -21 -23 -31 -26 -58 -21 -17 4 -32 8
-32 9 0 0 -6 12 -13 25 -12 21 -11 27 6 50 16 22 56 50 71 51 3 0 15 -10 28
-22z m1663 -22 c0 -3 -4 -8 -10 -11 -5 -3 -10 -1 -10 4 0 6 5 11 10 11 6 0 10
-2 10 -4z m10541 -14 c-5 -10 -18 -25 -27 -33 -11 -9 -9 -2 6 19 26 35 36 42
21 14z m379 -13 c0 -5 -7 -9 -15 -9 -15 0 -20 12 -9 23 8 8 24 -1 24 -14z
m-9324 -40 c34 -16 67 -35 73 -43 12 -14 5 -46 -10 -46 -11 0 -61 -35 -97 -67
-36 -33 -136 -28 -145 6 -2 9 -23 25 -45 36 -46 22 -61 48 -40 72 22 27 150
81 178 76 14 -3 53 -18 86 -34z m3801 0 c8 -7 21 -26 30 -42 21 -41 2 -113
-32 -119 -14 -3 -22 -1 -19 6 2 6 -9 11 -26 12 -35 1 -77 36 -83 68 -3 16 -5
14 -6 -7 -1 -19 8 -38 28 -58 33 -33 28 -39 -8 -9 -48 41 -41 132 12 159 26
13 83 7 104 -10z m-5307 -19 c0 -5 -7 -10 -15 -10 -8 0 -15 5 -15 10 0 6 7 10
15 10 8 0 15 -4 15 -10z m10668 -152 c-3 -7 -11 -13 -18 -13 -7 0 -15 6 -17
13 -3 7 4 12 17 12 13 0 20 -5 18 -12z m-10478 -20 c0 -6 -6 -5 -15 2 -8 7
-15 14 -15 16 0 2 7 1 15 -2 8 -4 15 -11 15 -16z m6305 12 c-3 -5 -12 -10 -18
-10 -7 0 -6 4 3 10 19 12 23 12 15 0z m3775 0 c0 -5 -5 -10 -11 -10 -5 0 -7 5
-4 10 3 6 8 10 11 10 2 0 4 -4 4 -10z m-3819 -40 c-13 -11 -28 -20 -33 -20 -6
0 0 9 13 20 13 10 29 19 34 19 6 0 -1 -9 -14 -19z m3794 10 c-3 -5 -11 -10
-16 -10 -6 0 -7 5 -4 10 3 6 11 10 16 10 6 0 7 -4 4 -10z m-34 -43 c-10 -9
-11 -8 -5 6 3 10 9 15 12 12 3 -3 0 -11 -7 -18z m-14888 -18 c37 -51 6 -102
-72 -120 -30 -7 -38 -4 -58 19 -26 30 -27 39 -13 77 11 29 62 56 99 52 13 -1
33 -14 44 -28z m6730 18 c34 -15 63 -56 54 -79 -4 -9 -6 -7 -6 5 -1 9 -6 17
-12 17 -5 0 -7 -5 -4 -11 12 -18 -16 -67 -44 -79 -16 -6 -40 -8 -54 -4 -19 4
-27 2 -27 -7 -1 -19 -19 14 -31 53 -15 54 26 111 84 117 4 1 22 -5 40 -12z
m2657 -17 c32 -30 33 -33 27 -90 -4 -34 -3 -60 3 -62 5 -2 -22 -4 -61 -6 -66
-2 -72 -1 -100 27 -40 41 -40 89 2 130 41 42 85 42 129 1z m-4416 -6 c5 -14 4
-15 -9 -4 -17 14 -19 20 -6 20 5 0 12 -7 15 -16z m50 -43 c-2 -3 -12 3 -22 13
-16 17 -16 18 5 5 12 -7 20 -15 17 -18z m5911 -51 c-3 -5 -12 -10 -18 -10 -7
0 -6 4 3 10 19 12 23 12 15 0z m1122 -16 c31 -20 46 -60 39 -104 -7 -46 -38
-70 -88 -70 -34 0 -47 6 -74 36 -19 19 -34 40 -34 45 0 5 -203 10 -507 10
-285 1 -484 5 -453 10 30 4 257 7 504 8 247 0 449 2 450 3 36 85 95 107 163
62z m657 -5 c14 -11 32 -33 40 -47 26 -54 -16 -123 -74 -121 -27 1 -22 4 23
13 39 9 33 21 -15 32 -39 8 -43 13 -52 48 -6 28 -5 45 3 59 16 25 8 32 -18 15
-25 -15 -35 -46 -29 -88 3 -19 1 -27 -5 -21 -5 5 -9 26 -10 46 -2 71 79 109
137 64z m2461 1 c-3 -5 -10 -10 -16 -10 -5 0 -9 5 -9 10 0 6 7 10 16 10 8 0
12 -4 9 -10z m-10035 -10 c0 -5 -2 -10 -4 -10 -3 0 -8 5 -11 10 -3 6 -1 10 4
10 6 0 11 -4 11 -10z m3583 -11 c25 -11 41 -36 50 -77 7 -30 -13 -92 -30 -92
-12 0 -11 4 1 22 30 42 14 104 -31 126 -41 18 -59 15 -92 -19 -34 -33 -37 -33
-20 5 19 41 74 57 122 35z m-1343 -10 c0 -5 4 -8 9 -4 25 15 22 -88 -3 -114
-18 -17 -69 -19 -88 -3 -8 6 -20 28 -27 48 -13 36 -13 39 13 61 28 24 96 33
96 12z m5515 -29 c-9 -16 -20 -30 -25 -30 -15 0 -12 5 13 34 29 33 31 33 12
-4z m-4177 -8 c33 -21 28 -42 -10 -42 -26 0 -30 -3 -18 -11 11 -8 9 -9 -10 -3
-14 4 -30 7 -35 7 -6 0 -11 8 -11 18 0 18 24 20 58 5 10 -4 23 -6 30 -3 9 3 6
7 -7 12 -33 11 -49 21 -53 33 -4 14 20 7 56 -16z m2115 14 c6 -15 -1 -26 -15
-26 -4 0 -8 9 -8 20 0 23 15 27 23 6z m-2772 -33 c26 -16 28 -21 23 -58 -10
-65 -79 -100 -116 -57 -19 21 -50 107 -32 90 3 -3 16 5 29 18 28 28 56 30 96
7z m2719 2 c0 -8 -4 -15 -10 -15 -5 0 -10 7 -10 15 0 8 5 15 10 15 6 0 10 -7
10 -15z m2080 -19 c0 -2 -7 -7 -16 -10 -8 -3 -12 -2 -9 4 6 10 25 14 25 6z
m-2130 -10 c0 -11 -19 -15 -25 -6 -3 5 1 10 9 10 9 0 16 -2 16 -4z m2084 -40
c-3 -9 -10 -16 -15 -16 -5 0 -4 9 3 20 14 22 21 20 12 -4z m2246 3 c0 -12 -8
-23 -20 -26 -11 -3 -18 -8 -16 -12 3 -4 -4 -12 -15 -19 -30 -19 -25 11 9 48
32 35 42 37 42 9z m-7133 -21 c-3 -7 -5 -2 -5 12 0 14 2 19 5 13 2 -7 2 -19 0
-25z m170 -5 c-3 -10 -5 -4 -5 12 0 17 2 24 5 18 2 -7 2 -21 0 -30z m-4240 -5
c11 -13 24 -33 27 -44 4 -14 18 -24 38 -28 17 -3 374 -6 794 -6 l763 0 47 25
c39 21 44 22 30 6 -17 -19 -17 -20 18 -43 50 -32 45 -41 -10 -18 -44 19 -73
20 -865 20 -669 0 -819 -2 -819 -13 0 -20 -51 -63 -82 -71 -31 -7 -76 8 -94
32 -16 20 -18 86 -4 112 27 50 122 66 157 28z m-1015 -8 c50 -46 7 -132 -65
-132 -79 0 -99 81 -33 134 28 23 72 22 98 -2z m9936 -7 c-26 -31 -63 -75 -141
-168 -41 -49 -154 -184 -252 -300 -97 -115 -202 -241 -232 -278 l-55 -68 21
-172 c32 -262 53 -476 49 -488 -2 -6 -19 116 -37 272 -18 156 -35 303 -38 327
l-6 43 -30 -28 c-31 -28 -29 -20 5 29 14 21 19 42 17 88 -2 56 -5 63 -30 75
-102 54 -88 195 20 195 45 0 65 -15 86 -67 23 -54 19 -88 -11 -112 -15 -12
-33 -21 -40 -21 -10 0 -14 -14 -14 -50 0 -34 4 -50 13 -49 6 0 35 27 62 61 28
33 62 75 76 92 74 87 224 264 243 286 12 14 80 95 151 180 71 85 134 158 140
162 17 13 19 9 3 -9z m-2348 -97 c0 -3 -4 -8 -10 -11 -5 -3 -10 -1 -10 4 0 6
5 11 10 11 6 0 10 -2 10 -4z m-55 -36 c-3 -5 -11 -10 -16 -10 -6 0 -7 5 -4 10
3 6 11 10 16 10 6 0 7 -4 4 -10z m-36 -14 c-2 -2 -15 -9 -29 -15 -24 -11 -24
-11 -6 3 16 13 49 24 35 12z m-4518 -58 c34 -18 57 -34 51 -36 -14 -4 -122 49
-122 60 0 12 3 11 71 -24z m4355 -33 c-10 -8 -23 -12 -29 -8 -11 7 12 23 33
23 12 -1 11 -4 -4 -15z m-116 -44 c0 -14 -18 -23 -30 -16 -6 4 -8 11 -5 16 8
12 35 12 35 0z m967 -7 c-3 -3 -12 -4 -19 -1 -8 3 -5 6 6 6 11 1 17 -2 13 -5z
m363 -341 c102 -100 228 -223 280 -275 52 -51 103 -102 112 -114 14 -16 23
-75 43 -284 14 -145 24 -271 22 -279 -1 -9 -11 63 -21 159 -9 96 -21 197 -27
223 -5 26 -9 69 -9 95 0 26 -6 57 -14 68 -13 18 -213 217 -588 585 -82 79
-148 148 -148 153 0 10 75 -61 350 -331z m-1400 317 c0 -5 -4 -10 -10 -10 -5
0 -10 5 -10 10 0 6 5 10 10 10 6 0 10 -4 10 -10z m-3920 -10 c0 -5 -4 -10 -10
-10 -5 0 -10 5 -10 10 0 6 5 10 10 10 6 0 10 -4 10 -10z m60 -25 c0 -8 -4 -15
-10 -15 -5 0 -10 7 -10 15 0 8 5 15 10 15 6 0 10 -7 10 -15z m6572 -155 c-30
-29 -40 -25 -12 5 13 14 26 23 28 20 3 -3 -4 -14 -16 -25z m107 -2 c17 -17 31
-38 31 -45 0 -7 5 -13 11 -13 10 0 7 -18 -14 -70 -5 -15 -11 -20 -14 -12 -3 6
-14 12 -25 12 -11 0 -33 9 -49 21 -23 16 -29 28 -29 59 0 30 5 40 20 45 25 8
26 22 3 28 -12 3 -9 5 8 6 18 1 37 -10 58 -31z m-7569 13 c28 -5 -59 -9 -233
-10 l-278 -1 -57 -52 c-50 -47 -153 -144 -246 -233 -81 -77 -109 -100 -98 -78
7 12 16 23 22 25 5 1 69 62 142 133 73 72 156 152 185 178 l52 47 233 -1 c128
0 253 -4 278 -8z m4211 -16 c-39 -18 -41 -18 -41 -6 0 5 10 12 23 14 45 9 51
6 18 -8z m-2679 -39 l33 -14 -46 -1 c-52 -1 -109 16 -109 31 0 14 78 3 122
-16z m2458 -16 c-20 -13 -33 -13 -25 0 3 6 14 10 23 10 15 0 15 -2 2 -10z
m-2367 -17 c-7 -2 -19 -2 -25 0 -7 3 -2 5 12 5 14 0 19 -2 13 -5z m-3117 -83
c38 -15 53 -39 54 -86 0 -70 -79 -131 -137 -105 -14 6 -35 9 -47 5 -17 -5 -19
-4 -9 6 7 7 9 25 6 41 -10 52 51 149 94 149 6 0 24 -5 39 -10z m4991 4 c-3 -3
-12 -4 -19 -1 -8 3 -5 6 6 6 11 1 17 -2 13 -5z m2293 -44 c30 -27 233 -221
331 -317 l96 -93 7 -68 c20 -192 36 -381 35 -412 -2 -39 -10 26 -34 275 -8 94
-18 177 -21 186 -2 10 -51 61 -107 115 -247 240 -426 422 -307 314z m-3620 30
c0 -5 -9 -10 -20 -10 -11 0 -20 5 -20 10 0 6 9 10 20 10 11 0 20 -4 20 -10z
m1070 2 c0 -4 16 -6 35 -4 21 3 35 0 35 -7 0 -6 -9 -11 -19 -11 -22 0 -38 -19
-25 -29 5 -3 18 -17 29 -31 11 -14 1 -8 -23 13 -28 25 -49 36 -60 32 -59 -23
-172 -16 -172 10 0 19 34 19 54 0 22 -22 64 -18 98 10 30 25 48 32 48 17z
m203 1 c-7 -2 -21 -2 -30 0 -10 3 -4 5 12 5 17 0 24 -2 18 -5z m4104 1 c-3 -3
-12 -4 -19 -1 -8 3 -5 6 6 6 11 1 17 -2 13 -5z m-4060 -274 c47 -47 128 -129
181 -183 65 -66 99 -94 106 -87 17 17 82 11 109 -10 30 -23 47 -74 40 -114 -8
-38 -57 -76 -100 -76 -25 0 -43 8 -65 31 -29 29 -30 33 -25 96 l5 66 -122 126
c-253 260 -296 305 -296 310 0 6 59 -50 167 -159z m-4432 30 c-10 -11 -22 -20
-26 -20 -5 0 -1 9 8 20 10 11 22 20 27 20 5 0 1 -9 -9 -20z m7718 5 c-3 -9 -8
-14 -10 -11 -3 3 -2 9 2 15 9 16 15 13 8 -4z m3727 -23 c0 -4 10 -12 22 -17
50 -23 44 -67 -11 -73 -27 -3 -70 37 -63 58 10 30 52 56 52 32z m-3760 -15 c0
-2 -10 -12 -22 -23 l-23 -19 19 23 c18 21 26 27 26 19z m-7231 -203 c45 -22
55 -46 37 -88 -17 -40 -53 -55 -92 -37 -19 8 -24 18 -24 49 0 25 8 49 21 66
24 31 18 30 58 10z m1046 -10 c32 -21 38 -40 23 -80 -13 -37 -35 -49 -88 -46
-34 2 -35 2 -11 -11 l24 -14 -30 1 -29 1 0 67 c1 55 5 70 21 82 26 20 60 20
90 0z m4016 -64 c57 -41 57 -139 0 -173 -44 -26 -77 -21 -116 17 -29 27 -35
40 -35 75 0 83 84 128 151 81z m-4028 -97 c-7 -2 -19 -2 -25 0 -7 3 -2 5 12 5
14 0 19 -2 13 -5z m1779 -240 c84 -81 46 -221 -68 -253 -52 -15 -89 -4 -126
39 -35 39 -47 81 -38 130 12 64 19 60 13 -7 -5 -50 -2 -66 15 -94 60 -97 199
-69 232 46 11 39 10 49 -8 89 -38 86 -156 108 -209 38 -7 -10 -12 -11 -13 -4
0 11 41 44 70 56 35 14 95 -4 132 -40z m974 36 c79 -29 116 -137 75 -217 -24
-47 -52 -69 -98 -78 -100 -19 -190 86 -162 191 24 88 105 134 185 104z m3662
-199 c0 -19 -6 6 -13 55 -7 50 -13 106 -13 125 0 19 6 -5 13 -55 7 -49 13
-106 13 -125z m-341 63 c-3 -10 -5 -4 -5 12 0 17 2 24 5 18 2 -7 2 -21 0 -30z
m-350 -40 c-2 -16 -4 -5 -4 22 0 28 2 40 4 28 2 -13 2 -35 0 -50z m360 -50
c-3 -10 -5 -2 -5 17 0 19 2 27 5 18 2 -10 2 -26 0 -35z m-339 -133 c-1 -28 -2
-25 -8 15 -5 28 -8 66 -8 85 1 28 2 25 8 -15 5 -27 8 -66 8 -85z m359 -82 c-2
-13 -4 -5 -4 17 -1 22 1 32 4 23 2 -10 2 -28 0 -40z"/>
<path d="M8232 9805 c-15 -17 -58 -20 -67 -5 -10 16 -25 11 -25 -8 0 -28 20
-42 60 -42 42 0 60 14 60 47 0 26 -9 29 -28 8z"/>
<path d="M8568 8898 c-22 -23 -56 -23 -80 -1 -16 15 -18 15 -18 0 0 -19 30
-37 62 -37 31 0 61 22 57 41 -3 12 -7 12 -21 -3z"/>
<path d="M12915 9130 c-12 -20 4 -56 30 -68 28 -13 63 -4 83 21 15 18 -3 36
-19 20 -15 -15 -58 -3 -73 19 -9 13 -16 16 -21 8z"/>
<path d="M12960 8666 c0 -30 19 -45 62 -52 26 -5 38 -1 52 15 15 17 17 24 8
33 -9 9 -12 9 -12 0 0 -20 -55 -14 -75 8 -24 26 -35 25 -35 -4z"/>
<path d="M6377 8548 c-14 -15 -28 -19 -53 -16 -35 4 -44 -8 -22 -30 31 -31
108 0 108 44 0 29 -9 29 -33 2z"/>
<path d="M7502 8465 c9 -10 21 -16 28 -13 7 2 -1 10 -16 17 -27 12 -28 11 -12
-4z"/>
<path d="M8775 8450 c-48 -19 -126 -80 -620 -484 -211 -172 -251 -209 -275
-256 -25 -50 -28 -68 -45 -374 -8 -143 -16 -260 -17 -261 -2 -1 -41 -29 -88
-62 -100 -71 -111 -82 -143 -148 -17 -35 -27 -76 -32 -135 -7 -92 -4 -86 -93
-147 -103 -70 -156 -135 -175 -214 -4 -15 -16 -143 -27 -285 -29 -380 -14
-331 -131 -420 -98 -74 -134 -116 -158 -184 -16 -46 -64 -564 -56 -615 10 -71
51 -141 132 -225 43 -45 83 -89 88 -98 6 -10 10 -66 10 -127 0 -101 2 -114 27
-155 14 -25 98 -120 186 -210 288 -298 283 -292 277 -320 -24 -115 -14 -197
34 -268 29 -44 227 -255 481 -513 206 -209 148 -193 728 -197 397 -3 471 -1
524 13 61 15 115 43 170 86 l26 21 57 -40 c109 -78 99 -77 645 -77 606 0 543
-16 750 194 223 226 447 463 475 502 39 52 59 131 50 203 -13 118 -37 83 251
379 224 230 229 240 229 393 l0 111 89 94 c91 96 129 158 140 234 8 51 -38
568 -55 615 -23 66 -70 119 -164 189 -79 59 -95 75 -99 103 -3 18 -15 155 -26
305 -12 149 -25 284 -29 300 -24 83 -70 136 -189 217 l-70 48 -7 87 c-5 61
-14 101 -32 136 -32 65 -49 83 -148 152 l-83 57 -6 71 c-3 38 -11 162 -17 275
-6 113 -15 221 -20 241 -16 65 -62 116 -209 235 -80 64 -159 128 -176 143 -64
55 -150 125 -354 290 -176 143 -147 135 -526 139 l-321 3 -78 -41 -79 -40 -36
24 c-80 53 -107 56 -433 55 -274 0 -307 -2 -352 -19z m587 -158 c20 -15 63
-50 96 -78 33 -29 65 -53 72 -56 8 -2 11 -128 10 -463 0 -252 -1 -460 -3 -461
-1 -1 -87 72 -190 163 l-188 166 3 66 3 66 109 3 c112 3 136 10 136 43 0 42
-23 49 -174 49 -184 0 -178 5 -177 -157 l0 -118 55 -50 c31 -27 138 -122 240
-210 l184 -160 1 -142 c1 -79 -1 -143 -4 -143 -6 0 -233 194 -250 214 -6 6
-39 36 -75 66 -109 92 -121 102 -213 185 l-90 79 7 96 c7 107 1 120 -49 120
-44 0 -55 -16 -55 -81 0 -31 -3 -71 -6 -88 l-6 -31 -228 0 -228 0 -59 -47
c-32 -26 -67 -56 -77 -65 -11 -10 -23 -18 -26 -18 -7 0 -4 118 10 347 l8 142
34 29 c18 16 48 42 67 58 l34 28 -7 -156 c-5 -108 -4 -163 4 -177 10 -20 20
-21 156 -21 81 0 154 5 165 10 16 9 19 22 19 89 0 136 -11 121 222 316 116 97
215 178 222 181 6 2 52 -32 101 -76 50 -44 100 -85 113 -92 33 -17 76 0 80 32
2 21 -14 40 -100 112 -57 47 -116 98 -133 112 -46 40 -68 34 -164 -46 -48 -40
-107 -89 -131 -108 -39 -32 -198 -163 -275 -228 -28 -23 -30 -30 -35 -116 l-5
-91 -65 0 -65 0 1 113 c1 63 5 142 9 177 l6 64 132 108 c72 59 172 143 223
185 57 47 103 78 121 80 15 2 112 4 214 5 l187 2 34 -27z m1034 -30 c38 -31
81 -66 95 -77 15 -11 88 -70 162 -132 74 -61 144 -119 154 -127 10 -8 75 -63
145 -121 l126 -107 6 -101 c15 -260 26 -475 26 -503 0 -27 15 -44 125 -139
141 -123 140 -121 133 -260 l-4 -84 48 -47 c27 -26 46 -50 42 -53 -3 -3 -26
17 -50 44 -37 43 -44 47 -44 28 0 -13 3 -23 8 -23 4 0 8 -11 8 -25 2 -34 -14
-32 -19 3 -3 21 -5 19 -7 -13 l-2 -40 -9 50 c-5 28 -13 106 -18 174 -5 68 -13
126 -19 130 -21 13 -80 61 -229 186 -7 5 -18 15 -25 20 -34 26 -109 87 -120
98 -7 7 -36 31 -64 55 l-52 42 -151 0 -151 0 -42 -37 c-24 -21 -88 -78 -143
-128 -56 -49 -136 -121 -180 -160 -44 -38 -129 -115 -190 -170 -61 -55 -132
-119 -158 -142 -37 -33 -47 -49 -47 -73 0 -37 8 -34 72 25 158 147 262 235
278 235 10 0 85 -60 166 -132 234 -208 258 -228 275 -228 8 0 26 11 39 25 32
34 48 31 94 -15 l40 -38 -35 -40 c-19 -22 -41 -41 -49 -41 -8 -1 -31 13 -50
29 -19 16 -46 30 -60 30 -23 0 -58 27 -255 199 -17 14 -61 52 -98 84 l-67 58
-92 -82 c-171 -151 -223 -197 -247 -218 -13 -12 -35 -21 -48 -21 -22 0 -23 2
-23 94 l0 94 53 50 c28 28 63 60 77 72 14 12 56 49 94 83 38 34 79 70 90 80
12 10 35 31 51 45 57 52 320 287 339 305 19 17 19 17 -11 17 -24 0 -55 -21
-154 -106 -68 -59 -137 -119 -154 -135 -16 -15 -73 -65 -125 -110 -52 -45
-113 -98 -135 -118 -22 -20 -67 -58 -100 -86 -33 -27 -65 -57 -72 -65 -15 -19
-18 -366 -3 -375 5 -3 34 18 63 47 30 29 80 76 113 105 32 28 75 66 94 85 182
170 191 176 228 141 10 -10 36 -33 58 -52 21 -19 62 -55 89 -80 28 -25 69 -61
90 -80 22 -19 83 -74 137 -123 53 -48 98 -88 101 -88 5 0 27 20 197 179 122
115 237 220 250 229 5 3 -8 15 -110 101 -29 25 -58 50 -64 55 -6 6 -27 23 -48
38 -20 15 -42 33 -50 41 -7 7 -55 48 -106 91 l-93 78 -27 -24 c-15 -13 -53
-49 -85 -79 -32 -30 -63 -55 -68 -57 -18 -7 -9 -27 23 -52 17 -14 48 -40 67
-59 20 -18 51 -45 69 -58 l32 -25 35 26 c19 15 35 32 35 38 0 19 -34 37 -71
38 -56 0 -71 17 -67 75 l3 50 65 0 65 0 6 -38 c4 -26 19 -52 48 -81 l42 -43
-48 -46 c-104 -99 -112 -102 -153 -64 -14 12 -72 62 -130 111 -58 48 -109 95
-113 102 -9 15 -1 24 140 152 99 90 114 101 133 102 8 0 67 -46 131 -103 64
-56 136 -118 159 -137 24 -19 62 -53 85 -75 24 -22 60 -53 81 -70 44 -35 84
-73 84 -81 0 -4 -30 -34 -67 -68 -36 -33 -90 -83 -119 -111 -28 -27 -100 -95
-159 -150 -60 -55 -118 -110 -131 -122 -30 -29 -42 -29 -80 5 -17 15 -87 74
-155 132 -68 58 -165 142 -217 188 -51 45 -96 82 -100 82 -4 0 -28 -20 -53
-43 -41 -38 -153 -139 -205 -184 -27 -23 -160 -142 -191 -169 -23 -21 -23 -23
-23 -246 l0 -225 63 -54 c34 -29 69 -60 77 -69 8 -8 60 -56 115 -105 148 -132
174 -156 226 -205 l46 -45 7 -445 c3 -245 9 -527 12 -627 l6 -182 92 -90 c50
-49 110 -106 133 -126 23 -20 45 -45 48 -54 4 -13 -33 -57 -140 -164 -80 -81
-154 -147 -164 -147 -10 0 -29 12 -43 28 -42 45 -466 462 -471 462 -3 0 -2
-39 1 -87 l5 -86 52 -51 c265 -261 247 -246 303 -246 58 0 62 -6 62 -85 0 -64
-13 -75 -87 -75 -60 0 -73 12 -73 65 0 39 -6 46 -128 168 -71 70 -130 127
-133 127 -2 0 -3 -40 -1 -89 l3 -90 97 -94 c53 -52 110 -107 126 -121 l29 -26
402 0 402 0 214 216 c280 282 274 276 286 299 7 12 9 51 5 94 l-5 75 -292
-297 -292 -297 -171 0 c-165 0 -171 1 -177 21 -6 18 13 42 109 138 115 115
116 117 116 163 0 35 5 50 18 56 20 11 118 9 129 -2 5 -4 8 -38 8 -74 l0 -67
-53 -5 c-50 -5 -57 -10 -130 -83 l-77 -77 97 0 97 0 413 416 c227 228 480 484
561 567 l149 152 -6 127 -7 126 127 126 c125 124 126 125 120 163 -3 21 -10
124 -16 228 l-10 190 -43 40 c-24 22 -67 60 -96 85 -30 25 -64 55 -77 68 -27
25 -43 21 -80 -20 -12 -12 -110 -110 -218 -217 l-197 -195 11 -180 c5 -100 10
-200 10 -223 0 -43 0 -43 36 -43 l35 0 -6 153 -7 152 161 160 c156 155 161
161 161 201 0 37 3 42 28 47 15 3 46 3 69 0 45 -6 53 -18 53 -80 0 -35 -8 -39
-79 -47 -28 -3 -56 -27 -182 -157 l-149 -154 5 -50 c2 -27 7 -103 10 -168 l6
-117 -33 0 c-18 0 -116 -1 -218 -3 -151 -2 -189 1 -206 13 -18 13 -95 82 -213
190 -16 14 -72 66 -126 115 -54 50 -122 111 -149 137 -28 26 -54 48 -58 48 -5
0 -8 53 -8 118 0 65 -3 228 -7 361 l-6 241 -27 28 c-14 15 -44 41 -66 59 -21
18 -61 53 -89 78 -27 25 -58 48 -70 51 -11 3 -60 4 -109 2 l-89 -3 2 -200 c1
-110 5 -203 7 -207 3 -4 30 -8 60 -8 l54 0 0 103 c0 102 0 104 -30 132 -16 16
-30 32 -30 37 0 4 16 24 36 43 43 44 69 42 114 -8 l29 -32 -31 -32 -30 -31 1
-126 c2 -148 12 -139 -139 -134 l-95 3 -5 248 c-3 150 -1 252 5 258 5 5 70 9
145 9 l135 0 60 -51 c33 -28 97 -85 141 -126 l81 -74 8 -277 c6 -245 9 -278
25 -292 9 -8 42 -37 72 -65 412 -378 467 -425 499 -425 16 0 32 6 34 13 3 6 1
95 -4 197 l-9 185 121 118 c67 65 182 175 255 245 139 132 144 141 126 210 -7
23 -34 31 -34 9 0 -7 -63 -73 -139 -146 -137 -130 -140 -134 -143 -179 l-3
-47 -55 -1 c-75 -2 -87 8 -82 74 3 45 7 52 25 53 85 5 82 3 243 157 173 166
193 184 212 180 19 -4 30 -56 31 -148 l1 -56 -201 -199 c-111 -110 -222 -220
-247 -244 l-44 -45 6 -125 c10 -197 10 -290 2 -298 -4 -5 -40 -8 -80 -8 l-73
0 -89 80 c-49 44 -111 101 -139 127 -27 25 -61 56 -75 68 -65 56 -175 157
-189 173 -9 9 -20 17 -27 17 -13 0 -11 -57 2 -69 5 -4 43 -38 84 -76 41 -37
91 -82 110 -99 162 -145 260 -234 286 -258 31 -29 34 -29 140 -30 108 0 109 1
109 24 0 12 -4 119 -8 236 l-9 213 163 157 c90 86 201 193 247 238 l83 81 -8
182 c-4 101 -5 185 0 188 4 2 7 -13 7 -34 0 -65 19 -76 22 -13 1 53 2 52 8
-20 4 -41 11 -124 15 -185 9 -124 3 -114 138 -230 157 -134 145 -119 152 -193
3 -37 10 -110 15 -162 5 -52 12 -135 15 -185 l6 -90 -122 -125 -122 -125 7
-129 7 -129 -194 -196 c-107 -108 -220 -223 -251 -256 l-58 -60 5 -135 5 -135
-152 -154 c-83 -85 -205 -210 -272 -278 l-121 -123 -438 0 -437 0 -144 142
c-106 105 -144 150 -145 168 -1 14 0 1072 0 2352 l1 2326 58 50 c31 28 88 75
126 106 l69 56 252 0 252 0 69 -58z m-1449 -1084 c65 -56 120 -105 123 -108 3
-3 54 -48 115 -100 109 -95 130 -113 235 -206 31 -27 70 -61 88 -76 l32 -27 0
-155 c0 -86 -2 -156 -5 -156 -7 0 -90 74 -270 240 -121 111 -151 131 -181 124
-24 -6 -79 -49 -190 -149 -82 -74 -281 -243 -299 -254 -22 -14 -30 -8 -216
165 -106 98 -194 184 -195 189 -2 6 27 35 63 65 36 30 91 78 122 105 57 51
141 123 196 170 17 14 35 25 40 25 11 -1 155 -132 155 -142 0 -4 -44 -43 -97
-87 l-97 -81 -125 0 c-102 0 -128 -3 -143 -17 -26 -23 -23 -59 7 -79 22 -14
46 -16 166 -11 151 6 154 7 223 71 21 19 75 67 121 106 46 39 86 77 89 86 9
24 -6 44 -86 114 -40 36 -80 72 -88 80 -8 9 -35 32 -59 52 -36 31 -48 36 -75
31 -17 -4 -36 -11 -42 -17 -23 -22 -80 -72 -124 -107 -25 -20 -61 -51 -80 -68
-19 -17 -94 -79 -166 -138 -73 -60 -137 -118 -144 -130 -20 -35 -4 -63 79
-138 67 -62 287 -264 331 -305 110 -103 125 -108 187 -57 45 36 321 279 398
351 55 50 58 52 77 34 7 -7 56 -51 108 -98 112 -101 92 -82 218 -199 l102 -93
0 -210 c0 -156 -3 -212 -13 -221 -7 -7 -35 -32 -62 -56 -28 -25 -95 -85 -150
-135 -54 -50 -124 -113 -155 -141 -30 -27 -76 -70 -101 -95 l-46 -45 -7 -290
c-3 -159 -9 -445 -12 -634 -7 -334 -7 -344 -29 -365 -12 -11 -74 -70 -138
-130 -101 -94 -117 -113 -117 -140 0 -27 21 -52 153 -184 110 -109 160 -152
177 -152 16 0 59 35 144 119 188 184 337 326 347 329 5 2 9 -72 9 -176 l0
-180 -127 -121 -126 -122 -389 3 -388 2 -134 135 c-74 75 -186 190 -250 256
-113 117 -116 121 -116 165 l0 45 88 -88 c94 -94 123 -106 162 -67 45 45 59
30 -533 630 l-217 220 6 130 7 129 -121 122 -122 121 0 59 c0 32 5 61 11 65 6
3 8 16 5 27 -3 12 0 80 5 152 11 126 12 131 43 163 43 46 64 56 82 41 9 -7 14
-8 14 -1 0 6 -5 14 -11 17 -9 6 76 95 91 95 4 0 16 -13 28 -30 13 -16 29 -30
37 -30 8 0 15 -6 15 -14 0 -7 10 -21 23 -29 12 -8 91 -82 176 -164 l154 -149
-13 -248 c-11 -231 -11 -249 6 -267 16 -17 32 -19 181 -19 142 0 165 2 181 18
10 9 40 37 68 61 27 25 94 86 148 135 55 50 127 116 160 146 34 30 89 82 123
115 l63 60 6 355 7 355 31 28 c70 65 170 153 185 164 10 7 49 12 99 13 l82 0
0 -180 0 -180 -70 0 -70 0 0 103 c0 115 -6 127 -58 127 -55 0 -61 -17 -62
-169 0 -181 -11 -171 191 -171 152 0 158 1 173 22 14 19 16 62 16 273 0 182
-3 254 -12 263 -8 8 -61 12 -174 12 l-161 0 -141 -125 c-100 -89 -142 -133
-146 -153 -2 -15 -8 -177 -11 -361 l-7 -334 -31 -26 c-17 -14 -39 -33 -47 -41
-26 -24 -119 -109 -220 -200 -52 -47 -120 -109 -151 -137 l-56 -53 -93 0 -93
0 7 123 c3 67 9 170 12 228 l6 107 -192 188 c-106 104 -217 213 -247 242 l-54
53 7 134 c4 73 10 139 15 146 5 9 29 -8 81 -57 328 -314 316 -304 347 -304 57
0 71 32 71 167 0 59 3 131 6 160 6 48 8 51 25 40 9 -7 95 -87 189 -177 l173
-165 -7 -93 c-6 -91 -7 -94 -43 -125 -20 -18 -41 -36 -48 -42 -6 -5 -21 -19
-34 -30 l-23 -20 3 189 c4 211 3 215 -63 202 -26 -5 -38 -13 -41 -29 -13 -53
-31 -519 -20 -535 7 -11 24 -17 50 -17 36 0 49 8 124 75 46 41 113 103 149
137 l65 62 3 143 4 144 -42 37 c-39 34 -271 252 -420 395 -60 58 -67 62 -100
57 -19 -4 -39 -11 -45 -16 -5 -5 -13 -87 -18 -182 -5 -94 -11 -174 -13 -175
-3 -4 -215 200 -316 303 -44 45 -48 53 -44 85 3 19 6 57 6 83 0 38 5 53 23 68
12 10 40 35 62 54 l40 35 5 -52 c3 -29 9 -59 13 -65 10 -15 46 -17 80 -4 29
11 30 23 46 315 5 92 13 161 20 165 6 4 32 25 58 48 26 23 131 112 232 197
l185 156 217 0 218 0 118 -102z m1742 -40 c53 -45 101 -87 107 -93 10 -10 34
-30 189 -162 39 -33 95 -83 125 -111 30 -29 63 -54 73 -58 12 -4 17 -13 14
-24 -3 -11 1 -17 12 -16 13 1 17 -11 19 -59 l2 -60 -97 -90 c-85 -79 -180
-169 -303 -285 -20 -19 -73 -70 -117 -113 -92 -89 -93 -89 -170 -17 -27 25
-82 74 -123 110 -41 36 -88 77 -105 91 -111 98 -161 139 -168 139 -5 0 -25
-14 -46 -30 -31 -26 -37 -35 -33 -60 6 -45 -12 -60 -72 -60 -29 0 -57 5 -64
12 -7 7 -12 33 -12 59 0 52 8 59 67 59 27 0 47 10 92 50 32 28 60 50 64 50 10
0 220 -185 406 -357 31 -29 61 -53 68 -53 6 0 36 24 66 53 30 28 87 81 127
117 40 36 80 73 90 83 10 11 24 15 36 11 15 -5 16 -4 4 4 -16 12 -17 11 131
142 46 41 89 80 96 86 6 6 13 29 14 52 3 35 -1 44 -26 64 -17 12 -35 27 -41
33 -6 5 -31 26 -55 46 -66 55 -408 340 -444 371 l-31 26 -85 -75 c-46 -42
-119 -108 -163 -147 -43 -39 -82 -72 -87 -74 -11 -4 -12 -32 -1 -32 4 0 26
-17 49 -38 22 -20 63 -56 90 -79 26 -22 59 -52 73 -65 83 -79 100 -88 160 -88
49 0 63 4 95 30 21 17 41 30 45 30 4 0 27 -18 50 -40 47 -44 47 -38 -5 -96
-23 -24 -50 -24 -79 1 -26 22 -38 25 -112 25 l-83 0 -88 76 c-158 136 -196
168 -234 199 -49 39 -60 72 -30 96 17 14 108 95 195 174 6 6 49 44 96 85 47
41 87 78 88 83 9 19 42 0 131 -75z m671 -738 c5 0 10 3 13 8 2 4 2 2 1 -5 -2
-7 1 -15 6 -18 6 -4 10 -1 10 4 0 6 7 11 15 11 18 0 19 -12 3 -28 -14 -14 -48
-16 -48 -3 0 5 -6 16 -14 24 -10 9 -12 23 -8 38 7 24 7 24 10 -3 2 -16 7 -28
12 -28z m-60 -40 c0 -5 -4 -10 -10 -10 -5 0 -10 5 -10 10 0 6 5 10 10 10 6 0
10 -4 10 -10z m50 0 c0 -5 -4 -10 -10 -10 -5 0 -10 5 -10 10 0 6 5 10 10 10 6
0 10 -4 10 -10z m90 0 c0 -5 -2 -10 -4 -10 -3 0 -8 5 -11 10 -3 6 -1 10 4 10
6 0 11 -4 11 -10z m-320 -30 c0 -5 7 -10 15 -10 8 0 15 -4 15 -10 0 -5 -8 -7
-17 -3 -19 7 -18 5 11 -17 13 -10 17 -10 12 -2 -10 16 4 15 28 -3 10 -7 15
-18 11 -24 -3 -6 0 -9 7 -6 8 3 23 -3 35 -14 16 -15 23 -41 33 -120 11 -95 13
-100 32 -90 10 6 21 16 24 23 3 7 19 23 35 35 24 18 33 20 45 10 12 -10 3 -23
-58 -85 -45 -46 -81 -74 -94 -74 -20 0 -22 6 -29 128 -3 71 -10 133 -13 138
-4 5 -28 26 -55 47 l-47 39 -153 -151 c-83 -84 -212 -211 -284 -283 l-133
-132 1 -111 c1 -147 11 -212 35 -229 22 -16 31 -24 202 -178 71 -65 133 -118
137 -118 4 0 4 94 0 208 l-8 208 27 27 c24 24 26 33 26 110 0 79 -1 85 -30
112 -16 16 -30 34 -30 40 0 14 68 75 83 75 17 0 87 -64 87 -78 0 -7 -12 -24
-26 -39 -23 -23 -25 -31 -24 -107 3 -106 4 -100 -27 -136 l-26 -32 12 -239 c7
-131 9 -243 6 -249 -8 -13 -36 -12 -56 3 -9 7 -56 48 -104 92 -48 44 -93 85
-99 90 -177 160 -223 202 -232 214 -7 10 -12 77 -13 187 l-2 171 53 51 c213
204 395 379 461 444 93 92 127 116 127 88z m227 -2 c5 14 23 17 23 3 0 -13
-27 -21 -45 -15 -8 4 -15 11 -15 16 0 6 7 4 17 -3 13 -11 17 -11 20 -1z m55
-18 c-23 -22 -42 -26 -42 -10 0 6 6 10 14 10 7 0 19 7 26 15 7 9 15 13 18 10
3 -3 -4 -14 -16 -25z m178 -53 c0 -19 -10 -27 -26 -20 -11 4 -12 9 -3 19 15
18 29 18 29 1z m57 -9 c-3 -8 -6 -5 -6 6 -1 11 2 17 5 13 3 -3 4 -12 1 -19z
m-121 -24 c-5 -12 -1 -14 17 -8 22 7 22 7 3 -15 -11 -12 -26 -19 -33 -17 -8 3
-13 0 -11 -7 2 -7 -12 -27 -29 -46 -30 -31 -33 -32 -49 -17 -19 20 -11 34 9
18 11 -9 19 -6 37 13 25 27 12 35 -14 9 -9 -8 -16 -12 -16 -8 0 7 81 93 89 94
2 0 0 -7 -3 -16z m-362 -146 c3 -50 6 -119 6 -153 0 -73 10 -155 19 -155 3 0
42 34 85 76 78 74 95 80 96 34 0 -17 -199 -210 -217 -210 -26 0 -32 41 -30
188 1 82 -2 148 -6 145 -5 -3 -7 17 -6 43 2 31 -1 49 -8 49 -6 0 -89 -76 -186
-170 -96 -93 -192 -185 -212 -204 l-36 -34 6 -106 7 -106 53 -53 c29 -29 56
-49 58 -44 3 4 3 52 0 106 -6 92 -8 100 -35 124 -15 14 -28 31 -28 37 0 7 18
29 40 49 43 39 50 38 95 -1 42 -37 47 -50 33 -72 -7 -12 -18 -21 -25 -21 -16
0 -16 6 -17 -175 -1 -145 -2 -150 -22 -150 -11 0 -52 28 -90 62 -38 34 -82 72
-97 86 -28 23 -28 27 -34 153 l-5 129 98 91 c55 51 139 131 188 178 49 47 93
86 98 86 4 0 8 5 8 11 0 6 7 8 16 5 8 -3 12 -2 9 4 -3 5 8 19 25 31 16 13 30
28 30 35 0 14 49 33 66 27 6 -2 14 -43 18 -95z m493 50 c-3 -7 -5 -2 -5 12 0
14 2 19 5 13 2 -7 2 -19 0 -25z m-47 -19 c0 -5 -9 -4 -19 3 -11 7 -17 16 -14
20 5 10 33 -10 33 -23z m-32 -12 c8 -9 0 -23 -33 -55 -24 -23 -51 -42 -60 -42
-9 0 -13 -4 -10 -10 10 -16 -67 -82 -78 -67 -5 7 -6 3 -2 -10 8 -28 -6 -30
-23 -3 -11 17 -9 23 14 42 14 13 53 49 86 81 34 31 62 57 64 57 2 0 1 -7 -2
-15 -5 -11 -2 -13 10 -9 11 4 15 13 11 25 -7 22 7 25 23 6z m-1305 -189 c20
-18 37 -37 37 -43 0 -5 -14 -23 -30 -40 l-31 -32 7 -247 c6 -219 9 -249 26
-268 10 -11 18 -36 18 -53 0 -29 14 -46 117 -141 65 -60 123 -113 129 -119 6
-5 33 -30 60 -55 43 -39 92 -84 292 -266 24 -21 48 -40 55 -40 7 -1 31 -2 54
-3 42 -1 42 -1 49 -46 3 -25 3 -56 0 -70 -6 -23 -10 -25 -69 -25 -73 0 -87 10
-87 60 0 32 -8 43 -77 105 -42 39 -93 86 -113 105 -20 19 -66 61 -101 94 -394
360 -379 344 -379 389 0 21 -6 44 -13 52 -11 10 -16 77 -21 277 l-7 263 -30
29 -30 28 23 26 c55 62 69 65 121 20z m-169 -334 c20 -20 36 -40 36 -44 0 -14
-74 -80 -90 -80 -18 0 -90 66 -90 82 0 18 70 78 90 78 10 0 34 -16 54 -36z
m-554 -507 c0 -505 -1 -534 -18 -553 -17 -17 -36 -34 -111 -99 l-23 -20 3 446
c3 364 1 450 -10 463 -17 20 -61 21 -87 2 -18 -14 -19 -34 -24 -538 -3 -288
-2 -531 3 -541 4 -10 20 -22 34 -28 29 -11 52 1 113 57 69 63 105 94 113 94 4
0 7 -71 7 -158 l0 -159 -172 -170 c-95 -93 -192 -187 -214 -209 -23 -21 -58
-54 -77 -73 l-36 -34 -85 84 c-47 45 -86 88 -86 93 0 6 54 63 121 126 l121
115 10 635 9 635 37 35 c21 19 87 80 147 135 61 55 133 121 160 147 28 26 53
48 58 48 4 0 7 -240 7 -533z m2233 110 l38 -40 -23 -26 c-13 -14 -60 -65 -106
-114 -75 -79 -82 -90 -78 -120 3 -17 8 -80 11 -139 l6 -107 -457 -461 c-252
-253 -464 -460 -471 -460 -7 0 -57 42 -110 93 -54 51 -129 122 -167 158 -38
35 -92 87 -121 114 l-52 50 -6 295 c-11 496 -10 617 9 624 20 8 27 3 89 -54
28 -26 82 -75 120 -111 39 -35 82 -75 96 -89 15 -14 65 -59 110 -100 167 -149
159 -138 159 -216 0 -62 2 -70 23 -79 20 -9 22 -17 22 -75 l0 -65 -65 -3 c-76
-4 -90 8 -90 74 0 52 8 74 26 74 10 0 14 15 14 60 0 51 -4 65 -23 83 -13 12
-50 47 -83 77 -33 30 -111 103 -174 162 -120 111 -169 153 -174 147 -1 -2 2
-177 7 -389 l9 -385 66 -65 c131 -127 304 -285 313 -285 5 0 200 191 435 425
l426 425 -6 140 -6 140 96 100 c76 78 94 102 87 114 -21 33 -42 19 -143 -86
l-102 -107 7 -142 7 -142 -395 -396 c-216 -218 -399 -396 -406 -396 -12 0 -35
20 -241 214 l-73 68 -7 282 c-4 154 -6 286 -3 293 9 23 35 23 63 -1 27 -22 51
-44 151 -137 l39 -37 0 -81 c0 -73 2 -81 19 -81 13 0 21 -9 25 -27 8 -46 5
-97 -6 -110 -13 -17 -120 -17 -136 -1 -7 7 -12 36 -12 65 0 42 4 55 20 65 17
11 20 24 20 79 l0 67 -52 51 c-28 28 -54 51 -58 51 -3 0 -5 -100 -2 -222 l4
-223 116 -112 c65 -62 122 -112 127 -113 6 0 175 165 377 368 283 283 367 372
363 387 -2 11 -6 72 -9 135 l-6 116 136 137 135 138 27 -17 c15 -9 44 -35 65
-57z"/>
<path d="M9838 8263 c-1 -5 -34 -35 -73 -68 -38 -33 -82 -71 -97 -85 l-28 -26
-2 -407 c-2 -224 -1 -407 0 -407 4 0 105 84 138 115 12 11 45 40 73 64 74 63
70 71 -43 71 -52 0 -101 3 -110 6 -14 5 -16 39 -15 283 l0 276 70 55 c138 109
107 100 326 100 l194 0 87 -72 c48 -40 95 -80 106 -88 10 -8 42 -35 71 -60 29
-25 75 -63 103 -85 35 -27 51 -47 52 -64 0 -13 11 -32 25 -43 33 -25 32 -53
-2 -83 -37 -32 -66 -31 -109 3 -40 32 -43 56 -9 78 36 23 31 44 -23 86 -26 21
-58 48 -72 60 -14 13 -75 65 -137 116 l-112 92 -179 0 -178 0 -50 -45 c-27
-24 -52 -44 -55 -45 -19 -1 -46 -38 -43 -60 1 -14 3 -121 3 -237 l1 -213 104
0 c116 0 116 0 116 -74 0 -39 -4 -46 -54 -87 -215 -178 -275 -234 -275 -263
-1 -27 2 -26 82 45 45 40 87 78 92 84 6 6 24 21 40 33 17 13 67 58 113 100
l83 76 -3 80 -3 81 -52 1 c-39 1 -53 -2 -53 -12 0 -18 -35 -26 -96 -22 l-49 3
0 60 0 60 62 3 c51 2 64 0 75 -16 11 -16 26 -19 85 -19 43 0 79 -6 88 -13 12
-10 15 -37 15 -124 l0 -112 -52 -45 c-28 -24 -90 -78 -137 -119 -47 -41 -99
-87 -116 -101 -16 -14 -61 -54 -100 -89 l-70 -63 -5 -166 c-3 -91 -2 -170 2
-176 5 -5 8 -4 8 3 0 7 4 12 8 12 5 0 34 24 64 53 45 42 196 175 338 297 59
50 147 128 192 169 l48 43 0 72 c0 39 -3 101 -7 139 -5 59 -8 67 -27 67 -20 0
-21 -4 -17 -97 l3 -97 -38 -34 c-22 -19 -105 -93 -186 -165 -140 -124 -148
-133 -148 -168 0 -40 -14 -49 -75 -49 -65 0 -75 8 -75 59 0 57 12 71 63 71 33
0 49 9 110 63 40 34 74 64 77 67 3 3 43 39 90 80 47 41 90 82 97 90 8 10 12
53 13 123 0 78 3 107 13 108 41 3 148 0 155 -5 5 -3 13 -73 17 -156 l7 -149
31 -5 c18 -3 41 -5 52 -4 11 1 103 1 205 0 l185 -2 30 -28 c17 -15 44 -38 60
-51 17 -12 48 -39 69 -59 l39 -36 -6 155 c-4 85 -10 211 -13 280 l-7 126 -34
28 -35 27 6 -73 c3 -41 7 -126 8 -189 l3 -115 -259 -3 c-174 -1 -263 1 -270 8
-6 6 -13 64 -15 130 -4 136 15 105 -152 247 l-97 81 -113 0 c-101 -1 -116 -3
-127 -20 -12 -16 -24 -18 -75 -16 l-62 3 0 60 0 60 62 3 c54 3 64 0 75 -18 12
-18 23 -20 145 -20 123 0 134 -2 157 -22 13 -13 60 -52 103 -88 43 -36 84 -71
92 -78 8 -7 24 -20 37 -29 23 -15 24 -21 24 -129 l0 -114 206 0 206 0 -6 103
c-4 56 -7 137 -8 180 -1 61 -5 84 -20 103 -29 37 -38 29 -33 -28 3 -29 6 -111
8 -183 l2 -130 -130 -3 c-71 -1 -140 0 -151 2 -20 5 -22 15 -28 115 -7 101 -9
111 -34 133 -15 12 -93 78 -173 146 l-146 122 -120 0 c-97 0 -123 -3 -133 -15
-10 -12 -29 -15 -74 -13 l-61 3 -5 35 c-12 78 0 88 93 82 32 -3 47 -8 47 -18
0 -11 26 -14 139 -14 129 0 140 -1 163 -22 14 -13 43 -37 64 -55 70 -57 179
-147 190 -158 6 -5 34 -30 62 -54 51 -43 52 -44 52 -100 0 -31 3 -73 6 -93 l7
-38 85 0 85 0 -7 148 c-11 242 -2 219 -125 320 -58 47 -108 89 -111 92 -3 3
-39 32 -80 65 -41 33 -95 77 -119 97 l-44 38 -228 0 c-125 0 -229 -3 -231 -7z"/>
<path d="M11352 6688 c-1 -20 -5 -45 -8 -55 -5 -17 -5 -17 6 0 6 9 9 34 7 55
l-4 37 -1 -37z"/>
<path d="M11342 6580 c0 -14 2 -19 5 -12 2 6 2 18 0 25 -3 6 -5 1 -5 -13z"/>
<path d="M9631 4803 l1 -818 257 -252 c141 -139 259 -252 262 -253 3 0 55 47
114 106 l107 105 -131 127 -131 127 -5 460 c-3 253 -8 538 -11 633 l-6 174
-35 31 c-20 18 -50 45 -67 61 -17 15 -71 65 -120 110 -49 44 -118 109 -155
144 -36 34 -69 62 -74 62 -5 0 -7 -368 -6 -817z m260 517 c15 -9 19 -22 19
-64 0 -61 -6 -66 -75 -66 -26 0 -47 -6 -55 -15 -10 -12 -12 -103 -7 -427 l5
-411 23 -18 c13 -10 27 -19 30 -19 3 0 6 183 5 408 l-1 407 92 3 92 3 5 -33
c3 -18 8 -304 12 -636 l6 -603 46 -44 c39 -37 54 -45 85 -45 64 0 77 -13 77
-75 0 -82 -3 -85 -74 -85 -35 0 -67 5 -74 12 -7 7 -12 31 -12 54 0 40 -5 47
-76 116 -42 40 -101 99 -132 131 -52 53 -59 57 -102 57 -25 0 -51 5 -58 12 -7
7 -12 35 -12 63 0 28 5 56 12 63 7 7 37 12 68 12 31 0 61 -5 68 -12 7 -7 12
-32 12 -58 1 -42 4 -47 50 -83 l50 -38 -1 328 c-1 180 -4 436 -8 568 l-6 240
-25 0 -25 0 -1 -425 c-1 -234 -2 -431 -3 -437 -2 -30 -51 -10 -119 47 l-72 61
0 441 0 440 25 20 c20 15 25 28 25 63 0 25 5 45 13 48 22 10 98 7 118 -3z"/>
<path d="M7661 6334 c0 -11 3 -14 6 -6 3 7 2 16 -1 19 -3 4 -6 -2 -5 -13z"/>
<path d="M7395 5540 c-3 -6 1 -13 10 -16 21 -9 26 -2 10 13 -9 8 -16 9 -20 3z"/>
<path d="M7330 5472 c0 -5 7 -13 16 -16 10 -4 14 -1 12 6 -5 15 -28 23 -28 10z"/>
<path d="M7327 5429 c4 -13 9 -17 15 -11 11 11 3 32 -12 32 -4 0 -6 -9 -3 -21z"/>
<path d="M7321 5374 c0 -11 3 -14 6 -6 3 7 2 16 -1 19 -3 4 -6 -2 -5 -13z"/>
<path d="M7351 5374 c0 -11 3 -14 6 -6 3 7 2 16 -1 19 -3 4 -6 -2 -5 -13z"/>
<path d="M7455 5312 c-6 -4 -16 -19 -24 -34 -11 -22 -12 -30 -2 -42 7 -8 9
-21 5 -27 -4 -7 -3 -9 4 -6 5 4 62 -45 126 -109 94 -93 115 -119 111 -137 -3
-12 -7 -67 -8 -122 l-2 -100 397 -394 c218 -217 402 -398 410 -402 39 -25 70
-2 314 236 l61 60 6 273 c6 281 4 307 -33 315 -35 7 -65 -9 -133 -73 -40 -37
-85 -79 -102 -94 -101 -91 -125 -119 -125 -147 0 -29 31 -59 61 -59 17 0 60
34 158 125 l54 50 -7 -170 -7 -170 -106 -103 -106 -104 -359 359 -358 358 6
121 7 121 -32 34 c-18 19 -80 82 -138 142 -90 90 -111 107 -137 107 -17 0 -36
-4 -41 -8z"/>
<path d="M7331 5264 c0 -11 3 -14 6 -6 3 7 2 16 -1 19 -3 4 -6 -2 -5 -13z"/>
<path d="M7395 5270 c3 -5 8 -10 11 -10 2 0 4 5 4 10 0 6 -5 10 -11 10 -5 0
-7 -4 -4 -10z"/>
<path d="M11480 6035 c-10 -12 -10 -15 4 -15 9 0 16 7 16 15 0 8 -2 15 -4 15
-2 0 -9 -7 -16 -15z"/>
<path d="M6740 7828 c-16 -21 -51 -26 -85 -14 -17 7 -17 5 4 -13 13 -12 31
-21 41 -21 25 0 63 33 59 52 -3 13 -6 13 -19 -4z"/>
<path d="M6406 7415 c-15 -23 -23 -26 -57 -23 -44 4 -52 -8 -14 -22 31 -12 70
2 85 30 18 33 6 46 -14 15z"/>
<path d="M14656 5614 c-23 -22 -20 -45 9 -77 29 -31 74 -36 99 -11 21 21 21
21 -18 16 -27 -3 -37 1 -55 24 -13 16 -19 35 -16 46 8 22 1 23 -19 2z"/>
<path d="M15457 4395 c9 -24 55 -43 83 -34 20 6 21 7 5 8 -11 1 -33 10 -50 21
-36 24 -46 25 -38 5z"/>
<path d="M13811 4424 c-24 -20 -31 -34 -31 -62 0 -102 122 -161 191 -93 44 44
41 92 -10 142 -49 49 -102 54 -150 13z"/>
<path d="M13110 4311 c-29 -55 6 -111 70 -111 29 0 42 5 50 19 15 28 13 50 -3
30 -15 -20 -39 -17 -66 10 -26 26 -27 58 -3 64 10 3 7 5 -10 6 -18 1 -31 -6
-38 -18z"/>
<path d="M12451 3275 c-1 -17 6 -40 14 -52 17 -24 81 -41 96 -26 6 6 -1 10
-21 10 -36 0 -67 26 -79 67 l-9 31 -1 -30z"/>
<path d="M7188 2893 c19 -7 14 -47 -10 -78 -18 -24 -26 -27 -60 -22 -38 5 -39
5 -22 -14 39 -44 123 -2 124 63 0 38 -10 58 -29 57 -10 0 -11 -2 -3 -6z"/>
<path d="M5483 2669 c24 -14 22 -70 -4 -98 -16 -16 -30 -22 -50 -19 -36 6 -38
-9 -3 -22 50 -20 114 33 114 95 0 18 -39 55 -58 55 -16 -1 -16 -1 1 -11z"/>
<path d="M13442 2740 c13 -20 67 -45 76 -35 3 3 1 5 -5 5 -6 0 -27 11 -46 25
-31 20 -35 21 -25 5z"/>
<path d="M10919 2297 c7 -9 21 -17 31 -17 20 0 34 -26 20 -35 -5 -3 -7 -13 -4
-23 5 -13 4 -14 -4 -3 -6 8 -18 11 -33 7 -20 -6 -21 -5 -6 4 19 12 23 30 6 30
-5 0 -7 -4 -4 -10 4 -6 -6 -10 -22 -10 -21 0 -24 3 -14 9 12 7 12 13 3 24 -7
7 -9 17 -5 20 3 4 0 7 -8 7 -42 0 -53 -70 -18 -114 41 -52 129 -27 129 37 0
34 -20 77 -36 77 -7 0 -21 3 -31 7 -16 6 -16 5 -4 -10z m-52 -49 c-3 -8 -6 -5
-6 6 -1 11 2 17 5 13 3 -3 4 -12 1 -19z"/>
<path d="M13519 2159 c-27 -52 18 -119 81 -118 l35 1 -30 9 c-52 15 -77 46
-73 90 4 45 3 47 -13 18z"/>
<path d="M5429 1977 c20 -52 -14 -107 -66 -107 -13 0 -23 -4 -23 -10 0 -14 33
-13 65 2 40 18 59 61 45 104 -6 19 -16 34 -21 34 -5 0 -5 -10 0 -23z"/>
<path d="M13613 1492 c-37 -23 -31 -108 9 -137 26 -18 84 -20 94 -3 5 8 0 9
-16 5 -35 -9 -84 46 -76 87 4 17 14 37 23 44 15 11 15 12 -3 12 -10 0 -24 -4
-31 -8z"/>
<path d="M5298 1310 c27 -11 45 -54 36 -84 -10 -32 -46 -58 -71 -53 -30 5 -30
-11 -1 -22 51 -19 118 36 118 96 0 38 -37 73 -76 72 -27 0 -28 -1 -6 -9z"/>
<path d="M10602 750 c-58 -54 -24 -150 53 -150 30 0 75 30 75 50 0 6 -9 1 -20
-10 -29 -29 -74 -26 -99 6 -37 48 -19 98 42 116 21 6 21 6 -4 7 -14 1 -35 -8
-47 -19z"/>
<path d="M11314 770 c-57 -23 -70 -92 -26 -140 37 -42 86 -44 119 -6 26 31 28
46 11 93 -7 20 -24 38 -44 48 -18 8 -34 15 -36 14 -1 0 -13 -4 -24 -9z"/>
<path d="M10009 437 c-40 -27 -59 -60 -59 -104 0 -79 57 -143 129 -143 70 0
112 46 119 127 4 44 0 59 -19 88 -41 59 -110 73 -170 32z"/>
<path d="M11981 744 c-12 -15 -21 -40 -21 -56 0 -40 48 -88 87 -87 l28 1 -32
9 c-37 11 -63 43 -63 77 0 26 17 63 34 74 8 6 8 8 -1 8 -6 0 -21 -12 -32 -26z"/>
<path d="M9485 428 c-32 -29 -38 -42 -42 -84 -9 -92 50 -161 132 -152 79 9
115 53 115 139 0 42 -5 55 -33 85 -28 31 -42 37 -84 41 -47 5 -54 3 -88 -29z"/>
<path d="M7326 113 c34 -6 58 -40 57 -78 -1 -19 3 -35 8 -35 5 0 9 17 9 38 0
45 -33 83 -71 81 -22 -2 -22 -2 -3 -6z"/>
<path d="M12044 19 l-29 -19 70 0 c72 0 79 12 18 29 -24 7 -37 5 -59 -10z"/>
<path d="M10620 15 c-11 -13 -4 -15 51 -15 58 1 62 2 45 15 -26 19 -80 19 -96
0z"/>
<path d="M11330 15 c-10 -12 -10 -15 3 -15 9 0 19 5 23 11 6 10 27 8 71 -7 16
-6 16 -5 -2 9 -25 21 -79 22 -95 2z"/>
</g>
</svg>
